G04 #@! TF.GenerationSoftware,KiCad,Pcbnew,(5.1.2)-2*
G04 #@! TF.CreationDate,2019-10-16T12:38:49+08:00*
G04 #@! TF.ProjectId,ESP32-Solar-Battery,45535033-322d-4536-9f6c-61722d426174,rev?*
G04 #@! TF.SameCoordinates,Original*
G04 #@! TF.FileFunction,Soldermask,Top*
G04 #@! TF.FilePolarity,Negative*
%FSLAX46Y46*%
G04 Gerber Fmt 4.6, Leading zero omitted, Abs format (unit mm)*
G04 Created by KiCad (PCBNEW (5.1.2)-2) date 2019-10-16 12:38:49*
%MOMM*%
%LPD*%
G04 APERTURE LIST*
%ADD10C,0.100000*%
G04 APERTURE END LIST*
D10*
G36*
X126389700Y-138353100D02*
G01*
X124587700Y-138353100D01*
X124587700Y-136551100D01*
X126389700Y-136551100D01*
X126389700Y-138353100D01*
X126389700Y-138353100D01*
G37*
G36*
X123059143Y-136557619D02*
G01*
X123125327Y-136564137D01*
X123295166Y-136615657D01*
X123451691Y-136699322D01*
X123487429Y-136728652D01*
X123588886Y-136811914D01*
X123672148Y-136913371D01*
X123701478Y-136949109D01*
X123785143Y-137105634D01*
X123836663Y-137275473D01*
X123854059Y-137452100D01*
X123836663Y-137628727D01*
X123785143Y-137798566D01*
X123701478Y-137955091D01*
X123672148Y-137990829D01*
X123588886Y-138092286D01*
X123487429Y-138175548D01*
X123451691Y-138204878D01*
X123295166Y-138288543D01*
X123125327Y-138340063D01*
X123059143Y-138346581D01*
X122992960Y-138353100D01*
X122904440Y-138353100D01*
X122838257Y-138346581D01*
X122772073Y-138340063D01*
X122602234Y-138288543D01*
X122445709Y-138204878D01*
X122409971Y-138175548D01*
X122308514Y-138092286D01*
X122225252Y-137990829D01*
X122195922Y-137955091D01*
X122112257Y-137798566D01*
X122060737Y-137628727D01*
X122043341Y-137452100D01*
X122060737Y-137275473D01*
X122112257Y-137105634D01*
X122195922Y-136949109D01*
X122225252Y-136913371D01*
X122308514Y-136811914D01*
X122409971Y-136728652D01*
X122445709Y-136699322D01*
X122602234Y-136615657D01*
X122772073Y-136564137D01*
X122838257Y-136557619D01*
X122904440Y-136551100D01*
X122992960Y-136551100D01*
X123059143Y-136557619D01*
X123059143Y-136557619D01*
G37*
G36*
X124306791Y-134100625D02*
G01*
X124340769Y-134110933D01*
X124372090Y-134127674D01*
X124399539Y-134150201D01*
X124422066Y-134177650D01*
X124438807Y-134208971D01*
X124449115Y-134242949D01*
X124453200Y-134284430D01*
X124453200Y-134960650D01*
X124449115Y-135002131D01*
X124438807Y-135036109D01*
X124422066Y-135067430D01*
X124399539Y-135094879D01*
X124372090Y-135117406D01*
X124340769Y-135134147D01*
X124306791Y-135144455D01*
X124265310Y-135148540D01*
X123664090Y-135148540D01*
X123622609Y-135144455D01*
X123588631Y-135134147D01*
X123557310Y-135117406D01*
X123529861Y-135094879D01*
X123507334Y-135067430D01*
X123490593Y-135036109D01*
X123480285Y-135002131D01*
X123476200Y-134960650D01*
X123476200Y-134284430D01*
X123480285Y-134242949D01*
X123490593Y-134208971D01*
X123507334Y-134177650D01*
X123529861Y-134150201D01*
X123557310Y-134127674D01*
X123588631Y-134110933D01*
X123622609Y-134100625D01*
X123664090Y-134096540D01*
X124265310Y-134096540D01*
X124306791Y-134100625D01*
X124306791Y-134100625D01*
G37*
G36*
X122731791Y-134100625D02*
G01*
X122765769Y-134110933D01*
X122797090Y-134127674D01*
X122824539Y-134150201D01*
X122847066Y-134177650D01*
X122863807Y-134208971D01*
X122874115Y-134242949D01*
X122878200Y-134284430D01*
X122878200Y-134960650D01*
X122874115Y-135002131D01*
X122863807Y-135036109D01*
X122847066Y-135067430D01*
X122824539Y-135094879D01*
X122797090Y-135117406D01*
X122765769Y-135134147D01*
X122731791Y-135144455D01*
X122690310Y-135148540D01*
X122089090Y-135148540D01*
X122047609Y-135144455D01*
X122013631Y-135134147D01*
X121982310Y-135117406D01*
X121954861Y-135094879D01*
X121932334Y-135067430D01*
X121915593Y-135036109D01*
X121905285Y-135002131D01*
X121901200Y-134960650D01*
X121901200Y-134284430D01*
X121905285Y-134242949D01*
X121915593Y-134208971D01*
X121932334Y-134177650D01*
X121954861Y-134150201D01*
X121982310Y-134127674D01*
X122013631Y-134110933D01*
X122047609Y-134100625D01*
X122089090Y-134096540D01*
X122690310Y-134096540D01*
X122731791Y-134100625D01*
X122731791Y-134100625D01*
G37*
G36*
X127451511Y-134100625D02*
G01*
X127485489Y-134110933D01*
X127516810Y-134127674D01*
X127544259Y-134150201D01*
X127566786Y-134177650D01*
X127583527Y-134208971D01*
X127593835Y-134242949D01*
X127597920Y-134284430D01*
X127597920Y-134960650D01*
X127593835Y-135002131D01*
X127583527Y-135036109D01*
X127566786Y-135067430D01*
X127544259Y-135094879D01*
X127516810Y-135117406D01*
X127485489Y-135134147D01*
X127451511Y-135144455D01*
X127410030Y-135148540D01*
X126808810Y-135148540D01*
X126767329Y-135144455D01*
X126733351Y-135134147D01*
X126702030Y-135117406D01*
X126674581Y-135094879D01*
X126652054Y-135067430D01*
X126635313Y-135036109D01*
X126625005Y-135002131D01*
X126620920Y-134960650D01*
X126620920Y-134284430D01*
X126625005Y-134242949D01*
X126635313Y-134208971D01*
X126652054Y-134177650D01*
X126674581Y-134150201D01*
X126702030Y-134127674D01*
X126733351Y-134110933D01*
X126767329Y-134100625D01*
X126808810Y-134096540D01*
X127410030Y-134096540D01*
X127451511Y-134100625D01*
X127451511Y-134100625D01*
G37*
G36*
X125876511Y-134100625D02*
G01*
X125910489Y-134110933D01*
X125941810Y-134127674D01*
X125969259Y-134150201D01*
X125991786Y-134177650D01*
X126008527Y-134208971D01*
X126018835Y-134242949D01*
X126022920Y-134284430D01*
X126022920Y-134960650D01*
X126018835Y-135002131D01*
X126008527Y-135036109D01*
X125991786Y-135067430D01*
X125969259Y-135094879D01*
X125941810Y-135117406D01*
X125910489Y-135134147D01*
X125876511Y-135144455D01*
X125835030Y-135148540D01*
X125233810Y-135148540D01*
X125192329Y-135144455D01*
X125158351Y-135134147D01*
X125127030Y-135117406D01*
X125099581Y-135094879D01*
X125077054Y-135067430D01*
X125060313Y-135036109D01*
X125050005Y-135002131D01*
X125045920Y-134960650D01*
X125045920Y-134284430D01*
X125050005Y-134242949D01*
X125060313Y-134208971D01*
X125077054Y-134177650D01*
X125099581Y-134150201D01*
X125127030Y-134127674D01*
X125158351Y-134110933D01*
X125192329Y-134100625D01*
X125233810Y-134096540D01*
X125835030Y-134096540D01*
X125876511Y-134100625D01*
X125876511Y-134100625D01*
G37*
G36*
X129076311Y-134173685D02*
G01*
X129110289Y-134183993D01*
X129141610Y-134200734D01*
X129169059Y-134223261D01*
X129191586Y-134250710D01*
X129208327Y-134282031D01*
X129218635Y-134316009D01*
X129222720Y-134357490D01*
X129222720Y-134958710D01*
X129218635Y-135000191D01*
X129208327Y-135034169D01*
X129191586Y-135065490D01*
X129169059Y-135092939D01*
X129141610Y-135115466D01*
X129110289Y-135132207D01*
X129076311Y-135142515D01*
X129034830Y-135146600D01*
X128358610Y-135146600D01*
X128317129Y-135142515D01*
X128283151Y-135132207D01*
X128251830Y-135115466D01*
X128224381Y-135092939D01*
X128201854Y-135065490D01*
X128185113Y-135034169D01*
X128174805Y-135000191D01*
X128170720Y-134958710D01*
X128170720Y-134357490D01*
X128174805Y-134316009D01*
X128185113Y-134282031D01*
X128201854Y-134250710D01*
X128224381Y-134223261D01*
X128251830Y-134200734D01*
X128283151Y-134183993D01*
X128317129Y-134173685D01*
X128358610Y-134169600D01*
X129034830Y-134169600D01*
X129076311Y-134173685D01*
X129076311Y-134173685D01*
G37*
G36*
X110374511Y-131635121D02*
G01*
X110403966Y-131644056D01*
X110431103Y-131658562D01*
X110454894Y-131678086D01*
X110474418Y-131701877D01*
X110488924Y-131729014D01*
X110497859Y-131758469D01*
X110501480Y-131795234D01*
X110501480Y-134269766D01*
X110497859Y-134306531D01*
X110488924Y-134335986D01*
X110474418Y-134363123D01*
X110454894Y-134386914D01*
X110431103Y-134406438D01*
X110403966Y-134420944D01*
X110374511Y-134429879D01*
X110337746Y-134433500D01*
X107863214Y-134433500D01*
X107826449Y-134429879D01*
X107796994Y-134420944D01*
X107769857Y-134406438D01*
X107746066Y-134386914D01*
X107726542Y-134363123D01*
X107712036Y-134335986D01*
X107703101Y-134306531D01*
X107699480Y-134269766D01*
X107699480Y-131795234D01*
X107703101Y-131758469D01*
X107712036Y-131729014D01*
X107726542Y-131701877D01*
X107746066Y-131678086D01*
X107769857Y-131658562D01*
X107796994Y-131644056D01*
X107826449Y-131635121D01*
X107863214Y-131631500D01*
X110337746Y-131631500D01*
X110374511Y-131635121D01*
X110374511Y-131635121D01*
G37*
G36*
X113334518Y-131658562D02*
G01*
X113469137Y-131685339D01*
X113574577Y-131729014D01*
X113724101Y-131790949D01*
X113741749Y-131802741D01*
X113953566Y-131944272D01*
X114148708Y-132139414D01*
X114248617Y-132288940D01*
X114302031Y-132368879D01*
X114363895Y-132518233D01*
X114406717Y-132621612D01*
X114407641Y-132623844D01*
X114442605Y-132799619D01*
X114461480Y-132894514D01*
X114461480Y-133170486D01*
X114407641Y-133441157D01*
X114364019Y-133546468D01*
X114302031Y-133696121D01*
X114302030Y-133696122D01*
X114148708Y-133925586D01*
X113953566Y-134120728D01*
X113821500Y-134208971D01*
X113724101Y-134274051D01*
X113645687Y-134306531D01*
X113469137Y-134379661D01*
X113378913Y-134397607D01*
X113198468Y-134433500D01*
X112922492Y-134433500D01*
X112742047Y-134397607D01*
X112651823Y-134379661D01*
X112475273Y-134306531D01*
X112396859Y-134274051D01*
X112299460Y-134208971D01*
X112167394Y-134120728D01*
X111972252Y-133925586D01*
X111818930Y-133696122D01*
X111818929Y-133696121D01*
X111756941Y-133546468D01*
X111713319Y-133441157D01*
X111659480Y-133170486D01*
X111659480Y-132894514D01*
X111678356Y-132799619D01*
X111713319Y-132623844D01*
X111714244Y-132621612D01*
X111757065Y-132518233D01*
X111818929Y-132368879D01*
X111872343Y-132288940D01*
X111972252Y-132139414D01*
X112167394Y-131944272D01*
X112379211Y-131802741D01*
X112396859Y-131790949D01*
X112546383Y-131729014D01*
X112651823Y-131685339D01*
X112786442Y-131658562D01*
X112922492Y-131631500D01*
X113198468Y-131631500D01*
X113334518Y-131658562D01*
X113334518Y-131658562D01*
G37*
G36*
X136846531Y-131259201D02*
G01*
X136875986Y-131268136D01*
X136903123Y-131282642D01*
X136926914Y-131302166D01*
X136946438Y-131325957D01*
X136960944Y-131353094D01*
X136969879Y-131382549D01*
X136973500Y-131419314D01*
X136973500Y-133893846D01*
X136969879Y-133930611D01*
X136960944Y-133960066D01*
X136946438Y-133987203D01*
X136926914Y-134010994D01*
X136903123Y-134030518D01*
X136875986Y-134045024D01*
X136846531Y-134053959D01*
X136809766Y-134057580D01*
X134335234Y-134057580D01*
X134298469Y-134053959D01*
X134269014Y-134045024D01*
X134241877Y-134030518D01*
X134218086Y-134010994D01*
X134198562Y-133987203D01*
X134184056Y-133960066D01*
X134175121Y-133930611D01*
X134171500Y-133893846D01*
X134171500Y-131419314D01*
X134175121Y-131382549D01*
X134184056Y-131353094D01*
X134198562Y-131325957D01*
X134218086Y-131302166D01*
X134241877Y-131282642D01*
X134269014Y-131268136D01*
X134298469Y-131259201D01*
X134335234Y-131255580D01*
X136809766Y-131255580D01*
X136846531Y-131259201D01*
X136846531Y-131259201D01*
G37*
G36*
X139806538Y-131282642D02*
G01*
X139941157Y-131309419D01*
X140046597Y-131353094D01*
X140196121Y-131415029D01*
X140270025Y-131464410D01*
X140425586Y-131568352D01*
X140620728Y-131763494D01*
X140723175Y-131916817D01*
X140774051Y-131992959D01*
X140879661Y-132247924D01*
X140933500Y-132518592D01*
X140933500Y-132794568D01*
X140879661Y-133065236D01*
X140774051Y-133320201D01*
X140774050Y-133320202D01*
X140620728Y-133549666D01*
X140425586Y-133744808D01*
X140345776Y-133798135D01*
X140196121Y-133898131D01*
X140117707Y-133930611D01*
X139941157Y-134003741D01*
X139850933Y-134021687D01*
X139670488Y-134057580D01*
X139394512Y-134057580D01*
X139214067Y-134021687D01*
X139123843Y-134003741D01*
X138947293Y-133930611D01*
X138868879Y-133898131D01*
X138719224Y-133798135D01*
X138639414Y-133744808D01*
X138444272Y-133549666D01*
X138290950Y-133320202D01*
X138290949Y-133320201D01*
X138185339Y-133065236D01*
X138131500Y-132794568D01*
X138131500Y-132518592D01*
X138185339Y-132247924D01*
X138290949Y-131992959D01*
X138341825Y-131916817D01*
X138444272Y-131763494D01*
X138639414Y-131568352D01*
X138794975Y-131464410D01*
X138868879Y-131415029D01*
X139018403Y-131353094D01*
X139123843Y-131309419D01*
X139258462Y-131282642D01*
X139394512Y-131255580D01*
X139670488Y-131255580D01*
X139806538Y-131282642D01*
X139806538Y-131282642D01*
G37*
G36*
X119353591Y-132607105D02*
G01*
X119387569Y-132617413D01*
X119418890Y-132634154D01*
X119446339Y-132656681D01*
X119468866Y-132684130D01*
X119485607Y-132715451D01*
X119495915Y-132749429D01*
X119500000Y-132790910D01*
X119500000Y-133467130D01*
X119495915Y-133508611D01*
X119485607Y-133542589D01*
X119468866Y-133573910D01*
X119446339Y-133601359D01*
X119418890Y-133623886D01*
X119387569Y-133640627D01*
X119353591Y-133650935D01*
X119312110Y-133655020D01*
X118710890Y-133655020D01*
X118669409Y-133650935D01*
X118635431Y-133640627D01*
X118604110Y-133623886D01*
X118576661Y-133601359D01*
X118554134Y-133573910D01*
X118537393Y-133542589D01*
X118527085Y-133508611D01*
X118523000Y-133467130D01*
X118523000Y-132790910D01*
X118527085Y-132749429D01*
X118537393Y-132715451D01*
X118554134Y-132684130D01*
X118576661Y-132656681D01*
X118604110Y-132634154D01*
X118635431Y-132617413D01*
X118669409Y-132607105D01*
X118710890Y-132603020D01*
X119312110Y-132603020D01*
X119353591Y-132607105D01*
X119353591Y-132607105D01*
G37*
G36*
X120928591Y-132607105D02*
G01*
X120962569Y-132617413D01*
X120993890Y-132634154D01*
X121021339Y-132656681D01*
X121043866Y-132684130D01*
X121060607Y-132715451D01*
X121070915Y-132749429D01*
X121075000Y-132790910D01*
X121075000Y-133467130D01*
X121070915Y-133508611D01*
X121060607Y-133542589D01*
X121043866Y-133573910D01*
X121021339Y-133601359D01*
X120993890Y-133623886D01*
X120962569Y-133640627D01*
X120928591Y-133650935D01*
X120887110Y-133655020D01*
X120285890Y-133655020D01*
X120244409Y-133650935D01*
X120210431Y-133640627D01*
X120179110Y-133623886D01*
X120151661Y-133601359D01*
X120129134Y-133573910D01*
X120112393Y-133542589D01*
X120102085Y-133508611D01*
X120098000Y-133467130D01*
X120098000Y-132790910D01*
X120102085Y-132749429D01*
X120112393Y-132715451D01*
X120129134Y-132684130D01*
X120151661Y-132656681D01*
X120179110Y-132634154D01*
X120210431Y-132617413D01*
X120244409Y-132607105D01*
X120285890Y-132603020D01*
X120887110Y-132603020D01*
X120928591Y-132607105D01*
X120928591Y-132607105D01*
G37*
G36*
X122792351Y-132601425D02*
G01*
X122826329Y-132611733D01*
X122857650Y-132628474D01*
X122885099Y-132651001D01*
X122907626Y-132678450D01*
X122924367Y-132709771D01*
X122934675Y-132743749D01*
X122938760Y-132785230D01*
X122938760Y-133386450D01*
X122934675Y-133427931D01*
X122924367Y-133461909D01*
X122907626Y-133493230D01*
X122885099Y-133520679D01*
X122857650Y-133543206D01*
X122826329Y-133559947D01*
X122792351Y-133570255D01*
X122750870Y-133574340D01*
X122074650Y-133574340D01*
X122033169Y-133570255D01*
X121999191Y-133559947D01*
X121967870Y-133543206D01*
X121940421Y-133520679D01*
X121917894Y-133493230D01*
X121901153Y-133461909D01*
X121890845Y-133427931D01*
X121886760Y-133386450D01*
X121886760Y-132785230D01*
X121890845Y-132743749D01*
X121901153Y-132709771D01*
X121917894Y-132678450D01*
X121940421Y-132651001D01*
X121967870Y-132628474D01*
X121999191Y-132611733D01*
X122033169Y-132601425D01*
X122074650Y-132597340D01*
X122750870Y-132597340D01*
X122792351Y-132601425D01*
X122792351Y-132601425D01*
G37*
G36*
X129076311Y-132598685D02*
G01*
X129110289Y-132608993D01*
X129141610Y-132625734D01*
X129169059Y-132648261D01*
X129191586Y-132675710D01*
X129208327Y-132707031D01*
X129218635Y-132741009D01*
X129222720Y-132782490D01*
X129222720Y-133383710D01*
X129218635Y-133425191D01*
X129208327Y-133459169D01*
X129191586Y-133490490D01*
X129169059Y-133517939D01*
X129141610Y-133540466D01*
X129110289Y-133557207D01*
X129076311Y-133567515D01*
X129034830Y-133571600D01*
X128358610Y-133571600D01*
X128317129Y-133567515D01*
X128283151Y-133557207D01*
X128251830Y-133540466D01*
X128224381Y-133517939D01*
X128201854Y-133490490D01*
X128185113Y-133459169D01*
X128174805Y-133425191D01*
X128170720Y-133383710D01*
X128170720Y-132782490D01*
X128174805Y-132741009D01*
X128185113Y-132707031D01*
X128201854Y-132675710D01*
X128224381Y-132648261D01*
X128251830Y-132625734D01*
X128283151Y-132608993D01*
X128317129Y-132598685D01*
X128358610Y-132594600D01*
X129034830Y-132594600D01*
X129076311Y-132598685D01*
X129076311Y-132598685D01*
G37*
G36*
X126873080Y-133450940D02*
G01*
X124221080Y-133450940D01*
X124221080Y-132288940D01*
X126873080Y-132288940D01*
X126873080Y-133450940D01*
X126873080Y-133450940D01*
G37*
G36*
X122792351Y-131026425D02*
G01*
X122826329Y-131036733D01*
X122857650Y-131053474D01*
X122885099Y-131076001D01*
X122907626Y-131103450D01*
X122924367Y-131134771D01*
X122934675Y-131168749D01*
X122938760Y-131210230D01*
X122938760Y-131811450D01*
X122934675Y-131852931D01*
X122924367Y-131886909D01*
X122907626Y-131918230D01*
X122885099Y-131945679D01*
X122857650Y-131968206D01*
X122826329Y-131984947D01*
X122792351Y-131995255D01*
X122750870Y-131999340D01*
X122074650Y-131999340D01*
X122033169Y-131995255D01*
X121999191Y-131984947D01*
X121967870Y-131968206D01*
X121940421Y-131945679D01*
X121917894Y-131918230D01*
X121901153Y-131886909D01*
X121890845Y-131852931D01*
X121886760Y-131811450D01*
X121886760Y-131210230D01*
X121890845Y-131168749D01*
X121901153Y-131134771D01*
X121917894Y-131103450D01*
X121940421Y-131076001D01*
X121967870Y-131053474D01*
X121999191Y-131036733D01*
X122033169Y-131026425D01*
X122074650Y-131022340D01*
X122750870Y-131022340D01*
X122792351Y-131026425D01*
X122792351Y-131026425D01*
G37*
G36*
X129347720Y-131301000D02*
G01*
X128045720Y-131301000D01*
X128045720Y-130299000D01*
X129347720Y-130299000D01*
X129347720Y-131301000D01*
X129347720Y-131301000D01*
G37*
G36*
X126873080Y-131250940D02*
G01*
X126121080Y-131250940D01*
X126121080Y-130088940D01*
X126873080Y-130088940D01*
X126873080Y-131250940D01*
X126873080Y-131250940D01*
G37*
G36*
X124973080Y-131250940D02*
G01*
X124221080Y-131250940D01*
X124221080Y-130088940D01*
X124973080Y-130088940D01*
X124973080Y-131250940D01*
X124973080Y-131250940D01*
G37*
G36*
X123364171Y-128378085D02*
G01*
X123398149Y-128388393D01*
X123429470Y-128405134D01*
X123456919Y-128427661D01*
X123479446Y-128455110D01*
X123496187Y-128486431D01*
X123506495Y-128520409D01*
X123510580Y-128561890D01*
X123510580Y-129238110D01*
X123506495Y-129279591D01*
X123496187Y-129313569D01*
X123479446Y-129344890D01*
X123456919Y-129372339D01*
X123429470Y-129394866D01*
X123398149Y-129411607D01*
X123364171Y-129421915D01*
X123322690Y-129426000D01*
X122721470Y-129426000D01*
X122679989Y-129421915D01*
X122646011Y-129411607D01*
X122614690Y-129394866D01*
X122587241Y-129372339D01*
X122564714Y-129344890D01*
X122547973Y-129313569D01*
X122537665Y-129279591D01*
X122533580Y-129238110D01*
X122533580Y-128561890D01*
X122537665Y-128520409D01*
X122547973Y-128486431D01*
X122564714Y-128455110D01*
X122587241Y-128427661D01*
X122614690Y-128405134D01*
X122646011Y-128388393D01*
X122679989Y-128378085D01*
X122721470Y-128374000D01*
X123322690Y-128374000D01*
X123364171Y-128378085D01*
X123364171Y-128378085D01*
G37*
G36*
X124939171Y-128378085D02*
G01*
X124973149Y-128388393D01*
X125004470Y-128405134D01*
X125031919Y-128427661D01*
X125054446Y-128455110D01*
X125071187Y-128486431D01*
X125081495Y-128520409D01*
X125085580Y-128561890D01*
X125085580Y-129238110D01*
X125081495Y-129279591D01*
X125071187Y-129313569D01*
X125054446Y-129344890D01*
X125031919Y-129372339D01*
X125004470Y-129394866D01*
X124973149Y-129411607D01*
X124939171Y-129421915D01*
X124897690Y-129426000D01*
X124296470Y-129426000D01*
X124254989Y-129421915D01*
X124221011Y-129411607D01*
X124189690Y-129394866D01*
X124162241Y-129372339D01*
X124139714Y-129344890D01*
X124122973Y-129313569D01*
X124112665Y-129279591D01*
X124108580Y-129238110D01*
X124108580Y-128561890D01*
X124112665Y-128520409D01*
X124122973Y-128486431D01*
X124139714Y-128455110D01*
X124162241Y-128427661D01*
X124189690Y-128405134D01*
X124221011Y-128388393D01*
X124254989Y-128378085D01*
X124296470Y-128374000D01*
X124897690Y-128374000D01*
X124939171Y-128378085D01*
X124939171Y-128378085D01*
G37*
G36*
X115267091Y-127070625D02*
G01*
X115301069Y-127080933D01*
X115332390Y-127097674D01*
X115359839Y-127120201D01*
X115382366Y-127147650D01*
X115399107Y-127178971D01*
X115409415Y-127212949D01*
X115413500Y-127254430D01*
X115413500Y-127930650D01*
X115409415Y-127972131D01*
X115399107Y-128006109D01*
X115382366Y-128037430D01*
X115359839Y-128064879D01*
X115332390Y-128087406D01*
X115301069Y-128104147D01*
X115267091Y-128114455D01*
X115225610Y-128118540D01*
X114624390Y-128118540D01*
X114582909Y-128114455D01*
X114548931Y-128104147D01*
X114517610Y-128087406D01*
X114490161Y-128064879D01*
X114467634Y-128037430D01*
X114450893Y-128006109D01*
X114440585Y-127972131D01*
X114436500Y-127930650D01*
X114436500Y-127254430D01*
X114440585Y-127212949D01*
X114450893Y-127178971D01*
X114467634Y-127147650D01*
X114490161Y-127120201D01*
X114517610Y-127097674D01*
X114548931Y-127080933D01*
X114582909Y-127070625D01*
X114624390Y-127066540D01*
X115225610Y-127066540D01*
X115267091Y-127070625D01*
X115267091Y-127070625D01*
G37*
G36*
X116842091Y-127070625D02*
G01*
X116876069Y-127080933D01*
X116907390Y-127097674D01*
X116934839Y-127120201D01*
X116957366Y-127147650D01*
X116974107Y-127178971D01*
X116984415Y-127212949D01*
X116988500Y-127254430D01*
X116988500Y-127930650D01*
X116984415Y-127972131D01*
X116974107Y-128006109D01*
X116957366Y-128037430D01*
X116934839Y-128064879D01*
X116907390Y-128087406D01*
X116876069Y-128104147D01*
X116842091Y-128114455D01*
X116800610Y-128118540D01*
X116199390Y-128118540D01*
X116157909Y-128114455D01*
X116123931Y-128104147D01*
X116092610Y-128087406D01*
X116065161Y-128064879D01*
X116042634Y-128037430D01*
X116025893Y-128006109D01*
X116015585Y-127972131D01*
X116011500Y-127930650D01*
X116011500Y-127254430D01*
X116015585Y-127212949D01*
X116025893Y-127178971D01*
X116042634Y-127147650D01*
X116065161Y-127120201D01*
X116092610Y-127097674D01*
X116123931Y-127080933D01*
X116157909Y-127070625D01*
X116199390Y-127066540D01*
X116800610Y-127066540D01*
X116842091Y-127070625D01*
X116842091Y-127070625D01*
G37*
G36*
X108467091Y-126978085D02*
G01*
X108501069Y-126988393D01*
X108532390Y-127005134D01*
X108559839Y-127027661D01*
X108582366Y-127055110D01*
X108599107Y-127086431D01*
X108609415Y-127120409D01*
X108613500Y-127161890D01*
X108613500Y-127838110D01*
X108609415Y-127879591D01*
X108599107Y-127913569D01*
X108582366Y-127944890D01*
X108559839Y-127972339D01*
X108532390Y-127994866D01*
X108501069Y-128011607D01*
X108467091Y-128021915D01*
X108425610Y-128026000D01*
X107824390Y-128026000D01*
X107782909Y-128021915D01*
X107748931Y-128011607D01*
X107717610Y-127994866D01*
X107690161Y-127972339D01*
X107667634Y-127944890D01*
X107650893Y-127913569D01*
X107640585Y-127879591D01*
X107636500Y-127838110D01*
X107636500Y-127161890D01*
X107640585Y-127120409D01*
X107650893Y-127086431D01*
X107667634Y-127055110D01*
X107690161Y-127027661D01*
X107717610Y-127005134D01*
X107748931Y-126988393D01*
X107782909Y-126978085D01*
X107824390Y-126974000D01*
X108425610Y-126974000D01*
X108467091Y-126978085D01*
X108467091Y-126978085D01*
G37*
G36*
X110042091Y-126978085D02*
G01*
X110076069Y-126988393D01*
X110107390Y-127005134D01*
X110134839Y-127027661D01*
X110157366Y-127055110D01*
X110174107Y-127086431D01*
X110184415Y-127120409D01*
X110188500Y-127161890D01*
X110188500Y-127838110D01*
X110184415Y-127879591D01*
X110174107Y-127913569D01*
X110157366Y-127944890D01*
X110134839Y-127972339D01*
X110107390Y-127994866D01*
X110076069Y-128011607D01*
X110042091Y-128021915D01*
X110000610Y-128026000D01*
X109399390Y-128026000D01*
X109357909Y-128021915D01*
X109323931Y-128011607D01*
X109292610Y-127994866D01*
X109265161Y-127972339D01*
X109242634Y-127944890D01*
X109225893Y-127913569D01*
X109215585Y-127879591D01*
X109211500Y-127838110D01*
X109211500Y-127161890D01*
X109215585Y-127120409D01*
X109225893Y-127086431D01*
X109242634Y-127055110D01*
X109265161Y-127027661D01*
X109292610Y-127005134D01*
X109323931Y-126988393D01*
X109357909Y-126978085D01*
X109399390Y-126974000D01*
X110000610Y-126974000D01*
X110042091Y-126978085D01*
X110042091Y-126978085D01*
G37*
G36*
X129347720Y-128001000D02*
G01*
X128045720Y-128001000D01*
X128045720Y-126999000D01*
X129347720Y-126999000D01*
X129347720Y-128001000D01*
X129347720Y-128001000D01*
G37*
G36*
X119879591Y-126590585D02*
G01*
X119913569Y-126600893D01*
X119944890Y-126617634D01*
X119972339Y-126640161D01*
X119994866Y-126667610D01*
X120011607Y-126698931D01*
X120021915Y-126732909D01*
X120026000Y-126774390D01*
X120026000Y-127375610D01*
X120021915Y-127417091D01*
X120011607Y-127451069D01*
X119994866Y-127482390D01*
X119972339Y-127509839D01*
X119944890Y-127532366D01*
X119913569Y-127549107D01*
X119879591Y-127559415D01*
X119838110Y-127563500D01*
X119161890Y-127563500D01*
X119120409Y-127559415D01*
X119086431Y-127549107D01*
X119055110Y-127532366D01*
X119027661Y-127509839D01*
X119005134Y-127482390D01*
X118988393Y-127451069D01*
X118978085Y-127417091D01*
X118974000Y-127375610D01*
X118974000Y-126774390D01*
X118978085Y-126732909D01*
X118988393Y-126698931D01*
X119005134Y-126667610D01*
X119027661Y-126640161D01*
X119055110Y-126617634D01*
X119086431Y-126600893D01*
X119120409Y-126590585D01*
X119161890Y-126586500D01*
X119838110Y-126586500D01*
X119879591Y-126590585D01*
X119879591Y-126590585D01*
G37*
G36*
X138592091Y-126478085D02*
G01*
X138626069Y-126488393D01*
X138657390Y-126505134D01*
X138684839Y-126527661D01*
X138707366Y-126555110D01*
X138724107Y-126586431D01*
X138734415Y-126620409D01*
X138738500Y-126661890D01*
X138738500Y-127338110D01*
X138734415Y-127379591D01*
X138724107Y-127413569D01*
X138707366Y-127444890D01*
X138684839Y-127472339D01*
X138657390Y-127494866D01*
X138626069Y-127511607D01*
X138592091Y-127521915D01*
X138550610Y-127526000D01*
X137949390Y-127526000D01*
X137907909Y-127521915D01*
X137873931Y-127511607D01*
X137842610Y-127494866D01*
X137815161Y-127472339D01*
X137792634Y-127444890D01*
X137775893Y-127413569D01*
X137765585Y-127379591D01*
X137761500Y-127338110D01*
X137761500Y-126661890D01*
X137765585Y-126620409D01*
X137775893Y-126586431D01*
X137792634Y-126555110D01*
X137815161Y-126527661D01*
X137842610Y-126505134D01*
X137873931Y-126488393D01*
X137907909Y-126478085D01*
X137949390Y-126474000D01*
X138550610Y-126474000D01*
X138592091Y-126478085D01*
X138592091Y-126478085D01*
G37*
G36*
X137017091Y-126478085D02*
G01*
X137051069Y-126488393D01*
X137082390Y-126505134D01*
X137109839Y-126527661D01*
X137132366Y-126555110D01*
X137149107Y-126586431D01*
X137159415Y-126620409D01*
X137163500Y-126661890D01*
X137163500Y-127338110D01*
X137159415Y-127379591D01*
X137149107Y-127413569D01*
X137132366Y-127444890D01*
X137109839Y-127472339D01*
X137082390Y-127494866D01*
X137051069Y-127511607D01*
X137017091Y-127521915D01*
X136975610Y-127526000D01*
X136374390Y-127526000D01*
X136332909Y-127521915D01*
X136298931Y-127511607D01*
X136267610Y-127494866D01*
X136240161Y-127472339D01*
X136217634Y-127444890D01*
X136200893Y-127413569D01*
X136190585Y-127379591D01*
X136186500Y-127338110D01*
X136186500Y-126661890D01*
X136190585Y-126620409D01*
X136200893Y-126586431D01*
X136217634Y-126555110D01*
X136240161Y-126527661D01*
X136267610Y-126505134D01*
X136298931Y-126488393D01*
X136332909Y-126478085D01*
X136374390Y-126474000D01*
X136975610Y-126474000D01*
X137017091Y-126478085D01*
X137017091Y-126478085D01*
G37*
G36*
X123769911Y-125815585D02*
G01*
X123803889Y-125825893D01*
X123835210Y-125842634D01*
X123862659Y-125865161D01*
X123885186Y-125892610D01*
X123901927Y-125923931D01*
X123912235Y-125957909D01*
X123916320Y-125999390D01*
X123916320Y-126600610D01*
X123912235Y-126642091D01*
X123901927Y-126676069D01*
X123885186Y-126707390D01*
X123862659Y-126734839D01*
X123835210Y-126757366D01*
X123803889Y-126774107D01*
X123769911Y-126784415D01*
X123728430Y-126788500D01*
X123052210Y-126788500D01*
X123010729Y-126784415D01*
X122976751Y-126774107D01*
X122945430Y-126757366D01*
X122917981Y-126734839D01*
X122895454Y-126707390D01*
X122878713Y-126676069D01*
X122868405Y-126642091D01*
X122864320Y-126600610D01*
X122864320Y-125999390D01*
X122868405Y-125957909D01*
X122878713Y-125923931D01*
X122895454Y-125892610D01*
X122917981Y-125865161D01*
X122945430Y-125842634D01*
X122976751Y-125825893D01*
X123010729Y-125815585D01*
X123052210Y-125811500D01*
X123728430Y-125811500D01*
X123769911Y-125815585D01*
X123769911Y-125815585D01*
G37*
G36*
X115267091Y-125228085D02*
G01*
X115301069Y-125238393D01*
X115332390Y-125255134D01*
X115359839Y-125277661D01*
X115382366Y-125305110D01*
X115399107Y-125336431D01*
X115409415Y-125370409D01*
X115413500Y-125411890D01*
X115413500Y-126088110D01*
X115409415Y-126129591D01*
X115399107Y-126163569D01*
X115382366Y-126194890D01*
X115359839Y-126222339D01*
X115332390Y-126244866D01*
X115301069Y-126261607D01*
X115267091Y-126271915D01*
X115225610Y-126276000D01*
X114624390Y-126276000D01*
X114582909Y-126271915D01*
X114548931Y-126261607D01*
X114517610Y-126244866D01*
X114490161Y-126222339D01*
X114467634Y-126194890D01*
X114450893Y-126163569D01*
X114440585Y-126129591D01*
X114436500Y-126088110D01*
X114436500Y-125411890D01*
X114440585Y-125370409D01*
X114450893Y-125336431D01*
X114467634Y-125305110D01*
X114490161Y-125277661D01*
X114517610Y-125255134D01*
X114548931Y-125238393D01*
X114582909Y-125228085D01*
X114624390Y-125224000D01*
X115225610Y-125224000D01*
X115267091Y-125228085D01*
X115267091Y-125228085D01*
G37*
G36*
X110042091Y-125228085D02*
G01*
X110076069Y-125238393D01*
X110107390Y-125255134D01*
X110134839Y-125277661D01*
X110157366Y-125305110D01*
X110174107Y-125336431D01*
X110184415Y-125370409D01*
X110188500Y-125411890D01*
X110188500Y-126088110D01*
X110184415Y-126129591D01*
X110174107Y-126163569D01*
X110157366Y-126194890D01*
X110134839Y-126222339D01*
X110107390Y-126244866D01*
X110076069Y-126261607D01*
X110042091Y-126271915D01*
X110000610Y-126276000D01*
X109399390Y-126276000D01*
X109357909Y-126271915D01*
X109323931Y-126261607D01*
X109292610Y-126244866D01*
X109265161Y-126222339D01*
X109242634Y-126194890D01*
X109225893Y-126163569D01*
X109215585Y-126129591D01*
X109211500Y-126088110D01*
X109211500Y-125411890D01*
X109215585Y-125370409D01*
X109225893Y-125336431D01*
X109242634Y-125305110D01*
X109265161Y-125277661D01*
X109292610Y-125255134D01*
X109323931Y-125238393D01*
X109357909Y-125228085D01*
X109399390Y-125224000D01*
X110000610Y-125224000D01*
X110042091Y-125228085D01*
X110042091Y-125228085D01*
G37*
G36*
X116842091Y-125228085D02*
G01*
X116876069Y-125238393D01*
X116907390Y-125255134D01*
X116934839Y-125277661D01*
X116957366Y-125305110D01*
X116974107Y-125336431D01*
X116984415Y-125370409D01*
X116988500Y-125411890D01*
X116988500Y-126088110D01*
X116984415Y-126129591D01*
X116974107Y-126163569D01*
X116957366Y-126194890D01*
X116934839Y-126222339D01*
X116907390Y-126244866D01*
X116876069Y-126261607D01*
X116842091Y-126271915D01*
X116800610Y-126276000D01*
X116199390Y-126276000D01*
X116157909Y-126271915D01*
X116123931Y-126261607D01*
X116092610Y-126244866D01*
X116065161Y-126222339D01*
X116042634Y-126194890D01*
X116025893Y-126163569D01*
X116015585Y-126129591D01*
X116011500Y-126088110D01*
X116011500Y-125411890D01*
X116015585Y-125370409D01*
X116025893Y-125336431D01*
X116042634Y-125305110D01*
X116065161Y-125277661D01*
X116092610Y-125255134D01*
X116123931Y-125238393D01*
X116157909Y-125228085D01*
X116199390Y-125224000D01*
X116800610Y-125224000D01*
X116842091Y-125228085D01*
X116842091Y-125228085D01*
G37*
G36*
X108467091Y-125228085D02*
G01*
X108501069Y-125238393D01*
X108532390Y-125255134D01*
X108559839Y-125277661D01*
X108582366Y-125305110D01*
X108599107Y-125336431D01*
X108609415Y-125370409D01*
X108613500Y-125411890D01*
X108613500Y-126088110D01*
X108609415Y-126129591D01*
X108599107Y-126163569D01*
X108582366Y-126194890D01*
X108559839Y-126222339D01*
X108532390Y-126244866D01*
X108501069Y-126261607D01*
X108467091Y-126271915D01*
X108425610Y-126276000D01*
X107824390Y-126276000D01*
X107782909Y-126271915D01*
X107748931Y-126261607D01*
X107717610Y-126244866D01*
X107690161Y-126222339D01*
X107667634Y-126194890D01*
X107650893Y-126163569D01*
X107640585Y-126129591D01*
X107636500Y-126088110D01*
X107636500Y-125411890D01*
X107640585Y-125370409D01*
X107650893Y-125336431D01*
X107667634Y-125305110D01*
X107690161Y-125277661D01*
X107717610Y-125255134D01*
X107748931Y-125238393D01*
X107782909Y-125228085D01*
X107824390Y-125224000D01*
X108425610Y-125224000D01*
X108467091Y-125228085D01*
X108467091Y-125228085D01*
G37*
G36*
X129197720Y-126101000D02*
G01*
X128195720Y-126101000D01*
X128195720Y-125199000D01*
X129197720Y-125199000D01*
X129197720Y-126101000D01*
X129197720Y-126101000D01*
G37*
G36*
X119879591Y-125015585D02*
G01*
X119913569Y-125025893D01*
X119944890Y-125042634D01*
X119972339Y-125065161D01*
X119994866Y-125092610D01*
X120011607Y-125123931D01*
X120021915Y-125157909D01*
X120026000Y-125199390D01*
X120026000Y-125800610D01*
X120021915Y-125842091D01*
X120011607Y-125876069D01*
X119994866Y-125907390D01*
X119972339Y-125934839D01*
X119944890Y-125957366D01*
X119913569Y-125974107D01*
X119879591Y-125984415D01*
X119838110Y-125988500D01*
X119161890Y-125988500D01*
X119120409Y-125984415D01*
X119086431Y-125974107D01*
X119055110Y-125957366D01*
X119027661Y-125934839D01*
X119005134Y-125907390D01*
X118988393Y-125876069D01*
X118978085Y-125842091D01*
X118974000Y-125800610D01*
X118974000Y-125199390D01*
X118978085Y-125157909D01*
X118988393Y-125123931D01*
X119005134Y-125092610D01*
X119027661Y-125065161D01*
X119055110Y-125042634D01*
X119086431Y-125025893D01*
X119120409Y-125015585D01*
X119161890Y-125011500D01*
X119838110Y-125011500D01*
X119879591Y-125015585D01*
X119879591Y-125015585D01*
G37*
G36*
X121451911Y-125015585D02*
G01*
X121485889Y-125025893D01*
X121517210Y-125042634D01*
X121544659Y-125065161D01*
X121567186Y-125092610D01*
X121583927Y-125123931D01*
X121594235Y-125157909D01*
X121598320Y-125199390D01*
X121598320Y-125800610D01*
X121594235Y-125842091D01*
X121583927Y-125876069D01*
X121567186Y-125907390D01*
X121544659Y-125934839D01*
X121517210Y-125957366D01*
X121485889Y-125974107D01*
X121451911Y-125984415D01*
X121410430Y-125988500D01*
X120734210Y-125988500D01*
X120692729Y-125984415D01*
X120658751Y-125974107D01*
X120627430Y-125957366D01*
X120599981Y-125934839D01*
X120577454Y-125907390D01*
X120560713Y-125876069D01*
X120550405Y-125842091D01*
X120546320Y-125800610D01*
X120546320Y-125199390D01*
X120550405Y-125157909D01*
X120560713Y-125123931D01*
X120577454Y-125092610D01*
X120599981Y-125065161D01*
X120627430Y-125042634D01*
X120658751Y-125025893D01*
X120692729Y-125015585D01*
X120734210Y-125011500D01*
X121410430Y-125011500D01*
X121451911Y-125015585D01*
X121451911Y-125015585D01*
G37*
G36*
X134879591Y-124340585D02*
G01*
X134913569Y-124350893D01*
X134944890Y-124367634D01*
X134972339Y-124390161D01*
X134994866Y-124417610D01*
X135011607Y-124448931D01*
X135021915Y-124482909D01*
X135026000Y-124524390D01*
X135026000Y-125125610D01*
X135021915Y-125167091D01*
X135011607Y-125201069D01*
X134994866Y-125232390D01*
X134972339Y-125259839D01*
X134944890Y-125282366D01*
X134913569Y-125299107D01*
X134879591Y-125309415D01*
X134838110Y-125313500D01*
X134161890Y-125313500D01*
X134120409Y-125309415D01*
X134086431Y-125299107D01*
X134055110Y-125282366D01*
X134027661Y-125259839D01*
X134005134Y-125232390D01*
X133988393Y-125201069D01*
X133978085Y-125167091D01*
X133974000Y-125125610D01*
X133974000Y-124524390D01*
X133978085Y-124482909D01*
X133988393Y-124448931D01*
X134005134Y-124417610D01*
X134027661Y-124390161D01*
X134055110Y-124367634D01*
X134086431Y-124350893D01*
X134120409Y-124340585D01*
X134161890Y-124336500D01*
X134838110Y-124336500D01*
X134879591Y-124340585D01*
X134879591Y-124340585D01*
G37*
G36*
X123769911Y-124240585D02*
G01*
X123803889Y-124250893D01*
X123835210Y-124267634D01*
X123862659Y-124290161D01*
X123885186Y-124317610D01*
X123901927Y-124348931D01*
X123912235Y-124382909D01*
X123916320Y-124424390D01*
X123916320Y-125025610D01*
X123912235Y-125067091D01*
X123901927Y-125101069D01*
X123885186Y-125132390D01*
X123862659Y-125159839D01*
X123835210Y-125182366D01*
X123803889Y-125199107D01*
X123769911Y-125209415D01*
X123728430Y-125213500D01*
X123052210Y-125213500D01*
X123010729Y-125209415D01*
X122976751Y-125199107D01*
X122945430Y-125182366D01*
X122917981Y-125159839D01*
X122895454Y-125132390D01*
X122878713Y-125101069D01*
X122868405Y-125067091D01*
X122864320Y-125025610D01*
X122864320Y-124424390D01*
X122868405Y-124382909D01*
X122878713Y-124348931D01*
X122895454Y-124317610D01*
X122917981Y-124290161D01*
X122945430Y-124267634D01*
X122976751Y-124250893D01*
X123010729Y-124240585D01*
X123052210Y-124236500D01*
X123728430Y-124236500D01*
X123769911Y-124240585D01*
X123769911Y-124240585D01*
G37*
G36*
X131597720Y-125151000D02*
G01*
X130595720Y-125151000D01*
X130595720Y-124249000D01*
X131597720Y-124249000D01*
X131597720Y-125151000D01*
X131597720Y-125151000D01*
G37*
G36*
X108467091Y-123478085D02*
G01*
X108501069Y-123488393D01*
X108532390Y-123505134D01*
X108559839Y-123527661D01*
X108582366Y-123555110D01*
X108599107Y-123586431D01*
X108609415Y-123620409D01*
X108613500Y-123661890D01*
X108613500Y-124338110D01*
X108609415Y-124379591D01*
X108599107Y-124413569D01*
X108582366Y-124444890D01*
X108559839Y-124472339D01*
X108532390Y-124494866D01*
X108501069Y-124511607D01*
X108467091Y-124521915D01*
X108425610Y-124526000D01*
X107824390Y-124526000D01*
X107782909Y-124521915D01*
X107748931Y-124511607D01*
X107717610Y-124494866D01*
X107690161Y-124472339D01*
X107667634Y-124444890D01*
X107650893Y-124413569D01*
X107640585Y-124379591D01*
X107636500Y-124338110D01*
X107636500Y-123661890D01*
X107640585Y-123620409D01*
X107650893Y-123586431D01*
X107667634Y-123555110D01*
X107690161Y-123527661D01*
X107717610Y-123505134D01*
X107748931Y-123488393D01*
X107782909Y-123478085D01*
X107824390Y-123474000D01*
X108425610Y-123474000D01*
X108467091Y-123478085D01*
X108467091Y-123478085D01*
G37*
G36*
X110042091Y-123478085D02*
G01*
X110076069Y-123488393D01*
X110107390Y-123505134D01*
X110134839Y-123527661D01*
X110157366Y-123555110D01*
X110174107Y-123586431D01*
X110184415Y-123620409D01*
X110188500Y-123661890D01*
X110188500Y-124338110D01*
X110184415Y-124379591D01*
X110174107Y-124413569D01*
X110157366Y-124444890D01*
X110134839Y-124472339D01*
X110107390Y-124494866D01*
X110076069Y-124511607D01*
X110042091Y-124521915D01*
X110000610Y-124526000D01*
X109399390Y-124526000D01*
X109357909Y-124521915D01*
X109323931Y-124511607D01*
X109292610Y-124494866D01*
X109265161Y-124472339D01*
X109242634Y-124444890D01*
X109225893Y-124413569D01*
X109215585Y-124379591D01*
X109211500Y-124338110D01*
X109211500Y-123661890D01*
X109215585Y-123620409D01*
X109225893Y-123586431D01*
X109242634Y-123555110D01*
X109265161Y-123527661D01*
X109292610Y-123505134D01*
X109323931Y-123488393D01*
X109357909Y-123478085D01*
X109399390Y-123474000D01*
X110000610Y-123474000D01*
X110042091Y-123478085D01*
X110042091Y-123478085D01*
G37*
G36*
X121451911Y-123440585D02*
G01*
X121485889Y-123450893D01*
X121517210Y-123467634D01*
X121544659Y-123490161D01*
X121567186Y-123517610D01*
X121583927Y-123548931D01*
X121594235Y-123582909D01*
X121598320Y-123624390D01*
X121598320Y-124225610D01*
X121594235Y-124267091D01*
X121583927Y-124301069D01*
X121567186Y-124332390D01*
X121544659Y-124359839D01*
X121517210Y-124382366D01*
X121485889Y-124399107D01*
X121451911Y-124409415D01*
X121410430Y-124413500D01*
X120734210Y-124413500D01*
X120692729Y-124409415D01*
X120658751Y-124399107D01*
X120627430Y-124382366D01*
X120599981Y-124359839D01*
X120577454Y-124332390D01*
X120560713Y-124301069D01*
X120550405Y-124267091D01*
X120546320Y-124225610D01*
X120546320Y-123624390D01*
X120550405Y-123582909D01*
X120560713Y-123548931D01*
X120577454Y-123517610D01*
X120599981Y-123490161D01*
X120627430Y-123467634D01*
X120658751Y-123450893D01*
X120692729Y-123440585D01*
X120734210Y-123436500D01*
X121410430Y-123436500D01*
X121451911Y-123440585D01*
X121451911Y-123440585D01*
G37*
G36*
X129197720Y-124201000D02*
G01*
X128195720Y-124201000D01*
X128195720Y-123299000D01*
X129197720Y-123299000D01*
X129197720Y-124201000D01*
X129197720Y-124201000D01*
G37*
G36*
X136701000Y-123826000D02*
G01*
X135999000Y-123826000D01*
X135999000Y-122674000D01*
X136701000Y-122674000D01*
X136701000Y-123826000D01*
X136701000Y-123826000D01*
G37*
G36*
X138601000Y-123826000D02*
G01*
X137899000Y-123826000D01*
X137899000Y-122674000D01*
X138601000Y-122674000D01*
X138601000Y-123826000D01*
X138601000Y-123826000D01*
G37*
G36*
X134879591Y-122765585D02*
G01*
X134913569Y-122775893D01*
X134944890Y-122792634D01*
X134972339Y-122815161D01*
X134994866Y-122842610D01*
X135011607Y-122873931D01*
X135021915Y-122907909D01*
X135026000Y-122949390D01*
X135026000Y-123550610D01*
X135021915Y-123592091D01*
X135011607Y-123626069D01*
X134994866Y-123657390D01*
X134972339Y-123684839D01*
X134944890Y-123707366D01*
X134913569Y-123724107D01*
X134879591Y-123734415D01*
X134838110Y-123738500D01*
X134161890Y-123738500D01*
X134120409Y-123734415D01*
X134086431Y-123724107D01*
X134055110Y-123707366D01*
X134027661Y-123684839D01*
X134005134Y-123657390D01*
X133988393Y-123626069D01*
X133978085Y-123592091D01*
X133974000Y-123550610D01*
X133974000Y-122949390D01*
X133978085Y-122907909D01*
X133988393Y-122873931D01*
X134005134Y-122842610D01*
X134027661Y-122815161D01*
X134055110Y-122792634D01*
X134086431Y-122775893D01*
X134120409Y-122765585D01*
X134161890Y-122761500D01*
X134838110Y-122761500D01*
X134879591Y-122765585D01*
X134879591Y-122765585D01*
G37*
G36*
X124041320Y-123551000D02*
G01*
X122739320Y-123551000D01*
X122739320Y-122549000D01*
X124041320Y-122549000D01*
X124041320Y-123551000D01*
X124041320Y-123551000D01*
G37*
G36*
X121378320Y-122625040D02*
G01*
X120766320Y-122625040D01*
X120766320Y-121423040D01*
X121378320Y-121423040D01*
X121378320Y-122625040D01*
X121378320Y-122625040D01*
G37*
G36*
X120378320Y-122625040D02*
G01*
X119766320Y-122625040D01*
X119766320Y-121423040D01*
X120378320Y-121423040D01*
X120378320Y-122625040D01*
X120378320Y-122625040D01*
G37*
G36*
X118378320Y-122625040D02*
G01*
X117766320Y-122625040D01*
X117766320Y-121423040D01*
X118378320Y-121423040D01*
X118378320Y-122625040D01*
X118378320Y-122625040D01*
G37*
G36*
X119378320Y-122625040D02*
G01*
X118766320Y-122625040D01*
X118766320Y-121423040D01*
X119378320Y-121423040D01*
X119378320Y-122625040D01*
X119378320Y-122625040D01*
G37*
G36*
X117378320Y-122625040D02*
G01*
X116766320Y-122625040D01*
X116766320Y-121423040D01*
X117378320Y-121423040D01*
X117378320Y-122625040D01*
X117378320Y-122625040D01*
G37*
G36*
X113767091Y-121502125D02*
G01*
X113801069Y-121512433D01*
X113832390Y-121529174D01*
X113859839Y-121551701D01*
X113882366Y-121579150D01*
X113899107Y-121610471D01*
X113909415Y-121644449D01*
X113913500Y-121685930D01*
X113913500Y-122362150D01*
X113909415Y-122403631D01*
X113899107Y-122437609D01*
X113882366Y-122468930D01*
X113859839Y-122496379D01*
X113832390Y-122518906D01*
X113801069Y-122535647D01*
X113767091Y-122545955D01*
X113725610Y-122550040D01*
X113124390Y-122550040D01*
X113082909Y-122545955D01*
X113048931Y-122535647D01*
X113017610Y-122518906D01*
X112990161Y-122496379D01*
X112967634Y-122468930D01*
X112950893Y-122437609D01*
X112940585Y-122403631D01*
X112936500Y-122362150D01*
X112936500Y-121685930D01*
X112940585Y-121644449D01*
X112950893Y-121610471D01*
X112967634Y-121579150D01*
X112990161Y-121551701D01*
X113017610Y-121529174D01*
X113048931Y-121512433D01*
X113082909Y-121502125D01*
X113124390Y-121498040D01*
X113725610Y-121498040D01*
X113767091Y-121502125D01*
X113767091Y-121502125D01*
G37*
G36*
X115342091Y-121502125D02*
G01*
X115376069Y-121512433D01*
X115407390Y-121529174D01*
X115434839Y-121551701D01*
X115457366Y-121579150D01*
X115474107Y-121610471D01*
X115484415Y-121644449D01*
X115488500Y-121685930D01*
X115488500Y-122362150D01*
X115484415Y-122403631D01*
X115474107Y-122437609D01*
X115457366Y-122468930D01*
X115434839Y-122496379D01*
X115407390Y-122518906D01*
X115376069Y-122535647D01*
X115342091Y-122545955D01*
X115300610Y-122550040D01*
X114699390Y-122550040D01*
X114657909Y-122545955D01*
X114623931Y-122535647D01*
X114592610Y-122518906D01*
X114565161Y-122496379D01*
X114542634Y-122468930D01*
X114525893Y-122437609D01*
X114515585Y-122403631D01*
X114511500Y-122362150D01*
X114511500Y-121685930D01*
X114515585Y-121644449D01*
X114525893Y-121610471D01*
X114542634Y-121579150D01*
X114565161Y-121551701D01*
X114592610Y-121529174D01*
X114623931Y-121512433D01*
X114657909Y-121502125D01*
X114699390Y-121498040D01*
X115300610Y-121498040D01*
X115342091Y-121502125D01*
X115342091Y-121502125D01*
G37*
G36*
X131438811Y-121278085D02*
G01*
X131472789Y-121288393D01*
X131504110Y-121305134D01*
X131531559Y-121327661D01*
X131554086Y-121355110D01*
X131570827Y-121386431D01*
X131581135Y-121420409D01*
X131585220Y-121461890D01*
X131585220Y-122138110D01*
X131581135Y-122179591D01*
X131570827Y-122213569D01*
X131554086Y-122244890D01*
X131531559Y-122272339D01*
X131504110Y-122294866D01*
X131472789Y-122311607D01*
X131438811Y-122321915D01*
X131397330Y-122326000D01*
X130796110Y-122326000D01*
X130754629Y-122321915D01*
X130720651Y-122311607D01*
X130689330Y-122294866D01*
X130661881Y-122272339D01*
X130639354Y-122244890D01*
X130622613Y-122213569D01*
X130612305Y-122179591D01*
X130608220Y-122138110D01*
X130608220Y-121461890D01*
X130612305Y-121420409D01*
X130622613Y-121386431D01*
X130639354Y-121355110D01*
X130661881Y-121327661D01*
X130689330Y-121305134D01*
X130720651Y-121288393D01*
X130754629Y-121278085D01*
X130796110Y-121274000D01*
X131397330Y-121274000D01*
X131438811Y-121278085D01*
X131438811Y-121278085D01*
G37*
G36*
X133013811Y-121278085D02*
G01*
X133047789Y-121288393D01*
X133079110Y-121305134D01*
X133106559Y-121327661D01*
X133129086Y-121355110D01*
X133145827Y-121386431D01*
X133156135Y-121420409D01*
X133160220Y-121461890D01*
X133160220Y-122138110D01*
X133156135Y-122179591D01*
X133145827Y-122213569D01*
X133129086Y-122244890D01*
X133106559Y-122272339D01*
X133079110Y-122294866D01*
X133047789Y-122311607D01*
X133013811Y-122321915D01*
X132972330Y-122326000D01*
X132371110Y-122326000D01*
X132329629Y-122321915D01*
X132295651Y-122311607D01*
X132264330Y-122294866D01*
X132236881Y-122272339D01*
X132214354Y-122244890D01*
X132197613Y-122213569D01*
X132187305Y-122179591D01*
X132183220Y-122138110D01*
X132183220Y-121461890D01*
X132187305Y-121420409D01*
X132197613Y-121386431D01*
X132214354Y-121355110D01*
X132236881Y-121327661D01*
X132264330Y-121305134D01*
X132295651Y-121288393D01*
X132329629Y-121278085D01*
X132371110Y-121274000D01*
X132972330Y-121274000D01*
X133013811Y-121278085D01*
X133013811Y-121278085D01*
G37*
G36*
X137651000Y-121626000D02*
G01*
X136949000Y-121626000D01*
X136949000Y-120474000D01*
X137651000Y-120474000D01*
X137651000Y-121626000D01*
X137651000Y-121626000D01*
G37*
G36*
X124041320Y-120251000D02*
G01*
X122739320Y-120251000D01*
X122739320Y-119249000D01*
X124041320Y-119249000D01*
X124041320Y-120251000D01*
X124041320Y-120251000D01*
G37*
G36*
X108151000Y-120026000D02*
G01*
X107449000Y-120026000D01*
X107449000Y-118874000D01*
X108151000Y-118874000D01*
X108151000Y-120026000D01*
X108151000Y-120026000D01*
G37*
G36*
X110051000Y-120026000D02*
G01*
X109349000Y-120026000D01*
X109349000Y-118874000D01*
X110051000Y-118874000D01*
X110051000Y-120026000D01*
X110051000Y-120026000D01*
G37*
G36*
X135822798Y-115778247D02*
G01*
X135858367Y-115789037D01*
X135891139Y-115806554D01*
X135919869Y-115830131D01*
X135943446Y-115858861D01*
X135960963Y-115891633D01*
X135971753Y-115927202D01*
X135976000Y-115970325D01*
X135976000Y-119029675D01*
X135971753Y-119072798D01*
X135960963Y-119108367D01*
X135943446Y-119141139D01*
X135919869Y-119169869D01*
X135891139Y-119193446D01*
X135858367Y-119210963D01*
X135822798Y-119221753D01*
X135779675Y-119226000D01*
X134720325Y-119226000D01*
X134677202Y-119221753D01*
X134641633Y-119210963D01*
X134608861Y-119193446D01*
X134580131Y-119169869D01*
X134556554Y-119141139D01*
X134539037Y-119108367D01*
X134528247Y-119072798D01*
X134524000Y-119029675D01*
X134524000Y-115970325D01*
X134528247Y-115927202D01*
X134539037Y-115891633D01*
X134556554Y-115858861D01*
X134580131Y-115830131D01*
X134608861Y-115806554D01*
X134641633Y-115789037D01*
X134677202Y-115778247D01*
X134720325Y-115774000D01*
X135779675Y-115774000D01*
X135822798Y-115778247D01*
X135822798Y-115778247D01*
G37*
G36*
X130022798Y-115778247D02*
G01*
X130058367Y-115789037D01*
X130091139Y-115806554D01*
X130119869Y-115830131D01*
X130143446Y-115858861D01*
X130160963Y-115891633D01*
X130171753Y-115927202D01*
X130176000Y-115970325D01*
X130176000Y-119029675D01*
X130171753Y-119072798D01*
X130160963Y-119108367D01*
X130143446Y-119141139D01*
X130119869Y-119169869D01*
X130091139Y-119193446D01*
X130058367Y-119210963D01*
X130022798Y-119221753D01*
X129979675Y-119226000D01*
X128920325Y-119226000D01*
X128877202Y-119221753D01*
X128841633Y-119210963D01*
X128808861Y-119193446D01*
X128780131Y-119169869D01*
X128756554Y-119141139D01*
X128739037Y-119108367D01*
X128728247Y-119072798D01*
X128724000Y-119029675D01*
X128724000Y-115970325D01*
X128728247Y-115927202D01*
X128739037Y-115891633D01*
X128756554Y-115858861D01*
X128780131Y-115830131D01*
X128808861Y-115806554D01*
X128841633Y-115789037D01*
X128877202Y-115778247D01*
X128920325Y-115774000D01*
X129979675Y-115774000D01*
X130022798Y-115778247D01*
X130022798Y-115778247D01*
G37*
G36*
X109101000Y-117826000D02*
G01*
X108399000Y-117826000D01*
X108399000Y-116674000D01*
X109101000Y-116674000D01*
X109101000Y-117826000D01*
X109101000Y-117826000D01*
G37*
G36*
X121378320Y-117525040D02*
G01*
X120766320Y-117525040D01*
X120766320Y-116323040D01*
X121378320Y-116323040D01*
X121378320Y-117525040D01*
X121378320Y-117525040D01*
G37*
G36*
X120378320Y-117525040D02*
G01*
X119766320Y-117525040D01*
X119766320Y-116323040D01*
X120378320Y-116323040D01*
X120378320Y-117525040D01*
X120378320Y-117525040D01*
G37*
G36*
X119378320Y-117525040D02*
G01*
X118766320Y-117525040D01*
X118766320Y-116323040D01*
X119378320Y-116323040D01*
X119378320Y-117525040D01*
X119378320Y-117525040D01*
G37*
G36*
X118378320Y-117525040D02*
G01*
X117766320Y-117525040D01*
X117766320Y-116323040D01*
X118378320Y-116323040D01*
X118378320Y-117525040D01*
X118378320Y-117525040D01*
G37*
G36*
X117378320Y-117525040D02*
G01*
X116766320Y-117525040D01*
X116766320Y-116323040D01*
X117378320Y-116323040D01*
X117378320Y-117525040D01*
X117378320Y-117525040D01*
G37*
G36*
X125307411Y-116404665D02*
G01*
X125341389Y-116414973D01*
X125372710Y-116431714D01*
X125400159Y-116454241D01*
X125422686Y-116481690D01*
X125439427Y-116513011D01*
X125449735Y-116546989D01*
X125453820Y-116588470D01*
X125453820Y-117264690D01*
X125449735Y-117306171D01*
X125439427Y-117340149D01*
X125422686Y-117371470D01*
X125400159Y-117398919D01*
X125372710Y-117421446D01*
X125341389Y-117438187D01*
X125307411Y-117448495D01*
X125265930Y-117452580D01*
X124664710Y-117452580D01*
X124623229Y-117448495D01*
X124589251Y-117438187D01*
X124557930Y-117421446D01*
X124530481Y-117398919D01*
X124507954Y-117371470D01*
X124491213Y-117340149D01*
X124480905Y-117306171D01*
X124476820Y-117264690D01*
X124476820Y-116588470D01*
X124480905Y-116546989D01*
X124491213Y-116513011D01*
X124507954Y-116481690D01*
X124530481Y-116454241D01*
X124557930Y-116431714D01*
X124589251Y-116414973D01*
X124623229Y-116404665D01*
X124664710Y-116400580D01*
X125265930Y-116400580D01*
X125307411Y-116404665D01*
X125307411Y-116404665D01*
G37*
G36*
X123732411Y-116404665D02*
G01*
X123766389Y-116414973D01*
X123797710Y-116431714D01*
X123825159Y-116454241D01*
X123847686Y-116481690D01*
X123864427Y-116513011D01*
X123874735Y-116546989D01*
X123878820Y-116588470D01*
X123878820Y-117264690D01*
X123874735Y-117306171D01*
X123864427Y-117340149D01*
X123847686Y-117371470D01*
X123825159Y-117398919D01*
X123797710Y-117421446D01*
X123766389Y-117438187D01*
X123732411Y-117448495D01*
X123690930Y-117452580D01*
X123089710Y-117452580D01*
X123048229Y-117448495D01*
X123014251Y-117438187D01*
X122982930Y-117421446D01*
X122955481Y-117398919D01*
X122932954Y-117371470D01*
X122916213Y-117340149D01*
X122905905Y-117306171D01*
X122901820Y-117264690D01*
X122901820Y-116588470D01*
X122905905Y-116546989D01*
X122916213Y-116513011D01*
X122932954Y-116481690D01*
X122955481Y-116454241D01*
X122982930Y-116431714D01*
X123014251Y-116414973D01*
X123048229Y-116404665D01*
X123089710Y-116400580D01*
X123690930Y-116400580D01*
X123732411Y-116404665D01*
X123732411Y-116404665D01*
G37*
G36*
X123732411Y-114680005D02*
G01*
X123766389Y-114690313D01*
X123797710Y-114707054D01*
X123825159Y-114729581D01*
X123847686Y-114757030D01*
X123864427Y-114788351D01*
X123874735Y-114822329D01*
X123878820Y-114863810D01*
X123878820Y-115540030D01*
X123874735Y-115581511D01*
X123864427Y-115615489D01*
X123847686Y-115646810D01*
X123825159Y-115674259D01*
X123797710Y-115696786D01*
X123766389Y-115713527D01*
X123732411Y-115723835D01*
X123690930Y-115727920D01*
X123089710Y-115727920D01*
X123048229Y-115723835D01*
X123014251Y-115713527D01*
X122982930Y-115696786D01*
X122955481Y-115674259D01*
X122932954Y-115646810D01*
X122916213Y-115615489D01*
X122905905Y-115581511D01*
X122901820Y-115540030D01*
X122901820Y-114863810D01*
X122905905Y-114822329D01*
X122916213Y-114788351D01*
X122932954Y-114757030D01*
X122955481Y-114729581D01*
X122982930Y-114707054D01*
X123014251Y-114690313D01*
X123048229Y-114680005D01*
X123089710Y-114675920D01*
X123690930Y-114675920D01*
X123732411Y-114680005D01*
X123732411Y-114680005D01*
G37*
G36*
X125307411Y-114680005D02*
G01*
X125341389Y-114690313D01*
X125372710Y-114707054D01*
X125400159Y-114729581D01*
X125422686Y-114757030D01*
X125439427Y-114788351D01*
X125449735Y-114822329D01*
X125453820Y-114863810D01*
X125453820Y-115540030D01*
X125449735Y-115581511D01*
X125439427Y-115615489D01*
X125422686Y-115646810D01*
X125400159Y-115674259D01*
X125372710Y-115696786D01*
X125341389Y-115713527D01*
X125307411Y-115723835D01*
X125265930Y-115727920D01*
X124664710Y-115727920D01*
X124623229Y-115723835D01*
X124589251Y-115713527D01*
X124557930Y-115696786D01*
X124530481Y-115674259D01*
X124507954Y-115646810D01*
X124491213Y-115615489D01*
X124480905Y-115581511D01*
X124476820Y-115540030D01*
X124476820Y-114863810D01*
X124480905Y-114822329D01*
X124491213Y-114788351D01*
X124507954Y-114757030D01*
X124530481Y-114729581D01*
X124557930Y-114707054D01*
X124589251Y-114690313D01*
X124623229Y-114680005D01*
X124664710Y-114675920D01*
X125265930Y-114675920D01*
X125307411Y-114680005D01*
X125307411Y-114680005D01*
G37*
G36*
X134417091Y-113478085D02*
G01*
X134451069Y-113488393D01*
X134482390Y-113505134D01*
X134509839Y-113527661D01*
X134532366Y-113555110D01*
X134549107Y-113586431D01*
X134559415Y-113620409D01*
X134563500Y-113661890D01*
X134563500Y-114338110D01*
X134559415Y-114379591D01*
X134549107Y-114413569D01*
X134532366Y-114444890D01*
X134509839Y-114472339D01*
X134482390Y-114494866D01*
X134451069Y-114511607D01*
X134417091Y-114521915D01*
X134375610Y-114526000D01*
X133774390Y-114526000D01*
X133732909Y-114521915D01*
X133698931Y-114511607D01*
X133667610Y-114494866D01*
X133640161Y-114472339D01*
X133617634Y-114444890D01*
X133600893Y-114413569D01*
X133590585Y-114379591D01*
X133586500Y-114338110D01*
X133586500Y-113661890D01*
X133590585Y-113620409D01*
X133600893Y-113586431D01*
X133617634Y-113555110D01*
X133640161Y-113527661D01*
X133667610Y-113505134D01*
X133698931Y-113488393D01*
X133732909Y-113478085D01*
X133774390Y-113474000D01*
X134375610Y-113474000D01*
X134417091Y-113478085D01*
X134417091Y-113478085D01*
G37*
G36*
X132842091Y-113478085D02*
G01*
X132876069Y-113488393D01*
X132907390Y-113505134D01*
X132934839Y-113527661D01*
X132957366Y-113555110D01*
X132974107Y-113586431D01*
X132984415Y-113620409D01*
X132988500Y-113661890D01*
X132988500Y-114338110D01*
X132984415Y-114379591D01*
X132974107Y-114413569D01*
X132957366Y-114444890D01*
X132934839Y-114472339D01*
X132907390Y-114494866D01*
X132876069Y-114511607D01*
X132842091Y-114521915D01*
X132800610Y-114526000D01*
X132199390Y-114526000D01*
X132157909Y-114521915D01*
X132123931Y-114511607D01*
X132092610Y-114494866D01*
X132065161Y-114472339D01*
X132042634Y-114444890D01*
X132025893Y-114413569D01*
X132015585Y-114379591D01*
X132011500Y-114338110D01*
X132011500Y-113661890D01*
X132015585Y-113620409D01*
X132025893Y-113586431D01*
X132042634Y-113555110D01*
X132065161Y-113527661D01*
X132092610Y-113505134D01*
X132123931Y-113488393D01*
X132157909Y-113478085D01*
X132199390Y-113474000D01*
X132800610Y-113474000D01*
X132842091Y-113478085D01*
X132842091Y-113478085D01*
G37*
G36*
X123732411Y-112978085D02*
G01*
X123766389Y-112988393D01*
X123797710Y-113005134D01*
X123825159Y-113027661D01*
X123847686Y-113055110D01*
X123864427Y-113086431D01*
X123874735Y-113120409D01*
X123878820Y-113161890D01*
X123878820Y-113838110D01*
X123874735Y-113879591D01*
X123864427Y-113913569D01*
X123847686Y-113944890D01*
X123825159Y-113972339D01*
X123797710Y-113994866D01*
X123766389Y-114011607D01*
X123732411Y-114021915D01*
X123690930Y-114026000D01*
X123089710Y-114026000D01*
X123048229Y-114021915D01*
X123014251Y-114011607D01*
X122982930Y-113994866D01*
X122955481Y-113972339D01*
X122932954Y-113944890D01*
X122916213Y-113913569D01*
X122905905Y-113879591D01*
X122901820Y-113838110D01*
X122901820Y-113161890D01*
X122905905Y-113120409D01*
X122916213Y-113086431D01*
X122932954Y-113055110D01*
X122955481Y-113027661D01*
X122982930Y-113005134D01*
X123014251Y-112988393D01*
X123048229Y-112978085D01*
X123089710Y-112974000D01*
X123690930Y-112974000D01*
X123732411Y-112978085D01*
X123732411Y-112978085D01*
G37*
G36*
X125307411Y-112978085D02*
G01*
X125341389Y-112988393D01*
X125372710Y-113005134D01*
X125400159Y-113027661D01*
X125422686Y-113055110D01*
X125439427Y-113086431D01*
X125449735Y-113120409D01*
X125453820Y-113161890D01*
X125453820Y-113838110D01*
X125449735Y-113879591D01*
X125439427Y-113913569D01*
X125422686Y-113944890D01*
X125400159Y-113972339D01*
X125372710Y-113994866D01*
X125341389Y-114011607D01*
X125307411Y-114021915D01*
X125265930Y-114026000D01*
X124664710Y-114026000D01*
X124623229Y-114021915D01*
X124589251Y-114011607D01*
X124557930Y-113994866D01*
X124530481Y-113972339D01*
X124507954Y-113944890D01*
X124491213Y-113913569D01*
X124480905Y-113879591D01*
X124476820Y-113838110D01*
X124476820Y-113161890D01*
X124480905Y-113120409D01*
X124491213Y-113086431D01*
X124507954Y-113055110D01*
X124530481Y-113027661D01*
X124557930Y-113005134D01*
X124589251Y-112988393D01*
X124623229Y-112978085D01*
X124664710Y-112974000D01*
X125265930Y-112974000D01*
X125307411Y-112978085D01*
X125307411Y-112978085D01*
G37*
G36*
X119151000Y-114001000D02*
G01*
X111349000Y-114001000D01*
X111349000Y-110799000D01*
X119151000Y-110799000D01*
X119151000Y-114001000D01*
X119151000Y-114001000D01*
G37*
G36*
X109560820Y-112320050D02*
G01*
X107259180Y-112320050D01*
X107259180Y-110818510D01*
X109560820Y-110818510D01*
X109560820Y-112320050D01*
X109560820Y-112320050D01*
G37*
G36*
X123732411Y-110728085D02*
G01*
X123766389Y-110738393D01*
X123797710Y-110755134D01*
X123825159Y-110777661D01*
X123847686Y-110805110D01*
X123864427Y-110836431D01*
X123874735Y-110870409D01*
X123878820Y-110911890D01*
X123878820Y-111588110D01*
X123874735Y-111629591D01*
X123864427Y-111663569D01*
X123847686Y-111694890D01*
X123825159Y-111722339D01*
X123797710Y-111744866D01*
X123766389Y-111761607D01*
X123732411Y-111771915D01*
X123690930Y-111776000D01*
X123089710Y-111776000D01*
X123048229Y-111771915D01*
X123014251Y-111761607D01*
X122982930Y-111744866D01*
X122955481Y-111722339D01*
X122932954Y-111694890D01*
X122916213Y-111663569D01*
X122905905Y-111629591D01*
X122901820Y-111588110D01*
X122901820Y-110911890D01*
X122905905Y-110870409D01*
X122916213Y-110836431D01*
X122932954Y-110805110D01*
X122955481Y-110777661D01*
X122982930Y-110755134D01*
X123014251Y-110738393D01*
X123048229Y-110728085D01*
X123089710Y-110724000D01*
X123690930Y-110724000D01*
X123732411Y-110728085D01*
X123732411Y-110728085D01*
G37*
G36*
X125307411Y-110728085D02*
G01*
X125341389Y-110738393D01*
X125372710Y-110755134D01*
X125400159Y-110777661D01*
X125422686Y-110805110D01*
X125439427Y-110836431D01*
X125449735Y-110870409D01*
X125453820Y-110911890D01*
X125453820Y-111588110D01*
X125449735Y-111629591D01*
X125439427Y-111663569D01*
X125422686Y-111694890D01*
X125400159Y-111722339D01*
X125372710Y-111744866D01*
X125341389Y-111761607D01*
X125307411Y-111771915D01*
X125265930Y-111776000D01*
X124664710Y-111776000D01*
X124623229Y-111771915D01*
X124589251Y-111761607D01*
X124557930Y-111744866D01*
X124530481Y-111722339D01*
X124507954Y-111694890D01*
X124491213Y-111663569D01*
X124480905Y-111629591D01*
X124476820Y-111588110D01*
X124476820Y-110911890D01*
X124480905Y-110870409D01*
X124491213Y-110836431D01*
X124507954Y-110805110D01*
X124530481Y-110777661D01*
X124557930Y-110755134D01*
X124589251Y-110738393D01*
X124623229Y-110728085D01*
X124664710Y-110724000D01*
X125265930Y-110724000D01*
X125307411Y-110728085D01*
X125307411Y-110728085D01*
G37*
G36*
X138401000Y-109701000D02*
G01*
X137399000Y-109701000D01*
X137399000Y-108799000D01*
X138401000Y-108799000D01*
X138401000Y-109701000D01*
X138401000Y-109701000D01*
G37*
G36*
X130101000Y-108876000D02*
G01*
X129399000Y-108876000D01*
X129399000Y-107724000D01*
X130101000Y-107724000D01*
X130101000Y-108876000D01*
X130101000Y-108876000D01*
G37*
G36*
X132001000Y-108876000D02*
G01*
X131299000Y-108876000D01*
X131299000Y-107724000D01*
X132001000Y-107724000D01*
X132001000Y-108876000D01*
X132001000Y-108876000D01*
G37*
G36*
X134079591Y-107815585D02*
G01*
X134113569Y-107825893D01*
X134144890Y-107842634D01*
X134172339Y-107865161D01*
X134194866Y-107892610D01*
X134211607Y-107923931D01*
X134221915Y-107957909D01*
X134226000Y-107999390D01*
X134226000Y-108600610D01*
X134221915Y-108642091D01*
X134211607Y-108676069D01*
X134194866Y-108707390D01*
X134172339Y-108734839D01*
X134144890Y-108757366D01*
X134113569Y-108774107D01*
X134079591Y-108784415D01*
X134038110Y-108788500D01*
X133361890Y-108788500D01*
X133320409Y-108784415D01*
X133286431Y-108774107D01*
X133255110Y-108757366D01*
X133227661Y-108734839D01*
X133205134Y-108707390D01*
X133188393Y-108676069D01*
X133178085Y-108642091D01*
X133174000Y-108600610D01*
X133174000Y-107999390D01*
X133178085Y-107957909D01*
X133188393Y-107923931D01*
X133205134Y-107892610D01*
X133227661Y-107865161D01*
X133255110Y-107842634D01*
X133286431Y-107825893D01*
X133320409Y-107815585D01*
X133361890Y-107811500D01*
X134038110Y-107811500D01*
X134079591Y-107815585D01*
X134079591Y-107815585D01*
G37*
G36*
X136401000Y-108751000D02*
G01*
X135399000Y-108751000D01*
X135399000Y-107849000D01*
X136401000Y-107849000D01*
X136401000Y-108751000D01*
X136401000Y-108751000D01*
G37*
G36*
X109560820Y-107920770D02*
G01*
X107259180Y-107920770D01*
X107259180Y-106419230D01*
X109560820Y-106419230D01*
X109560820Y-107920770D01*
X109560820Y-107920770D01*
G37*
G36*
X138401000Y-107801000D02*
G01*
X137399000Y-107801000D01*
X137399000Y-106899000D01*
X138401000Y-106899000D01*
X138401000Y-107801000D01*
X138401000Y-107801000D01*
G37*
G36*
X134079591Y-106240585D02*
G01*
X134113569Y-106250893D01*
X134144890Y-106267634D01*
X134172339Y-106290161D01*
X134194866Y-106317610D01*
X134211607Y-106348931D01*
X134221915Y-106382909D01*
X134226000Y-106424390D01*
X134226000Y-107025610D01*
X134221915Y-107067091D01*
X134211607Y-107101069D01*
X134194866Y-107132390D01*
X134172339Y-107159839D01*
X134144890Y-107182366D01*
X134113569Y-107199107D01*
X134079591Y-107209415D01*
X134038110Y-107213500D01*
X133361890Y-107213500D01*
X133320409Y-107209415D01*
X133286431Y-107199107D01*
X133255110Y-107182366D01*
X133227661Y-107159839D01*
X133205134Y-107132390D01*
X133188393Y-107101069D01*
X133178085Y-107067091D01*
X133174000Y-107025610D01*
X133174000Y-106424390D01*
X133178085Y-106382909D01*
X133188393Y-106348931D01*
X133205134Y-106317610D01*
X133227661Y-106290161D01*
X133255110Y-106267634D01*
X133286431Y-106250893D01*
X133320409Y-106240585D01*
X133361890Y-106236500D01*
X134038110Y-106236500D01*
X134079591Y-106240585D01*
X134079591Y-106240585D01*
G37*
G36*
X119151000Y-107101000D02*
G01*
X111349000Y-107101000D01*
X111349000Y-103899000D01*
X119151000Y-103899000D01*
X119151000Y-107101000D01*
X119151000Y-107101000D01*
G37*
G36*
X126190442Y-105205518D02*
G01*
X126256627Y-105212037D01*
X126426466Y-105263557D01*
X126582991Y-105347222D01*
X126618729Y-105376552D01*
X126720186Y-105459814D01*
X126772861Y-105524000D01*
X126832778Y-105597009D01*
X126916443Y-105753534D01*
X126967963Y-105923373D01*
X126985359Y-106100000D01*
X126967963Y-106276627D01*
X126916443Y-106446466D01*
X126832778Y-106602991D01*
X126803448Y-106638729D01*
X126720186Y-106740186D01*
X126618729Y-106823448D01*
X126582991Y-106852778D01*
X126426466Y-106936443D01*
X126256627Y-106987963D01*
X126190442Y-106994482D01*
X126124260Y-107001000D01*
X126035740Y-107001000D01*
X125969558Y-106994482D01*
X125903373Y-106987963D01*
X125733534Y-106936443D01*
X125577009Y-106852778D01*
X125541271Y-106823448D01*
X125439814Y-106740186D01*
X125356552Y-106638729D01*
X125327222Y-106602991D01*
X125243557Y-106446466D01*
X125192037Y-106276627D01*
X125174641Y-106100000D01*
X125192037Y-105923373D01*
X125243557Y-105753534D01*
X125327222Y-105597009D01*
X125387139Y-105524000D01*
X125439814Y-105459814D01*
X125541271Y-105376552D01*
X125577009Y-105347222D01*
X125733534Y-105263557D01*
X125903373Y-105212037D01*
X125969558Y-105205518D01*
X126035740Y-105199000D01*
X126124260Y-105199000D01*
X126190442Y-105205518D01*
X126190442Y-105205518D01*
G37*
G36*
X124441000Y-107001000D02*
G01*
X122639000Y-107001000D01*
X122639000Y-105199000D01*
X124441000Y-105199000D01*
X124441000Y-107001000D01*
X124441000Y-107001000D01*
G37*
G36*
X131051000Y-106676000D02*
G01*
X130349000Y-106676000D01*
X130349000Y-105524000D01*
X131051000Y-105524000D01*
X131051000Y-106676000D01*
X131051000Y-106676000D01*
G37*
G36*
X107110443Y-100436899D02*
G01*
X107176627Y-100443417D01*
X107346466Y-100494937D01*
X107502991Y-100578602D01*
X107514720Y-100588228D01*
X107640186Y-100691194D01*
X107717740Y-100785695D01*
X107752778Y-100828389D01*
X107836443Y-100984914D01*
X107887963Y-101154753D01*
X107905359Y-101331380D01*
X107887963Y-101508007D01*
X107836443Y-101677846D01*
X107752778Y-101834371D01*
X107723448Y-101870109D01*
X107640186Y-101971566D01*
X107538729Y-102054828D01*
X107502991Y-102084158D01*
X107346466Y-102167823D01*
X107176627Y-102219343D01*
X107110442Y-102225862D01*
X107044260Y-102232380D01*
X106955740Y-102232380D01*
X106889558Y-102225862D01*
X106823373Y-102219343D01*
X106653534Y-102167823D01*
X106497009Y-102084158D01*
X106461271Y-102054828D01*
X106359814Y-101971566D01*
X106276552Y-101870109D01*
X106247222Y-101834371D01*
X106163557Y-101677846D01*
X106112037Y-101508007D01*
X106094641Y-101331380D01*
X106112037Y-101154753D01*
X106163557Y-100984914D01*
X106247222Y-100828389D01*
X106282260Y-100785695D01*
X106359814Y-100691194D01*
X106485280Y-100588228D01*
X106497009Y-100578602D01*
X106653534Y-100494937D01*
X106823373Y-100443417D01*
X106889557Y-100436899D01*
X106955740Y-100430380D01*
X107044260Y-100430380D01*
X107110443Y-100436899D01*
X107110443Y-100436899D01*
G37*
G36*
X144110443Y-100436899D02*
G01*
X144176627Y-100443417D01*
X144346466Y-100494937D01*
X144502991Y-100578602D01*
X144514720Y-100588228D01*
X144640186Y-100691194D01*
X144717740Y-100785695D01*
X144752778Y-100828389D01*
X144836443Y-100984914D01*
X144887963Y-101154753D01*
X144905359Y-101331380D01*
X144887963Y-101508007D01*
X144836443Y-101677846D01*
X144752778Y-101834371D01*
X144723448Y-101870109D01*
X144640186Y-101971566D01*
X144538729Y-102054828D01*
X144502991Y-102084158D01*
X144346466Y-102167823D01*
X144176627Y-102219343D01*
X144110442Y-102225862D01*
X144044260Y-102232380D01*
X143955740Y-102232380D01*
X143889558Y-102225862D01*
X143823373Y-102219343D01*
X143653534Y-102167823D01*
X143497009Y-102084158D01*
X143461271Y-102054828D01*
X143359814Y-101971566D01*
X143276552Y-101870109D01*
X143247222Y-101834371D01*
X143163557Y-101677846D01*
X143112037Y-101508007D01*
X143094641Y-101331380D01*
X143112037Y-101154753D01*
X143163557Y-100984914D01*
X143247222Y-100828389D01*
X143282260Y-100785695D01*
X143359814Y-100691194D01*
X143485280Y-100588228D01*
X143497009Y-100578602D01*
X143653534Y-100494937D01*
X143823373Y-100443417D01*
X143889557Y-100436899D01*
X143955740Y-100430380D01*
X144044260Y-100430380D01*
X144110443Y-100436899D01*
X144110443Y-100436899D01*
G37*
G36*
X123814038Y-98126062D02*
G01*
X123948657Y-98152839D01*
X124054097Y-98196514D01*
X124203621Y-98258449D01*
X124248429Y-98288389D01*
X124433086Y-98411772D01*
X124628228Y-98606914D01*
X124633467Y-98614755D01*
X124781551Y-98836379D01*
X124887161Y-99091344D01*
X124941000Y-99362012D01*
X124941000Y-99637988D01*
X124887161Y-99908656D01*
X124781551Y-100163621D01*
X124781550Y-100163622D01*
X124628228Y-100393086D01*
X124433086Y-100588228D01*
X124353276Y-100641555D01*
X124203621Y-100741551D01*
X124125207Y-100774031D01*
X123948657Y-100847161D01*
X123858433Y-100865107D01*
X123677988Y-100901000D01*
X123402012Y-100901000D01*
X123221567Y-100865107D01*
X123131343Y-100847161D01*
X122954793Y-100774031D01*
X122876379Y-100741551D01*
X122726724Y-100641555D01*
X122646914Y-100588228D01*
X122451772Y-100393086D01*
X122298450Y-100163622D01*
X122298449Y-100163621D01*
X122192839Y-99908656D01*
X122139000Y-99637988D01*
X122139000Y-99362012D01*
X122192839Y-99091344D01*
X122298449Y-98836379D01*
X122446533Y-98614755D01*
X122451772Y-98606914D01*
X122646914Y-98411772D01*
X122831571Y-98288389D01*
X122876379Y-98258449D01*
X123025903Y-98196514D01*
X123131343Y-98152839D01*
X123265962Y-98126062D01*
X123402012Y-98099000D01*
X123677988Y-98099000D01*
X123814038Y-98126062D01*
X123814038Y-98126062D01*
G37*
G36*
X128774031Y-98102621D02*
G01*
X128803486Y-98111556D01*
X128830623Y-98126062D01*
X128854414Y-98145586D01*
X128873938Y-98169377D01*
X128888444Y-98196514D01*
X128897379Y-98225969D01*
X128901000Y-98262734D01*
X128901000Y-100737266D01*
X128897379Y-100774031D01*
X128888444Y-100803486D01*
X128873938Y-100830623D01*
X128854414Y-100854414D01*
X128830623Y-100873938D01*
X128803486Y-100888444D01*
X128774031Y-100897379D01*
X128737266Y-100901000D01*
X126262734Y-100901000D01*
X126225969Y-100897379D01*
X126196514Y-100888444D01*
X126169377Y-100873938D01*
X126145586Y-100854414D01*
X126126062Y-100830623D01*
X126111556Y-100803486D01*
X126102621Y-100774031D01*
X126099000Y-100737266D01*
X126099000Y-98262734D01*
X126102621Y-98225969D01*
X126111556Y-98196514D01*
X126126062Y-98169377D01*
X126145586Y-98145586D01*
X126169377Y-98126062D01*
X126196514Y-98111556D01*
X126225969Y-98102621D01*
X126262734Y-98099000D01*
X128737266Y-98099000D01*
X128774031Y-98102621D01*
X128774031Y-98102621D01*
G37*
G36*
X144110442Y-97896898D02*
G01*
X144176627Y-97903417D01*
X144346466Y-97954937D01*
X144502991Y-98038602D01*
X144538729Y-98067932D01*
X144640186Y-98151194D01*
X144701551Y-98225969D01*
X144752778Y-98288389D01*
X144836443Y-98444914D01*
X144887963Y-98614753D01*
X144905359Y-98791380D01*
X144887963Y-98968007D01*
X144836443Y-99137846D01*
X144752778Y-99294371D01*
X144723448Y-99330109D01*
X144640186Y-99431566D01*
X144538729Y-99514828D01*
X144502991Y-99544158D01*
X144346466Y-99627823D01*
X144176627Y-99679343D01*
X144110442Y-99685862D01*
X144044260Y-99692380D01*
X143955740Y-99692380D01*
X143889558Y-99685862D01*
X143823373Y-99679343D01*
X143653534Y-99627823D01*
X143497009Y-99544158D01*
X143461271Y-99514828D01*
X143359814Y-99431566D01*
X143276552Y-99330109D01*
X143247222Y-99294371D01*
X143163557Y-99137846D01*
X143112037Y-98968007D01*
X143094641Y-98791380D01*
X143112037Y-98614753D01*
X143163557Y-98444914D01*
X143247222Y-98288389D01*
X143298449Y-98225969D01*
X143359814Y-98151194D01*
X143461271Y-98067932D01*
X143497009Y-98038602D01*
X143653534Y-97954937D01*
X143823373Y-97903417D01*
X143889557Y-97896899D01*
X143955740Y-97890380D01*
X144044260Y-97890380D01*
X144110442Y-97896898D01*
X144110442Y-97896898D01*
G37*
G36*
X107110442Y-97896898D02*
G01*
X107176627Y-97903417D01*
X107346466Y-97954937D01*
X107502991Y-98038602D01*
X107538729Y-98067932D01*
X107640186Y-98151194D01*
X107701551Y-98225969D01*
X107752778Y-98288389D01*
X107836443Y-98444914D01*
X107887963Y-98614753D01*
X107905359Y-98791380D01*
X107887963Y-98968007D01*
X107836443Y-99137846D01*
X107752778Y-99294371D01*
X107723448Y-99330109D01*
X107640186Y-99431566D01*
X107538729Y-99514828D01*
X107502991Y-99544158D01*
X107346466Y-99627823D01*
X107176627Y-99679343D01*
X107110442Y-99685862D01*
X107044260Y-99692380D01*
X106955740Y-99692380D01*
X106889558Y-99685862D01*
X106823373Y-99679343D01*
X106653534Y-99627823D01*
X106497009Y-99544158D01*
X106461271Y-99514828D01*
X106359814Y-99431566D01*
X106276552Y-99330109D01*
X106247222Y-99294371D01*
X106163557Y-99137846D01*
X106112037Y-98968007D01*
X106094641Y-98791380D01*
X106112037Y-98614753D01*
X106163557Y-98444914D01*
X106247222Y-98288389D01*
X106298449Y-98225969D01*
X106359814Y-98151194D01*
X106461271Y-98067932D01*
X106497009Y-98038602D01*
X106653534Y-97954937D01*
X106823373Y-97903417D01*
X106889557Y-97896899D01*
X106955740Y-97890380D01*
X107044260Y-97890380D01*
X107110442Y-97896898D01*
X107110442Y-97896898D01*
G37*
G36*
X107110442Y-95356898D02*
G01*
X107176627Y-95363417D01*
X107346466Y-95414937D01*
X107502991Y-95498602D01*
X107538729Y-95527932D01*
X107640186Y-95611194D01*
X107723448Y-95712651D01*
X107752778Y-95748389D01*
X107836443Y-95904914D01*
X107887963Y-96074753D01*
X107905359Y-96251380D01*
X107887963Y-96428007D01*
X107836443Y-96597846D01*
X107752778Y-96754371D01*
X107723448Y-96790109D01*
X107640186Y-96891566D01*
X107538729Y-96974828D01*
X107502991Y-97004158D01*
X107346466Y-97087823D01*
X107176627Y-97139343D01*
X107110442Y-97145862D01*
X107044260Y-97152380D01*
X106955740Y-97152380D01*
X106889557Y-97145861D01*
X106823373Y-97139343D01*
X106653534Y-97087823D01*
X106497009Y-97004158D01*
X106461271Y-96974828D01*
X106359814Y-96891566D01*
X106276552Y-96790109D01*
X106247222Y-96754371D01*
X106163557Y-96597846D01*
X106112037Y-96428007D01*
X106094641Y-96251380D01*
X106112037Y-96074753D01*
X106163557Y-95904914D01*
X106247222Y-95748389D01*
X106276552Y-95712651D01*
X106359814Y-95611194D01*
X106461271Y-95527932D01*
X106497009Y-95498602D01*
X106653534Y-95414937D01*
X106823373Y-95363417D01*
X106889558Y-95356898D01*
X106955740Y-95350380D01*
X107044260Y-95350380D01*
X107110442Y-95356898D01*
X107110442Y-95356898D01*
G37*
G36*
X144110442Y-95356898D02*
G01*
X144176627Y-95363417D01*
X144346466Y-95414937D01*
X144502991Y-95498602D01*
X144538729Y-95527932D01*
X144640186Y-95611194D01*
X144723448Y-95712651D01*
X144752778Y-95748389D01*
X144836443Y-95904914D01*
X144887963Y-96074753D01*
X144905359Y-96251380D01*
X144887963Y-96428007D01*
X144836443Y-96597846D01*
X144752778Y-96754371D01*
X144723448Y-96790109D01*
X144640186Y-96891566D01*
X144538729Y-96974828D01*
X144502991Y-97004158D01*
X144346466Y-97087823D01*
X144176627Y-97139343D01*
X144110442Y-97145862D01*
X144044260Y-97152380D01*
X143955740Y-97152380D01*
X143889557Y-97145861D01*
X143823373Y-97139343D01*
X143653534Y-97087823D01*
X143497009Y-97004158D01*
X143461271Y-96974828D01*
X143359814Y-96891566D01*
X143276552Y-96790109D01*
X143247222Y-96754371D01*
X143163557Y-96597846D01*
X143112037Y-96428007D01*
X143094641Y-96251380D01*
X143112037Y-96074753D01*
X143163557Y-95904914D01*
X143247222Y-95748389D01*
X143276552Y-95712651D01*
X143359814Y-95611194D01*
X143461271Y-95527932D01*
X143497009Y-95498602D01*
X143653534Y-95414937D01*
X143823373Y-95363417D01*
X143889558Y-95356898D01*
X143955740Y-95350380D01*
X144044260Y-95350380D01*
X144110442Y-95356898D01*
X144110442Y-95356898D01*
G37*
G36*
X107110443Y-92816899D02*
G01*
X107176627Y-92823417D01*
X107346466Y-92874937D01*
X107502991Y-92958602D01*
X107538729Y-92987932D01*
X107640186Y-93071194D01*
X107723448Y-93172651D01*
X107752778Y-93208389D01*
X107836443Y-93364914D01*
X107887963Y-93534753D01*
X107905359Y-93711380D01*
X107887963Y-93888007D01*
X107836443Y-94057846D01*
X107752778Y-94214371D01*
X107723448Y-94250109D01*
X107640186Y-94351566D01*
X107538729Y-94434828D01*
X107502991Y-94464158D01*
X107346466Y-94547823D01*
X107176627Y-94599343D01*
X107110442Y-94605862D01*
X107044260Y-94612380D01*
X106955740Y-94612380D01*
X106889558Y-94605862D01*
X106823373Y-94599343D01*
X106653534Y-94547823D01*
X106497009Y-94464158D01*
X106461271Y-94434828D01*
X106359814Y-94351566D01*
X106276552Y-94250109D01*
X106247222Y-94214371D01*
X106163557Y-94057846D01*
X106112037Y-93888007D01*
X106094641Y-93711380D01*
X106112037Y-93534753D01*
X106163557Y-93364914D01*
X106247222Y-93208389D01*
X106276552Y-93172651D01*
X106359814Y-93071194D01*
X106461271Y-92987932D01*
X106497009Y-92958602D01*
X106653534Y-92874937D01*
X106823373Y-92823417D01*
X106889557Y-92816899D01*
X106955740Y-92810380D01*
X107044260Y-92810380D01*
X107110443Y-92816899D01*
X107110443Y-92816899D01*
G37*
G36*
X144110443Y-92816899D02*
G01*
X144176627Y-92823417D01*
X144346466Y-92874937D01*
X144502991Y-92958602D01*
X144538729Y-92987932D01*
X144640186Y-93071194D01*
X144723448Y-93172651D01*
X144752778Y-93208389D01*
X144836443Y-93364914D01*
X144887963Y-93534753D01*
X144905359Y-93711380D01*
X144887963Y-93888007D01*
X144836443Y-94057846D01*
X144752778Y-94214371D01*
X144723448Y-94250109D01*
X144640186Y-94351566D01*
X144538729Y-94434828D01*
X144502991Y-94464158D01*
X144346466Y-94547823D01*
X144176627Y-94599343D01*
X144110443Y-94605861D01*
X144044260Y-94612380D01*
X143955740Y-94612380D01*
X143889558Y-94605862D01*
X143823373Y-94599343D01*
X143653534Y-94547823D01*
X143497009Y-94464158D01*
X143461271Y-94434828D01*
X143359814Y-94351566D01*
X143276552Y-94250109D01*
X143247222Y-94214371D01*
X143163557Y-94057846D01*
X143112037Y-93888007D01*
X143094641Y-93711380D01*
X143112037Y-93534753D01*
X143163557Y-93364914D01*
X143247222Y-93208389D01*
X143276552Y-93172651D01*
X143359814Y-93071194D01*
X143461271Y-92987932D01*
X143497009Y-92958602D01*
X143653534Y-92874937D01*
X143823373Y-92823417D01*
X143889557Y-92816899D01*
X143955740Y-92810380D01*
X144044260Y-92810380D01*
X144110443Y-92816899D01*
X144110443Y-92816899D01*
G37*
G36*
X122307091Y-92678085D02*
G01*
X122341069Y-92688393D01*
X122372390Y-92705134D01*
X122399839Y-92727661D01*
X122422366Y-92755110D01*
X122439107Y-92786431D01*
X122449415Y-92820409D01*
X122453500Y-92861890D01*
X122453500Y-93538110D01*
X122449415Y-93579591D01*
X122439107Y-93613569D01*
X122422366Y-93644890D01*
X122399839Y-93672339D01*
X122372390Y-93694866D01*
X122341069Y-93711607D01*
X122307091Y-93721915D01*
X122265610Y-93726000D01*
X121664390Y-93726000D01*
X121622909Y-93721915D01*
X121588931Y-93711607D01*
X121557610Y-93694866D01*
X121530161Y-93672339D01*
X121507634Y-93644890D01*
X121490893Y-93613569D01*
X121480585Y-93579591D01*
X121476500Y-93538110D01*
X121476500Y-92861890D01*
X121480585Y-92820409D01*
X121490893Y-92786431D01*
X121507634Y-92755110D01*
X121530161Y-92727661D01*
X121557610Y-92705134D01*
X121588931Y-92688393D01*
X121622909Y-92678085D01*
X121664390Y-92674000D01*
X122265610Y-92674000D01*
X122307091Y-92678085D01*
X122307091Y-92678085D01*
G37*
G36*
X123882091Y-92678085D02*
G01*
X123916069Y-92688393D01*
X123947390Y-92705134D01*
X123974839Y-92727661D01*
X123997366Y-92755110D01*
X124014107Y-92786431D01*
X124024415Y-92820409D01*
X124028500Y-92861890D01*
X124028500Y-93538110D01*
X124024415Y-93579591D01*
X124014107Y-93613569D01*
X123997366Y-93644890D01*
X123974839Y-93672339D01*
X123947390Y-93694866D01*
X123916069Y-93711607D01*
X123882091Y-93721915D01*
X123840610Y-93726000D01*
X123239390Y-93726000D01*
X123197909Y-93721915D01*
X123163931Y-93711607D01*
X123132610Y-93694866D01*
X123105161Y-93672339D01*
X123082634Y-93644890D01*
X123065893Y-93613569D01*
X123055585Y-93579591D01*
X123051500Y-93538110D01*
X123051500Y-92861890D01*
X123055585Y-92820409D01*
X123065893Y-92786431D01*
X123082634Y-92755110D01*
X123105161Y-92727661D01*
X123132610Y-92705134D01*
X123163931Y-92688393D01*
X123197909Y-92678085D01*
X123239390Y-92674000D01*
X123840610Y-92674000D01*
X123882091Y-92678085D01*
X123882091Y-92678085D01*
G37*
G36*
X144110442Y-90276898D02*
G01*
X144176627Y-90283417D01*
X144346466Y-90334937D01*
X144502991Y-90418602D01*
X144538729Y-90447932D01*
X144640186Y-90531194D01*
X144723448Y-90632651D01*
X144752778Y-90668389D01*
X144836443Y-90824914D01*
X144887963Y-90994753D01*
X144905359Y-91171380D01*
X144887963Y-91348007D01*
X144836443Y-91517846D01*
X144752778Y-91674371D01*
X144723448Y-91710109D01*
X144640186Y-91811566D01*
X144538729Y-91894828D01*
X144502991Y-91924158D01*
X144346466Y-92007823D01*
X144176627Y-92059343D01*
X144110443Y-92065861D01*
X144044260Y-92072380D01*
X143955740Y-92072380D01*
X143889557Y-92065861D01*
X143823373Y-92059343D01*
X143653534Y-92007823D01*
X143497009Y-91924158D01*
X143461271Y-91894828D01*
X143359814Y-91811566D01*
X143276552Y-91710109D01*
X143247222Y-91674371D01*
X143163557Y-91517846D01*
X143112037Y-91348007D01*
X143094641Y-91171380D01*
X143112037Y-90994753D01*
X143163557Y-90824914D01*
X143247222Y-90668389D01*
X143276552Y-90632651D01*
X143359814Y-90531194D01*
X143461271Y-90447932D01*
X143497009Y-90418602D01*
X143653534Y-90334937D01*
X143823373Y-90283417D01*
X143889558Y-90276898D01*
X143955740Y-90270380D01*
X144044260Y-90270380D01*
X144110442Y-90276898D01*
X144110442Y-90276898D01*
G37*
G36*
X107110442Y-90276898D02*
G01*
X107176627Y-90283417D01*
X107346466Y-90334937D01*
X107502991Y-90418602D01*
X107538729Y-90447932D01*
X107640186Y-90531194D01*
X107723448Y-90632651D01*
X107752778Y-90668389D01*
X107836443Y-90824914D01*
X107887963Y-90994753D01*
X107905359Y-91171380D01*
X107887963Y-91348007D01*
X107836443Y-91517846D01*
X107752778Y-91674371D01*
X107723448Y-91710109D01*
X107640186Y-91811566D01*
X107538729Y-91894828D01*
X107502991Y-91924158D01*
X107346466Y-92007823D01*
X107176627Y-92059343D01*
X107110443Y-92065861D01*
X107044260Y-92072380D01*
X106955740Y-92072380D01*
X106889557Y-92065861D01*
X106823373Y-92059343D01*
X106653534Y-92007823D01*
X106497009Y-91924158D01*
X106461271Y-91894828D01*
X106359814Y-91811566D01*
X106276552Y-91710109D01*
X106247222Y-91674371D01*
X106163557Y-91517846D01*
X106112037Y-91348007D01*
X106094641Y-91171380D01*
X106112037Y-90994753D01*
X106163557Y-90824914D01*
X106247222Y-90668389D01*
X106276552Y-90632651D01*
X106359814Y-90531194D01*
X106461271Y-90447932D01*
X106497009Y-90418602D01*
X106653534Y-90334937D01*
X106823373Y-90283417D01*
X106889558Y-90276898D01*
X106955740Y-90270380D01*
X107044260Y-90270380D01*
X107110442Y-90276898D01*
X107110442Y-90276898D01*
G37*
G36*
X127409591Y-90715585D02*
G01*
X127443569Y-90725893D01*
X127474890Y-90742634D01*
X127502339Y-90765161D01*
X127524866Y-90792610D01*
X127541607Y-90823931D01*
X127551915Y-90857909D01*
X127556000Y-90899390D01*
X127556000Y-91500610D01*
X127551915Y-91542091D01*
X127541607Y-91576069D01*
X127524866Y-91607390D01*
X127502339Y-91634839D01*
X127474890Y-91657366D01*
X127443569Y-91674107D01*
X127409591Y-91684415D01*
X127368110Y-91688500D01*
X126691890Y-91688500D01*
X126650409Y-91684415D01*
X126616431Y-91674107D01*
X126585110Y-91657366D01*
X126557661Y-91634839D01*
X126535134Y-91607390D01*
X126518393Y-91576069D01*
X126508085Y-91542091D01*
X126504000Y-91500610D01*
X126504000Y-90899390D01*
X126508085Y-90857909D01*
X126518393Y-90823931D01*
X126535134Y-90792610D01*
X126557661Y-90765161D01*
X126585110Y-90742634D01*
X126616431Y-90725893D01*
X126650409Y-90715585D01*
X126691890Y-90711500D01*
X127368110Y-90711500D01*
X127409591Y-90715585D01*
X127409591Y-90715585D01*
G37*
G36*
X118779591Y-90715585D02*
G01*
X118813569Y-90725893D01*
X118844890Y-90742634D01*
X118872339Y-90765161D01*
X118894866Y-90792610D01*
X118911607Y-90823931D01*
X118921915Y-90857909D01*
X118926000Y-90899390D01*
X118926000Y-91500610D01*
X118921915Y-91542091D01*
X118911607Y-91576069D01*
X118894866Y-91607390D01*
X118872339Y-91634839D01*
X118844890Y-91657366D01*
X118813569Y-91674107D01*
X118779591Y-91684415D01*
X118738110Y-91688500D01*
X118061890Y-91688500D01*
X118020409Y-91684415D01*
X117986431Y-91674107D01*
X117955110Y-91657366D01*
X117927661Y-91634839D01*
X117905134Y-91607390D01*
X117888393Y-91576069D01*
X117878085Y-91542091D01*
X117874000Y-91500610D01*
X117874000Y-90899390D01*
X117878085Y-90857909D01*
X117888393Y-90823931D01*
X117905134Y-90792610D01*
X117927661Y-90765161D01*
X117955110Y-90742634D01*
X117986431Y-90725893D01*
X118020409Y-90715585D01*
X118061890Y-90711500D01*
X118738110Y-90711500D01*
X118779591Y-90715585D01*
X118779591Y-90715585D01*
G37*
G36*
X134024631Y-89390585D02*
G01*
X134058609Y-89400893D01*
X134089930Y-89417634D01*
X134117379Y-89440161D01*
X134139906Y-89467610D01*
X134156647Y-89498931D01*
X134166955Y-89532909D01*
X134171040Y-89574390D01*
X134171040Y-90175610D01*
X134166955Y-90217091D01*
X134156647Y-90251069D01*
X134139906Y-90282390D01*
X134117379Y-90309839D01*
X134089930Y-90332366D01*
X134058609Y-90349107D01*
X134024631Y-90359415D01*
X133983150Y-90363500D01*
X133306930Y-90363500D01*
X133265449Y-90359415D01*
X133231471Y-90349107D01*
X133200150Y-90332366D01*
X133172701Y-90309839D01*
X133150174Y-90282390D01*
X133133433Y-90251069D01*
X133123125Y-90217091D01*
X133119040Y-90175610D01*
X133119040Y-89574390D01*
X133123125Y-89532909D01*
X133133433Y-89498931D01*
X133150174Y-89467610D01*
X133172701Y-89440161D01*
X133200150Y-89417634D01*
X133231471Y-89400893D01*
X133265449Y-89390585D01*
X133306930Y-89386500D01*
X133983150Y-89386500D01*
X134024631Y-89390585D01*
X134024631Y-89390585D01*
G37*
G36*
X118779591Y-89140585D02*
G01*
X118813569Y-89150893D01*
X118844890Y-89167634D01*
X118872339Y-89190161D01*
X118894866Y-89217610D01*
X118911607Y-89248931D01*
X118921915Y-89282909D01*
X118926000Y-89324390D01*
X118926000Y-89925610D01*
X118921915Y-89967091D01*
X118911607Y-90001069D01*
X118894866Y-90032390D01*
X118872339Y-90059839D01*
X118844890Y-90082366D01*
X118813569Y-90099107D01*
X118779591Y-90109415D01*
X118738110Y-90113500D01*
X118061890Y-90113500D01*
X118020409Y-90109415D01*
X117986431Y-90099107D01*
X117955110Y-90082366D01*
X117927661Y-90059839D01*
X117905134Y-90032390D01*
X117888393Y-90001069D01*
X117878085Y-89967091D01*
X117874000Y-89925610D01*
X117874000Y-89324390D01*
X117878085Y-89282909D01*
X117888393Y-89248931D01*
X117905134Y-89217610D01*
X117927661Y-89190161D01*
X117955110Y-89167634D01*
X117986431Y-89150893D01*
X118020409Y-89140585D01*
X118061890Y-89136500D01*
X118738110Y-89136500D01*
X118779591Y-89140585D01*
X118779591Y-89140585D01*
G37*
G36*
X127409591Y-89140585D02*
G01*
X127443569Y-89150893D01*
X127474890Y-89167634D01*
X127502339Y-89190161D01*
X127524866Y-89217610D01*
X127541607Y-89248931D01*
X127551915Y-89282909D01*
X127556000Y-89324390D01*
X127556000Y-89925610D01*
X127551915Y-89967091D01*
X127541607Y-90001069D01*
X127524866Y-90032390D01*
X127502339Y-90059839D01*
X127474890Y-90082366D01*
X127443569Y-90099107D01*
X127409591Y-90109415D01*
X127368110Y-90113500D01*
X126691890Y-90113500D01*
X126650409Y-90109415D01*
X126616431Y-90099107D01*
X126585110Y-90082366D01*
X126557661Y-90059839D01*
X126535134Y-90032390D01*
X126518393Y-90001069D01*
X126508085Y-89967091D01*
X126504000Y-89925610D01*
X126504000Y-89324390D01*
X126508085Y-89282909D01*
X126518393Y-89248931D01*
X126535134Y-89217610D01*
X126557661Y-89190161D01*
X126585110Y-89167634D01*
X126616431Y-89150893D01*
X126650409Y-89140585D01*
X126691890Y-89136500D01*
X127368110Y-89136500D01*
X127409591Y-89140585D01*
X127409591Y-89140585D01*
G37*
G36*
X144110442Y-87736898D02*
G01*
X144176627Y-87743417D01*
X144346466Y-87794937D01*
X144502991Y-87878602D01*
X144538729Y-87907932D01*
X144640186Y-87991194D01*
X144723448Y-88092651D01*
X144752778Y-88128389D01*
X144836443Y-88284914D01*
X144887963Y-88454753D01*
X144905359Y-88631380D01*
X144887963Y-88808007D01*
X144836443Y-88977846D01*
X144752778Y-89134371D01*
X144725480Y-89167634D01*
X144640186Y-89271566D01*
X144538729Y-89354828D01*
X144502991Y-89384158D01*
X144440362Y-89417634D01*
X144346865Y-89467610D01*
X144346466Y-89467823D01*
X144176627Y-89519343D01*
X144110442Y-89525862D01*
X144044260Y-89532380D01*
X143955740Y-89532380D01*
X143889558Y-89525862D01*
X143823373Y-89519343D01*
X143653534Y-89467823D01*
X143653136Y-89467610D01*
X143559638Y-89417634D01*
X143497009Y-89384158D01*
X143461271Y-89354828D01*
X143359814Y-89271566D01*
X143274520Y-89167634D01*
X143247222Y-89134371D01*
X143163557Y-88977846D01*
X143112037Y-88808007D01*
X143094641Y-88631380D01*
X143112037Y-88454753D01*
X143163557Y-88284914D01*
X143247222Y-88128389D01*
X143276552Y-88092651D01*
X143359814Y-87991194D01*
X143461271Y-87907932D01*
X143497009Y-87878602D01*
X143653534Y-87794937D01*
X143823373Y-87743417D01*
X143889558Y-87736898D01*
X143955740Y-87730380D01*
X144044260Y-87730380D01*
X144110442Y-87736898D01*
X144110442Y-87736898D01*
G37*
G36*
X107110442Y-87736898D02*
G01*
X107176627Y-87743417D01*
X107346466Y-87794937D01*
X107502991Y-87878602D01*
X107538729Y-87907932D01*
X107640186Y-87991194D01*
X107723448Y-88092651D01*
X107752778Y-88128389D01*
X107836443Y-88284914D01*
X107887963Y-88454753D01*
X107905359Y-88631380D01*
X107887963Y-88808007D01*
X107836443Y-88977846D01*
X107752778Y-89134371D01*
X107725480Y-89167634D01*
X107640186Y-89271566D01*
X107538729Y-89354828D01*
X107502991Y-89384158D01*
X107440362Y-89417634D01*
X107346865Y-89467610D01*
X107346466Y-89467823D01*
X107176627Y-89519343D01*
X107110442Y-89525862D01*
X107044260Y-89532380D01*
X106955740Y-89532380D01*
X106889558Y-89525862D01*
X106823373Y-89519343D01*
X106653534Y-89467823D01*
X106653136Y-89467610D01*
X106559638Y-89417634D01*
X106497009Y-89384158D01*
X106461271Y-89354828D01*
X106359814Y-89271566D01*
X106274520Y-89167634D01*
X106247222Y-89134371D01*
X106163557Y-88977846D01*
X106112037Y-88808007D01*
X106094641Y-88631380D01*
X106112037Y-88454753D01*
X106163557Y-88284914D01*
X106247222Y-88128389D01*
X106276552Y-88092651D01*
X106359814Y-87991194D01*
X106461271Y-87907932D01*
X106497009Y-87878602D01*
X106653534Y-87794937D01*
X106823373Y-87743417D01*
X106889558Y-87736898D01*
X106955740Y-87730380D01*
X107044260Y-87730380D01*
X107110442Y-87736898D01*
X107110442Y-87736898D01*
G37*
G36*
X134024631Y-87815585D02*
G01*
X134058609Y-87825893D01*
X134089930Y-87842634D01*
X134117379Y-87865161D01*
X134139906Y-87892610D01*
X134156647Y-87923931D01*
X134166955Y-87957909D01*
X134171040Y-87999390D01*
X134171040Y-88600610D01*
X134166955Y-88642091D01*
X134156647Y-88676069D01*
X134139906Y-88707390D01*
X134117379Y-88734839D01*
X134089930Y-88757366D01*
X134058609Y-88774107D01*
X134024631Y-88784415D01*
X133983150Y-88788500D01*
X133306930Y-88788500D01*
X133265449Y-88784415D01*
X133231471Y-88774107D01*
X133200150Y-88757366D01*
X133172701Y-88734839D01*
X133150174Y-88707390D01*
X133133433Y-88676069D01*
X133123125Y-88642091D01*
X133119040Y-88600610D01*
X133119040Y-87999390D01*
X133123125Y-87957909D01*
X133133433Y-87923931D01*
X133150174Y-87892610D01*
X133172701Y-87865161D01*
X133200150Y-87842634D01*
X133231471Y-87825893D01*
X133265449Y-87815585D01*
X133306930Y-87811500D01*
X133983150Y-87811500D01*
X134024631Y-87815585D01*
X134024631Y-87815585D01*
G37*
G36*
X127138015Y-85386973D02*
G01*
X127241879Y-85418479D01*
X127255220Y-85425610D01*
X127337600Y-85469643D01*
X127421501Y-85538499D01*
X127490357Y-85622400D01*
X127526995Y-85690945D01*
X127541521Y-85718121D01*
X127545388Y-85730869D01*
X127554760Y-85753496D01*
X127568374Y-85773870D01*
X127585701Y-85791197D01*
X127606075Y-85804811D01*
X127628714Y-85814188D01*
X127652747Y-85818969D01*
X127677251Y-85818969D01*
X127701285Y-85814189D01*
X127723924Y-85804812D01*
X127744298Y-85791198D01*
X127761625Y-85773871D01*
X127775239Y-85753497D01*
X127784612Y-85730869D01*
X127788479Y-85718121D01*
X127803005Y-85690945D01*
X127839643Y-85622400D01*
X127908499Y-85538499D01*
X127992400Y-85469643D01*
X128074780Y-85425610D01*
X128088121Y-85418479D01*
X128191985Y-85386973D01*
X128272933Y-85379000D01*
X128327067Y-85379000D01*
X128408015Y-85386973D01*
X128511879Y-85418479D01*
X128525220Y-85425610D01*
X128607600Y-85469643D01*
X128691501Y-85538499D01*
X128760357Y-85622400D01*
X128796995Y-85690945D01*
X128811521Y-85718121D01*
X128815388Y-85730869D01*
X128824760Y-85753496D01*
X128838374Y-85773870D01*
X128855701Y-85791197D01*
X128876075Y-85804811D01*
X128898714Y-85814188D01*
X128922747Y-85818969D01*
X128947251Y-85818969D01*
X128971285Y-85814189D01*
X128993924Y-85804812D01*
X129014298Y-85791198D01*
X129031625Y-85773871D01*
X129045239Y-85753497D01*
X129054612Y-85730869D01*
X129058479Y-85718121D01*
X129073005Y-85690945D01*
X129109643Y-85622400D01*
X129178499Y-85538499D01*
X129262400Y-85469643D01*
X129344780Y-85425610D01*
X129358121Y-85418479D01*
X129461985Y-85386973D01*
X129542933Y-85379000D01*
X129597067Y-85379000D01*
X129678015Y-85386973D01*
X129781879Y-85418479D01*
X129795220Y-85425610D01*
X129877600Y-85469643D01*
X129961501Y-85538499D01*
X130030357Y-85622400D01*
X130066995Y-85690945D01*
X130081521Y-85718121D01*
X130113027Y-85821985D01*
X130123666Y-85930000D01*
X130113027Y-86038015D01*
X130081521Y-86141879D01*
X130081519Y-86141882D01*
X130030357Y-86237600D01*
X129961501Y-86321501D01*
X129877600Y-86390357D01*
X129822014Y-86420068D01*
X129781879Y-86441521D01*
X129769131Y-86445388D01*
X129746504Y-86454760D01*
X129726130Y-86468374D01*
X129708803Y-86485701D01*
X129695189Y-86506075D01*
X129685812Y-86528714D01*
X129681031Y-86552747D01*
X129681031Y-86577251D01*
X129685811Y-86601285D01*
X129695188Y-86623924D01*
X129708802Y-86644298D01*
X129726129Y-86661625D01*
X129746503Y-86675239D01*
X129769131Y-86684612D01*
X129781879Y-86688479D01*
X129809055Y-86703005D01*
X129877600Y-86739643D01*
X129961501Y-86808499D01*
X130030357Y-86892400D01*
X130066995Y-86960945D01*
X130081521Y-86988121D01*
X130113027Y-87091985D01*
X130123666Y-87200000D01*
X130113027Y-87308015D01*
X130081521Y-87411879D01*
X130081191Y-87412496D01*
X130030357Y-87507600D01*
X129961501Y-87591501D01*
X129877600Y-87660357D01*
X129809055Y-87696995D01*
X129781879Y-87711521D01*
X129678015Y-87743027D01*
X129597067Y-87751000D01*
X129542933Y-87751000D01*
X129461985Y-87743027D01*
X129358121Y-87711521D01*
X129330945Y-87696995D01*
X129262400Y-87660357D01*
X129178499Y-87591501D01*
X129109643Y-87507600D01*
X129058809Y-87412496D01*
X129058479Y-87411879D01*
X129054612Y-87399131D01*
X129045240Y-87376504D01*
X129031626Y-87356130D01*
X129014299Y-87338803D01*
X128993925Y-87325189D01*
X128971286Y-87315812D01*
X128947253Y-87311031D01*
X128922749Y-87311031D01*
X128898715Y-87315811D01*
X128876076Y-87325188D01*
X128855702Y-87338802D01*
X128838375Y-87356129D01*
X128824761Y-87376503D01*
X128815388Y-87399131D01*
X128811521Y-87411879D01*
X128811191Y-87412496D01*
X128760357Y-87507600D01*
X128691501Y-87591501D01*
X128607600Y-87660357D01*
X128539055Y-87696995D01*
X128511879Y-87711521D01*
X128408015Y-87743027D01*
X128327067Y-87751000D01*
X128272933Y-87751000D01*
X128191985Y-87743027D01*
X128088121Y-87711521D01*
X128060945Y-87696995D01*
X127992400Y-87660357D01*
X127908499Y-87591501D01*
X127839645Y-87507601D01*
X127839644Y-87507600D01*
X127816236Y-87463807D01*
X127802625Y-87443437D01*
X127785298Y-87426110D01*
X127764924Y-87412496D01*
X127742285Y-87403119D01*
X127718252Y-87398338D01*
X127693748Y-87398338D01*
X127669714Y-87403118D01*
X127647076Y-87412495D01*
X127626701Y-87426109D01*
X127609374Y-87443436D01*
X127595760Y-87463810D01*
X127586383Y-87486449D01*
X127581602Y-87510482D01*
X127581000Y-87522735D01*
X127581000Y-87751000D01*
X126479000Y-87751000D01*
X126479000Y-86649000D01*
X126707265Y-86649000D01*
X126731651Y-86646598D01*
X126755100Y-86639485D01*
X126776711Y-86627934D01*
X126795653Y-86612389D01*
X126811198Y-86593447D01*
X126822749Y-86571836D01*
X126829862Y-86548387D01*
X126832264Y-86524001D01*
X126831058Y-86511748D01*
X127228338Y-86511748D01*
X127228338Y-86536252D01*
X127233118Y-86560286D01*
X127242495Y-86582924D01*
X127256109Y-86603299D01*
X127273436Y-86620626D01*
X127293810Y-86634240D01*
X127316449Y-86643617D01*
X127340482Y-86648398D01*
X127352735Y-86649000D01*
X127581000Y-86649000D01*
X127581000Y-86877265D01*
X127583402Y-86901651D01*
X127590515Y-86925100D01*
X127602066Y-86946711D01*
X127617611Y-86965653D01*
X127636553Y-86981198D01*
X127658164Y-86992749D01*
X127681613Y-86999862D01*
X127705999Y-87002264D01*
X127730385Y-86999862D01*
X127753834Y-86992749D01*
X127775445Y-86981198D01*
X127794387Y-86965653D01*
X127809932Y-86946711D01*
X127816233Y-86936198D01*
X127839644Y-86892400D01*
X127908499Y-86808499D01*
X127992400Y-86739643D01*
X128060945Y-86703005D01*
X128088121Y-86688479D01*
X128100869Y-86684612D01*
X128123496Y-86675240D01*
X128143870Y-86661626D01*
X128161197Y-86644299D01*
X128174811Y-86623925D01*
X128184188Y-86601286D01*
X128188969Y-86577253D01*
X128188969Y-86552749D01*
X128188969Y-86552747D01*
X128411031Y-86552747D01*
X128411031Y-86577251D01*
X128415811Y-86601285D01*
X128425188Y-86623924D01*
X128438802Y-86644298D01*
X128456129Y-86661625D01*
X128476503Y-86675239D01*
X128499131Y-86684612D01*
X128511879Y-86688479D01*
X128539055Y-86703005D01*
X128607600Y-86739643D01*
X128691501Y-86808499D01*
X128760357Y-86892400D01*
X128796995Y-86960945D01*
X128811521Y-86988121D01*
X128815388Y-87000869D01*
X128824760Y-87023496D01*
X128838374Y-87043870D01*
X128855701Y-87061197D01*
X128876075Y-87074811D01*
X128898714Y-87084188D01*
X128922747Y-87088969D01*
X128947251Y-87088969D01*
X128971285Y-87084189D01*
X128993924Y-87074812D01*
X129014298Y-87061198D01*
X129031625Y-87043871D01*
X129045239Y-87023497D01*
X129054612Y-87000869D01*
X129058479Y-86988121D01*
X129073005Y-86960945D01*
X129109643Y-86892400D01*
X129178499Y-86808499D01*
X129262400Y-86739643D01*
X129330945Y-86703005D01*
X129358121Y-86688479D01*
X129370869Y-86684612D01*
X129393496Y-86675240D01*
X129413870Y-86661626D01*
X129431197Y-86644299D01*
X129444811Y-86623925D01*
X129454188Y-86601286D01*
X129458969Y-86577253D01*
X129458969Y-86552749D01*
X129454189Y-86528715D01*
X129444812Y-86506076D01*
X129431198Y-86485702D01*
X129413871Y-86468375D01*
X129393497Y-86454761D01*
X129370869Y-86445388D01*
X129358121Y-86441521D01*
X129317986Y-86420068D01*
X129262400Y-86390357D01*
X129178499Y-86321501D01*
X129109643Y-86237600D01*
X129058481Y-86141882D01*
X129058479Y-86141879D01*
X129054612Y-86129131D01*
X129045240Y-86106504D01*
X129031626Y-86086130D01*
X129014299Y-86068803D01*
X128993925Y-86055189D01*
X128971286Y-86045812D01*
X128947253Y-86041031D01*
X128922749Y-86041031D01*
X128898715Y-86045811D01*
X128876076Y-86055188D01*
X128855702Y-86068802D01*
X128838375Y-86086129D01*
X128824761Y-86106503D01*
X128815388Y-86129131D01*
X128811521Y-86141879D01*
X128811519Y-86141882D01*
X128760357Y-86237600D01*
X128691501Y-86321501D01*
X128607600Y-86390357D01*
X128552014Y-86420068D01*
X128511879Y-86441521D01*
X128499131Y-86445388D01*
X128476504Y-86454760D01*
X128456130Y-86468374D01*
X128438803Y-86485701D01*
X128425189Y-86506075D01*
X128415812Y-86528714D01*
X128411031Y-86552747D01*
X128188969Y-86552747D01*
X128184189Y-86528715D01*
X128174812Y-86506076D01*
X128161198Y-86485702D01*
X128143871Y-86468375D01*
X128123497Y-86454761D01*
X128100869Y-86445388D01*
X128088121Y-86441521D01*
X128047986Y-86420068D01*
X127992400Y-86390357D01*
X127908499Y-86321501D01*
X127839643Y-86237600D01*
X127788481Y-86141882D01*
X127788479Y-86141879D01*
X127784612Y-86129131D01*
X127775240Y-86106504D01*
X127761626Y-86086130D01*
X127744299Y-86068803D01*
X127723925Y-86055189D01*
X127701286Y-86045812D01*
X127677253Y-86041031D01*
X127652749Y-86041031D01*
X127628715Y-86045811D01*
X127606076Y-86055188D01*
X127585702Y-86068802D01*
X127568375Y-86086129D01*
X127554761Y-86106503D01*
X127545388Y-86129131D01*
X127541521Y-86141879D01*
X127541519Y-86141882D01*
X127490357Y-86237600D01*
X127453066Y-86283039D01*
X127421501Y-86321501D01*
X127337600Y-86390356D01*
X127293807Y-86413764D01*
X127273437Y-86427375D01*
X127256110Y-86444702D01*
X127242496Y-86465076D01*
X127233119Y-86487715D01*
X127228338Y-86511748D01*
X126831058Y-86511748D01*
X126829862Y-86499615D01*
X126822749Y-86476166D01*
X126811198Y-86454555D01*
X126795653Y-86435613D01*
X126776711Y-86420068D01*
X126766198Y-86413767D01*
X126722400Y-86390356D01*
X126638499Y-86321501D01*
X126606934Y-86283039D01*
X126569643Y-86237600D01*
X126518481Y-86141882D01*
X126518479Y-86141879D01*
X126486973Y-86038015D01*
X126476334Y-85930000D01*
X126486973Y-85821985D01*
X126518479Y-85718121D01*
X126533005Y-85690945D01*
X126569643Y-85622400D01*
X126638499Y-85538499D01*
X126722400Y-85469643D01*
X126804780Y-85425610D01*
X126818121Y-85418479D01*
X126921985Y-85386973D01*
X127002933Y-85379000D01*
X127057067Y-85379000D01*
X127138015Y-85386973D01*
X127138015Y-85386973D01*
G37*
G36*
X118508015Y-85386973D02*
G01*
X118611879Y-85418479D01*
X118625220Y-85425610D01*
X118707600Y-85469643D01*
X118791501Y-85538499D01*
X118860357Y-85622400D01*
X118896995Y-85690945D01*
X118911521Y-85718121D01*
X118915388Y-85730869D01*
X118924760Y-85753496D01*
X118938374Y-85773870D01*
X118955701Y-85791197D01*
X118976075Y-85804811D01*
X118998714Y-85814188D01*
X119022747Y-85818969D01*
X119047251Y-85818969D01*
X119071285Y-85814189D01*
X119093924Y-85804812D01*
X119114298Y-85791198D01*
X119131625Y-85773871D01*
X119145239Y-85753497D01*
X119154612Y-85730869D01*
X119158479Y-85718121D01*
X119173005Y-85690945D01*
X119209643Y-85622400D01*
X119278499Y-85538499D01*
X119362400Y-85469643D01*
X119444780Y-85425610D01*
X119458121Y-85418479D01*
X119561985Y-85386973D01*
X119642933Y-85379000D01*
X119697067Y-85379000D01*
X119778015Y-85386973D01*
X119881879Y-85418479D01*
X119895220Y-85425610D01*
X119977600Y-85469643D01*
X120061501Y-85538499D01*
X120130357Y-85622400D01*
X120166995Y-85690945D01*
X120181521Y-85718121D01*
X120185388Y-85730869D01*
X120194760Y-85753496D01*
X120208374Y-85773870D01*
X120225701Y-85791197D01*
X120246075Y-85804811D01*
X120268714Y-85814188D01*
X120292747Y-85818969D01*
X120317251Y-85818969D01*
X120341285Y-85814189D01*
X120363924Y-85804812D01*
X120384298Y-85791198D01*
X120401625Y-85773871D01*
X120415239Y-85753497D01*
X120424612Y-85730869D01*
X120428479Y-85718121D01*
X120443005Y-85690945D01*
X120479643Y-85622400D01*
X120548499Y-85538499D01*
X120632400Y-85469643D01*
X120714780Y-85425610D01*
X120728121Y-85418479D01*
X120831985Y-85386973D01*
X120912933Y-85379000D01*
X120967067Y-85379000D01*
X121048015Y-85386973D01*
X121151879Y-85418479D01*
X121165220Y-85425610D01*
X121247600Y-85469643D01*
X121331501Y-85538499D01*
X121400357Y-85622400D01*
X121436995Y-85690945D01*
X121451521Y-85718121D01*
X121455388Y-85730869D01*
X121464760Y-85753496D01*
X121478374Y-85773870D01*
X121495701Y-85791197D01*
X121516075Y-85804811D01*
X121538714Y-85814188D01*
X121562747Y-85818969D01*
X121587251Y-85818969D01*
X121611285Y-85814189D01*
X121633924Y-85804812D01*
X121654298Y-85791198D01*
X121671625Y-85773871D01*
X121685239Y-85753497D01*
X121694612Y-85730869D01*
X121698479Y-85718121D01*
X121713005Y-85690945D01*
X121749643Y-85622400D01*
X121818499Y-85538499D01*
X121902400Y-85469643D01*
X121984780Y-85425610D01*
X121998121Y-85418479D01*
X122101985Y-85386973D01*
X122182933Y-85379000D01*
X122237067Y-85379000D01*
X122318015Y-85386973D01*
X122421879Y-85418479D01*
X122435220Y-85425610D01*
X122517600Y-85469643D01*
X122601501Y-85538499D01*
X122670357Y-85622400D01*
X122706995Y-85690945D01*
X122721521Y-85718121D01*
X122725388Y-85730869D01*
X122734760Y-85753496D01*
X122748374Y-85773870D01*
X122765701Y-85791197D01*
X122786075Y-85804811D01*
X122808714Y-85814188D01*
X122832747Y-85818969D01*
X122857251Y-85818969D01*
X122881285Y-85814189D01*
X122903924Y-85804812D01*
X122924298Y-85791198D01*
X122941625Y-85773871D01*
X122955239Y-85753497D01*
X122964612Y-85730869D01*
X122968479Y-85718121D01*
X122983005Y-85690945D01*
X123019643Y-85622400D01*
X123088499Y-85538499D01*
X123172400Y-85469643D01*
X123254780Y-85425610D01*
X123268121Y-85418479D01*
X123371985Y-85386973D01*
X123452933Y-85379000D01*
X123507067Y-85379000D01*
X123588015Y-85386973D01*
X123691879Y-85418479D01*
X123705220Y-85425610D01*
X123787600Y-85469643D01*
X123871501Y-85538499D01*
X123940357Y-85622400D01*
X123976995Y-85690945D01*
X123991521Y-85718121D01*
X124023027Y-85821985D01*
X124033666Y-85930000D01*
X124023027Y-86038015D01*
X123991521Y-86141879D01*
X123991519Y-86141882D01*
X123940357Y-86237600D01*
X123871501Y-86321501D01*
X123787600Y-86390357D01*
X123732014Y-86420068D01*
X123691879Y-86441521D01*
X123679131Y-86445388D01*
X123656504Y-86454760D01*
X123636130Y-86468374D01*
X123618803Y-86485701D01*
X123605189Y-86506075D01*
X123595812Y-86528714D01*
X123591031Y-86552747D01*
X123591031Y-86577251D01*
X123595811Y-86601285D01*
X123605188Y-86623924D01*
X123618802Y-86644298D01*
X123636129Y-86661625D01*
X123656503Y-86675239D01*
X123679131Y-86684612D01*
X123691879Y-86688479D01*
X123719055Y-86703005D01*
X123787600Y-86739643D01*
X123871501Y-86808499D01*
X123940357Y-86892400D01*
X123976995Y-86960945D01*
X123991521Y-86988121D01*
X124023027Y-87091985D01*
X124033666Y-87200000D01*
X124023027Y-87308015D01*
X123991521Y-87411879D01*
X123991191Y-87412496D01*
X123940357Y-87507600D01*
X123871501Y-87591501D01*
X123787600Y-87660357D01*
X123719055Y-87696995D01*
X123691879Y-87711521D01*
X123588015Y-87743027D01*
X123507067Y-87751000D01*
X123452933Y-87751000D01*
X123371985Y-87743027D01*
X123268121Y-87711521D01*
X123240945Y-87696995D01*
X123172400Y-87660357D01*
X123088499Y-87591501D01*
X123019643Y-87507600D01*
X122968809Y-87412496D01*
X122968479Y-87411879D01*
X122964612Y-87399131D01*
X122955240Y-87376504D01*
X122941626Y-87356130D01*
X122924299Y-87338803D01*
X122903925Y-87325189D01*
X122881286Y-87315812D01*
X122857253Y-87311031D01*
X122832749Y-87311031D01*
X122808715Y-87315811D01*
X122786076Y-87325188D01*
X122765702Y-87338802D01*
X122748375Y-87356129D01*
X122734761Y-87376503D01*
X122725388Y-87399131D01*
X122721521Y-87411879D01*
X122721191Y-87412496D01*
X122670357Y-87507600D01*
X122601501Y-87591501D01*
X122517600Y-87660357D01*
X122449055Y-87696995D01*
X122421879Y-87711521D01*
X122318015Y-87743027D01*
X122237067Y-87751000D01*
X122182933Y-87751000D01*
X122101985Y-87743027D01*
X121998121Y-87711521D01*
X121970945Y-87696995D01*
X121902400Y-87660357D01*
X121818499Y-87591501D01*
X121749643Y-87507600D01*
X121698809Y-87412496D01*
X121698479Y-87411879D01*
X121694612Y-87399131D01*
X121685240Y-87376504D01*
X121671626Y-87356130D01*
X121654299Y-87338803D01*
X121633925Y-87325189D01*
X121611286Y-87315812D01*
X121587253Y-87311031D01*
X121562749Y-87311031D01*
X121538715Y-87315811D01*
X121516076Y-87325188D01*
X121495702Y-87338802D01*
X121478375Y-87356129D01*
X121464761Y-87376503D01*
X121455388Y-87399131D01*
X121451521Y-87411879D01*
X121451191Y-87412496D01*
X121400357Y-87507600D01*
X121331501Y-87591501D01*
X121247600Y-87660357D01*
X121179055Y-87696995D01*
X121151879Y-87711521D01*
X121048015Y-87743027D01*
X120967067Y-87751000D01*
X120912933Y-87751000D01*
X120831985Y-87743027D01*
X120728121Y-87711521D01*
X120700945Y-87696995D01*
X120632400Y-87660357D01*
X120548499Y-87591501D01*
X120479643Y-87507600D01*
X120428809Y-87412496D01*
X120428479Y-87411879D01*
X120424612Y-87399131D01*
X120415240Y-87376504D01*
X120401626Y-87356130D01*
X120384299Y-87338803D01*
X120363925Y-87325189D01*
X120341286Y-87315812D01*
X120317253Y-87311031D01*
X120292749Y-87311031D01*
X120268715Y-87315811D01*
X120246076Y-87325188D01*
X120225702Y-87338802D01*
X120208375Y-87356129D01*
X120194761Y-87376503D01*
X120185388Y-87399131D01*
X120181521Y-87411879D01*
X120181191Y-87412496D01*
X120130357Y-87507600D01*
X120061501Y-87591501D01*
X119977600Y-87660357D01*
X119909055Y-87696995D01*
X119881879Y-87711521D01*
X119778015Y-87743027D01*
X119697067Y-87751000D01*
X119642933Y-87751000D01*
X119561985Y-87743027D01*
X119458121Y-87711521D01*
X119430945Y-87696995D01*
X119362400Y-87660357D01*
X119278499Y-87591501D01*
X119209645Y-87507601D01*
X119209644Y-87507600D01*
X119186236Y-87463807D01*
X119172625Y-87443437D01*
X119155298Y-87426110D01*
X119134924Y-87412496D01*
X119112285Y-87403119D01*
X119088252Y-87398338D01*
X119063748Y-87398338D01*
X119039714Y-87403118D01*
X119017076Y-87412495D01*
X118996701Y-87426109D01*
X118979374Y-87443436D01*
X118965760Y-87463810D01*
X118956383Y-87486449D01*
X118951602Y-87510482D01*
X118951000Y-87522735D01*
X118951000Y-87751000D01*
X117849000Y-87751000D01*
X117849000Y-86649000D01*
X118077265Y-86649000D01*
X118101651Y-86646598D01*
X118125100Y-86639485D01*
X118146711Y-86627934D01*
X118165653Y-86612389D01*
X118181198Y-86593447D01*
X118192749Y-86571836D01*
X118199862Y-86548387D01*
X118202264Y-86524001D01*
X118201058Y-86511748D01*
X118598338Y-86511748D01*
X118598338Y-86536252D01*
X118603118Y-86560286D01*
X118612495Y-86582924D01*
X118626109Y-86603299D01*
X118643436Y-86620626D01*
X118663810Y-86634240D01*
X118686449Y-86643617D01*
X118710482Y-86648398D01*
X118722735Y-86649000D01*
X118951000Y-86649000D01*
X118951000Y-86877265D01*
X118953402Y-86901651D01*
X118960515Y-86925100D01*
X118972066Y-86946711D01*
X118987611Y-86965653D01*
X119006553Y-86981198D01*
X119028164Y-86992749D01*
X119051613Y-86999862D01*
X119075999Y-87002264D01*
X119100385Y-86999862D01*
X119123834Y-86992749D01*
X119145445Y-86981198D01*
X119164387Y-86965653D01*
X119179932Y-86946711D01*
X119186233Y-86936198D01*
X119209644Y-86892400D01*
X119278499Y-86808499D01*
X119362400Y-86739643D01*
X119430945Y-86703005D01*
X119458121Y-86688479D01*
X119470869Y-86684612D01*
X119493496Y-86675240D01*
X119513870Y-86661626D01*
X119531197Y-86644299D01*
X119544811Y-86623925D01*
X119554188Y-86601286D01*
X119558969Y-86577253D01*
X119558969Y-86552749D01*
X119558969Y-86552747D01*
X119781031Y-86552747D01*
X119781031Y-86577251D01*
X119785811Y-86601285D01*
X119795188Y-86623924D01*
X119808802Y-86644298D01*
X119826129Y-86661625D01*
X119846503Y-86675239D01*
X119869131Y-86684612D01*
X119881879Y-86688479D01*
X119909055Y-86703005D01*
X119977600Y-86739643D01*
X120061501Y-86808499D01*
X120130357Y-86892400D01*
X120166995Y-86960945D01*
X120181521Y-86988121D01*
X120185388Y-87000869D01*
X120194760Y-87023496D01*
X120208374Y-87043870D01*
X120225701Y-87061197D01*
X120246075Y-87074811D01*
X120268714Y-87084188D01*
X120292747Y-87088969D01*
X120317251Y-87088969D01*
X120341285Y-87084189D01*
X120363924Y-87074812D01*
X120384298Y-87061198D01*
X120401625Y-87043871D01*
X120415239Y-87023497D01*
X120424612Y-87000869D01*
X120428479Y-86988121D01*
X120443005Y-86960945D01*
X120479643Y-86892400D01*
X120548499Y-86808499D01*
X120632400Y-86739643D01*
X120700945Y-86703005D01*
X120728121Y-86688479D01*
X120740869Y-86684612D01*
X120763496Y-86675240D01*
X120783870Y-86661626D01*
X120801197Y-86644299D01*
X120814811Y-86623925D01*
X120824188Y-86601286D01*
X120828969Y-86577253D01*
X120828969Y-86552749D01*
X120828969Y-86552747D01*
X121051031Y-86552747D01*
X121051031Y-86577251D01*
X121055811Y-86601285D01*
X121065188Y-86623924D01*
X121078802Y-86644298D01*
X121096129Y-86661625D01*
X121116503Y-86675239D01*
X121139131Y-86684612D01*
X121151879Y-86688479D01*
X121179055Y-86703005D01*
X121247600Y-86739643D01*
X121331501Y-86808499D01*
X121400357Y-86892400D01*
X121436995Y-86960945D01*
X121451521Y-86988121D01*
X121455388Y-87000869D01*
X121464760Y-87023496D01*
X121478374Y-87043870D01*
X121495701Y-87061197D01*
X121516075Y-87074811D01*
X121538714Y-87084188D01*
X121562747Y-87088969D01*
X121587251Y-87088969D01*
X121611285Y-87084189D01*
X121633924Y-87074812D01*
X121654298Y-87061198D01*
X121671625Y-87043871D01*
X121685239Y-87023497D01*
X121694612Y-87000869D01*
X121698479Y-86988121D01*
X121713005Y-86960945D01*
X121749643Y-86892400D01*
X121818499Y-86808499D01*
X121902400Y-86739643D01*
X121970945Y-86703005D01*
X121998121Y-86688479D01*
X122010869Y-86684612D01*
X122033496Y-86675240D01*
X122053870Y-86661626D01*
X122071197Y-86644299D01*
X122084811Y-86623925D01*
X122094188Y-86601286D01*
X122098969Y-86577253D01*
X122098969Y-86552749D01*
X122098969Y-86552747D01*
X122321031Y-86552747D01*
X122321031Y-86577251D01*
X122325811Y-86601285D01*
X122335188Y-86623924D01*
X122348802Y-86644298D01*
X122366129Y-86661625D01*
X122386503Y-86675239D01*
X122409131Y-86684612D01*
X122421879Y-86688479D01*
X122449055Y-86703005D01*
X122517600Y-86739643D01*
X122601501Y-86808499D01*
X122670357Y-86892400D01*
X122706995Y-86960945D01*
X122721521Y-86988121D01*
X122725388Y-87000869D01*
X122734760Y-87023496D01*
X122748374Y-87043870D01*
X122765701Y-87061197D01*
X122786075Y-87074811D01*
X122808714Y-87084188D01*
X122832747Y-87088969D01*
X122857251Y-87088969D01*
X122881285Y-87084189D01*
X122903924Y-87074812D01*
X122924298Y-87061198D01*
X122941625Y-87043871D01*
X122955239Y-87023497D01*
X122964612Y-87000869D01*
X122968479Y-86988121D01*
X122983005Y-86960945D01*
X123019643Y-86892400D01*
X123088499Y-86808499D01*
X123172400Y-86739643D01*
X123240945Y-86703005D01*
X123268121Y-86688479D01*
X123280869Y-86684612D01*
X123303496Y-86675240D01*
X123323870Y-86661626D01*
X123341197Y-86644299D01*
X123354811Y-86623925D01*
X123364188Y-86601286D01*
X123368969Y-86577253D01*
X123368969Y-86552749D01*
X123364189Y-86528715D01*
X123354812Y-86506076D01*
X123341198Y-86485702D01*
X123323871Y-86468375D01*
X123303497Y-86454761D01*
X123280869Y-86445388D01*
X123268121Y-86441521D01*
X123227986Y-86420068D01*
X123172400Y-86390357D01*
X123088499Y-86321501D01*
X123019643Y-86237600D01*
X122968481Y-86141882D01*
X122968479Y-86141879D01*
X122964612Y-86129131D01*
X122955240Y-86106504D01*
X122941626Y-86086130D01*
X122924299Y-86068803D01*
X122903925Y-86055189D01*
X122881286Y-86045812D01*
X122857253Y-86041031D01*
X122832749Y-86041031D01*
X122808715Y-86045811D01*
X122786076Y-86055188D01*
X122765702Y-86068802D01*
X122748375Y-86086129D01*
X122734761Y-86106503D01*
X122725388Y-86129131D01*
X122721521Y-86141879D01*
X122721519Y-86141882D01*
X122670357Y-86237600D01*
X122601501Y-86321501D01*
X122517600Y-86390357D01*
X122462014Y-86420068D01*
X122421879Y-86441521D01*
X122409131Y-86445388D01*
X122386504Y-86454760D01*
X122366130Y-86468374D01*
X122348803Y-86485701D01*
X122335189Y-86506075D01*
X122325812Y-86528714D01*
X122321031Y-86552747D01*
X122098969Y-86552747D01*
X122094189Y-86528715D01*
X122084812Y-86506076D01*
X122071198Y-86485702D01*
X122053871Y-86468375D01*
X122033497Y-86454761D01*
X122010869Y-86445388D01*
X121998121Y-86441521D01*
X121957986Y-86420068D01*
X121902400Y-86390357D01*
X121818499Y-86321501D01*
X121749643Y-86237600D01*
X121698481Y-86141882D01*
X121698479Y-86141879D01*
X121694612Y-86129131D01*
X121685240Y-86106504D01*
X121671626Y-86086130D01*
X121654299Y-86068803D01*
X121633925Y-86055189D01*
X121611286Y-86045812D01*
X121587253Y-86041031D01*
X121562749Y-86041031D01*
X121538715Y-86045811D01*
X121516076Y-86055188D01*
X121495702Y-86068802D01*
X121478375Y-86086129D01*
X121464761Y-86106503D01*
X121455388Y-86129131D01*
X121451521Y-86141879D01*
X121451519Y-86141882D01*
X121400357Y-86237600D01*
X121331501Y-86321501D01*
X121247600Y-86390357D01*
X121192014Y-86420068D01*
X121151879Y-86441521D01*
X121139131Y-86445388D01*
X121116504Y-86454760D01*
X121096130Y-86468374D01*
X121078803Y-86485701D01*
X121065189Y-86506075D01*
X121055812Y-86528714D01*
X121051031Y-86552747D01*
X120828969Y-86552747D01*
X120824189Y-86528715D01*
X120814812Y-86506076D01*
X120801198Y-86485702D01*
X120783871Y-86468375D01*
X120763497Y-86454761D01*
X120740869Y-86445388D01*
X120728121Y-86441521D01*
X120687986Y-86420068D01*
X120632400Y-86390357D01*
X120548499Y-86321501D01*
X120479643Y-86237600D01*
X120428481Y-86141882D01*
X120428479Y-86141879D01*
X120424612Y-86129131D01*
X120415240Y-86106504D01*
X120401626Y-86086130D01*
X120384299Y-86068803D01*
X120363925Y-86055189D01*
X120341286Y-86045812D01*
X120317253Y-86041031D01*
X120292749Y-86041031D01*
X120268715Y-86045811D01*
X120246076Y-86055188D01*
X120225702Y-86068802D01*
X120208375Y-86086129D01*
X120194761Y-86106503D01*
X120185388Y-86129131D01*
X120181521Y-86141879D01*
X120181519Y-86141882D01*
X120130357Y-86237600D01*
X120061501Y-86321501D01*
X119977600Y-86390357D01*
X119922014Y-86420068D01*
X119881879Y-86441521D01*
X119869131Y-86445388D01*
X119846504Y-86454760D01*
X119826130Y-86468374D01*
X119808803Y-86485701D01*
X119795189Y-86506075D01*
X119785812Y-86528714D01*
X119781031Y-86552747D01*
X119558969Y-86552747D01*
X119554189Y-86528715D01*
X119544812Y-86506076D01*
X119531198Y-86485702D01*
X119513871Y-86468375D01*
X119493497Y-86454761D01*
X119470869Y-86445388D01*
X119458121Y-86441521D01*
X119417986Y-86420068D01*
X119362400Y-86390357D01*
X119278499Y-86321501D01*
X119209643Y-86237600D01*
X119158481Y-86141882D01*
X119158479Y-86141879D01*
X119154612Y-86129131D01*
X119145240Y-86106504D01*
X119131626Y-86086130D01*
X119114299Y-86068803D01*
X119093925Y-86055189D01*
X119071286Y-86045812D01*
X119047253Y-86041031D01*
X119022749Y-86041031D01*
X118998715Y-86045811D01*
X118976076Y-86055188D01*
X118955702Y-86068802D01*
X118938375Y-86086129D01*
X118924761Y-86106503D01*
X118915388Y-86129131D01*
X118911521Y-86141879D01*
X118911519Y-86141882D01*
X118860357Y-86237600D01*
X118823066Y-86283039D01*
X118791501Y-86321501D01*
X118707600Y-86390356D01*
X118663807Y-86413764D01*
X118643437Y-86427375D01*
X118626110Y-86444702D01*
X118612496Y-86465076D01*
X118603119Y-86487715D01*
X118598338Y-86511748D01*
X118201058Y-86511748D01*
X118199862Y-86499615D01*
X118192749Y-86476166D01*
X118181198Y-86454555D01*
X118165653Y-86435613D01*
X118146711Y-86420068D01*
X118136198Y-86413767D01*
X118092400Y-86390356D01*
X118008499Y-86321501D01*
X117976934Y-86283039D01*
X117939643Y-86237600D01*
X117888481Y-86141882D01*
X117888479Y-86141879D01*
X117856973Y-86038015D01*
X117846334Y-85930000D01*
X117856973Y-85821985D01*
X117888479Y-85718121D01*
X117903005Y-85690945D01*
X117939643Y-85622400D01*
X118008499Y-85538499D01*
X118092400Y-85469643D01*
X118174780Y-85425610D01*
X118188121Y-85418479D01*
X118291985Y-85386973D01*
X118372933Y-85379000D01*
X118427067Y-85379000D01*
X118508015Y-85386973D01*
X118508015Y-85386973D01*
G37*
G36*
X134024631Y-86215585D02*
G01*
X134058609Y-86225893D01*
X134089930Y-86242634D01*
X134117379Y-86265161D01*
X134139906Y-86292610D01*
X134156647Y-86323931D01*
X134166955Y-86357909D01*
X134171040Y-86399390D01*
X134171040Y-87000610D01*
X134166955Y-87042091D01*
X134156647Y-87076069D01*
X134139906Y-87107390D01*
X134117379Y-87134839D01*
X134089930Y-87157366D01*
X134058609Y-87174107D01*
X134024631Y-87184415D01*
X133983150Y-87188500D01*
X133306930Y-87188500D01*
X133265449Y-87184415D01*
X133231471Y-87174107D01*
X133200150Y-87157366D01*
X133172701Y-87134839D01*
X133150174Y-87107390D01*
X133133433Y-87076069D01*
X133123125Y-87042091D01*
X133119040Y-87000610D01*
X133119040Y-86399390D01*
X133123125Y-86357909D01*
X133133433Y-86323931D01*
X133150174Y-86292610D01*
X133172701Y-86265161D01*
X133200150Y-86242634D01*
X133231471Y-86225893D01*
X133265449Y-86215585D01*
X133306930Y-86211500D01*
X133983150Y-86211500D01*
X134024631Y-86215585D01*
X134024631Y-86215585D01*
G37*
G36*
X107110442Y-85196898D02*
G01*
X107176627Y-85203417D01*
X107346466Y-85254937D01*
X107502991Y-85338602D01*
X107538729Y-85367932D01*
X107640186Y-85451194D01*
X107711834Y-85538499D01*
X107752778Y-85588389D01*
X107836443Y-85744914D01*
X107887963Y-85914753D01*
X107905359Y-86091380D01*
X107887963Y-86268007D01*
X107836443Y-86437846D01*
X107752778Y-86594371D01*
X107737991Y-86612389D01*
X107640186Y-86731566D01*
X107546441Y-86808499D01*
X107502991Y-86844158D01*
X107346466Y-86927823D01*
X107176627Y-86979343D01*
X107110443Y-86985861D01*
X107044260Y-86992380D01*
X106955740Y-86992380D01*
X106889557Y-86985861D01*
X106823373Y-86979343D01*
X106653534Y-86927823D01*
X106497009Y-86844158D01*
X106453559Y-86808499D01*
X106359814Y-86731566D01*
X106262009Y-86612389D01*
X106247222Y-86594371D01*
X106163557Y-86437846D01*
X106112037Y-86268007D01*
X106094641Y-86091380D01*
X106112037Y-85914753D01*
X106163557Y-85744914D01*
X106247222Y-85588389D01*
X106288166Y-85538499D01*
X106359814Y-85451194D01*
X106461271Y-85367932D01*
X106497009Y-85338602D01*
X106653534Y-85254937D01*
X106823373Y-85203417D01*
X106889558Y-85196898D01*
X106955740Y-85190380D01*
X107044260Y-85190380D01*
X107110442Y-85196898D01*
X107110442Y-85196898D01*
G37*
G36*
X144110442Y-85196898D02*
G01*
X144176627Y-85203417D01*
X144346466Y-85254937D01*
X144502991Y-85338602D01*
X144538729Y-85367932D01*
X144640186Y-85451194D01*
X144711834Y-85538499D01*
X144752778Y-85588389D01*
X144836443Y-85744914D01*
X144887963Y-85914753D01*
X144905359Y-86091380D01*
X144887963Y-86268007D01*
X144836443Y-86437846D01*
X144752778Y-86594371D01*
X144737991Y-86612389D01*
X144640186Y-86731566D01*
X144546441Y-86808499D01*
X144502991Y-86844158D01*
X144346466Y-86927823D01*
X144176627Y-86979343D01*
X144110443Y-86985861D01*
X144044260Y-86992380D01*
X143955740Y-86992380D01*
X143889557Y-86985861D01*
X143823373Y-86979343D01*
X143653534Y-86927823D01*
X143497009Y-86844158D01*
X143453559Y-86808499D01*
X143359814Y-86731566D01*
X143262009Y-86612389D01*
X143247222Y-86594371D01*
X143163557Y-86437846D01*
X143112037Y-86268007D01*
X143094641Y-86091380D01*
X143112037Y-85914753D01*
X143163557Y-85744914D01*
X143247222Y-85588389D01*
X143288166Y-85538499D01*
X143359814Y-85451194D01*
X143461271Y-85367932D01*
X143497009Y-85338602D01*
X143653534Y-85254937D01*
X143823373Y-85203417D01*
X143889558Y-85196898D01*
X143955740Y-85190380D01*
X144044260Y-85190380D01*
X144110442Y-85196898D01*
X144110442Y-85196898D01*
G37*
G36*
X134024631Y-84640585D02*
G01*
X134058609Y-84650893D01*
X134089930Y-84667634D01*
X134117379Y-84690161D01*
X134139906Y-84717610D01*
X134156647Y-84748931D01*
X134166955Y-84782909D01*
X134171040Y-84824390D01*
X134171040Y-85425610D01*
X134166955Y-85467091D01*
X134156647Y-85501069D01*
X134139906Y-85532390D01*
X134117379Y-85559839D01*
X134089930Y-85582366D01*
X134058609Y-85599107D01*
X134024631Y-85609415D01*
X133983150Y-85613500D01*
X133306930Y-85613500D01*
X133265449Y-85609415D01*
X133231471Y-85599107D01*
X133200150Y-85582366D01*
X133172701Y-85559839D01*
X133150174Y-85532390D01*
X133133433Y-85501069D01*
X133123125Y-85467091D01*
X133119040Y-85425610D01*
X133119040Y-84824390D01*
X133123125Y-84782909D01*
X133133433Y-84748931D01*
X133150174Y-84717610D01*
X133172701Y-84690161D01*
X133200150Y-84667634D01*
X133231471Y-84650893D01*
X133265449Y-84640585D01*
X133306930Y-84636500D01*
X133983150Y-84636500D01*
X134024631Y-84640585D01*
X134024631Y-84640585D01*
G37*
G36*
X144110443Y-82656899D02*
G01*
X144176627Y-82663417D01*
X144346466Y-82714937D01*
X144502991Y-82798602D01*
X144538729Y-82827932D01*
X144640186Y-82911194D01*
X144723448Y-83012651D01*
X144752778Y-83048389D01*
X144836443Y-83204914D01*
X144887963Y-83374753D01*
X144905359Y-83551380D01*
X144887963Y-83728007D01*
X144836443Y-83897846D01*
X144752778Y-84054371D01*
X144723448Y-84090109D01*
X144640186Y-84191566D01*
X144538729Y-84274828D01*
X144502991Y-84304158D01*
X144346466Y-84387823D01*
X144176627Y-84439343D01*
X144110442Y-84445862D01*
X144044260Y-84452380D01*
X143955740Y-84452380D01*
X143889558Y-84445862D01*
X143823373Y-84439343D01*
X143653534Y-84387823D01*
X143497009Y-84304158D01*
X143461271Y-84274828D01*
X143359814Y-84191566D01*
X143276552Y-84090109D01*
X143247222Y-84054371D01*
X143163557Y-83897846D01*
X143112037Y-83728007D01*
X143094641Y-83551380D01*
X143112037Y-83374753D01*
X143163557Y-83204914D01*
X143247222Y-83048389D01*
X143276552Y-83012651D01*
X143359814Y-82911194D01*
X143461271Y-82827932D01*
X143497009Y-82798602D01*
X143653534Y-82714937D01*
X143823373Y-82663417D01*
X143889557Y-82656899D01*
X143955740Y-82650380D01*
X144044260Y-82650380D01*
X144110443Y-82656899D01*
X144110443Y-82656899D01*
G37*
G36*
X107110443Y-82656899D02*
G01*
X107176627Y-82663417D01*
X107346466Y-82714937D01*
X107502991Y-82798602D01*
X107538729Y-82827932D01*
X107640186Y-82911194D01*
X107723448Y-83012651D01*
X107752778Y-83048389D01*
X107836443Y-83204914D01*
X107887963Y-83374753D01*
X107905359Y-83551380D01*
X107887963Y-83728007D01*
X107836443Y-83897846D01*
X107752778Y-84054371D01*
X107723448Y-84090109D01*
X107640186Y-84191566D01*
X107538729Y-84274828D01*
X107502991Y-84304158D01*
X107346466Y-84387823D01*
X107176627Y-84439343D01*
X107110442Y-84445862D01*
X107044260Y-84452380D01*
X106955740Y-84452380D01*
X106889558Y-84445862D01*
X106823373Y-84439343D01*
X106653534Y-84387823D01*
X106497009Y-84304158D01*
X106461271Y-84274828D01*
X106359814Y-84191566D01*
X106276552Y-84090109D01*
X106247222Y-84054371D01*
X106163557Y-83897846D01*
X106112037Y-83728007D01*
X106094641Y-83551380D01*
X106112037Y-83374753D01*
X106163557Y-83204914D01*
X106247222Y-83048389D01*
X106276552Y-83012651D01*
X106359814Y-82911194D01*
X106461271Y-82827932D01*
X106497009Y-82798602D01*
X106653534Y-82714937D01*
X106823373Y-82663417D01*
X106889557Y-82656899D01*
X106955740Y-82650380D01*
X107044260Y-82650380D01*
X107110443Y-82656899D01*
X107110443Y-82656899D01*
G37*
G36*
X144110443Y-80116899D02*
G01*
X144176627Y-80123417D01*
X144346466Y-80174937D01*
X144502991Y-80258602D01*
X144538729Y-80287932D01*
X144640186Y-80371194D01*
X144723448Y-80472651D01*
X144752778Y-80508389D01*
X144836443Y-80664914D01*
X144887963Y-80834753D01*
X144905359Y-81011380D01*
X144887963Y-81188007D01*
X144836443Y-81357846D01*
X144752778Y-81514371D01*
X144723448Y-81550109D01*
X144640186Y-81651566D01*
X144538729Y-81734828D01*
X144502991Y-81764158D01*
X144346466Y-81847823D01*
X144176627Y-81899343D01*
X144110443Y-81905861D01*
X144044260Y-81912380D01*
X143955740Y-81912380D01*
X143889557Y-81905861D01*
X143823373Y-81899343D01*
X143653534Y-81847823D01*
X143497009Y-81764158D01*
X143461271Y-81734828D01*
X143359814Y-81651566D01*
X143276552Y-81550109D01*
X143247222Y-81514371D01*
X143163557Y-81357846D01*
X143112037Y-81188007D01*
X143094641Y-81011380D01*
X143112037Y-80834753D01*
X143163557Y-80664914D01*
X143247222Y-80508389D01*
X143276552Y-80472651D01*
X143359814Y-80371194D01*
X143461271Y-80287932D01*
X143497009Y-80258602D01*
X143653534Y-80174937D01*
X143823373Y-80123417D01*
X143889557Y-80116899D01*
X143955740Y-80110380D01*
X144044260Y-80110380D01*
X144110443Y-80116899D01*
X144110443Y-80116899D01*
G37*
G36*
X107110443Y-80116899D02*
G01*
X107176627Y-80123417D01*
X107346466Y-80174937D01*
X107502991Y-80258602D01*
X107538729Y-80287932D01*
X107640186Y-80371194D01*
X107723448Y-80472651D01*
X107752778Y-80508389D01*
X107836443Y-80664914D01*
X107887963Y-80834753D01*
X107905359Y-81011380D01*
X107887963Y-81188007D01*
X107836443Y-81357846D01*
X107752778Y-81514371D01*
X107723448Y-81550109D01*
X107640186Y-81651566D01*
X107538729Y-81734828D01*
X107502991Y-81764158D01*
X107346466Y-81847823D01*
X107176627Y-81899343D01*
X107110443Y-81905861D01*
X107044260Y-81912380D01*
X106955740Y-81912380D01*
X106889557Y-81905861D01*
X106823373Y-81899343D01*
X106653534Y-81847823D01*
X106497009Y-81764158D01*
X106461271Y-81734828D01*
X106359814Y-81651566D01*
X106276552Y-81550109D01*
X106247222Y-81514371D01*
X106163557Y-81357846D01*
X106112037Y-81188007D01*
X106094641Y-81011380D01*
X106112037Y-80834753D01*
X106163557Y-80664914D01*
X106247222Y-80508389D01*
X106276552Y-80472651D01*
X106359814Y-80371194D01*
X106461271Y-80287932D01*
X106497009Y-80258602D01*
X106653534Y-80174937D01*
X106823373Y-80123417D01*
X106889557Y-80116899D01*
X106955740Y-80110380D01*
X107044260Y-80110380D01*
X107110443Y-80116899D01*
X107110443Y-80116899D01*
G37*
G36*
X130091040Y-81792380D02*
G01*
X129089040Y-81792380D01*
X129089040Y-79690380D01*
X130091040Y-79690380D01*
X130091040Y-81792380D01*
X130091040Y-81792380D01*
G37*
G36*
X119931040Y-81792380D02*
G01*
X118929040Y-81792380D01*
X118929040Y-79690380D01*
X119931040Y-79690380D01*
X119931040Y-81792380D01*
X119931040Y-81792380D01*
G37*
G36*
X131361040Y-81792380D02*
G01*
X130359040Y-81792380D01*
X130359040Y-79690380D01*
X131361040Y-79690380D01*
X131361040Y-81792380D01*
X131361040Y-81792380D01*
G37*
G36*
X128821040Y-81792380D02*
G01*
X127819040Y-81792380D01*
X127819040Y-79690380D01*
X128821040Y-79690380D01*
X128821040Y-81792380D01*
X128821040Y-81792380D01*
G37*
G36*
X127551040Y-81792380D02*
G01*
X126549040Y-81792380D01*
X126549040Y-79690380D01*
X127551040Y-79690380D01*
X127551040Y-81792380D01*
X127551040Y-81792380D01*
G37*
G36*
X126281040Y-81792380D02*
G01*
X125279040Y-81792380D01*
X125279040Y-79690380D01*
X126281040Y-79690380D01*
X126281040Y-81792380D01*
X126281040Y-81792380D01*
G37*
G36*
X121201040Y-81792380D02*
G01*
X120199040Y-81792380D01*
X120199040Y-79690380D01*
X121201040Y-79690380D01*
X121201040Y-81792380D01*
X121201040Y-81792380D01*
G37*
G36*
X122471040Y-81792380D02*
G01*
X121469040Y-81792380D01*
X121469040Y-79690380D01*
X122471040Y-79690380D01*
X122471040Y-81792380D01*
X122471040Y-81792380D01*
G37*
G36*
X123741040Y-81792380D02*
G01*
X122739040Y-81792380D01*
X122739040Y-79690380D01*
X123741040Y-79690380D01*
X123741040Y-81792380D01*
X123741040Y-81792380D01*
G37*
G36*
X125011040Y-81792380D02*
G01*
X124009040Y-81792380D01*
X124009040Y-79690380D01*
X125011040Y-79690380D01*
X125011040Y-81792380D01*
X125011040Y-81792380D01*
G37*
G36*
X117696040Y-80242380D02*
G01*
X115594040Y-80242380D01*
X115594040Y-79240380D01*
X117696040Y-79240380D01*
X117696040Y-80242380D01*
X117696040Y-80242380D01*
G37*
G36*
X134696040Y-80242380D02*
G01*
X132594040Y-80242380D01*
X132594040Y-79240380D01*
X134696040Y-79240380D01*
X134696040Y-80242380D01*
X134696040Y-80242380D01*
G37*
G36*
X144110442Y-77576898D02*
G01*
X144176627Y-77583417D01*
X144346466Y-77634937D01*
X144502991Y-77718602D01*
X144538729Y-77747932D01*
X144640186Y-77831194D01*
X144723448Y-77932651D01*
X144752778Y-77968389D01*
X144836443Y-78124914D01*
X144887963Y-78294753D01*
X144905359Y-78471380D01*
X144887963Y-78648007D01*
X144836443Y-78817846D01*
X144752778Y-78974371D01*
X144723448Y-79010109D01*
X144640186Y-79111566D01*
X144538729Y-79194828D01*
X144502991Y-79224158D01*
X144346466Y-79307823D01*
X144176627Y-79359343D01*
X144110442Y-79365862D01*
X144044260Y-79372380D01*
X143955740Y-79372380D01*
X143889558Y-79365862D01*
X143823373Y-79359343D01*
X143653534Y-79307823D01*
X143497009Y-79224158D01*
X143461271Y-79194828D01*
X143359814Y-79111566D01*
X143276552Y-79010109D01*
X143247222Y-78974371D01*
X143163557Y-78817846D01*
X143112037Y-78648007D01*
X143094641Y-78471380D01*
X143112037Y-78294753D01*
X143163557Y-78124914D01*
X143247222Y-77968389D01*
X143276552Y-77932651D01*
X143359814Y-77831194D01*
X143461271Y-77747932D01*
X143497009Y-77718602D01*
X143653534Y-77634937D01*
X143823373Y-77583417D01*
X143889558Y-77576898D01*
X143955740Y-77570380D01*
X144044260Y-77570380D01*
X144110442Y-77576898D01*
X144110442Y-77576898D01*
G37*
G36*
X107110442Y-77576898D02*
G01*
X107176627Y-77583417D01*
X107346466Y-77634937D01*
X107502991Y-77718602D01*
X107538729Y-77747932D01*
X107640186Y-77831194D01*
X107723448Y-77932651D01*
X107752778Y-77968389D01*
X107836443Y-78124914D01*
X107887963Y-78294753D01*
X107905359Y-78471380D01*
X107887963Y-78648007D01*
X107836443Y-78817846D01*
X107752778Y-78974371D01*
X107723448Y-79010109D01*
X107640186Y-79111566D01*
X107538729Y-79194828D01*
X107502991Y-79224158D01*
X107346466Y-79307823D01*
X107176627Y-79359343D01*
X107110442Y-79365862D01*
X107044260Y-79372380D01*
X106955740Y-79372380D01*
X106889558Y-79365862D01*
X106823373Y-79359343D01*
X106653534Y-79307823D01*
X106497009Y-79224158D01*
X106461271Y-79194828D01*
X106359814Y-79111566D01*
X106276552Y-79010109D01*
X106247222Y-78974371D01*
X106163557Y-78817846D01*
X106112037Y-78648007D01*
X106094641Y-78471380D01*
X106112037Y-78294753D01*
X106163557Y-78124914D01*
X106247222Y-77968389D01*
X106276552Y-77932651D01*
X106359814Y-77831194D01*
X106461271Y-77747932D01*
X106497009Y-77718602D01*
X106653534Y-77634937D01*
X106823373Y-77583417D01*
X106889558Y-77576898D01*
X106955740Y-77570380D01*
X107044260Y-77570380D01*
X107110442Y-77576898D01*
X107110442Y-77576898D01*
G37*
G36*
X117696040Y-78972380D02*
G01*
X115594040Y-78972380D01*
X115594040Y-77970380D01*
X117696040Y-77970380D01*
X117696040Y-78972380D01*
X117696040Y-78972380D01*
G37*
G36*
X134696040Y-78972380D02*
G01*
X132594040Y-78972380D01*
X132594040Y-77970380D01*
X134696040Y-77970380D01*
X134696040Y-78972380D01*
X134696040Y-78972380D01*
G37*
G36*
X134696040Y-77702380D02*
G01*
X132594040Y-77702380D01*
X132594040Y-76700380D01*
X134696040Y-76700380D01*
X134696040Y-77702380D01*
X134696040Y-77702380D01*
G37*
G36*
X117696040Y-77702380D02*
G01*
X115594040Y-77702380D01*
X115594040Y-76700380D01*
X117696040Y-76700380D01*
X117696040Y-77702380D01*
X117696040Y-77702380D01*
G37*
G36*
X107110443Y-75036899D02*
G01*
X107176627Y-75043417D01*
X107346466Y-75094937D01*
X107502991Y-75178602D01*
X107538729Y-75207932D01*
X107640186Y-75291194D01*
X107723448Y-75392651D01*
X107752778Y-75428389D01*
X107836443Y-75584914D01*
X107887963Y-75754753D01*
X107905359Y-75931380D01*
X107887963Y-76108007D01*
X107836443Y-76277846D01*
X107752778Y-76434371D01*
X107723448Y-76470109D01*
X107640186Y-76571566D01*
X107538729Y-76654828D01*
X107502991Y-76684158D01*
X107346466Y-76767823D01*
X107176627Y-76819343D01*
X107110442Y-76825862D01*
X107044260Y-76832380D01*
X106955740Y-76832380D01*
X106889558Y-76825862D01*
X106823373Y-76819343D01*
X106653534Y-76767823D01*
X106497009Y-76684158D01*
X106461271Y-76654828D01*
X106359814Y-76571566D01*
X106276552Y-76470109D01*
X106247222Y-76434371D01*
X106163557Y-76277846D01*
X106112037Y-76108007D01*
X106094641Y-75931380D01*
X106112037Y-75754753D01*
X106163557Y-75584914D01*
X106247222Y-75428389D01*
X106276552Y-75392651D01*
X106359814Y-75291194D01*
X106461271Y-75207932D01*
X106497009Y-75178602D01*
X106653534Y-75094937D01*
X106823373Y-75043417D01*
X106889557Y-75036899D01*
X106955740Y-75030380D01*
X107044260Y-75030380D01*
X107110443Y-75036899D01*
X107110443Y-75036899D01*
G37*
G36*
X144110443Y-75036899D02*
G01*
X144176627Y-75043417D01*
X144346466Y-75094937D01*
X144502991Y-75178602D01*
X144538729Y-75207932D01*
X144640186Y-75291194D01*
X144723448Y-75392651D01*
X144752778Y-75428389D01*
X144836443Y-75584914D01*
X144887963Y-75754753D01*
X144905359Y-75931380D01*
X144887963Y-76108007D01*
X144836443Y-76277846D01*
X144752778Y-76434371D01*
X144723448Y-76470109D01*
X144640186Y-76571566D01*
X144538729Y-76654828D01*
X144502991Y-76684158D01*
X144346466Y-76767823D01*
X144176627Y-76819343D01*
X144110442Y-76825862D01*
X144044260Y-76832380D01*
X143955740Y-76832380D01*
X143889558Y-76825862D01*
X143823373Y-76819343D01*
X143653534Y-76767823D01*
X143497009Y-76684158D01*
X143461271Y-76654828D01*
X143359814Y-76571566D01*
X143276552Y-76470109D01*
X143247222Y-76434371D01*
X143163557Y-76277846D01*
X143112037Y-76108007D01*
X143094641Y-75931380D01*
X143112037Y-75754753D01*
X143163557Y-75584914D01*
X143247222Y-75428389D01*
X143276552Y-75392651D01*
X143359814Y-75291194D01*
X143461271Y-75207932D01*
X143497009Y-75178602D01*
X143653534Y-75094937D01*
X143823373Y-75043417D01*
X143889557Y-75036899D01*
X143955740Y-75030380D01*
X144044260Y-75030380D01*
X144110443Y-75036899D01*
X144110443Y-75036899D01*
G37*
G36*
X117696040Y-76432380D02*
G01*
X115594040Y-76432380D01*
X115594040Y-75430380D01*
X117696040Y-75430380D01*
X117696040Y-76432380D01*
X117696040Y-76432380D01*
G37*
G36*
X134696040Y-76432380D02*
G01*
X132594040Y-76432380D01*
X132594040Y-75430380D01*
X134696040Y-75430380D01*
X134696040Y-76432380D01*
X134696040Y-76432380D01*
G37*
G36*
X134696040Y-75162380D02*
G01*
X132594040Y-75162380D01*
X132594040Y-74160380D01*
X134696040Y-74160380D01*
X134696040Y-75162380D01*
X134696040Y-75162380D01*
G37*
G36*
X117696040Y-75162380D02*
G01*
X115594040Y-75162380D01*
X115594040Y-74160380D01*
X117696040Y-74160380D01*
X117696040Y-75162380D01*
X117696040Y-75162380D01*
G37*
G36*
X144110442Y-72496898D02*
G01*
X144176627Y-72503417D01*
X144346466Y-72554937D01*
X144502991Y-72638602D01*
X144538729Y-72667932D01*
X144640186Y-72751194D01*
X144723448Y-72852651D01*
X144752778Y-72888389D01*
X144836443Y-73044914D01*
X144887963Y-73214753D01*
X144905359Y-73391380D01*
X144887963Y-73568007D01*
X144836443Y-73737846D01*
X144752778Y-73894371D01*
X144723448Y-73930109D01*
X144640186Y-74031566D01*
X144538729Y-74114828D01*
X144502991Y-74144158D01*
X144346466Y-74227823D01*
X144176627Y-74279343D01*
X144110443Y-74285861D01*
X144044260Y-74292380D01*
X143955740Y-74292380D01*
X143889557Y-74285861D01*
X143823373Y-74279343D01*
X143653534Y-74227823D01*
X143497009Y-74144158D01*
X143461271Y-74114828D01*
X143359814Y-74031566D01*
X143276552Y-73930109D01*
X143247222Y-73894371D01*
X143163557Y-73737846D01*
X143112037Y-73568007D01*
X143094641Y-73391380D01*
X143112037Y-73214753D01*
X143163557Y-73044914D01*
X143247222Y-72888389D01*
X143276552Y-72852651D01*
X143359814Y-72751194D01*
X143461271Y-72667932D01*
X143497009Y-72638602D01*
X143653534Y-72554937D01*
X143823373Y-72503417D01*
X143889558Y-72496898D01*
X143955740Y-72490380D01*
X144044260Y-72490380D01*
X144110442Y-72496898D01*
X144110442Y-72496898D01*
G37*
G36*
X107110442Y-72496898D02*
G01*
X107176627Y-72503417D01*
X107346466Y-72554937D01*
X107502991Y-72638602D01*
X107538729Y-72667932D01*
X107640186Y-72751194D01*
X107723448Y-72852651D01*
X107752778Y-72888389D01*
X107836443Y-73044914D01*
X107887963Y-73214753D01*
X107905359Y-73391380D01*
X107887963Y-73568007D01*
X107836443Y-73737846D01*
X107752778Y-73894371D01*
X107723448Y-73930109D01*
X107640186Y-74031566D01*
X107538729Y-74114828D01*
X107502991Y-74144158D01*
X107346466Y-74227823D01*
X107176627Y-74279343D01*
X107110443Y-74285861D01*
X107044260Y-74292380D01*
X106955740Y-74292380D01*
X106889557Y-74285861D01*
X106823373Y-74279343D01*
X106653534Y-74227823D01*
X106497009Y-74144158D01*
X106461271Y-74114828D01*
X106359814Y-74031566D01*
X106276552Y-73930109D01*
X106247222Y-73894371D01*
X106163557Y-73737846D01*
X106112037Y-73568007D01*
X106094641Y-73391380D01*
X106112037Y-73214753D01*
X106163557Y-73044914D01*
X106247222Y-72888389D01*
X106276552Y-72852651D01*
X106359814Y-72751194D01*
X106461271Y-72667932D01*
X106497009Y-72638602D01*
X106653534Y-72554937D01*
X106823373Y-72503417D01*
X106889558Y-72496898D01*
X106955740Y-72490380D01*
X107044260Y-72490380D01*
X107110442Y-72496898D01*
X107110442Y-72496898D01*
G37*
G36*
X134696040Y-73892380D02*
G01*
X132594040Y-73892380D01*
X132594040Y-72890380D01*
X134696040Y-72890380D01*
X134696040Y-73892380D01*
X134696040Y-73892380D01*
G37*
G36*
X117696040Y-73892380D02*
G01*
X115594040Y-73892380D01*
X115594040Y-72890380D01*
X117696040Y-72890380D01*
X117696040Y-73892380D01*
X117696040Y-73892380D01*
G37*
G36*
X126696040Y-73282380D02*
G01*
X121594040Y-73282380D01*
X121594040Y-68180380D01*
X126696040Y-68180380D01*
X126696040Y-73282380D01*
X126696040Y-73282380D01*
G37*
G36*
X117696040Y-72622380D02*
G01*
X115594040Y-72622380D01*
X115594040Y-71620380D01*
X117696040Y-71620380D01*
X117696040Y-72622380D01*
X117696040Y-72622380D01*
G37*
G36*
X134696040Y-72622380D02*
G01*
X132594040Y-72622380D01*
X132594040Y-71620380D01*
X134696040Y-71620380D01*
X134696040Y-72622380D01*
X134696040Y-72622380D01*
G37*
G36*
X107110443Y-69956899D02*
G01*
X107176627Y-69963417D01*
X107346466Y-70014937D01*
X107502991Y-70098602D01*
X107538729Y-70127932D01*
X107640186Y-70211194D01*
X107723448Y-70312651D01*
X107752778Y-70348389D01*
X107836443Y-70504914D01*
X107887963Y-70674753D01*
X107905359Y-70851380D01*
X107887963Y-71028007D01*
X107836443Y-71197846D01*
X107752778Y-71354371D01*
X107723448Y-71390109D01*
X107640186Y-71491566D01*
X107538729Y-71574828D01*
X107502991Y-71604158D01*
X107346466Y-71687823D01*
X107176627Y-71739343D01*
X107110443Y-71745861D01*
X107044260Y-71752380D01*
X106955740Y-71752380D01*
X106889557Y-71745861D01*
X106823373Y-71739343D01*
X106653534Y-71687823D01*
X106497009Y-71604158D01*
X106461271Y-71574828D01*
X106359814Y-71491566D01*
X106276552Y-71390109D01*
X106247222Y-71354371D01*
X106163557Y-71197846D01*
X106112037Y-71028007D01*
X106094641Y-70851380D01*
X106112037Y-70674753D01*
X106163557Y-70504914D01*
X106247222Y-70348389D01*
X106276552Y-70312651D01*
X106359814Y-70211194D01*
X106461271Y-70127932D01*
X106497009Y-70098602D01*
X106653534Y-70014937D01*
X106823373Y-69963417D01*
X106889557Y-69956899D01*
X106955740Y-69950380D01*
X107044260Y-69950380D01*
X107110443Y-69956899D01*
X107110443Y-69956899D01*
G37*
G36*
X144110443Y-69956899D02*
G01*
X144176627Y-69963417D01*
X144346466Y-70014937D01*
X144502991Y-70098602D01*
X144538729Y-70127932D01*
X144640186Y-70211194D01*
X144723448Y-70312651D01*
X144752778Y-70348389D01*
X144836443Y-70504914D01*
X144887963Y-70674753D01*
X144905359Y-70851380D01*
X144887963Y-71028007D01*
X144836443Y-71197846D01*
X144752778Y-71354371D01*
X144723448Y-71390109D01*
X144640186Y-71491566D01*
X144538729Y-71574828D01*
X144502991Y-71604158D01*
X144346466Y-71687823D01*
X144176627Y-71739343D01*
X144110443Y-71745861D01*
X144044260Y-71752380D01*
X143955740Y-71752380D01*
X143889557Y-71745861D01*
X143823373Y-71739343D01*
X143653534Y-71687823D01*
X143497009Y-71604158D01*
X143461271Y-71574828D01*
X143359814Y-71491566D01*
X143276552Y-71390109D01*
X143247222Y-71354371D01*
X143163557Y-71197846D01*
X143112037Y-71028007D01*
X143094641Y-70851380D01*
X143112037Y-70674753D01*
X143163557Y-70504914D01*
X143247222Y-70348389D01*
X143276552Y-70312651D01*
X143359814Y-70211194D01*
X143461271Y-70127932D01*
X143497009Y-70098602D01*
X143653534Y-70014937D01*
X143823373Y-69963417D01*
X143889557Y-69956899D01*
X143955740Y-69950380D01*
X144044260Y-69950380D01*
X144110443Y-69956899D01*
X144110443Y-69956899D01*
G37*
G36*
X117696040Y-71352380D02*
G01*
X115594040Y-71352380D01*
X115594040Y-70350380D01*
X117696040Y-70350380D01*
X117696040Y-71352380D01*
X117696040Y-71352380D01*
G37*
G36*
X134696040Y-71352380D02*
G01*
X132594040Y-71352380D01*
X132594040Y-70350380D01*
X134696040Y-70350380D01*
X134696040Y-71352380D01*
X134696040Y-71352380D01*
G37*
G36*
X134696040Y-70082380D02*
G01*
X132594040Y-70082380D01*
X132594040Y-69080380D01*
X134696040Y-69080380D01*
X134696040Y-70082380D01*
X134696040Y-70082380D01*
G37*
G36*
X117696040Y-70082380D02*
G01*
X115594040Y-70082380D01*
X115594040Y-69080380D01*
X117696040Y-69080380D01*
X117696040Y-70082380D01*
X117696040Y-70082380D01*
G37*
G36*
X144110442Y-67416898D02*
G01*
X144176627Y-67423417D01*
X144346466Y-67474937D01*
X144502991Y-67558602D01*
X144538729Y-67587932D01*
X144640186Y-67671194D01*
X144723448Y-67772651D01*
X144752778Y-67808389D01*
X144836443Y-67964914D01*
X144887963Y-68134753D01*
X144905359Y-68311380D01*
X144887963Y-68488007D01*
X144836443Y-68657846D01*
X144752778Y-68814371D01*
X144723448Y-68850109D01*
X144640186Y-68951566D01*
X144538729Y-69034828D01*
X144502991Y-69064158D01*
X144346466Y-69147823D01*
X144176627Y-69199343D01*
X144110442Y-69205862D01*
X144044260Y-69212380D01*
X143955740Y-69212380D01*
X143889558Y-69205862D01*
X143823373Y-69199343D01*
X143653534Y-69147823D01*
X143497009Y-69064158D01*
X143461271Y-69034828D01*
X143359814Y-68951566D01*
X143276552Y-68850109D01*
X143247222Y-68814371D01*
X143163557Y-68657846D01*
X143112037Y-68488007D01*
X143094641Y-68311380D01*
X143112037Y-68134753D01*
X143163557Y-67964914D01*
X143247222Y-67808389D01*
X143276552Y-67772651D01*
X143359814Y-67671194D01*
X143461271Y-67587932D01*
X143497009Y-67558602D01*
X143653534Y-67474937D01*
X143823373Y-67423417D01*
X143889558Y-67416898D01*
X143955740Y-67410380D01*
X144044260Y-67410380D01*
X144110442Y-67416898D01*
X144110442Y-67416898D01*
G37*
G36*
X107110442Y-67416898D02*
G01*
X107176627Y-67423417D01*
X107346466Y-67474937D01*
X107502991Y-67558602D01*
X107538729Y-67587932D01*
X107640186Y-67671194D01*
X107723448Y-67772651D01*
X107752778Y-67808389D01*
X107836443Y-67964914D01*
X107887963Y-68134753D01*
X107905359Y-68311380D01*
X107887963Y-68488007D01*
X107836443Y-68657846D01*
X107752778Y-68814371D01*
X107723448Y-68850109D01*
X107640186Y-68951566D01*
X107538729Y-69034828D01*
X107502991Y-69064158D01*
X107346466Y-69147823D01*
X107176627Y-69199343D01*
X107110442Y-69205862D01*
X107044260Y-69212380D01*
X106955740Y-69212380D01*
X106889558Y-69205862D01*
X106823373Y-69199343D01*
X106653534Y-69147823D01*
X106497009Y-69064158D01*
X106461271Y-69034828D01*
X106359814Y-68951566D01*
X106276552Y-68850109D01*
X106247222Y-68814371D01*
X106163557Y-68657846D01*
X106112037Y-68488007D01*
X106094641Y-68311380D01*
X106112037Y-68134753D01*
X106163557Y-67964914D01*
X106247222Y-67808389D01*
X106276552Y-67772651D01*
X106359814Y-67671194D01*
X106461271Y-67587932D01*
X106497009Y-67558602D01*
X106653534Y-67474937D01*
X106823373Y-67423417D01*
X106889558Y-67416898D01*
X106955740Y-67410380D01*
X107044260Y-67410380D01*
X107110442Y-67416898D01*
X107110442Y-67416898D01*
G37*
G36*
X117696040Y-68812380D02*
G01*
X115594040Y-68812380D01*
X115594040Y-67810380D01*
X117696040Y-67810380D01*
X117696040Y-68812380D01*
X117696040Y-68812380D01*
G37*
G36*
X134696040Y-68812380D02*
G01*
X132594040Y-68812380D01*
X132594040Y-67810380D01*
X134696040Y-67810380D01*
X134696040Y-68812380D01*
X134696040Y-68812380D01*
G37*
G36*
X113417091Y-66824465D02*
G01*
X113451069Y-66834773D01*
X113482390Y-66851514D01*
X113509839Y-66874041D01*
X113532366Y-66901490D01*
X113549107Y-66932811D01*
X113559415Y-66966789D01*
X113563500Y-67008270D01*
X113563500Y-67684490D01*
X113559415Y-67725971D01*
X113549107Y-67759949D01*
X113532366Y-67791270D01*
X113509839Y-67818719D01*
X113482390Y-67841246D01*
X113451069Y-67857987D01*
X113417091Y-67868295D01*
X113375610Y-67872380D01*
X112774390Y-67872380D01*
X112732909Y-67868295D01*
X112698931Y-67857987D01*
X112667610Y-67841246D01*
X112640161Y-67818719D01*
X112617634Y-67791270D01*
X112600893Y-67759949D01*
X112590585Y-67725971D01*
X112586500Y-67684490D01*
X112586500Y-67008270D01*
X112590585Y-66966789D01*
X112600893Y-66932811D01*
X112617634Y-66901490D01*
X112640161Y-66874041D01*
X112667610Y-66851514D01*
X112698931Y-66834773D01*
X112732909Y-66824465D01*
X112774390Y-66820380D01*
X113375610Y-66820380D01*
X113417091Y-66824465D01*
X113417091Y-66824465D01*
G37*
G36*
X111842091Y-66824465D02*
G01*
X111876069Y-66834773D01*
X111907390Y-66851514D01*
X111934839Y-66874041D01*
X111957366Y-66901490D01*
X111974107Y-66932811D01*
X111984415Y-66966789D01*
X111988500Y-67008270D01*
X111988500Y-67684490D01*
X111984415Y-67725971D01*
X111974107Y-67759949D01*
X111957366Y-67791270D01*
X111934839Y-67818719D01*
X111907390Y-67841246D01*
X111876069Y-67857987D01*
X111842091Y-67868295D01*
X111800610Y-67872380D01*
X111199390Y-67872380D01*
X111157909Y-67868295D01*
X111123931Y-67857987D01*
X111092610Y-67841246D01*
X111065161Y-67818719D01*
X111042634Y-67791270D01*
X111025893Y-67759949D01*
X111015585Y-67725971D01*
X111011500Y-67684490D01*
X111011500Y-67008270D01*
X111015585Y-66966789D01*
X111025893Y-66932811D01*
X111042634Y-66901490D01*
X111065161Y-66874041D01*
X111092610Y-66851514D01*
X111123931Y-66834773D01*
X111157909Y-66824465D01*
X111199390Y-66820380D01*
X111800610Y-66820380D01*
X111842091Y-66824465D01*
X111842091Y-66824465D01*
G37*
G36*
X110129591Y-66861965D02*
G01*
X110163569Y-66872273D01*
X110194890Y-66889014D01*
X110222339Y-66911541D01*
X110244866Y-66938990D01*
X110261607Y-66970311D01*
X110271915Y-67004289D01*
X110276000Y-67045770D01*
X110276000Y-67646990D01*
X110271915Y-67688471D01*
X110261607Y-67722449D01*
X110244866Y-67753770D01*
X110222339Y-67781219D01*
X110194890Y-67803746D01*
X110163569Y-67820487D01*
X110129591Y-67830795D01*
X110088110Y-67834880D01*
X109411890Y-67834880D01*
X109370409Y-67830795D01*
X109336431Y-67820487D01*
X109305110Y-67803746D01*
X109277661Y-67781219D01*
X109255134Y-67753770D01*
X109238393Y-67722449D01*
X109228085Y-67688471D01*
X109224000Y-67646990D01*
X109224000Y-67045770D01*
X109228085Y-67004289D01*
X109238393Y-66970311D01*
X109255134Y-66938990D01*
X109277661Y-66911541D01*
X109305110Y-66889014D01*
X109336431Y-66872273D01*
X109370409Y-66861965D01*
X109411890Y-66857880D01*
X110088110Y-66857880D01*
X110129591Y-66861965D01*
X110129591Y-66861965D01*
G37*
G36*
X134696040Y-67542380D02*
G01*
X132594040Y-67542380D01*
X132594040Y-66540380D01*
X134696040Y-66540380D01*
X134696040Y-67542380D01*
X134696040Y-67542380D01*
G37*
G36*
X117696040Y-67542380D02*
G01*
X115594040Y-67542380D01*
X115594040Y-66540380D01*
X117696040Y-66540380D01*
X117696040Y-67542380D01*
X117696040Y-67542380D01*
G37*
G36*
X107110443Y-64876899D02*
G01*
X107176627Y-64883417D01*
X107346466Y-64934937D01*
X107346468Y-64934938D01*
X107391009Y-64958746D01*
X107502991Y-65018602D01*
X107538729Y-65047932D01*
X107640186Y-65131194D01*
X107723448Y-65232651D01*
X107752778Y-65268389D01*
X107836443Y-65424914D01*
X107887963Y-65594753D01*
X107905359Y-65771380D01*
X107887963Y-65948007D01*
X107836443Y-66117846D01*
X107752778Y-66274371D01*
X107723448Y-66310109D01*
X107640186Y-66411566D01*
X107538729Y-66494828D01*
X107502991Y-66524158D01*
X107346466Y-66607823D01*
X107176627Y-66659343D01*
X107110443Y-66665861D01*
X107044260Y-66672380D01*
X106955740Y-66672380D01*
X106889557Y-66665861D01*
X106823373Y-66659343D01*
X106653534Y-66607823D01*
X106497009Y-66524158D01*
X106461271Y-66494828D01*
X106359814Y-66411566D01*
X106276552Y-66310109D01*
X106247222Y-66274371D01*
X106163557Y-66117846D01*
X106112037Y-65948007D01*
X106094641Y-65771380D01*
X106112037Y-65594753D01*
X106163557Y-65424914D01*
X106247222Y-65268389D01*
X106276552Y-65232651D01*
X106359814Y-65131194D01*
X106461271Y-65047932D01*
X106497009Y-65018602D01*
X106608991Y-64958746D01*
X106653532Y-64934938D01*
X106653534Y-64934937D01*
X106823373Y-64883417D01*
X106889557Y-64876899D01*
X106955740Y-64870380D01*
X107044260Y-64870380D01*
X107110443Y-64876899D01*
X107110443Y-64876899D01*
G37*
G36*
X144110443Y-64876899D02*
G01*
X144176627Y-64883417D01*
X144346466Y-64934937D01*
X144346468Y-64934938D01*
X144391009Y-64958746D01*
X144502991Y-65018602D01*
X144538729Y-65047932D01*
X144640186Y-65131194D01*
X144723448Y-65232651D01*
X144752778Y-65268389D01*
X144836443Y-65424914D01*
X144887963Y-65594753D01*
X144905359Y-65771380D01*
X144887963Y-65948007D01*
X144836443Y-66117846D01*
X144752778Y-66274371D01*
X144723448Y-66310109D01*
X144640186Y-66411566D01*
X144538729Y-66494828D01*
X144502991Y-66524158D01*
X144346466Y-66607823D01*
X144176627Y-66659343D01*
X144110443Y-66665861D01*
X144044260Y-66672380D01*
X143955740Y-66672380D01*
X143889557Y-66665861D01*
X143823373Y-66659343D01*
X143653534Y-66607823D01*
X143497009Y-66524158D01*
X143461271Y-66494828D01*
X143359814Y-66411566D01*
X143276552Y-66310109D01*
X143247222Y-66274371D01*
X143163557Y-66117846D01*
X143112037Y-65948007D01*
X143094641Y-65771380D01*
X143112037Y-65594753D01*
X143163557Y-65424914D01*
X143247222Y-65268389D01*
X143276552Y-65232651D01*
X143359814Y-65131194D01*
X143461271Y-65047932D01*
X143497009Y-65018602D01*
X143608991Y-64958746D01*
X143653532Y-64934938D01*
X143653534Y-64934937D01*
X143823373Y-64883417D01*
X143889557Y-64876899D01*
X143955740Y-64870380D01*
X144044260Y-64870380D01*
X144110443Y-64876899D01*
X144110443Y-64876899D01*
G37*
G36*
X117696040Y-66272380D02*
G01*
X115594040Y-66272380D01*
X115594040Y-65270380D01*
X117696040Y-65270380D01*
X117696040Y-66272380D01*
X117696040Y-66272380D01*
G37*
G36*
X134696040Y-66272380D02*
G01*
X132594040Y-66272380D01*
X132594040Y-65270380D01*
X134696040Y-65270380D01*
X134696040Y-66272380D01*
X134696040Y-66272380D01*
G37*
G36*
X110129591Y-65286965D02*
G01*
X110163569Y-65297273D01*
X110194890Y-65314014D01*
X110222339Y-65336541D01*
X110244866Y-65363990D01*
X110261607Y-65395311D01*
X110271915Y-65429289D01*
X110276000Y-65470770D01*
X110276000Y-66071990D01*
X110271915Y-66113471D01*
X110261607Y-66147449D01*
X110244866Y-66178770D01*
X110222339Y-66206219D01*
X110194890Y-66228746D01*
X110163569Y-66245487D01*
X110129591Y-66255795D01*
X110088110Y-66259880D01*
X109411890Y-66259880D01*
X109370409Y-66255795D01*
X109336431Y-66245487D01*
X109305110Y-66228746D01*
X109277661Y-66206219D01*
X109255134Y-66178770D01*
X109238393Y-66147449D01*
X109228085Y-66113471D01*
X109224000Y-66071990D01*
X109224000Y-65470770D01*
X109228085Y-65429289D01*
X109238393Y-65395311D01*
X109255134Y-65363990D01*
X109277661Y-65336541D01*
X109305110Y-65314014D01*
X109336431Y-65297273D01*
X109370409Y-65286965D01*
X109411890Y-65282880D01*
X110088110Y-65282880D01*
X110129591Y-65286965D01*
X110129591Y-65286965D01*
G37*
G36*
X117696040Y-65002380D02*
G01*
X115594040Y-65002380D01*
X115594040Y-64000380D01*
X117696040Y-64000380D01*
X117696040Y-65002380D01*
X117696040Y-65002380D01*
G37*
G36*
X134696040Y-65002380D02*
G01*
X132594040Y-65002380D01*
X132594040Y-64000380D01*
X134696040Y-64000380D01*
X134696040Y-65002380D01*
X134696040Y-65002380D01*
G37*
G36*
X112629591Y-64016965D02*
G01*
X112663569Y-64027273D01*
X112694890Y-64044014D01*
X112722339Y-64066541D01*
X112744866Y-64093990D01*
X112761607Y-64125311D01*
X112771915Y-64159289D01*
X112776000Y-64200770D01*
X112776000Y-64801990D01*
X112771915Y-64843471D01*
X112761607Y-64877449D01*
X112744866Y-64908770D01*
X112722339Y-64936219D01*
X112694890Y-64958746D01*
X112663569Y-64975487D01*
X112629591Y-64985795D01*
X112588110Y-64989880D01*
X111911890Y-64989880D01*
X111870409Y-64985795D01*
X111836431Y-64975487D01*
X111805110Y-64958746D01*
X111777661Y-64936219D01*
X111755134Y-64908770D01*
X111738393Y-64877449D01*
X111728085Y-64843471D01*
X111724000Y-64801990D01*
X111724000Y-64200770D01*
X111728085Y-64159289D01*
X111738393Y-64125311D01*
X111755134Y-64093990D01*
X111777661Y-64066541D01*
X111805110Y-64044014D01*
X111836431Y-64027273D01*
X111870409Y-64016965D01*
X111911890Y-64012880D01*
X112588110Y-64012880D01*
X112629591Y-64016965D01*
X112629591Y-64016965D01*
G37*
G36*
X114379591Y-64016965D02*
G01*
X114413569Y-64027273D01*
X114444890Y-64044014D01*
X114472339Y-64066541D01*
X114494866Y-64093990D01*
X114511607Y-64125311D01*
X114521915Y-64159289D01*
X114526000Y-64200770D01*
X114526000Y-64801990D01*
X114521915Y-64843471D01*
X114511607Y-64877449D01*
X114494866Y-64908770D01*
X114472339Y-64936219D01*
X114444890Y-64958746D01*
X114413569Y-64975487D01*
X114379591Y-64985795D01*
X114338110Y-64989880D01*
X113661890Y-64989880D01*
X113620409Y-64985795D01*
X113586431Y-64975487D01*
X113555110Y-64958746D01*
X113527661Y-64936219D01*
X113505134Y-64908770D01*
X113488393Y-64877449D01*
X113478085Y-64843471D01*
X113474000Y-64801990D01*
X113474000Y-64200770D01*
X113478085Y-64159289D01*
X113488393Y-64125311D01*
X113505134Y-64093990D01*
X113527661Y-64066541D01*
X113555110Y-64044014D01*
X113586431Y-64027273D01*
X113620409Y-64016965D01*
X113661890Y-64012880D01*
X114338110Y-64012880D01*
X114379591Y-64016965D01*
X114379591Y-64016965D01*
G37*
G36*
X107901000Y-64132380D02*
G01*
X106099000Y-64132380D01*
X106099000Y-62330380D01*
X107901000Y-62330380D01*
X107901000Y-64132380D01*
X107901000Y-64132380D01*
G37*
G36*
X144901000Y-64132380D02*
G01*
X143099000Y-64132380D01*
X143099000Y-62330380D01*
X144901000Y-62330380D01*
X144901000Y-64132380D01*
X144901000Y-64132380D01*
G37*
G36*
X134696040Y-63732380D02*
G01*
X132594040Y-63732380D01*
X132594040Y-62730380D01*
X134696040Y-62730380D01*
X134696040Y-63732380D01*
X134696040Y-63732380D01*
G37*
G36*
X117696040Y-63732380D02*
G01*
X115594040Y-63732380D01*
X115594040Y-62730380D01*
X117696040Y-62730380D01*
X117696040Y-63732380D01*
X117696040Y-63732380D01*
G37*
G36*
X112629591Y-62441965D02*
G01*
X112663569Y-62452273D01*
X112694890Y-62469014D01*
X112722339Y-62491541D01*
X112744866Y-62518990D01*
X112761607Y-62550311D01*
X112771915Y-62584289D01*
X112776000Y-62625770D01*
X112776000Y-63226990D01*
X112771915Y-63268471D01*
X112761607Y-63302449D01*
X112744866Y-63333770D01*
X112722339Y-63361219D01*
X112694890Y-63383746D01*
X112663569Y-63400487D01*
X112629591Y-63410795D01*
X112588110Y-63414880D01*
X111911890Y-63414880D01*
X111870409Y-63410795D01*
X111836431Y-63400487D01*
X111805110Y-63383746D01*
X111777661Y-63361219D01*
X111755134Y-63333770D01*
X111738393Y-63302449D01*
X111728085Y-63268471D01*
X111724000Y-63226990D01*
X111724000Y-62625770D01*
X111728085Y-62584289D01*
X111738393Y-62550311D01*
X111755134Y-62518990D01*
X111777661Y-62491541D01*
X111805110Y-62469014D01*
X111836431Y-62452273D01*
X111870409Y-62441965D01*
X111911890Y-62437880D01*
X112588110Y-62437880D01*
X112629591Y-62441965D01*
X112629591Y-62441965D01*
G37*
G36*
X114379591Y-62441965D02*
G01*
X114413569Y-62452273D01*
X114444890Y-62469014D01*
X114472339Y-62491541D01*
X114494866Y-62518990D01*
X114511607Y-62550311D01*
X114521915Y-62584289D01*
X114526000Y-62625770D01*
X114526000Y-63226990D01*
X114521915Y-63268471D01*
X114511607Y-63302449D01*
X114494866Y-63333770D01*
X114472339Y-63361219D01*
X114444890Y-63383746D01*
X114413569Y-63400487D01*
X114379591Y-63410795D01*
X114338110Y-63414880D01*
X113661890Y-63414880D01*
X113620409Y-63410795D01*
X113586431Y-63400487D01*
X113555110Y-63383746D01*
X113527661Y-63361219D01*
X113505134Y-63333770D01*
X113488393Y-63302449D01*
X113478085Y-63268471D01*
X113474000Y-63226990D01*
X113474000Y-62625770D01*
X113478085Y-62584289D01*
X113488393Y-62550311D01*
X113505134Y-62518990D01*
X113527661Y-62491541D01*
X113555110Y-62469014D01*
X113586431Y-62452273D01*
X113620409Y-62441965D01*
X113661890Y-62437880D01*
X114338110Y-62437880D01*
X114379591Y-62441965D01*
X114379591Y-62441965D01*
G37*
M02*
