M48
; DRILL file {KiCad (5.1.2)-2} date 10/16/19 12:38:45
; FORMAT={-:-/ absolute / inch / decimal}
; #@! TF.CreationDate,2019-10-16T12:38:45+08:00
; #@! TF.GenerationSoftware,Kicad,Pcbnew,(5.1.2)-2
; #@! TF.FileFunction,Plated,1,2,PTH
FMAT,2
INCH
T1C0.0157
T2C0.0256
T3C0.0394
T4C0.0669
%
G90
G05
T1
X4.1732Y-4.0551
X4.1732Y-4.2126
X4.1732Y-4.4882
X4.1732Y-4.5669
X4.1732Y-4.8819
X4.1732Y-4.9606
X4.1732Y-5.0394
X4.1732Y-5.1181
X4.1732Y-5.1969
X4.1732Y-5.2756
X4.1732Y-5.3543
X4.1732Y-5.4331
X4.1831Y-4.3307
X4.1831Y-4.3701
X4.1831Y-4.4094
X4.2126Y-4.1339
X4.2126Y-4.5276
X4.2126Y-4.6063
X4.2323Y-4.3307
X4.2323Y-4.4488
X4.252Y-4.4882
X4.252Y-4.5669
X4.2717Y-4.4488
X4.2815Y-4.3307
X4.2913Y-2.4606
X4.2913Y-2.5197
X4.2913Y-4.0551
X4.2913Y-4.1339
X4.2913Y-4.5276
X4.2913Y-5.3937
X4.2913Y-5.4724
X4.311Y-2.7165
X4.311Y-2.7559
X4.311Y-4.4488
X4.3209Y-4.3307
X4.3307Y-3.7402
X4.3307Y-3.7992
X4.3307Y-4.5669
X4.3504Y-2.4606
X4.3602Y-4.3307
X4.3602Y-4.3701
X4.3602Y-4.4094
X4.3602Y-4.4488
X4.3602Y-4.4882
X4.3701Y-3.937
X4.3701Y-4.0157
X4.3701Y-4.6063
X4.3701Y-4.8031
X4.3701Y-4.8819
X4.3701Y-4.9606
X4.3701Y-5.3937
X4.3701Y-5.4724
X4.3898Y-3.6811
X4.3898Y-3.7402
X4.3996Y-4.3307
X4.3996Y-4.5079
X4.4094Y-4.5669
X4.439Y-4.3307
X4.439Y-4.5079
X4.4488Y-3.8583
X4.4488Y-3.937
X4.4488Y-4.0157
X4.4488Y-4.6063
X4.4488Y-4.8819
X4.4488Y-4.9606
X4.4488Y-5.0394
X4.4488Y-5.3937
X4.4488Y-5.4724
X4.4783Y-4.3307
X4.4783Y-4.5079
X4.4882Y-3.6024
X4.5157Y-3.4803
X4.5177Y-4.3307
X4.5177Y-4.5079
X4.5264Y-2.5894
X4.5276Y-3.8583
X4.5276Y-3.937
X4.5276Y-4.0157
X4.5551Y-3.5512
X4.5571Y-4.3307
X4.5571Y-4.5079
X4.5669Y-5.1181
X4.5669Y-5.1969
X4.5669Y-5.315
X4.5669Y-5.3937
X4.5669Y-5.4724
X4.5965Y-4.3307
X4.5965Y-4.5079
X4.6063Y-3.6614
X4.6063Y-3.7402
X4.6063Y-3.937
X4.6063Y-4.0157
X4.6358Y-4.3307
X4.6358Y-4.5079
X4.6457Y-4.7244
X4.6457Y-4.9606
X4.6457Y-5.0394
X4.6457Y-5.1181
X4.6457Y-5.1969
X4.6457Y-5.315
X4.6457Y-5.3937
X4.6457Y-5.4724
X4.6485Y-4.6536
X4.6496Y-3.2913
X4.6752Y-4.3307
X4.6752Y-4.5079
X4.685Y-3.6614
X4.685Y-3.7402
X4.685Y-3.8189
X4.685Y-4.0157
X4.7146Y-4.3307
X4.7146Y-4.3701
X4.7146Y-4.4094
X4.7146Y-4.4488
X4.7146Y-4.4882
X4.7146Y-4.6821
X4.7244Y-2.4803
X4.7244Y-2.5591
X4.7244Y-2.6378
X4.7244Y-2.7165
X4.7244Y-2.7953
X4.7244Y-2.874
X4.7244Y-2.9528
X4.7244Y-3.0315
X4.7244Y-5.1181
X4.7244Y-5.315
X4.7244Y-5.3937
X4.7244Y-5.4724
X4.7638Y-3.7402
X4.7638Y-3.8189
X4.7638Y-4.0945
X4.7638Y-4.7244
X4.7638Y-5.0394
X4.8031Y-2.4803
X4.8031Y-2.5591
X4.8031Y-2.6378
X4.8031Y-2.9528
X4.8031Y-3.0315
X4.8031Y-4.3701
X4.8031Y-5.0
X4.8579Y-4.4335
X4.8819Y-2.4803
X4.8819Y-2.5591
X4.8819Y-2.6378
X4.8819Y-2.9528
X4.8819Y-3.0315
X4.9213Y-3.7402
X4.9213Y-3.8189
X4.9213Y-4.6457
X4.9488Y-5.0748
X4.9606Y-2.4803
X4.9606Y-2.5591
X4.9606Y-2.6378
X4.9606Y-2.9528
X4.9606Y-3.0315
X4.9606Y-4.7638
X4.9606Y-4.8425
X4.9606Y-4.9213
X5.0Y-3.7402
X5.0Y-3.8189
X5.0Y-4.3701
X5.0Y-4.4882
X5.0Y-4.5669
X5.0295Y-4.626
X5.0394Y-2.4803
X5.0394Y-2.5591
X5.0394Y-2.6378
X5.0394Y-2.7165
X5.0394Y-2.7953
X5.0394Y-2.874
X5.0394Y-2.9528
X5.0394Y-3.0315
X5.0394Y-3.6614
X5.0394Y-4.7638
X5.0657Y-3.5909
X5.0669Y-5.0945
X5.0787Y-3.7402
X5.0787Y-3.8189
X5.0787Y-5.3937
X5.0787Y-5.4724
X5.1181Y-2.4803
X5.1181Y-2.5591
X5.1181Y-2.6378
X5.1181Y-2.7165
X5.1181Y-2.7953
X5.1181Y-2.874
X5.1181Y-2.9528
X5.1181Y-3.0315
X5.1575Y-3.7402
X5.1575Y-3.8189
X5.1575Y-3.8976
X5.1575Y-3.9764
X5.1575Y-4.0551
X5.1575Y-4.3701
X5.1575Y-4.4291
X5.1575Y-5.0
X5.1575Y-5.0787
X5.1575Y-5.1575
X5.1575Y-5.2362
X5.1575Y-5.315
X5.1575Y-5.3937
X5.1575Y-5.4724
X5.2362Y-3.7402
X5.2362Y-3.8189
X5.2362Y-3.8976
X5.2362Y-3.9764
X5.2362Y-4.0551
X5.2362Y-4.1339
X5.2362Y-4.3701
X5.2362Y-4.9213
X5.2362Y-5.0
X5.2362Y-5.0787
X5.2362Y-5.1575
X5.2362Y-5.2362
X5.2362Y-5.315
X5.2362Y-5.3937
X5.2362Y-5.4724
X5.2622Y-3.2339
X5.2622Y-3.5909
X5.315Y-3.8976
X5.315Y-3.9764
X5.315Y-4.0551
X5.315Y-4.1339
X5.315Y-4.4094
X5.315Y-5.0
X5.315Y-5.3937
X5.315Y-5.4724
X5.3543Y-3.622
X5.3543Y-3.6811
X5.3678Y-2.6894
X5.3937Y-2.4803
X5.3937Y-3.9764
X5.3937Y-4.0551
X5.3937Y-4.1339
X5.3937Y-4.4882
X5.3937Y-5.3937
X5.3937Y-5.4724
X5.4118Y-2.6394
X5.4331Y-3.7008
X5.4331Y-3.7598
X5.4724Y-2.4803
X5.4724Y-2.874
X5.4724Y-4.0551
X5.4724Y-4.1339
X5.4724Y-5.3937
X5.4724Y-5.4724
X5.5118Y-2.9134
X5.5118Y-3.7795
X5.5118Y-3.8386
X5.5512Y-2.4803
X5.5512Y-2.9528
X5.5512Y-4.1339
X5.5512Y-4.2126
X5.5512Y-4.2913
X5.5512Y-4.3701
X5.5512Y-4.4488
X5.5512Y-4.5276
X5.5512Y-4.6063
X5.5512Y-4.685
X5.5512Y-4.7638
X5.5512Y-4.8425
X5.5512Y-4.9213
X5.5512Y-5.0
X5.5512Y-5.0787
X5.5512Y-5.3937
X5.5512Y-5.4724
X5.6299Y-4.1339
X5.6299Y-4.2126
X5.6299Y-4.2913
X5.6299Y-4.3701
X5.6299Y-4.4488
X5.6299Y-4.5276
X5.6299Y-4.6063
X5.6299Y-4.685
X5.6299Y-4.7638
X5.6299Y-4.8425
X5.6299Y-4.9213
X5.6299Y-5.0
X5.6299Y-5.0787
X5.6299Y-5.1575
X5.6299Y-5.2362
X5.6299Y-5.315
X5.6299Y-5.3937
X5.6299Y-5.4724
X5.7087Y-4.1339
X5.7087Y-4.2126
X5.7087Y-4.2913
X5.7087Y-4.3701
X5.7087Y-4.4488
X5.7087Y-4.5276
X5.7087Y-4.6063
X5.7087Y-4.685
X5.7087Y-4.7638
X5.7087Y-4.8425
X5.7087Y-4.9213
X5.7087Y-5.0
X5.7087Y-5.0787
X5.7087Y-5.1575
X5.7087Y-5.2362
X5.7087Y-5.315
X5.7087Y-5.3937
X5.7087Y-5.4724
T2
X4.6614Y-3.3831
X4.6614Y-3.4331
X4.7114Y-3.3831
X4.7114Y-3.4331
X4.7614Y-3.3831
X4.7614Y-3.4331
X4.8114Y-3.3831
X4.8114Y-3.4331
X4.8614Y-3.3831
X4.8614Y-3.4331
X5.0012Y-3.3831
X5.0012Y-3.4331
X5.0512Y-3.3831
X5.0512Y-3.4331
X5.1012Y-3.3831
X5.1012Y-3.4331
T3
X4.8638Y-4.1772
X4.9638Y-4.1772
X5.6693Y-2.4894
X5.6693Y-2.5894
X5.6693Y-2.6894
X5.6693Y-2.7894
X5.6693Y-2.8894
X5.6693Y-2.9894
X5.6693Y-3.0894
X5.6693Y-3.1894
X5.6693Y-3.2894
X5.6693Y-3.3894
X5.6693Y-3.4894
X5.6693Y-3.5894
X5.6693Y-3.6894
X5.6693Y-3.7894
X5.6693Y-3.8894
X5.6693Y-3.9894
X4.8405Y-5.4115
X4.9405Y-5.4115
X4.2126Y-2.4894
X4.2126Y-2.5894
X4.2126Y-2.6894
X4.2126Y-2.7894
X4.2126Y-2.8894
X4.2126Y-2.9894
X4.2126Y-3.0894
X4.2126Y-3.1894
X4.2126Y-3.2894
X4.2126Y-3.3894
X4.2126Y-3.4894
X4.2126Y-3.5894
X4.2126Y-3.6894
X4.2126Y-3.7894
X4.2126Y-3.8894
X4.2126Y-3.9894
T4
X4.2953Y-5.2375
X4.4512Y-5.2375
X4.8638Y-3.9173
X5.0197Y-3.9173
X5.3375Y-5.2227
X5.4934Y-5.2227
T0
M30
