G04 #@! TF.GenerationSoftware,KiCad,Pcbnew,(5.1.2)-2*
G04 #@! TF.CreationDate,2019-10-16T12:38:49+08:00*
G04 #@! TF.ProjectId,ESP32-Solar-Battery,45535033-322d-4536-9f6c-61722d426174,rev?*
G04 #@! TF.SameCoordinates,Original*
G04 #@! TF.FileFunction,Soldermask,Bot*
G04 #@! TF.FilePolarity,Negative*
%FSLAX46Y46*%
G04 Gerber Fmt 4.6, Leading zero omitted, Abs format (unit mm)*
G04 Created by KiCad (PCBNEW (5.1.2)-2) date 2019-10-16 12:38:49*
%MOMM*%
%LPD*%
G04 APERTURE LIST*
%ADD10C,0.100000*%
G04 APERTURE END LIST*
D10*
G36*
X126389700Y-138353100D02*
G01*
X124587700Y-138353100D01*
X124587700Y-136551100D01*
X126389700Y-136551100D01*
X126389700Y-138353100D01*
X126389700Y-138353100D01*
G37*
G36*
X123059143Y-136557619D02*
G01*
X123125327Y-136564137D01*
X123295166Y-136615657D01*
X123451691Y-136699322D01*
X123487429Y-136728652D01*
X123588886Y-136811914D01*
X123672148Y-136913371D01*
X123701478Y-136949109D01*
X123785143Y-137105634D01*
X123836663Y-137275473D01*
X123854059Y-137452100D01*
X123836663Y-137628727D01*
X123785143Y-137798566D01*
X123701478Y-137955091D01*
X123672148Y-137990829D01*
X123588886Y-138092286D01*
X123487429Y-138175548D01*
X123451691Y-138204878D01*
X123295166Y-138288543D01*
X123125327Y-138340063D01*
X123059143Y-138346581D01*
X122992960Y-138353100D01*
X122904440Y-138353100D01*
X122838257Y-138346581D01*
X122772073Y-138340063D01*
X122602234Y-138288543D01*
X122445709Y-138204878D01*
X122409971Y-138175548D01*
X122308514Y-138092286D01*
X122225252Y-137990829D01*
X122195922Y-137955091D01*
X122112257Y-137798566D01*
X122060737Y-137628727D01*
X122043341Y-137452100D01*
X122060737Y-137275473D01*
X122112257Y-137105634D01*
X122195922Y-136949109D01*
X122225252Y-136913371D01*
X122308514Y-136811914D01*
X122409971Y-136728652D01*
X122445709Y-136699322D01*
X122602234Y-136615657D01*
X122772073Y-136564137D01*
X122838257Y-136557619D01*
X122904440Y-136551100D01*
X122992960Y-136551100D01*
X123059143Y-136557619D01*
X123059143Y-136557619D01*
G37*
G36*
X110374511Y-131635121D02*
G01*
X110403966Y-131644056D01*
X110431103Y-131658562D01*
X110454894Y-131678086D01*
X110474418Y-131701877D01*
X110488924Y-131729014D01*
X110497859Y-131758469D01*
X110501480Y-131795234D01*
X110501480Y-134269766D01*
X110497859Y-134306531D01*
X110488924Y-134335986D01*
X110474418Y-134363123D01*
X110454894Y-134386914D01*
X110431103Y-134406438D01*
X110403966Y-134420944D01*
X110374511Y-134429879D01*
X110337746Y-134433500D01*
X107863214Y-134433500D01*
X107826449Y-134429879D01*
X107796994Y-134420944D01*
X107769857Y-134406438D01*
X107746066Y-134386914D01*
X107726542Y-134363123D01*
X107712036Y-134335986D01*
X107703101Y-134306531D01*
X107699480Y-134269766D01*
X107699480Y-131795234D01*
X107703101Y-131758469D01*
X107712036Y-131729014D01*
X107726542Y-131701877D01*
X107746066Y-131678086D01*
X107769857Y-131658562D01*
X107796994Y-131644056D01*
X107826449Y-131635121D01*
X107863214Y-131631500D01*
X110337746Y-131631500D01*
X110374511Y-131635121D01*
X110374511Y-131635121D01*
G37*
G36*
X113334518Y-131658562D02*
G01*
X113469137Y-131685339D01*
X113574577Y-131729014D01*
X113724101Y-131790949D01*
X113798005Y-131840330D01*
X113953566Y-131944272D01*
X114148708Y-132139414D01*
X114251155Y-132292737D01*
X114302031Y-132368879D01*
X114407641Y-132623844D01*
X114461480Y-132894512D01*
X114461480Y-133170488D01*
X114407641Y-133441156D01*
X114302031Y-133696121D01*
X114302030Y-133696122D01*
X114148708Y-133925586D01*
X113953566Y-134120728D01*
X113873756Y-134174055D01*
X113724101Y-134274051D01*
X113645687Y-134306531D01*
X113469137Y-134379661D01*
X113378913Y-134397607D01*
X113198468Y-134433500D01*
X112922492Y-134433500D01*
X112742047Y-134397607D01*
X112651823Y-134379661D01*
X112475273Y-134306531D01*
X112396859Y-134274051D01*
X112247204Y-134174055D01*
X112167394Y-134120728D01*
X111972252Y-133925586D01*
X111818930Y-133696122D01*
X111818929Y-133696121D01*
X111713319Y-133441156D01*
X111659480Y-133170488D01*
X111659480Y-132894512D01*
X111713319Y-132623844D01*
X111818929Y-132368879D01*
X111869805Y-132292737D01*
X111972252Y-132139414D01*
X112167394Y-131944272D01*
X112322955Y-131840330D01*
X112396859Y-131790949D01*
X112546383Y-131729014D01*
X112651823Y-131685339D01*
X112786442Y-131658562D01*
X112922492Y-131631500D01*
X113198468Y-131631500D01*
X113334518Y-131658562D01*
X113334518Y-131658562D01*
G37*
G36*
X139806538Y-131282642D02*
G01*
X139941157Y-131309419D01*
X140046597Y-131353094D01*
X140196121Y-131415029D01*
X140270025Y-131464410D01*
X140425586Y-131568352D01*
X140620728Y-131763494D01*
X140723175Y-131916817D01*
X140774051Y-131992959D01*
X140879661Y-132247924D01*
X140933500Y-132518592D01*
X140933500Y-132794568D01*
X140879661Y-133065236D01*
X140774051Y-133320201D01*
X140774050Y-133320202D01*
X140620728Y-133549666D01*
X140425586Y-133744808D01*
X140345776Y-133798135D01*
X140196121Y-133898131D01*
X140117707Y-133930611D01*
X139941157Y-134003741D01*
X139850933Y-134021687D01*
X139670488Y-134057580D01*
X139394512Y-134057580D01*
X139214067Y-134021687D01*
X139123843Y-134003741D01*
X138947293Y-133930611D01*
X138868879Y-133898131D01*
X138719224Y-133798135D01*
X138639414Y-133744808D01*
X138444272Y-133549666D01*
X138290950Y-133320202D01*
X138290949Y-133320201D01*
X138185339Y-133065236D01*
X138131500Y-132794568D01*
X138131500Y-132518592D01*
X138185339Y-132247924D01*
X138290949Y-131992959D01*
X138341825Y-131916817D01*
X138444272Y-131763494D01*
X138639414Y-131568352D01*
X138794975Y-131464410D01*
X138868879Y-131415029D01*
X139018403Y-131353094D01*
X139123843Y-131309419D01*
X139258462Y-131282642D01*
X139394512Y-131255580D01*
X139670488Y-131255580D01*
X139806538Y-131282642D01*
X139806538Y-131282642D01*
G37*
G36*
X136846531Y-131259201D02*
G01*
X136875986Y-131268136D01*
X136903123Y-131282642D01*
X136926914Y-131302166D01*
X136946438Y-131325957D01*
X136960944Y-131353094D01*
X136969879Y-131382549D01*
X136973500Y-131419314D01*
X136973500Y-133893846D01*
X136969879Y-133930611D01*
X136960944Y-133960066D01*
X136946438Y-133987203D01*
X136926914Y-134010994D01*
X136903123Y-134030518D01*
X136875986Y-134045024D01*
X136846531Y-134053959D01*
X136809766Y-134057580D01*
X134335234Y-134057580D01*
X134298469Y-134053959D01*
X134269014Y-134045024D01*
X134241877Y-134030518D01*
X134218086Y-134010994D01*
X134198562Y-133987203D01*
X134184056Y-133960066D01*
X134175121Y-133930611D01*
X134171500Y-133893846D01*
X134171500Y-131419314D01*
X134175121Y-131382549D01*
X134184056Y-131353094D01*
X134198562Y-131325957D01*
X134218086Y-131302166D01*
X134241877Y-131282642D01*
X134269014Y-131268136D01*
X134298469Y-131259201D01*
X134335234Y-131255580D01*
X136809766Y-131255580D01*
X136846531Y-131259201D01*
X136846531Y-131259201D01*
G37*
G36*
X124441000Y-107001000D02*
G01*
X122639000Y-107001000D01*
X122639000Y-105199000D01*
X124441000Y-105199000D01*
X124441000Y-107001000D01*
X124441000Y-107001000D01*
G37*
G36*
X126190442Y-105205518D02*
G01*
X126256627Y-105212037D01*
X126426466Y-105263557D01*
X126582991Y-105347222D01*
X126618729Y-105376552D01*
X126720186Y-105459814D01*
X126803448Y-105561271D01*
X126832778Y-105597009D01*
X126916443Y-105753534D01*
X126967963Y-105923373D01*
X126985359Y-106100000D01*
X126967963Y-106276627D01*
X126916443Y-106446466D01*
X126832778Y-106602991D01*
X126803448Y-106638729D01*
X126720186Y-106740186D01*
X126618729Y-106823448D01*
X126582991Y-106852778D01*
X126426466Y-106936443D01*
X126256627Y-106987963D01*
X126190442Y-106994482D01*
X126124260Y-107001000D01*
X126035740Y-107001000D01*
X125969558Y-106994482D01*
X125903373Y-106987963D01*
X125733534Y-106936443D01*
X125577009Y-106852778D01*
X125541271Y-106823448D01*
X125439814Y-106740186D01*
X125356552Y-106638729D01*
X125327222Y-106602991D01*
X125243557Y-106446466D01*
X125192037Y-106276627D01*
X125174641Y-106100000D01*
X125192037Y-105923373D01*
X125243557Y-105753534D01*
X125327222Y-105597009D01*
X125356552Y-105561271D01*
X125439814Y-105459814D01*
X125541271Y-105376552D01*
X125577009Y-105347222D01*
X125733534Y-105263557D01*
X125903373Y-105212037D01*
X125969558Y-105205518D01*
X126035740Y-105199000D01*
X126124260Y-105199000D01*
X126190442Y-105205518D01*
X126190442Y-105205518D01*
G37*
G36*
X144110443Y-100436899D02*
G01*
X144176627Y-100443417D01*
X144346466Y-100494937D01*
X144502991Y-100578602D01*
X144514720Y-100588228D01*
X144640186Y-100691194D01*
X144717740Y-100785695D01*
X144752778Y-100828389D01*
X144836443Y-100984914D01*
X144887963Y-101154753D01*
X144905359Y-101331380D01*
X144887963Y-101508007D01*
X144836443Y-101677846D01*
X144752778Y-101834371D01*
X144723448Y-101870109D01*
X144640186Y-101971566D01*
X144538729Y-102054828D01*
X144502991Y-102084158D01*
X144346466Y-102167823D01*
X144176627Y-102219343D01*
X144110442Y-102225862D01*
X144044260Y-102232380D01*
X143955740Y-102232380D01*
X143889558Y-102225862D01*
X143823373Y-102219343D01*
X143653534Y-102167823D01*
X143497009Y-102084158D01*
X143461271Y-102054828D01*
X143359814Y-101971566D01*
X143276552Y-101870109D01*
X143247222Y-101834371D01*
X143163557Y-101677846D01*
X143112037Y-101508007D01*
X143094641Y-101331380D01*
X143112037Y-101154753D01*
X143163557Y-100984914D01*
X143247222Y-100828389D01*
X143282260Y-100785695D01*
X143359814Y-100691194D01*
X143485280Y-100588228D01*
X143497009Y-100578602D01*
X143653534Y-100494937D01*
X143823373Y-100443417D01*
X143889557Y-100436899D01*
X143955740Y-100430380D01*
X144044260Y-100430380D01*
X144110443Y-100436899D01*
X144110443Y-100436899D01*
G37*
G36*
X107110443Y-100436899D02*
G01*
X107176627Y-100443417D01*
X107346466Y-100494937D01*
X107502991Y-100578602D01*
X107514720Y-100588228D01*
X107640186Y-100691194D01*
X107717740Y-100785695D01*
X107752778Y-100828389D01*
X107836443Y-100984914D01*
X107887963Y-101154753D01*
X107905359Y-101331380D01*
X107887963Y-101508007D01*
X107836443Y-101677846D01*
X107752778Y-101834371D01*
X107723448Y-101870109D01*
X107640186Y-101971566D01*
X107538729Y-102054828D01*
X107502991Y-102084158D01*
X107346466Y-102167823D01*
X107176627Y-102219343D01*
X107110442Y-102225862D01*
X107044260Y-102232380D01*
X106955740Y-102232380D01*
X106889558Y-102225862D01*
X106823373Y-102219343D01*
X106653534Y-102167823D01*
X106497009Y-102084158D01*
X106461271Y-102054828D01*
X106359814Y-101971566D01*
X106276552Y-101870109D01*
X106247222Y-101834371D01*
X106163557Y-101677846D01*
X106112037Y-101508007D01*
X106094641Y-101331380D01*
X106112037Y-101154753D01*
X106163557Y-100984914D01*
X106247222Y-100828389D01*
X106282260Y-100785695D01*
X106359814Y-100691194D01*
X106485280Y-100588228D01*
X106497009Y-100578602D01*
X106653534Y-100494937D01*
X106823373Y-100443417D01*
X106889557Y-100436899D01*
X106955740Y-100430380D01*
X107044260Y-100430380D01*
X107110443Y-100436899D01*
X107110443Y-100436899D01*
G37*
G36*
X128774031Y-98102621D02*
G01*
X128803486Y-98111556D01*
X128830623Y-98126062D01*
X128854414Y-98145586D01*
X128873938Y-98169377D01*
X128888444Y-98196514D01*
X128897379Y-98225969D01*
X128901000Y-98262734D01*
X128901000Y-100737266D01*
X128897379Y-100774031D01*
X128888444Y-100803486D01*
X128873938Y-100830623D01*
X128854414Y-100854414D01*
X128830623Y-100873938D01*
X128803486Y-100888444D01*
X128774031Y-100897379D01*
X128737266Y-100901000D01*
X126262734Y-100901000D01*
X126225969Y-100897379D01*
X126196514Y-100888444D01*
X126169377Y-100873938D01*
X126145586Y-100854414D01*
X126126062Y-100830623D01*
X126111556Y-100803486D01*
X126102621Y-100774031D01*
X126099000Y-100737266D01*
X126099000Y-98262734D01*
X126102621Y-98225969D01*
X126111556Y-98196514D01*
X126126062Y-98169377D01*
X126145586Y-98145586D01*
X126169377Y-98126062D01*
X126196514Y-98111556D01*
X126225969Y-98102621D01*
X126262734Y-98099000D01*
X128737266Y-98099000D01*
X128774031Y-98102621D01*
X128774031Y-98102621D01*
G37*
G36*
X123814038Y-98126062D02*
G01*
X123948657Y-98152839D01*
X124054097Y-98196514D01*
X124203621Y-98258449D01*
X124248429Y-98288389D01*
X124433086Y-98411772D01*
X124628228Y-98606914D01*
X124633467Y-98614755D01*
X124781551Y-98836379D01*
X124887161Y-99091344D01*
X124941000Y-99362012D01*
X124941000Y-99637988D01*
X124887161Y-99908656D01*
X124781551Y-100163621D01*
X124781550Y-100163622D01*
X124628228Y-100393086D01*
X124433086Y-100588228D01*
X124353276Y-100641555D01*
X124203621Y-100741551D01*
X124125207Y-100774031D01*
X123948657Y-100847161D01*
X123858433Y-100865107D01*
X123677988Y-100901000D01*
X123402012Y-100901000D01*
X123221567Y-100865107D01*
X123131343Y-100847161D01*
X122954793Y-100774031D01*
X122876379Y-100741551D01*
X122726724Y-100641555D01*
X122646914Y-100588228D01*
X122451772Y-100393086D01*
X122298450Y-100163622D01*
X122298449Y-100163621D01*
X122192839Y-99908656D01*
X122139000Y-99637988D01*
X122139000Y-99362012D01*
X122192839Y-99091344D01*
X122298449Y-98836379D01*
X122446533Y-98614755D01*
X122451772Y-98606914D01*
X122646914Y-98411772D01*
X122831571Y-98288389D01*
X122876379Y-98258449D01*
X123025903Y-98196514D01*
X123131343Y-98152839D01*
X123265962Y-98126062D01*
X123402012Y-98099000D01*
X123677988Y-98099000D01*
X123814038Y-98126062D01*
X123814038Y-98126062D01*
G37*
G36*
X107110442Y-97896898D02*
G01*
X107176627Y-97903417D01*
X107346466Y-97954937D01*
X107502991Y-98038602D01*
X107538729Y-98067932D01*
X107640186Y-98151194D01*
X107701551Y-98225969D01*
X107752778Y-98288389D01*
X107836443Y-98444914D01*
X107887963Y-98614753D01*
X107905359Y-98791380D01*
X107887963Y-98968007D01*
X107836443Y-99137846D01*
X107752778Y-99294371D01*
X107723448Y-99330109D01*
X107640186Y-99431566D01*
X107538729Y-99514828D01*
X107502991Y-99544158D01*
X107346466Y-99627823D01*
X107176627Y-99679343D01*
X107110442Y-99685862D01*
X107044260Y-99692380D01*
X106955740Y-99692380D01*
X106889558Y-99685862D01*
X106823373Y-99679343D01*
X106653534Y-99627823D01*
X106497009Y-99544158D01*
X106461271Y-99514828D01*
X106359814Y-99431566D01*
X106276552Y-99330109D01*
X106247222Y-99294371D01*
X106163557Y-99137846D01*
X106112037Y-98968007D01*
X106094641Y-98791380D01*
X106112037Y-98614753D01*
X106163557Y-98444914D01*
X106247222Y-98288389D01*
X106298449Y-98225969D01*
X106359814Y-98151194D01*
X106461271Y-98067932D01*
X106497009Y-98038602D01*
X106653534Y-97954937D01*
X106823373Y-97903417D01*
X106889557Y-97896899D01*
X106955740Y-97890380D01*
X107044260Y-97890380D01*
X107110442Y-97896898D01*
X107110442Y-97896898D01*
G37*
G36*
X144110442Y-97896898D02*
G01*
X144176627Y-97903417D01*
X144346466Y-97954937D01*
X144502991Y-98038602D01*
X144538729Y-98067932D01*
X144640186Y-98151194D01*
X144701551Y-98225969D01*
X144752778Y-98288389D01*
X144836443Y-98444914D01*
X144887963Y-98614753D01*
X144905359Y-98791380D01*
X144887963Y-98968007D01*
X144836443Y-99137846D01*
X144752778Y-99294371D01*
X144723448Y-99330109D01*
X144640186Y-99431566D01*
X144538729Y-99514828D01*
X144502991Y-99544158D01*
X144346466Y-99627823D01*
X144176627Y-99679343D01*
X144110442Y-99685862D01*
X144044260Y-99692380D01*
X143955740Y-99692380D01*
X143889558Y-99685862D01*
X143823373Y-99679343D01*
X143653534Y-99627823D01*
X143497009Y-99544158D01*
X143461271Y-99514828D01*
X143359814Y-99431566D01*
X143276552Y-99330109D01*
X143247222Y-99294371D01*
X143163557Y-99137846D01*
X143112037Y-98968007D01*
X143094641Y-98791380D01*
X143112037Y-98614753D01*
X143163557Y-98444914D01*
X143247222Y-98288389D01*
X143298449Y-98225969D01*
X143359814Y-98151194D01*
X143461271Y-98067932D01*
X143497009Y-98038602D01*
X143653534Y-97954937D01*
X143823373Y-97903417D01*
X143889557Y-97896899D01*
X143955740Y-97890380D01*
X144044260Y-97890380D01*
X144110442Y-97896898D01*
X144110442Y-97896898D01*
G37*
G36*
X144110442Y-95356898D02*
G01*
X144176627Y-95363417D01*
X144346466Y-95414937D01*
X144502991Y-95498602D01*
X144538729Y-95527932D01*
X144640186Y-95611194D01*
X144723448Y-95712651D01*
X144752778Y-95748389D01*
X144836443Y-95904914D01*
X144887963Y-96074753D01*
X144905359Y-96251380D01*
X144887963Y-96428007D01*
X144836443Y-96597846D01*
X144752778Y-96754371D01*
X144723448Y-96790109D01*
X144640186Y-96891566D01*
X144538729Y-96974828D01*
X144502991Y-97004158D01*
X144346466Y-97087823D01*
X144176627Y-97139343D01*
X144110442Y-97145862D01*
X144044260Y-97152380D01*
X143955740Y-97152380D01*
X143889557Y-97145861D01*
X143823373Y-97139343D01*
X143653534Y-97087823D01*
X143497009Y-97004158D01*
X143461271Y-96974828D01*
X143359814Y-96891566D01*
X143276552Y-96790109D01*
X143247222Y-96754371D01*
X143163557Y-96597846D01*
X143112037Y-96428007D01*
X143094641Y-96251380D01*
X143112037Y-96074753D01*
X143163557Y-95904914D01*
X143247222Y-95748389D01*
X143276552Y-95712651D01*
X143359814Y-95611194D01*
X143461271Y-95527932D01*
X143497009Y-95498602D01*
X143653534Y-95414937D01*
X143823373Y-95363417D01*
X143889558Y-95356898D01*
X143955740Y-95350380D01*
X144044260Y-95350380D01*
X144110442Y-95356898D01*
X144110442Y-95356898D01*
G37*
G36*
X107110442Y-95356898D02*
G01*
X107176627Y-95363417D01*
X107346466Y-95414937D01*
X107502991Y-95498602D01*
X107538729Y-95527932D01*
X107640186Y-95611194D01*
X107723448Y-95712651D01*
X107752778Y-95748389D01*
X107836443Y-95904914D01*
X107887963Y-96074753D01*
X107905359Y-96251380D01*
X107887963Y-96428007D01*
X107836443Y-96597846D01*
X107752778Y-96754371D01*
X107723448Y-96790109D01*
X107640186Y-96891566D01*
X107538729Y-96974828D01*
X107502991Y-97004158D01*
X107346466Y-97087823D01*
X107176627Y-97139343D01*
X107110442Y-97145862D01*
X107044260Y-97152380D01*
X106955740Y-97152380D01*
X106889557Y-97145861D01*
X106823373Y-97139343D01*
X106653534Y-97087823D01*
X106497009Y-97004158D01*
X106461271Y-96974828D01*
X106359814Y-96891566D01*
X106276552Y-96790109D01*
X106247222Y-96754371D01*
X106163557Y-96597846D01*
X106112037Y-96428007D01*
X106094641Y-96251380D01*
X106112037Y-96074753D01*
X106163557Y-95904914D01*
X106247222Y-95748389D01*
X106276552Y-95712651D01*
X106359814Y-95611194D01*
X106461271Y-95527932D01*
X106497009Y-95498602D01*
X106653534Y-95414937D01*
X106823373Y-95363417D01*
X106889558Y-95356898D01*
X106955740Y-95350380D01*
X107044260Y-95350380D01*
X107110442Y-95356898D01*
X107110442Y-95356898D01*
G37*
G36*
X144110443Y-92816899D02*
G01*
X144176627Y-92823417D01*
X144346466Y-92874937D01*
X144502991Y-92958602D01*
X144538729Y-92987932D01*
X144640186Y-93071194D01*
X144723448Y-93172651D01*
X144752778Y-93208389D01*
X144836443Y-93364914D01*
X144887963Y-93534753D01*
X144905359Y-93711380D01*
X144887963Y-93888007D01*
X144836443Y-94057846D01*
X144752778Y-94214371D01*
X144723448Y-94250109D01*
X144640186Y-94351566D01*
X144538729Y-94434828D01*
X144502991Y-94464158D01*
X144346466Y-94547823D01*
X144176627Y-94599343D01*
X144110443Y-94605861D01*
X144044260Y-94612380D01*
X143955740Y-94612380D01*
X143889558Y-94605862D01*
X143823373Y-94599343D01*
X143653534Y-94547823D01*
X143497009Y-94464158D01*
X143461271Y-94434828D01*
X143359814Y-94351566D01*
X143276552Y-94250109D01*
X143247222Y-94214371D01*
X143163557Y-94057846D01*
X143112037Y-93888007D01*
X143094641Y-93711380D01*
X143112037Y-93534753D01*
X143163557Y-93364914D01*
X143247222Y-93208389D01*
X143276552Y-93172651D01*
X143359814Y-93071194D01*
X143461271Y-92987932D01*
X143497009Y-92958602D01*
X143653534Y-92874937D01*
X143823373Y-92823417D01*
X143889557Y-92816899D01*
X143955740Y-92810380D01*
X144044260Y-92810380D01*
X144110443Y-92816899D01*
X144110443Y-92816899D01*
G37*
G36*
X107110443Y-92816899D02*
G01*
X107176627Y-92823417D01*
X107346466Y-92874937D01*
X107502991Y-92958602D01*
X107538729Y-92987932D01*
X107640186Y-93071194D01*
X107723448Y-93172651D01*
X107752778Y-93208389D01*
X107836443Y-93364914D01*
X107887963Y-93534753D01*
X107905359Y-93711380D01*
X107887963Y-93888007D01*
X107836443Y-94057846D01*
X107752778Y-94214371D01*
X107723448Y-94250109D01*
X107640186Y-94351566D01*
X107538729Y-94434828D01*
X107502991Y-94464158D01*
X107346466Y-94547823D01*
X107176627Y-94599343D01*
X107110442Y-94605862D01*
X107044260Y-94612380D01*
X106955740Y-94612380D01*
X106889558Y-94605862D01*
X106823373Y-94599343D01*
X106653534Y-94547823D01*
X106497009Y-94464158D01*
X106461271Y-94434828D01*
X106359814Y-94351566D01*
X106276552Y-94250109D01*
X106247222Y-94214371D01*
X106163557Y-94057846D01*
X106112037Y-93888007D01*
X106094641Y-93711380D01*
X106112037Y-93534753D01*
X106163557Y-93364914D01*
X106247222Y-93208389D01*
X106276552Y-93172651D01*
X106359814Y-93071194D01*
X106461271Y-92987932D01*
X106497009Y-92958602D01*
X106653534Y-92874937D01*
X106823373Y-92823417D01*
X106889557Y-92816899D01*
X106955740Y-92810380D01*
X107044260Y-92810380D01*
X107110443Y-92816899D01*
X107110443Y-92816899D01*
G37*
G36*
X144110442Y-90276898D02*
G01*
X144176627Y-90283417D01*
X144346466Y-90334937D01*
X144502991Y-90418602D01*
X144538729Y-90447932D01*
X144640186Y-90531194D01*
X144723448Y-90632651D01*
X144752778Y-90668389D01*
X144836443Y-90824914D01*
X144887963Y-90994753D01*
X144905359Y-91171380D01*
X144887963Y-91348007D01*
X144836443Y-91517846D01*
X144752778Y-91674371D01*
X144723448Y-91710109D01*
X144640186Y-91811566D01*
X144538729Y-91894828D01*
X144502991Y-91924158D01*
X144346466Y-92007823D01*
X144176627Y-92059343D01*
X144110443Y-92065861D01*
X144044260Y-92072380D01*
X143955740Y-92072380D01*
X143889557Y-92065861D01*
X143823373Y-92059343D01*
X143653534Y-92007823D01*
X143497009Y-91924158D01*
X143461271Y-91894828D01*
X143359814Y-91811566D01*
X143276552Y-91710109D01*
X143247222Y-91674371D01*
X143163557Y-91517846D01*
X143112037Y-91348007D01*
X143094641Y-91171380D01*
X143112037Y-90994753D01*
X143163557Y-90824914D01*
X143247222Y-90668389D01*
X143276552Y-90632651D01*
X143359814Y-90531194D01*
X143461271Y-90447932D01*
X143497009Y-90418602D01*
X143653534Y-90334937D01*
X143823373Y-90283417D01*
X143889558Y-90276898D01*
X143955740Y-90270380D01*
X144044260Y-90270380D01*
X144110442Y-90276898D01*
X144110442Y-90276898D01*
G37*
G36*
X107110442Y-90276898D02*
G01*
X107176627Y-90283417D01*
X107346466Y-90334937D01*
X107502991Y-90418602D01*
X107538729Y-90447932D01*
X107640186Y-90531194D01*
X107723448Y-90632651D01*
X107752778Y-90668389D01*
X107836443Y-90824914D01*
X107887963Y-90994753D01*
X107905359Y-91171380D01*
X107887963Y-91348007D01*
X107836443Y-91517846D01*
X107752778Y-91674371D01*
X107723448Y-91710109D01*
X107640186Y-91811566D01*
X107538729Y-91894828D01*
X107502991Y-91924158D01*
X107346466Y-92007823D01*
X107176627Y-92059343D01*
X107110443Y-92065861D01*
X107044260Y-92072380D01*
X106955740Y-92072380D01*
X106889557Y-92065861D01*
X106823373Y-92059343D01*
X106653534Y-92007823D01*
X106497009Y-91924158D01*
X106461271Y-91894828D01*
X106359814Y-91811566D01*
X106276552Y-91710109D01*
X106247222Y-91674371D01*
X106163557Y-91517846D01*
X106112037Y-91348007D01*
X106094641Y-91171380D01*
X106112037Y-90994753D01*
X106163557Y-90824914D01*
X106247222Y-90668389D01*
X106276552Y-90632651D01*
X106359814Y-90531194D01*
X106461271Y-90447932D01*
X106497009Y-90418602D01*
X106653534Y-90334937D01*
X106823373Y-90283417D01*
X106889558Y-90276898D01*
X106955740Y-90270380D01*
X107044260Y-90270380D01*
X107110442Y-90276898D01*
X107110442Y-90276898D01*
G37*
G36*
X144110442Y-87736898D02*
G01*
X144176627Y-87743417D01*
X144346466Y-87794937D01*
X144502991Y-87878602D01*
X144538729Y-87907932D01*
X144640186Y-87991194D01*
X144723448Y-88092651D01*
X144752778Y-88128389D01*
X144836443Y-88284914D01*
X144887963Y-88454753D01*
X144905359Y-88631380D01*
X144887963Y-88808007D01*
X144836443Y-88977846D01*
X144752778Y-89134371D01*
X144723448Y-89170109D01*
X144640186Y-89271566D01*
X144538729Y-89354828D01*
X144502991Y-89384158D01*
X144346466Y-89467823D01*
X144176627Y-89519343D01*
X144110442Y-89525862D01*
X144044260Y-89532380D01*
X143955740Y-89532380D01*
X143889558Y-89525862D01*
X143823373Y-89519343D01*
X143653534Y-89467823D01*
X143497009Y-89384158D01*
X143461271Y-89354828D01*
X143359814Y-89271566D01*
X143276552Y-89170109D01*
X143247222Y-89134371D01*
X143163557Y-88977846D01*
X143112037Y-88808007D01*
X143094641Y-88631380D01*
X143112037Y-88454753D01*
X143163557Y-88284914D01*
X143247222Y-88128389D01*
X143276552Y-88092651D01*
X143359814Y-87991194D01*
X143461271Y-87907932D01*
X143497009Y-87878602D01*
X143653534Y-87794937D01*
X143823373Y-87743417D01*
X143889558Y-87736898D01*
X143955740Y-87730380D01*
X144044260Y-87730380D01*
X144110442Y-87736898D01*
X144110442Y-87736898D01*
G37*
G36*
X107110442Y-87736898D02*
G01*
X107176627Y-87743417D01*
X107346466Y-87794937D01*
X107502991Y-87878602D01*
X107538729Y-87907932D01*
X107640186Y-87991194D01*
X107723448Y-88092651D01*
X107752778Y-88128389D01*
X107836443Y-88284914D01*
X107887963Y-88454753D01*
X107905359Y-88631380D01*
X107887963Y-88808007D01*
X107836443Y-88977846D01*
X107752778Y-89134371D01*
X107723448Y-89170109D01*
X107640186Y-89271566D01*
X107538729Y-89354828D01*
X107502991Y-89384158D01*
X107346466Y-89467823D01*
X107176627Y-89519343D01*
X107110442Y-89525862D01*
X107044260Y-89532380D01*
X106955740Y-89532380D01*
X106889558Y-89525862D01*
X106823373Y-89519343D01*
X106653534Y-89467823D01*
X106497009Y-89384158D01*
X106461271Y-89354828D01*
X106359814Y-89271566D01*
X106276552Y-89170109D01*
X106247222Y-89134371D01*
X106163557Y-88977846D01*
X106112037Y-88808007D01*
X106094641Y-88631380D01*
X106112037Y-88454753D01*
X106163557Y-88284914D01*
X106247222Y-88128389D01*
X106276552Y-88092651D01*
X106359814Y-87991194D01*
X106461271Y-87907932D01*
X106497009Y-87878602D01*
X106653534Y-87794937D01*
X106823373Y-87743417D01*
X106889558Y-87736898D01*
X106955740Y-87730380D01*
X107044260Y-87730380D01*
X107110442Y-87736898D01*
X107110442Y-87736898D01*
G37*
G36*
X118508015Y-85386973D02*
G01*
X118611879Y-85418479D01*
X118639055Y-85433005D01*
X118707600Y-85469643D01*
X118791501Y-85538499D01*
X118860357Y-85622400D01*
X118896995Y-85690945D01*
X118911521Y-85718121D01*
X118915388Y-85730869D01*
X118924760Y-85753496D01*
X118938374Y-85773870D01*
X118955701Y-85791197D01*
X118976075Y-85804811D01*
X118998714Y-85814188D01*
X119022747Y-85818969D01*
X119047251Y-85818969D01*
X119071285Y-85814189D01*
X119093924Y-85804812D01*
X119114298Y-85791198D01*
X119131625Y-85773871D01*
X119145239Y-85753497D01*
X119154612Y-85730869D01*
X119158479Y-85718121D01*
X119173005Y-85690945D01*
X119209643Y-85622400D01*
X119278499Y-85538499D01*
X119362400Y-85469643D01*
X119430945Y-85433005D01*
X119458121Y-85418479D01*
X119561985Y-85386973D01*
X119642933Y-85379000D01*
X119697067Y-85379000D01*
X119778015Y-85386973D01*
X119881879Y-85418479D01*
X119909055Y-85433005D01*
X119977600Y-85469643D01*
X120061501Y-85538499D01*
X120130357Y-85622400D01*
X120166995Y-85690945D01*
X120181521Y-85718121D01*
X120185388Y-85730869D01*
X120194760Y-85753496D01*
X120208374Y-85773870D01*
X120225701Y-85791197D01*
X120246075Y-85804811D01*
X120268714Y-85814188D01*
X120292747Y-85818969D01*
X120317251Y-85818969D01*
X120341285Y-85814189D01*
X120363924Y-85804812D01*
X120384298Y-85791198D01*
X120401625Y-85773871D01*
X120415239Y-85753497D01*
X120424612Y-85730869D01*
X120428479Y-85718121D01*
X120443005Y-85690945D01*
X120479643Y-85622400D01*
X120548499Y-85538499D01*
X120632400Y-85469643D01*
X120700945Y-85433005D01*
X120728121Y-85418479D01*
X120831985Y-85386973D01*
X120912933Y-85379000D01*
X120967067Y-85379000D01*
X121048015Y-85386973D01*
X121151879Y-85418479D01*
X121179055Y-85433005D01*
X121247600Y-85469643D01*
X121331501Y-85538499D01*
X121400357Y-85622400D01*
X121436995Y-85690945D01*
X121451521Y-85718121D01*
X121455388Y-85730869D01*
X121464760Y-85753496D01*
X121478374Y-85773870D01*
X121495701Y-85791197D01*
X121516075Y-85804811D01*
X121538714Y-85814188D01*
X121562747Y-85818969D01*
X121587251Y-85818969D01*
X121611285Y-85814189D01*
X121633924Y-85804812D01*
X121654298Y-85791198D01*
X121671625Y-85773871D01*
X121685239Y-85753497D01*
X121694612Y-85730869D01*
X121698479Y-85718121D01*
X121713005Y-85690945D01*
X121749643Y-85622400D01*
X121818499Y-85538499D01*
X121902400Y-85469643D01*
X121970945Y-85433005D01*
X121998121Y-85418479D01*
X122101985Y-85386973D01*
X122182933Y-85379000D01*
X122237067Y-85379000D01*
X122318015Y-85386973D01*
X122421879Y-85418479D01*
X122449055Y-85433005D01*
X122517600Y-85469643D01*
X122601501Y-85538499D01*
X122670357Y-85622400D01*
X122706995Y-85690945D01*
X122721521Y-85718121D01*
X122725388Y-85730869D01*
X122734760Y-85753496D01*
X122748374Y-85773870D01*
X122765701Y-85791197D01*
X122786075Y-85804811D01*
X122808714Y-85814188D01*
X122832747Y-85818969D01*
X122857251Y-85818969D01*
X122881285Y-85814189D01*
X122903924Y-85804812D01*
X122924298Y-85791198D01*
X122941625Y-85773871D01*
X122955239Y-85753497D01*
X122964612Y-85730869D01*
X122968479Y-85718121D01*
X122983005Y-85690945D01*
X123019643Y-85622400D01*
X123088499Y-85538499D01*
X123172400Y-85469643D01*
X123240945Y-85433005D01*
X123268121Y-85418479D01*
X123371985Y-85386973D01*
X123452933Y-85379000D01*
X123507067Y-85379000D01*
X123588015Y-85386973D01*
X123691879Y-85418479D01*
X123719055Y-85433005D01*
X123787600Y-85469643D01*
X123871501Y-85538499D01*
X123940357Y-85622400D01*
X123976995Y-85690945D01*
X123991521Y-85718121D01*
X124023027Y-85821985D01*
X124033666Y-85930000D01*
X124023027Y-86038015D01*
X123991521Y-86141879D01*
X123991519Y-86141882D01*
X123940357Y-86237600D01*
X123871501Y-86321501D01*
X123787600Y-86390357D01*
X123732014Y-86420068D01*
X123691879Y-86441521D01*
X123679131Y-86445388D01*
X123656504Y-86454760D01*
X123636130Y-86468374D01*
X123618803Y-86485701D01*
X123605189Y-86506075D01*
X123595812Y-86528714D01*
X123591031Y-86552747D01*
X123591031Y-86577251D01*
X123595811Y-86601285D01*
X123605188Y-86623924D01*
X123618802Y-86644298D01*
X123636129Y-86661625D01*
X123656503Y-86675239D01*
X123679131Y-86684612D01*
X123691879Y-86688479D01*
X123719055Y-86703005D01*
X123787600Y-86739643D01*
X123871501Y-86808499D01*
X123940357Y-86892400D01*
X123976995Y-86960945D01*
X123991521Y-86988121D01*
X124023027Y-87091985D01*
X124033666Y-87200000D01*
X124023027Y-87308015D01*
X123991521Y-87411879D01*
X123991191Y-87412496D01*
X123940357Y-87507600D01*
X123871501Y-87591501D01*
X123787600Y-87660357D01*
X123719055Y-87696995D01*
X123691879Y-87711521D01*
X123588015Y-87743027D01*
X123507067Y-87751000D01*
X123452933Y-87751000D01*
X123371985Y-87743027D01*
X123268121Y-87711521D01*
X123240945Y-87696995D01*
X123172400Y-87660357D01*
X123088499Y-87591501D01*
X123019643Y-87507600D01*
X122968809Y-87412496D01*
X122968479Y-87411879D01*
X122964612Y-87399131D01*
X122955240Y-87376504D01*
X122941626Y-87356130D01*
X122924299Y-87338803D01*
X122903925Y-87325189D01*
X122881286Y-87315812D01*
X122857253Y-87311031D01*
X122832749Y-87311031D01*
X122808715Y-87315811D01*
X122786076Y-87325188D01*
X122765702Y-87338802D01*
X122748375Y-87356129D01*
X122734761Y-87376503D01*
X122725388Y-87399131D01*
X122721521Y-87411879D01*
X122721191Y-87412496D01*
X122670357Y-87507600D01*
X122601501Y-87591501D01*
X122517600Y-87660357D01*
X122449055Y-87696995D01*
X122421879Y-87711521D01*
X122318015Y-87743027D01*
X122237067Y-87751000D01*
X122182933Y-87751000D01*
X122101985Y-87743027D01*
X121998121Y-87711521D01*
X121970945Y-87696995D01*
X121902400Y-87660357D01*
X121818499Y-87591501D01*
X121749643Y-87507600D01*
X121698809Y-87412496D01*
X121698479Y-87411879D01*
X121694612Y-87399131D01*
X121685240Y-87376504D01*
X121671626Y-87356130D01*
X121654299Y-87338803D01*
X121633925Y-87325189D01*
X121611286Y-87315812D01*
X121587253Y-87311031D01*
X121562749Y-87311031D01*
X121538715Y-87315811D01*
X121516076Y-87325188D01*
X121495702Y-87338802D01*
X121478375Y-87356129D01*
X121464761Y-87376503D01*
X121455388Y-87399131D01*
X121451521Y-87411879D01*
X121451191Y-87412496D01*
X121400357Y-87507600D01*
X121331501Y-87591501D01*
X121247600Y-87660357D01*
X121179055Y-87696995D01*
X121151879Y-87711521D01*
X121048015Y-87743027D01*
X120967067Y-87751000D01*
X120912933Y-87751000D01*
X120831985Y-87743027D01*
X120728121Y-87711521D01*
X120700945Y-87696995D01*
X120632400Y-87660357D01*
X120548499Y-87591501D01*
X120479643Y-87507600D01*
X120428809Y-87412496D01*
X120428479Y-87411879D01*
X120424612Y-87399131D01*
X120415240Y-87376504D01*
X120401626Y-87356130D01*
X120384299Y-87338803D01*
X120363925Y-87325189D01*
X120341286Y-87315812D01*
X120317253Y-87311031D01*
X120292749Y-87311031D01*
X120268715Y-87315811D01*
X120246076Y-87325188D01*
X120225702Y-87338802D01*
X120208375Y-87356129D01*
X120194761Y-87376503D01*
X120185388Y-87399131D01*
X120181521Y-87411879D01*
X120181191Y-87412496D01*
X120130357Y-87507600D01*
X120061501Y-87591501D01*
X119977600Y-87660357D01*
X119909055Y-87696995D01*
X119881879Y-87711521D01*
X119778015Y-87743027D01*
X119697067Y-87751000D01*
X119642933Y-87751000D01*
X119561985Y-87743027D01*
X119458121Y-87711521D01*
X119430945Y-87696995D01*
X119362400Y-87660357D01*
X119278499Y-87591501D01*
X119209645Y-87507601D01*
X119209644Y-87507600D01*
X119186236Y-87463807D01*
X119172625Y-87443437D01*
X119155298Y-87426110D01*
X119134924Y-87412496D01*
X119112285Y-87403119D01*
X119088252Y-87398338D01*
X119063748Y-87398338D01*
X119039714Y-87403118D01*
X119017076Y-87412495D01*
X118996701Y-87426109D01*
X118979374Y-87443436D01*
X118965760Y-87463810D01*
X118956383Y-87486449D01*
X118951602Y-87510482D01*
X118951000Y-87522735D01*
X118951000Y-87751000D01*
X117849000Y-87751000D01*
X117849000Y-86649000D01*
X118077265Y-86649000D01*
X118101651Y-86646598D01*
X118125100Y-86639485D01*
X118146711Y-86627934D01*
X118165653Y-86612389D01*
X118181198Y-86593447D01*
X118192749Y-86571836D01*
X118199862Y-86548387D01*
X118202264Y-86524001D01*
X118201058Y-86511748D01*
X118598338Y-86511748D01*
X118598338Y-86536252D01*
X118603118Y-86560286D01*
X118612495Y-86582924D01*
X118626109Y-86603299D01*
X118643436Y-86620626D01*
X118663810Y-86634240D01*
X118686449Y-86643617D01*
X118710482Y-86648398D01*
X118722735Y-86649000D01*
X118951000Y-86649000D01*
X118951000Y-86877265D01*
X118953402Y-86901651D01*
X118960515Y-86925100D01*
X118972066Y-86946711D01*
X118987611Y-86965653D01*
X119006553Y-86981198D01*
X119028164Y-86992749D01*
X119051613Y-86999862D01*
X119075999Y-87002264D01*
X119100385Y-86999862D01*
X119123834Y-86992749D01*
X119145445Y-86981198D01*
X119164387Y-86965653D01*
X119179932Y-86946711D01*
X119186233Y-86936198D01*
X119209644Y-86892400D01*
X119278499Y-86808499D01*
X119362400Y-86739643D01*
X119430945Y-86703005D01*
X119458121Y-86688479D01*
X119470869Y-86684612D01*
X119493496Y-86675240D01*
X119513870Y-86661626D01*
X119531197Y-86644299D01*
X119544811Y-86623925D01*
X119554188Y-86601286D01*
X119558969Y-86577253D01*
X119558969Y-86552749D01*
X119558969Y-86552747D01*
X119781031Y-86552747D01*
X119781031Y-86577251D01*
X119785811Y-86601285D01*
X119795188Y-86623924D01*
X119808802Y-86644298D01*
X119826129Y-86661625D01*
X119846503Y-86675239D01*
X119869131Y-86684612D01*
X119881879Y-86688479D01*
X119909055Y-86703005D01*
X119977600Y-86739643D01*
X120061501Y-86808499D01*
X120130357Y-86892400D01*
X120166995Y-86960945D01*
X120181521Y-86988121D01*
X120185388Y-87000869D01*
X120194760Y-87023496D01*
X120208374Y-87043870D01*
X120225701Y-87061197D01*
X120246075Y-87074811D01*
X120268714Y-87084188D01*
X120292747Y-87088969D01*
X120317251Y-87088969D01*
X120341285Y-87084189D01*
X120363924Y-87074812D01*
X120384298Y-87061198D01*
X120401625Y-87043871D01*
X120415239Y-87023497D01*
X120424612Y-87000869D01*
X120428479Y-86988121D01*
X120443005Y-86960945D01*
X120479643Y-86892400D01*
X120548499Y-86808499D01*
X120632400Y-86739643D01*
X120700945Y-86703005D01*
X120728121Y-86688479D01*
X120740869Y-86684612D01*
X120763496Y-86675240D01*
X120783870Y-86661626D01*
X120801197Y-86644299D01*
X120814811Y-86623925D01*
X120824188Y-86601286D01*
X120828969Y-86577253D01*
X120828969Y-86552749D01*
X120828969Y-86552747D01*
X121051031Y-86552747D01*
X121051031Y-86577251D01*
X121055811Y-86601285D01*
X121065188Y-86623924D01*
X121078802Y-86644298D01*
X121096129Y-86661625D01*
X121116503Y-86675239D01*
X121139131Y-86684612D01*
X121151879Y-86688479D01*
X121179055Y-86703005D01*
X121247600Y-86739643D01*
X121331501Y-86808499D01*
X121400357Y-86892400D01*
X121436995Y-86960945D01*
X121451521Y-86988121D01*
X121455388Y-87000869D01*
X121464760Y-87023496D01*
X121478374Y-87043870D01*
X121495701Y-87061197D01*
X121516075Y-87074811D01*
X121538714Y-87084188D01*
X121562747Y-87088969D01*
X121587251Y-87088969D01*
X121611285Y-87084189D01*
X121633924Y-87074812D01*
X121654298Y-87061198D01*
X121671625Y-87043871D01*
X121685239Y-87023497D01*
X121694612Y-87000869D01*
X121698479Y-86988121D01*
X121713005Y-86960945D01*
X121749643Y-86892400D01*
X121818499Y-86808499D01*
X121902400Y-86739643D01*
X121970945Y-86703005D01*
X121998121Y-86688479D01*
X122010869Y-86684612D01*
X122033496Y-86675240D01*
X122053870Y-86661626D01*
X122071197Y-86644299D01*
X122084811Y-86623925D01*
X122094188Y-86601286D01*
X122098969Y-86577253D01*
X122098969Y-86552749D01*
X122098969Y-86552747D01*
X122321031Y-86552747D01*
X122321031Y-86577251D01*
X122325811Y-86601285D01*
X122335188Y-86623924D01*
X122348802Y-86644298D01*
X122366129Y-86661625D01*
X122386503Y-86675239D01*
X122409131Y-86684612D01*
X122421879Y-86688479D01*
X122449055Y-86703005D01*
X122517600Y-86739643D01*
X122601501Y-86808499D01*
X122670357Y-86892400D01*
X122706995Y-86960945D01*
X122721521Y-86988121D01*
X122725388Y-87000869D01*
X122734760Y-87023496D01*
X122748374Y-87043870D01*
X122765701Y-87061197D01*
X122786075Y-87074811D01*
X122808714Y-87084188D01*
X122832747Y-87088969D01*
X122857251Y-87088969D01*
X122881285Y-87084189D01*
X122903924Y-87074812D01*
X122924298Y-87061198D01*
X122941625Y-87043871D01*
X122955239Y-87023497D01*
X122964612Y-87000869D01*
X122968479Y-86988121D01*
X122983005Y-86960945D01*
X123019643Y-86892400D01*
X123088499Y-86808499D01*
X123172400Y-86739643D01*
X123240945Y-86703005D01*
X123268121Y-86688479D01*
X123280869Y-86684612D01*
X123303496Y-86675240D01*
X123323870Y-86661626D01*
X123341197Y-86644299D01*
X123354811Y-86623925D01*
X123364188Y-86601286D01*
X123368969Y-86577253D01*
X123368969Y-86552749D01*
X123364189Y-86528715D01*
X123354812Y-86506076D01*
X123341198Y-86485702D01*
X123323871Y-86468375D01*
X123303497Y-86454761D01*
X123280869Y-86445388D01*
X123268121Y-86441521D01*
X123227986Y-86420068D01*
X123172400Y-86390357D01*
X123088499Y-86321501D01*
X123019643Y-86237600D01*
X122968481Y-86141882D01*
X122968479Y-86141879D01*
X122964612Y-86129131D01*
X122955240Y-86106504D01*
X122941626Y-86086130D01*
X122924299Y-86068803D01*
X122903925Y-86055189D01*
X122881286Y-86045812D01*
X122857253Y-86041031D01*
X122832749Y-86041031D01*
X122808715Y-86045811D01*
X122786076Y-86055188D01*
X122765702Y-86068802D01*
X122748375Y-86086129D01*
X122734761Y-86106503D01*
X122725388Y-86129131D01*
X122721521Y-86141879D01*
X122721519Y-86141882D01*
X122670357Y-86237600D01*
X122601501Y-86321501D01*
X122517600Y-86390357D01*
X122462014Y-86420068D01*
X122421879Y-86441521D01*
X122409131Y-86445388D01*
X122386504Y-86454760D01*
X122366130Y-86468374D01*
X122348803Y-86485701D01*
X122335189Y-86506075D01*
X122325812Y-86528714D01*
X122321031Y-86552747D01*
X122098969Y-86552747D01*
X122094189Y-86528715D01*
X122084812Y-86506076D01*
X122071198Y-86485702D01*
X122053871Y-86468375D01*
X122033497Y-86454761D01*
X122010869Y-86445388D01*
X121998121Y-86441521D01*
X121957986Y-86420068D01*
X121902400Y-86390357D01*
X121818499Y-86321501D01*
X121749643Y-86237600D01*
X121698481Y-86141882D01*
X121698479Y-86141879D01*
X121694612Y-86129131D01*
X121685240Y-86106504D01*
X121671626Y-86086130D01*
X121654299Y-86068803D01*
X121633925Y-86055189D01*
X121611286Y-86045812D01*
X121587253Y-86041031D01*
X121562749Y-86041031D01*
X121538715Y-86045811D01*
X121516076Y-86055188D01*
X121495702Y-86068802D01*
X121478375Y-86086129D01*
X121464761Y-86106503D01*
X121455388Y-86129131D01*
X121451521Y-86141879D01*
X121451519Y-86141882D01*
X121400357Y-86237600D01*
X121331501Y-86321501D01*
X121247600Y-86390357D01*
X121192014Y-86420068D01*
X121151879Y-86441521D01*
X121139131Y-86445388D01*
X121116504Y-86454760D01*
X121096130Y-86468374D01*
X121078803Y-86485701D01*
X121065189Y-86506075D01*
X121055812Y-86528714D01*
X121051031Y-86552747D01*
X120828969Y-86552747D01*
X120824189Y-86528715D01*
X120814812Y-86506076D01*
X120801198Y-86485702D01*
X120783871Y-86468375D01*
X120763497Y-86454761D01*
X120740869Y-86445388D01*
X120728121Y-86441521D01*
X120687986Y-86420068D01*
X120632400Y-86390357D01*
X120548499Y-86321501D01*
X120479643Y-86237600D01*
X120428481Y-86141882D01*
X120428479Y-86141879D01*
X120424612Y-86129131D01*
X120415240Y-86106504D01*
X120401626Y-86086130D01*
X120384299Y-86068803D01*
X120363925Y-86055189D01*
X120341286Y-86045812D01*
X120317253Y-86041031D01*
X120292749Y-86041031D01*
X120268715Y-86045811D01*
X120246076Y-86055188D01*
X120225702Y-86068802D01*
X120208375Y-86086129D01*
X120194761Y-86106503D01*
X120185388Y-86129131D01*
X120181521Y-86141879D01*
X120181519Y-86141882D01*
X120130357Y-86237600D01*
X120061501Y-86321501D01*
X119977600Y-86390357D01*
X119922014Y-86420068D01*
X119881879Y-86441521D01*
X119869131Y-86445388D01*
X119846504Y-86454760D01*
X119826130Y-86468374D01*
X119808803Y-86485701D01*
X119795189Y-86506075D01*
X119785812Y-86528714D01*
X119781031Y-86552747D01*
X119558969Y-86552747D01*
X119554189Y-86528715D01*
X119544812Y-86506076D01*
X119531198Y-86485702D01*
X119513871Y-86468375D01*
X119493497Y-86454761D01*
X119470869Y-86445388D01*
X119458121Y-86441521D01*
X119417986Y-86420068D01*
X119362400Y-86390357D01*
X119278499Y-86321501D01*
X119209643Y-86237600D01*
X119158481Y-86141882D01*
X119158479Y-86141879D01*
X119154612Y-86129131D01*
X119145240Y-86106504D01*
X119131626Y-86086130D01*
X119114299Y-86068803D01*
X119093925Y-86055189D01*
X119071286Y-86045812D01*
X119047253Y-86041031D01*
X119022749Y-86041031D01*
X118998715Y-86045811D01*
X118976076Y-86055188D01*
X118955702Y-86068802D01*
X118938375Y-86086129D01*
X118924761Y-86106503D01*
X118915388Y-86129131D01*
X118911521Y-86141879D01*
X118911519Y-86141882D01*
X118860357Y-86237600D01*
X118791501Y-86321501D01*
X118707600Y-86390356D01*
X118663807Y-86413764D01*
X118643437Y-86427375D01*
X118626110Y-86444702D01*
X118612496Y-86465076D01*
X118603119Y-86487715D01*
X118598338Y-86511748D01*
X118201058Y-86511748D01*
X118199862Y-86499615D01*
X118192749Y-86476166D01*
X118181198Y-86454555D01*
X118165653Y-86435613D01*
X118146711Y-86420068D01*
X118136198Y-86413767D01*
X118092400Y-86390356D01*
X118008499Y-86321501D01*
X117939643Y-86237600D01*
X117888481Y-86141882D01*
X117888479Y-86141879D01*
X117856973Y-86038015D01*
X117846334Y-85930000D01*
X117856973Y-85821985D01*
X117888479Y-85718121D01*
X117903005Y-85690945D01*
X117939643Y-85622400D01*
X118008499Y-85538499D01*
X118092400Y-85469643D01*
X118160945Y-85433005D01*
X118188121Y-85418479D01*
X118291985Y-85386973D01*
X118372933Y-85379000D01*
X118427067Y-85379000D01*
X118508015Y-85386973D01*
X118508015Y-85386973D01*
G37*
G36*
X127138015Y-85386973D02*
G01*
X127241879Y-85418479D01*
X127269055Y-85433005D01*
X127337600Y-85469643D01*
X127421501Y-85538499D01*
X127490357Y-85622400D01*
X127526995Y-85690945D01*
X127541521Y-85718121D01*
X127545388Y-85730869D01*
X127554760Y-85753496D01*
X127568374Y-85773870D01*
X127585701Y-85791197D01*
X127606075Y-85804811D01*
X127628714Y-85814188D01*
X127652747Y-85818969D01*
X127677251Y-85818969D01*
X127701285Y-85814189D01*
X127723924Y-85804812D01*
X127744298Y-85791198D01*
X127761625Y-85773871D01*
X127775239Y-85753497D01*
X127784612Y-85730869D01*
X127788479Y-85718121D01*
X127803005Y-85690945D01*
X127839643Y-85622400D01*
X127908499Y-85538499D01*
X127992400Y-85469643D01*
X128060945Y-85433005D01*
X128088121Y-85418479D01*
X128191985Y-85386973D01*
X128272933Y-85379000D01*
X128327067Y-85379000D01*
X128408015Y-85386973D01*
X128511879Y-85418479D01*
X128539055Y-85433005D01*
X128607600Y-85469643D01*
X128691501Y-85538499D01*
X128760357Y-85622400D01*
X128796995Y-85690945D01*
X128811521Y-85718121D01*
X128815388Y-85730869D01*
X128824760Y-85753496D01*
X128838374Y-85773870D01*
X128855701Y-85791197D01*
X128876075Y-85804811D01*
X128898714Y-85814188D01*
X128922747Y-85818969D01*
X128947251Y-85818969D01*
X128971285Y-85814189D01*
X128993924Y-85804812D01*
X129014298Y-85791198D01*
X129031625Y-85773871D01*
X129045239Y-85753497D01*
X129054612Y-85730869D01*
X129058479Y-85718121D01*
X129073005Y-85690945D01*
X129109643Y-85622400D01*
X129178499Y-85538499D01*
X129262400Y-85469643D01*
X129330945Y-85433005D01*
X129358121Y-85418479D01*
X129461985Y-85386973D01*
X129542933Y-85379000D01*
X129597067Y-85379000D01*
X129678015Y-85386973D01*
X129781879Y-85418479D01*
X129809055Y-85433005D01*
X129877600Y-85469643D01*
X129961501Y-85538499D01*
X130030357Y-85622400D01*
X130066995Y-85690945D01*
X130081521Y-85718121D01*
X130113027Y-85821985D01*
X130123666Y-85930000D01*
X130113027Y-86038015D01*
X130081521Y-86141879D01*
X130081519Y-86141882D01*
X130030357Y-86237600D01*
X129961501Y-86321501D01*
X129877600Y-86390357D01*
X129822014Y-86420068D01*
X129781879Y-86441521D01*
X129769131Y-86445388D01*
X129746504Y-86454760D01*
X129726130Y-86468374D01*
X129708803Y-86485701D01*
X129695189Y-86506075D01*
X129685812Y-86528714D01*
X129681031Y-86552747D01*
X129681031Y-86577251D01*
X129685811Y-86601285D01*
X129695188Y-86623924D01*
X129708802Y-86644298D01*
X129726129Y-86661625D01*
X129746503Y-86675239D01*
X129769131Y-86684612D01*
X129781879Y-86688479D01*
X129809055Y-86703005D01*
X129877600Y-86739643D01*
X129961501Y-86808499D01*
X130030357Y-86892400D01*
X130066995Y-86960945D01*
X130081521Y-86988121D01*
X130113027Y-87091985D01*
X130123666Y-87200000D01*
X130113027Y-87308015D01*
X130081521Y-87411879D01*
X130081191Y-87412496D01*
X130030357Y-87507600D01*
X129961501Y-87591501D01*
X129877600Y-87660357D01*
X129809055Y-87696995D01*
X129781879Y-87711521D01*
X129678015Y-87743027D01*
X129597067Y-87751000D01*
X129542933Y-87751000D01*
X129461985Y-87743027D01*
X129358121Y-87711521D01*
X129330945Y-87696995D01*
X129262400Y-87660357D01*
X129178499Y-87591501D01*
X129109643Y-87507600D01*
X129058809Y-87412496D01*
X129058479Y-87411879D01*
X129054612Y-87399131D01*
X129045240Y-87376504D01*
X129031626Y-87356130D01*
X129014299Y-87338803D01*
X128993925Y-87325189D01*
X128971286Y-87315812D01*
X128947253Y-87311031D01*
X128922749Y-87311031D01*
X128898715Y-87315811D01*
X128876076Y-87325188D01*
X128855702Y-87338802D01*
X128838375Y-87356129D01*
X128824761Y-87376503D01*
X128815388Y-87399131D01*
X128811521Y-87411879D01*
X128811191Y-87412496D01*
X128760357Y-87507600D01*
X128691501Y-87591501D01*
X128607600Y-87660357D01*
X128539055Y-87696995D01*
X128511879Y-87711521D01*
X128408015Y-87743027D01*
X128327067Y-87751000D01*
X128272933Y-87751000D01*
X128191985Y-87743027D01*
X128088121Y-87711521D01*
X128060945Y-87696995D01*
X127992400Y-87660357D01*
X127908499Y-87591501D01*
X127839645Y-87507601D01*
X127839644Y-87507600D01*
X127816236Y-87463807D01*
X127802625Y-87443437D01*
X127785298Y-87426110D01*
X127764924Y-87412496D01*
X127742285Y-87403119D01*
X127718252Y-87398338D01*
X127693748Y-87398338D01*
X127669714Y-87403118D01*
X127647076Y-87412495D01*
X127626701Y-87426109D01*
X127609374Y-87443436D01*
X127595760Y-87463810D01*
X127586383Y-87486449D01*
X127581602Y-87510482D01*
X127581000Y-87522735D01*
X127581000Y-87751000D01*
X126479000Y-87751000D01*
X126479000Y-86649000D01*
X126707265Y-86649000D01*
X126731651Y-86646598D01*
X126755100Y-86639485D01*
X126776711Y-86627934D01*
X126795653Y-86612389D01*
X126811198Y-86593447D01*
X126822749Y-86571836D01*
X126829862Y-86548387D01*
X126832264Y-86524001D01*
X126831058Y-86511748D01*
X127228338Y-86511748D01*
X127228338Y-86536252D01*
X127233118Y-86560286D01*
X127242495Y-86582924D01*
X127256109Y-86603299D01*
X127273436Y-86620626D01*
X127293810Y-86634240D01*
X127316449Y-86643617D01*
X127340482Y-86648398D01*
X127352735Y-86649000D01*
X127581000Y-86649000D01*
X127581000Y-86877265D01*
X127583402Y-86901651D01*
X127590515Y-86925100D01*
X127602066Y-86946711D01*
X127617611Y-86965653D01*
X127636553Y-86981198D01*
X127658164Y-86992749D01*
X127681613Y-86999862D01*
X127705999Y-87002264D01*
X127730385Y-86999862D01*
X127753834Y-86992749D01*
X127775445Y-86981198D01*
X127794387Y-86965653D01*
X127809932Y-86946711D01*
X127816233Y-86936198D01*
X127839644Y-86892400D01*
X127908499Y-86808499D01*
X127992400Y-86739643D01*
X128060945Y-86703005D01*
X128088121Y-86688479D01*
X128100869Y-86684612D01*
X128123496Y-86675240D01*
X128143870Y-86661626D01*
X128161197Y-86644299D01*
X128174811Y-86623925D01*
X128184188Y-86601286D01*
X128188969Y-86577253D01*
X128188969Y-86552749D01*
X128188969Y-86552747D01*
X128411031Y-86552747D01*
X128411031Y-86577251D01*
X128415811Y-86601285D01*
X128425188Y-86623924D01*
X128438802Y-86644298D01*
X128456129Y-86661625D01*
X128476503Y-86675239D01*
X128499131Y-86684612D01*
X128511879Y-86688479D01*
X128539055Y-86703005D01*
X128607600Y-86739643D01*
X128691501Y-86808499D01*
X128760357Y-86892400D01*
X128796995Y-86960945D01*
X128811521Y-86988121D01*
X128815388Y-87000869D01*
X128824760Y-87023496D01*
X128838374Y-87043870D01*
X128855701Y-87061197D01*
X128876075Y-87074811D01*
X128898714Y-87084188D01*
X128922747Y-87088969D01*
X128947251Y-87088969D01*
X128971285Y-87084189D01*
X128993924Y-87074812D01*
X129014298Y-87061198D01*
X129031625Y-87043871D01*
X129045239Y-87023497D01*
X129054612Y-87000869D01*
X129058479Y-86988121D01*
X129073005Y-86960945D01*
X129109643Y-86892400D01*
X129178499Y-86808499D01*
X129262400Y-86739643D01*
X129330945Y-86703005D01*
X129358121Y-86688479D01*
X129370869Y-86684612D01*
X129393496Y-86675240D01*
X129413870Y-86661626D01*
X129431197Y-86644299D01*
X129444811Y-86623925D01*
X129454188Y-86601286D01*
X129458969Y-86577253D01*
X129458969Y-86552749D01*
X129454189Y-86528715D01*
X129444812Y-86506076D01*
X129431198Y-86485702D01*
X129413871Y-86468375D01*
X129393497Y-86454761D01*
X129370869Y-86445388D01*
X129358121Y-86441521D01*
X129317986Y-86420068D01*
X129262400Y-86390357D01*
X129178499Y-86321501D01*
X129109643Y-86237600D01*
X129058481Y-86141882D01*
X129058479Y-86141879D01*
X129054612Y-86129131D01*
X129045240Y-86106504D01*
X129031626Y-86086130D01*
X129014299Y-86068803D01*
X128993925Y-86055189D01*
X128971286Y-86045812D01*
X128947253Y-86041031D01*
X128922749Y-86041031D01*
X128898715Y-86045811D01*
X128876076Y-86055188D01*
X128855702Y-86068802D01*
X128838375Y-86086129D01*
X128824761Y-86106503D01*
X128815388Y-86129131D01*
X128811521Y-86141879D01*
X128811519Y-86141882D01*
X128760357Y-86237600D01*
X128691501Y-86321501D01*
X128607600Y-86390357D01*
X128552014Y-86420068D01*
X128511879Y-86441521D01*
X128499131Y-86445388D01*
X128476504Y-86454760D01*
X128456130Y-86468374D01*
X128438803Y-86485701D01*
X128425189Y-86506075D01*
X128415812Y-86528714D01*
X128411031Y-86552747D01*
X128188969Y-86552747D01*
X128184189Y-86528715D01*
X128174812Y-86506076D01*
X128161198Y-86485702D01*
X128143871Y-86468375D01*
X128123497Y-86454761D01*
X128100869Y-86445388D01*
X128088121Y-86441521D01*
X128047986Y-86420068D01*
X127992400Y-86390357D01*
X127908499Y-86321501D01*
X127839643Y-86237600D01*
X127788481Y-86141882D01*
X127788479Y-86141879D01*
X127784612Y-86129131D01*
X127775240Y-86106504D01*
X127761626Y-86086130D01*
X127744299Y-86068803D01*
X127723925Y-86055189D01*
X127701286Y-86045812D01*
X127677253Y-86041031D01*
X127652749Y-86041031D01*
X127628715Y-86045811D01*
X127606076Y-86055188D01*
X127585702Y-86068802D01*
X127568375Y-86086129D01*
X127554761Y-86106503D01*
X127545388Y-86129131D01*
X127541521Y-86141879D01*
X127541519Y-86141882D01*
X127490357Y-86237600D01*
X127421501Y-86321501D01*
X127337600Y-86390356D01*
X127293807Y-86413764D01*
X127273437Y-86427375D01*
X127256110Y-86444702D01*
X127242496Y-86465076D01*
X127233119Y-86487715D01*
X127228338Y-86511748D01*
X126831058Y-86511748D01*
X126829862Y-86499615D01*
X126822749Y-86476166D01*
X126811198Y-86454555D01*
X126795653Y-86435613D01*
X126776711Y-86420068D01*
X126766198Y-86413767D01*
X126722400Y-86390356D01*
X126638499Y-86321501D01*
X126569643Y-86237600D01*
X126518481Y-86141882D01*
X126518479Y-86141879D01*
X126486973Y-86038015D01*
X126476334Y-85930000D01*
X126486973Y-85821985D01*
X126518479Y-85718121D01*
X126533005Y-85690945D01*
X126569643Y-85622400D01*
X126638499Y-85538499D01*
X126722400Y-85469643D01*
X126790945Y-85433005D01*
X126818121Y-85418479D01*
X126921985Y-85386973D01*
X127002933Y-85379000D01*
X127057067Y-85379000D01*
X127138015Y-85386973D01*
X127138015Y-85386973D01*
G37*
G36*
X144110442Y-85196898D02*
G01*
X144176627Y-85203417D01*
X144346466Y-85254937D01*
X144502991Y-85338602D01*
X144538729Y-85367932D01*
X144640186Y-85451194D01*
X144711834Y-85538499D01*
X144752778Y-85588389D01*
X144836443Y-85744914D01*
X144887963Y-85914753D01*
X144905359Y-86091380D01*
X144887963Y-86268007D01*
X144836443Y-86437846D01*
X144752778Y-86594371D01*
X144737991Y-86612389D01*
X144640186Y-86731566D01*
X144546441Y-86808499D01*
X144502991Y-86844158D01*
X144346466Y-86927823D01*
X144176627Y-86979343D01*
X144110443Y-86985861D01*
X144044260Y-86992380D01*
X143955740Y-86992380D01*
X143889557Y-86985861D01*
X143823373Y-86979343D01*
X143653534Y-86927823D01*
X143497009Y-86844158D01*
X143453559Y-86808499D01*
X143359814Y-86731566D01*
X143262009Y-86612389D01*
X143247222Y-86594371D01*
X143163557Y-86437846D01*
X143112037Y-86268007D01*
X143094641Y-86091380D01*
X143112037Y-85914753D01*
X143163557Y-85744914D01*
X143247222Y-85588389D01*
X143288166Y-85538499D01*
X143359814Y-85451194D01*
X143461271Y-85367932D01*
X143497009Y-85338602D01*
X143653534Y-85254937D01*
X143823373Y-85203417D01*
X143889558Y-85196898D01*
X143955740Y-85190380D01*
X144044260Y-85190380D01*
X144110442Y-85196898D01*
X144110442Y-85196898D01*
G37*
G36*
X107110442Y-85196898D02*
G01*
X107176627Y-85203417D01*
X107346466Y-85254937D01*
X107502991Y-85338602D01*
X107538729Y-85367932D01*
X107640186Y-85451194D01*
X107711834Y-85538499D01*
X107752778Y-85588389D01*
X107836443Y-85744914D01*
X107887963Y-85914753D01*
X107905359Y-86091380D01*
X107887963Y-86268007D01*
X107836443Y-86437846D01*
X107752778Y-86594371D01*
X107737991Y-86612389D01*
X107640186Y-86731566D01*
X107546441Y-86808499D01*
X107502991Y-86844158D01*
X107346466Y-86927823D01*
X107176627Y-86979343D01*
X107110443Y-86985861D01*
X107044260Y-86992380D01*
X106955740Y-86992380D01*
X106889557Y-86985861D01*
X106823373Y-86979343D01*
X106653534Y-86927823D01*
X106497009Y-86844158D01*
X106453559Y-86808499D01*
X106359814Y-86731566D01*
X106262009Y-86612389D01*
X106247222Y-86594371D01*
X106163557Y-86437846D01*
X106112037Y-86268007D01*
X106094641Y-86091380D01*
X106112037Y-85914753D01*
X106163557Y-85744914D01*
X106247222Y-85588389D01*
X106288166Y-85538499D01*
X106359814Y-85451194D01*
X106461271Y-85367932D01*
X106497009Y-85338602D01*
X106653534Y-85254937D01*
X106823373Y-85203417D01*
X106889558Y-85196898D01*
X106955740Y-85190380D01*
X107044260Y-85190380D01*
X107110442Y-85196898D01*
X107110442Y-85196898D01*
G37*
G36*
X107110443Y-82656899D02*
G01*
X107176627Y-82663417D01*
X107346466Y-82714937D01*
X107502991Y-82798602D01*
X107538729Y-82827932D01*
X107640186Y-82911194D01*
X107723448Y-83012651D01*
X107752778Y-83048389D01*
X107836443Y-83204914D01*
X107887963Y-83374753D01*
X107905359Y-83551380D01*
X107887963Y-83728007D01*
X107836443Y-83897846D01*
X107752778Y-84054371D01*
X107723448Y-84090109D01*
X107640186Y-84191566D01*
X107538729Y-84274828D01*
X107502991Y-84304158D01*
X107346466Y-84387823D01*
X107176627Y-84439343D01*
X107110442Y-84445862D01*
X107044260Y-84452380D01*
X106955740Y-84452380D01*
X106889558Y-84445862D01*
X106823373Y-84439343D01*
X106653534Y-84387823D01*
X106497009Y-84304158D01*
X106461271Y-84274828D01*
X106359814Y-84191566D01*
X106276552Y-84090109D01*
X106247222Y-84054371D01*
X106163557Y-83897846D01*
X106112037Y-83728007D01*
X106094641Y-83551380D01*
X106112037Y-83374753D01*
X106163557Y-83204914D01*
X106247222Y-83048389D01*
X106276552Y-83012651D01*
X106359814Y-82911194D01*
X106461271Y-82827932D01*
X106497009Y-82798602D01*
X106653534Y-82714937D01*
X106823373Y-82663417D01*
X106889557Y-82656899D01*
X106955740Y-82650380D01*
X107044260Y-82650380D01*
X107110443Y-82656899D01*
X107110443Y-82656899D01*
G37*
G36*
X144110443Y-82656899D02*
G01*
X144176627Y-82663417D01*
X144346466Y-82714937D01*
X144502991Y-82798602D01*
X144538729Y-82827932D01*
X144640186Y-82911194D01*
X144723448Y-83012651D01*
X144752778Y-83048389D01*
X144836443Y-83204914D01*
X144887963Y-83374753D01*
X144905359Y-83551380D01*
X144887963Y-83728007D01*
X144836443Y-83897846D01*
X144752778Y-84054371D01*
X144723448Y-84090109D01*
X144640186Y-84191566D01*
X144538729Y-84274828D01*
X144502991Y-84304158D01*
X144346466Y-84387823D01*
X144176627Y-84439343D01*
X144110442Y-84445862D01*
X144044260Y-84452380D01*
X143955740Y-84452380D01*
X143889558Y-84445862D01*
X143823373Y-84439343D01*
X143653534Y-84387823D01*
X143497009Y-84304158D01*
X143461271Y-84274828D01*
X143359814Y-84191566D01*
X143276552Y-84090109D01*
X143247222Y-84054371D01*
X143163557Y-83897846D01*
X143112037Y-83728007D01*
X143094641Y-83551380D01*
X143112037Y-83374753D01*
X143163557Y-83204914D01*
X143247222Y-83048389D01*
X143276552Y-83012651D01*
X143359814Y-82911194D01*
X143461271Y-82827932D01*
X143497009Y-82798602D01*
X143653534Y-82714937D01*
X143823373Y-82663417D01*
X143889557Y-82656899D01*
X143955740Y-82650380D01*
X144044260Y-82650380D01*
X144110443Y-82656899D01*
X144110443Y-82656899D01*
G37*
G36*
X107110443Y-80116899D02*
G01*
X107176627Y-80123417D01*
X107346466Y-80174937D01*
X107502991Y-80258602D01*
X107538729Y-80287932D01*
X107640186Y-80371194D01*
X107723448Y-80472651D01*
X107752778Y-80508389D01*
X107836443Y-80664914D01*
X107887963Y-80834753D01*
X107905359Y-81011380D01*
X107887963Y-81188007D01*
X107836443Y-81357846D01*
X107752778Y-81514371D01*
X107723448Y-81550109D01*
X107640186Y-81651566D01*
X107538729Y-81734828D01*
X107502991Y-81764158D01*
X107346466Y-81847823D01*
X107176627Y-81899343D01*
X107110443Y-81905861D01*
X107044260Y-81912380D01*
X106955740Y-81912380D01*
X106889557Y-81905861D01*
X106823373Y-81899343D01*
X106653534Y-81847823D01*
X106497009Y-81764158D01*
X106461271Y-81734828D01*
X106359814Y-81651566D01*
X106276552Y-81550109D01*
X106247222Y-81514371D01*
X106163557Y-81357846D01*
X106112037Y-81188007D01*
X106094641Y-81011380D01*
X106112037Y-80834753D01*
X106163557Y-80664914D01*
X106247222Y-80508389D01*
X106276552Y-80472651D01*
X106359814Y-80371194D01*
X106461271Y-80287932D01*
X106497009Y-80258602D01*
X106653534Y-80174937D01*
X106823373Y-80123417D01*
X106889557Y-80116899D01*
X106955740Y-80110380D01*
X107044260Y-80110380D01*
X107110443Y-80116899D01*
X107110443Y-80116899D01*
G37*
G36*
X144110443Y-80116899D02*
G01*
X144176627Y-80123417D01*
X144346466Y-80174937D01*
X144502991Y-80258602D01*
X144538729Y-80287932D01*
X144640186Y-80371194D01*
X144723448Y-80472651D01*
X144752778Y-80508389D01*
X144836443Y-80664914D01*
X144887963Y-80834753D01*
X144905359Y-81011380D01*
X144887963Y-81188007D01*
X144836443Y-81357846D01*
X144752778Y-81514371D01*
X144723448Y-81550109D01*
X144640186Y-81651566D01*
X144538729Y-81734828D01*
X144502991Y-81764158D01*
X144346466Y-81847823D01*
X144176627Y-81899343D01*
X144110443Y-81905861D01*
X144044260Y-81912380D01*
X143955740Y-81912380D01*
X143889557Y-81905861D01*
X143823373Y-81899343D01*
X143653534Y-81847823D01*
X143497009Y-81764158D01*
X143461271Y-81734828D01*
X143359814Y-81651566D01*
X143276552Y-81550109D01*
X143247222Y-81514371D01*
X143163557Y-81357846D01*
X143112037Y-81188007D01*
X143094641Y-81011380D01*
X143112037Y-80834753D01*
X143163557Y-80664914D01*
X143247222Y-80508389D01*
X143276552Y-80472651D01*
X143359814Y-80371194D01*
X143461271Y-80287932D01*
X143497009Y-80258602D01*
X143653534Y-80174937D01*
X143823373Y-80123417D01*
X143889557Y-80116899D01*
X143955740Y-80110380D01*
X144044260Y-80110380D01*
X144110443Y-80116899D01*
X144110443Y-80116899D01*
G37*
G36*
X107110442Y-77576898D02*
G01*
X107176627Y-77583417D01*
X107346466Y-77634937D01*
X107502991Y-77718602D01*
X107538729Y-77747932D01*
X107640186Y-77831194D01*
X107723448Y-77932651D01*
X107752778Y-77968389D01*
X107836443Y-78124914D01*
X107887963Y-78294753D01*
X107905359Y-78471380D01*
X107887963Y-78648007D01*
X107836443Y-78817846D01*
X107752778Y-78974371D01*
X107723448Y-79010109D01*
X107640186Y-79111566D01*
X107538729Y-79194828D01*
X107502991Y-79224158D01*
X107346466Y-79307823D01*
X107176627Y-79359343D01*
X107110442Y-79365862D01*
X107044260Y-79372380D01*
X106955740Y-79372380D01*
X106889558Y-79365862D01*
X106823373Y-79359343D01*
X106653534Y-79307823D01*
X106497009Y-79224158D01*
X106461271Y-79194828D01*
X106359814Y-79111566D01*
X106276552Y-79010109D01*
X106247222Y-78974371D01*
X106163557Y-78817846D01*
X106112037Y-78648007D01*
X106094641Y-78471380D01*
X106112037Y-78294753D01*
X106163557Y-78124914D01*
X106247222Y-77968389D01*
X106276552Y-77932651D01*
X106359814Y-77831194D01*
X106461271Y-77747932D01*
X106497009Y-77718602D01*
X106653534Y-77634937D01*
X106823373Y-77583417D01*
X106889558Y-77576898D01*
X106955740Y-77570380D01*
X107044260Y-77570380D01*
X107110442Y-77576898D01*
X107110442Y-77576898D01*
G37*
G36*
X144110442Y-77576898D02*
G01*
X144176627Y-77583417D01*
X144346466Y-77634937D01*
X144502991Y-77718602D01*
X144538729Y-77747932D01*
X144640186Y-77831194D01*
X144723448Y-77932651D01*
X144752778Y-77968389D01*
X144836443Y-78124914D01*
X144887963Y-78294753D01*
X144905359Y-78471380D01*
X144887963Y-78648007D01*
X144836443Y-78817846D01*
X144752778Y-78974371D01*
X144723448Y-79010109D01*
X144640186Y-79111566D01*
X144538729Y-79194828D01*
X144502991Y-79224158D01*
X144346466Y-79307823D01*
X144176627Y-79359343D01*
X144110442Y-79365862D01*
X144044260Y-79372380D01*
X143955740Y-79372380D01*
X143889558Y-79365862D01*
X143823373Y-79359343D01*
X143653534Y-79307823D01*
X143497009Y-79224158D01*
X143461271Y-79194828D01*
X143359814Y-79111566D01*
X143276552Y-79010109D01*
X143247222Y-78974371D01*
X143163557Y-78817846D01*
X143112037Y-78648007D01*
X143094641Y-78471380D01*
X143112037Y-78294753D01*
X143163557Y-78124914D01*
X143247222Y-77968389D01*
X143276552Y-77932651D01*
X143359814Y-77831194D01*
X143461271Y-77747932D01*
X143497009Y-77718602D01*
X143653534Y-77634937D01*
X143823373Y-77583417D01*
X143889558Y-77576898D01*
X143955740Y-77570380D01*
X144044260Y-77570380D01*
X144110442Y-77576898D01*
X144110442Y-77576898D01*
G37*
G36*
X107110443Y-75036899D02*
G01*
X107176627Y-75043417D01*
X107346466Y-75094937D01*
X107502991Y-75178602D01*
X107538729Y-75207932D01*
X107640186Y-75291194D01*
X107723448Y-75392651D01*
X107752778Y-75428389D01*
X107836443Y-75584914D01*
X107887963Y-75754753D01*
X107905359Y-75931380D01*
X107887963Y-76108007D01*
X107836443Y-76277846D01*
X107752778Y-76434371D01*
X107723448Y-76470109D01*
X107640186Y-76571566D01*
X107538729Y-76654828D01*
X107502991Y-76684158D01*
X107346466Y-76767823D01*
X107176627Y-76819343D01*
X107110442Y-76825862D01*
X107044260Y-76832380D01*
X106955740Y-76832380D01*
X106889558Y-76825862D01*
X106823373Y-76819343D01*
X106653534Y-76767823D01*
X106497009Y-76684158D01*
X106461271Y-76654828D01*
X106359814Y-76571566D01*
X106276552Y-76470109D01*
X106247222Y-76434371D01*
X106163557Y-76277846D01*
X106112037Y-76108007D01*
X106094641Y-75931380D01*
X106112037Y-75754753D01*
X106163557Y-75584914D01*
X106247222Y-75428389D01*
X106276552Y-75392651D01*
X106359814Y-75291194D01*
X106461271Y-75207932D01*
X106497009Y-75178602D01*
X106653534Y-75094937D01*
X106823373Y-75043417D01*
X106889557Y-75036899D01*
X106955740Y-75030380D01*
X107044260Y-75030380D01*
X107110443Y-75036899D01*
X107110443Y-75036899D01*
G37*
G36*
X144110443Y-75036899D02*
G01*
X144176627Y-75043417D01*
X144346466Y-75094937D01*
X144502991Y-75178602D01*
X144538729Y-75207932D01*
X144640186Y-75291194D01*
X144723448Y-75392651D01*
X144752778Y-75428389D01*
X144836443Y-75584914D01*
X144887963Y-75754753D01*
X144905359Y-75931380D01*
X144887963Y-76108007D01*
X144836443Y-76277846D01*
X144752778Y-76434371D01*
X144723448Y-76470109D01*
X144640186Y-76571566D01*
X144538729Y-76654828D01*
X144502991Y-76684158D01*
X144346466Y-76767823D01*
X144176627Y-76819343D01*
X144110442Y-76825862D01*
X144044260Y-76832380D01*
X143955740Y-76832380D01*
X143889558Y-76825862D01*
X143823373Y-76819343D01*
X143653534Y-76767823D01*
X143497009Y-76684158D01*
X143461271Y-76654828D01*
X143359814Y-76571566D01*
X143276552Y-76470109D01*
X143247222Y-76434371D01*
X143163557Y-76277846D01*
X143112037Y-76108007D01*
X143094641Y-75931380D01*
X143112037Y-75754753D01*
X143163557Y-75584914D01*
X143247222Y-75428389D01*
X143276552Y-75392651D01*
X143359814Y-75291194D01*
X143461271Y-75207932D01*
X143497009Y-75178602D01*
X143653534Y-75094937D01*
X143823373Y-75043417D01*
X143889557Y-75036899D01*
X143955740Y-75030380D01*
X144044260Y-75030380D01*
X144110443Y-75036899D01*
X144110443Y-75036899D01*
G37*
G36*
X144110442Y-72496898D02*
G01*
X144176627Y-72503417D01*
X144346466Y-72554937D01*
X144502991Y-72638602D01*
X144538729Y-72667932D01*
X144640186Y-72751194D01*
X144723448Y-72852651D01*
X144752778Y-72888389D01*
X144836443Y-73044914D01*
X144887963Y-73214753D01*
X144905359Y-73391380D01*
X144887963Y-73568007D01*
X144836443Y-73737846D01*
X144752778Y-73894371D01*
X144723448Y-73930109D01*
X144640186Y-74031566D01*
X144538729Y-74114828D01*
X144502991Y-74144158D01*
X144346466Y-74227823D01*
X144176627Y-74279343D01*
X144110443Y-74285861D01*
X144044260Y-74292380D01*
X143955740Y-74292380D01*
X143889557Y-74285861D01*
X143823373Y-74279343D01*
X143653534Y-74227823D01*
X143497009Y-74144158D01*
X143461271Y-74114828D01*
X143359814Y-74031566D01*
X143276552Y-73930109D01*
X143247222Y-73894371D01*
X143163557Y-73737846D01*
X143112037Y-73568007D01*
X143094641Y-73391380D01*
X143112037Y-73214753D01*
X143163557Y-73044914D01*
X143247222Y-72888389D01*
X143276552Y-72852651D01*
X143359814Y-72751194D01*
X143461271Y-72667932D01*
X143497009Y-72638602D01*
X143653534Y-72554937D01*
X143823373Y-72503417D01*
X143889558Y-72496898D01*
X143955740Y-72490380D01*
X144044260Y-72490380D01*
X144110442Y-72496898D01*
X144110442Y-72496898D01*
G37*
G36*
X107110442Y-72496898D02*
G01*
X107176627Y-72503417D01*
X107346466Y-72554937D01*
X107502991Y-72638602D01*
X107538729Y-72667932D01*
X107640186Y-72751194D01*
X107723448Y-72852651D01*
X107752778Y-72888389D01*
X107836443Y-73044914D01*
X107887963Y-73214753D01*
X107905359Y-73391380D01*
X107887963Y-73568007D01*
X107836443Y-73737846D01*
X107752778Y-73894371D01*
X107723448Y-73930109D01*
X107640186Y-74031566D01*
X107538729Y-74114828D01*
X107502991Y-74144158D01*
X107346466Y-74227823D01*
X107176627Y-74279343D01*
X107110443Y-74285861D01*
X107044260Y-74292380D01*
X106955740Y-74292380D01*
X106889557Y-74285861D01*
X106823373Y-74279343D01*
X106653534Y-74227823D01*
X106497009Y-74144158D01*
X106461271Y-74114828D01*
X106359814Y-74031566D01*
X106276552Y-73930109D01*
X106247222Y-73894371D01*
X106163557Y-73737846D01*
X106112037Y-73568007D01*
X106094641Y-73391380D01*
X106112037Y-73214753D01*
X106163557Y-73044914D01*
X106247222Y-72888389D01*
X106276552Y-72852651D01*
X106359814Y-72751194D01*
X106461271Y-72667932D01*
X106497009Y-72638602D01*
X106653534Y-72554937D01*
X106823373Y-72503417D01*
X106889558Y-72496898D01*
X106955740Y-72490380D01*
X107044260Y-72490380D01*
X107110442Y-72496898D01*
X107110442Y-72496898D01*
G37*
G36*
X144110443Y-69956899D02*
G01*
X144176627Y-69963417D01*
X144346466Y-70014937D01*
X144502991Y-70098602D01*
X144538729Y-70127932D01*
X144640186Y-70211194D01*
X144723448Y-70312651D01*
X144752778Y-70348389D01*
X144836443Y-70504914D01*
X144887963Y-70674753D01*
X144905359Y-70851380D01*
X144887963Y-71028007D01*
X144836443Y-71197846D01*
X144752778Y-71354371D01*
X144723448Y-71390109D01*
X144640186Y-71491566D01*
X144538729Y-71574828D01*
X144502991Y-71604158D01*
X144346466Y-71687823D01*
X144176627Y-71739343D01*
X144110443Y-71745861D01*
X144044260Y-71752380D01*
X143955740Y-71752380D01*
X143889557Y-71745861D01*
X143823373Y-71739343D01*
X143653534Y-71687823D01*
X143497009Y-71604158D01*
X143461271Y-71574828D01*
X143359814Y-71491566D01*
X143276552Y-71390109D01*
X143247222Y-71354371D01*
X143163557Y-71197846D01*
X143112037Y-71028007D01*
X143094641Y-70851380D01*
X143112037Y-70674753D01*
X143163557Y-70504914D01*
X143247222Y-70348389D01*
X143276552Y-70312651D01*
X143359814Y-70211194D01*
X143461271Y-70127932D01*
X143497009Y-70098602D01*
X143653534Y-70014937D01*
X143823373Y-69963417D01*
X143889557Y-69956899D01*
X143955740Y-69950380D01*
X144044260Y-69950380D01*
X144110443Y-69956899D01*
X144110443Y-69956899D01*
G37*
G36*
X107110443Y-69956899D02*
G01*
X107176627Y-69963417D01*
X107346466Y-70014937D01*
X107502991Y-70098602D01*
X107538729Y-70127932D01*
X107640186Y-70211194D01*
X107723448Y-70312651D01*
X107752778Y-70348389D01*
X107836443Y-70504914D01*
X107887963Y-70674753D01*
X107905359Y-70851380D01*
X107887963Y-71028007D01*
X107836443Y-71197846D01*
X107752778Y-71354371D01*
X107723448Y-71390109D01*
X107640186Y-71491566D01*
X107538729Y-71574828D01*
X107502991Y-71604158D01*
X107346466Y-71687823D01*
X107176627Y-71739343D01*
X107110443Y-71745861D01*
X107044260Y-71752380D01*
X106955740Y-71752380D01*
X106889557Y-71745861D01*
X106823373Y-71739343D01*
X106653534Y-71687823D01*
X106497009Y-71604158D01*
X106461271Y-71574828D01*
X106359814Y-71491566D01*
X106276552Y-71390109D01*
X106247222Y-71354371D01*
X106163557Y-71197846D01*
X106112037Y-71028007D01*
X106094641Y-70851380D01*
X106112037Y-70674753D01*
X106163557Y-70504914D01*
X106247222Y-70348389D01*
X106276552Y-70312651D01*
X106359814Y-70211194D01*
X106461271Y-70127932D01*
X106497009Y-70098602D01*
X106653534Y-70014937D01*
X106823373Y-69963417D01*
X106889557Y-69956899D01*
X106955740Y-69950380D01*
X107044260Y-69950380D01*
X107110443Y-69956899D01*
X107110443Y-69956899D01*
G37*
G36*
X107110442Y-67416898D02*
G01*
X107176627Y-67423417D01*
X107346466Y-67474937D01*
X107502991Y-67558602D01*
X107538729Y-67587932D01*
X107640186Y-67671194D01*
X107723448Y-67772651D01*
X107752778Y-67808389D01*
X107836443Y-67964914D01*
X107887963Y-68134753D01*
X107905359Y-68311380D01*
X107887963Y-68488007D01*
X107836443Y-68657846D01*
X107752778Y-68814371D01*
X107723448Y-68850109D01*
X107640186Y-68951566D01*
X107538729Y-69034828D01*
X107502991Y-69064158D01*
X107346466Y-69147823D01*
X107176627Y-69199343D01*
X107110442Y-69205862D01*
X107044260Y-69212380D01*
X106955740Y-69212380D01*
X106889558Y-69205862D01*
X106823373Y-69199343D01*
X106653534Y-69147823D01*
X106497009Y-69064158D01*
X106461271Y-69034828D01*
X106359814Y-68951566D01*
X106276552Y-68850109D01*
X106247222Y-68814371D01*
X106163557Y-68657846D01*
X106112037Y-68488007D01*
X106094641Y-68311380D01*
X106112037Y-68134753D01*
X106163557Y-67964914D01*
X106247222Y-67808389D01*
X106276552Y-67772651D01*
X106359814Y-67671194D01*
X106461271Y-67587932D01*
X106497009Y-67558602D01*
X106653534Y-67474937D01*
X106823373Y-67423417D01*
X106889558Y-67416898D01*
X106955740Y-67410380D01*
X107044260Y-67410380D01*
X107110442Y-67416898D01*
X107110442Y-67416898D01*
G37*
G36*
X144110442Y-67416898D02*
G01*
X144176627Y-67423417D01*
X144346466Y-67474937D01*
X144502991Y-67558602D01*
X144538729Y-67587932D01*
X144640186Y-67671194D01*
X144723448Y-67772651D01*
X144752778Y-67808389D01*
X144836443Y-67964914D01*
X144887963Y-68134753D01*
X144905359Y-68311380D01*
X144887963Y-68488007D01*
X144836443Y-68657846D01*
X144752778Y-68814371D01*
X144723448Y-68850109D01*
X144640186Y-68951566D01*
X144538729Y-69034828D01*
X144502991Y-69064158D01*
X144346466Y-69147823D01*
X144176627Y-69199343D01*
X144110442Y-69205862D01*
X144044260Y-69212380D01*
X143955740Y-69212380D01*
X143889558Y-69205862D01*
X143823373Y-69199343D01*
X143653534Y-69147823D01*
X143497009Y-69064158D01*
X143461271Y-69034828D01*
X143359814Y-68951566D01*
X143276552Y-68850109D01*
X143247222Y-68814371D01*
X143163557Y-68657846D01*
X143112037Y-68488007D01*
X143094641Y-68311380D01*
X143112037Y-68134753D01*
X143163557Y-67964914D01*
X143247222Y-67808389D01*
X143276552Y-67772651D01*
X143359814Y-67671194D01*
X143461271Y-67587932D01*
X143497009Y-67558602D01*
X143653534Y-67474937D01*
X143823373Y-67423417D01*
X143889558Y-67416898D01*
X143955740Y-67410380D01*
X144044260Y-67410380D01*
X144110442Y-67416898D01*
X144110442Y-67416898D01*
G37*
G36*
X107110443Y-64876899D02*
G01*
X107176627Y-64883417D01*
X107346466Y-64934937D01*
X107502991Y-65018602D01*
X107538729Y-65047932D01*
X107640186Y-65131194D01*
X107723448Y-65232651D01*
X107752778Y-65268389D01*
X107836443Y-65424914D01*
X107887963Y-65594753D01*
X107905359Y-65771380D01*
X107887963Y-65948007D01*
X107836443Y-66117846D01*
X107752778Y-66274371D01*
X107723448Y-66310109D01*
X107640186Y-66411566D01*
X107538729Y-66494828D01*
X107502991Y-66524158D01*
X107346466Y-66607823D01*
X107176627Y-66659343D01*
X107110443Y-66665861D01*
X107044260Y-66672380D01*
X106955740Y-66672380D01*
X106889557Y-66665861D01*
X106823373Y-66659343D01*
X106653534Y-66607823D01*
X106497009Y-66524158D01*
X106461271Y-66494828D01*
X106359814Y-66411566D01*
X106276552Y-66310109D01*
X106247222Y-66274371D01*
X106163557Y-66117846D01*
X106112037Y-65948007D01*
X106094641Y-65771380D01*
X106112037Y-65594753D01*
X106163557Y-65424914D01*
X106247222Y-65268389D01*
X106276552Y-65232651D01*
X106359814Y-65131194D01*
X106461271Y-65047932D01*
X106497009Y-65018602D01*
X106653534Y-64934937D01*
X106823373Y-64883417D01*
X106889557Y-64876899D01*
X106955740Y-64870380D01*
X107044260Y-64870380D01*
X107110443Y-64876899D01*
X107110443Y-64876899D01*
G37*
G36*
X144110443Y-64876899D02*
G01*
X144176627Y-64883417D01*
X144346466Y-64934937D01*
X144502991Y-65018602D01*
X144538729Y-65047932D01*
X144640186Y-65131194D01*
X144723448Y-65232651D01*
X144752778Y-65268389D01*
X144836443Y-65424914D01*
X144887963Y-65594753D01*
X144905359Y-65771380D01*
X144887963Y-65948007D01*
X144836443Y-66117846D01*
X144752778Y-66274371D01*
X144723448Y-66310109D01*
X144640186Y-66411566D01*
X144538729Y-66494828D01*
X144502991Y-66524158D01*
X144346466Y-66607823D01*
X144176627Y-66659343D01*
X144110443Y-66665861D01*
X144044260Y-66672380D01*
X143955740Y-66672380D01*
X143889557Y-66665861D01*
X143823373Y-66659343D01*
X143653534Y-66607823D01*
X143497009Y-66524158D01*
X143461271Y-66494828D01*
X143359814Y-66411566D01*
X143276552Y-66310109D01*
X143247222Y-66274371D01*
X143163557Y-66117846D01*
X143112037Y-65948007D01*
X143094641Y-65771380D01*
X143112037Y-65594753D01*
X143163557Y-65424914D01*
X143247222Y-65268389D01*
X143276552Y-65232651D01*
X143359814Y-65131194D01*
X143461271Y-65047932D01*
X143497009Y-65018602D01*
X143653534Y-64934937D01*
X143823373Y-64883417D01*
X143889557Y-64876899D01*
X143955740Y-64870380D01*
X144044260Y-64870380D01*
X144110443Y-64876899D01*
X144110443Y-64876899D01*
G37*
G36*
X107901000Y-64132380D02*
G01*
X106099000Y-64132380D01*
X106099000Y-62330380D01*
X107901000Y-62330380D01*
X107901000Y-64132380D01*
X107901000Y-64132380D01*
G37*
G36*
X144901000Y-64132380D02*
G01*
X143099000Y-64132380D01*
X143099000Y-62330380D01*
X144901000Y-62330380D01*
X144901000Y-64132380D01*
X144901000Y-64132380D01*
G37*
M02*
