G04 #@! TF.GenerationSoftware,KiCad,Pcbnew,(5.1.2)-2*
G04 #@! TF.CreationDate,2019-10-16T12:38:49+08:00*
G04 #@! TF.ProjectId,ESP32-Solar-Battery,45535033-322d-4536-9f6c-61722d426174,rev?*
G04 #@! TF.SameCoordinates,Original*
G04 #@! TF.FileFunction,Copper,L2,Bot*
G04 #@! TF.FilePolarity,Positive*
%FSLAX46Y46*%
G04 Gerber Fmt 4.6, Leading zero omitted, Abs format (unit mm)*
G04 Created by KiCad (PCBNEW (5.1.2)-2) date 2019-10-16 12:38:49*
%MOMM*%
%LPD*%
G04 APERTURE LIST*
%ADD10O,1.000000X1.000000*%
%ADD11R,1.000000X1.000000*%
%ADD12O,1.700000X1.700000*%
%ADD13R,1.700000X1.700000*%
%ADD14C,2.700000*%
%ADD15C,0.100000*%
%ADD16C,0.800000*%
%ADD17C,0.250000*%
%ADD18C,0.500000*%
%ADD19C,0.800000*%
%ADD20C,0.254000*%
G04 APERTURE END LIST*
D10*
X123480000Y-85930000D03*
X123480000Y-87200000D03*
X122210000Y-85930000D03*
X122210000Y-87200000D03*
X120940000Y-85930000D03*
X120940000Y-87200000D03*
X119670000Y-85930000D03*
X119670000Y-87200000D03*
X118400000Y-85930000D03*
D11*
X118400000Y-87200000D03*
D10*
X129570000Y-85930000D03*
X129570000Y-87200000D03*
X128300000Y-85930000D03*
X128300000Y-87200000D03*
X127030000Y-85930000D03*
D11*
X127030000Y-87200000D03*
D12*
X144000000Y-101331380D03*
X144000000Y-98791380D03*
X144000000Y-96251380D03*
X144000000Y-93711380D03*
X144000000Y-91171380D03*
X144000000Y-88631380D03*
X144000000Y-86091380D03*
X144000000Y-83551380D03*
X144000000Y-81011380D03*
X144000000Y-78471380D03*
X144000000Y-75931380D03*
X144000000Y-73391380D03*
X144000000Y-70851380D03*
X144000000Y-68311380D03*
X144000000Y-65771380D03*
D13*
X144000000Y-63231380D03*
D12*
X107000000Y-101331380D03*
X107000000Y-98791380D03*
X107000000Y-96251380D03*
X107000000Y-93711380D03*
X107000000Y-91171380D03*
X107000000Y-88631380D03*
X107000000Y-86091380D03*
X107000000Y-83551380D03*
X107000000Y-81011380D03*
X107000000Y-78471380D03*
X107000000Y-75931380D03*
X107000000Y-73391380D03*
X107000000Y-70851380D03*
X107000000Y-68311380D03*
X107000000Y-65771380D03*
D13*
X107000000Y-63231380D03*
D14*
X123540000Y-99500000D03*
D15*
G36*
X128624503Y-98151204D02*
G01*
X128648772Y-98154804D01*
X128672570Y-98160765D01*
X128695670Y-98169030D01*
X128717849Y-98179520D01*
X128738892Y-98192133D01*
X128758598Y-98206748D01*
X128776776Y-98223224D01*
X128793252Y-98241402D01*
X128807867Y-98261108D01*
X128820480Y-98282151D01*
X128830970Y-98304330D01*
X128839235Y-98327430D01*
X128845196Y-98351228D01*
X128848796Y-98375497D01*
X128850000Y-98400001D01*
X128850000Y-100599999D01*
X128848796Y-100624503D01*
X128845196Y-100648772D01*
X128839235Y-100672570D01*
X128830970Y-100695670D01*
X128820480Y-100717849D01*
X128807867Y-100738892D01*
X128793252Y-100758598D01*
X128776776Y-100776776D01*
X128758598Y-100793252D01*
X128738892Y-100807867D01*
X128717849Y-100820480D01*
X128695670Y-100830970D01*
X128672570Y-100839235D01*
X128648772Y-100845196D01*
X128624503Y-100848796D01*
X128599999Y-100850000D01*
X126400001Y-100850000D01*
X126375497Y-100848796D01*
X126351228Y-100845196D01*
X126327430Y-100839235D01*
X126304330Y-100830970D01*
X126282151Y-100820480D01*
X126261108Y-100807867D01*
X126241402Y-100793252D01*
X126223224Y-100776776D01*
X126206748Y-100758598D01*
X126192133Y-100738892D01*
X126179520Y-100717849D01*
X126169030Y-100695670D01*
X126160765Y-100672570D01*
X126154804Y-100648772D01*
X126151204Y-100624503D01*
X126150000Y-100599999D01*
X126150000Y-98400001D01*
X126151204Y-98375497D01*
X126154804Y-98351228D01*
X126160765Y-98327430D01*
X126169030Y-98304330D01*
X126179520Y-98282151D01*
X126192133Y-98261108D01*
X126206748Y-98241402D01*
X126223224Y-98223224D01*
X126241402Y-98206748D01*
X126261108Y-98192133D01*
X126282151Y-98179520D01*
X126304330Y-98169030D01*
X126327430Y-98160765D01*
X126351228Y-98154804D01*
X126375497Y-98151204D01*
X126400001Y-98150000D01*
X128599999Y-98150000D01*
X128624503Y-98151204D01*
X128624503Y-98151204D01*
G37*
D14*
X127500000Y-99500000D03*
X139532500Y-132656580D03*
D15*
G36*
X136697003Y-131307784D02*
G01*
X136721272Y-131311384D01*
X136745070Y-131317345D01*
X136768170Y-131325610D01*
X136790349Y-131336100D01*
X136811392Y-131348713D01*
X136831098Y-131363328D01*
X136849276Y-131379804D01*
X136865752Y-131397982D01*
X136880367Y-131417688D01*
X136892980Y-131438731D01*
X136903470Y-131460910D01*
X136911735Y-131484010D01*
X136917696Y-131507808D01*
X136921296Y-131532077D01*
X136922500Y-131556581D01*
X136922500Y-133756579D01*
X136921296Y-133781083D01*
X136917696Y-133805352D01*
X136911735Y-133829150D01*
X136903470Y-133852250D01*
X136892980Y-133874429D01*
X136880367Y-133895472D01*
X136865752Y-133915178D01*
X136849276Y-133933356D01*
X136831098Y-133949832D01*
X136811392Y-133964447D01*
X136790349Y-133977060D01*
X136768170Y-133987550D01*
X136745070Y-133995815D01*
X136721272Y-134001776D01*
X136697003Y-134005376D01*
X136672499Y-134006580D01*
X134472501Y-134006580D01*
X134447997Y-134005376D01*
X134423728Y-134001776D01*
X134399930Y-133995815D01*
X134376830Y-133987550D01*
X134354651Y-133977060D01*
X134333608Y-133964447D01*
X134313902Y-133949832D01*
X134295724Y-133933356D01*
X134279248Y-133915178D01*
X134264633Y-133895472D01*
X134252020Y-133874429D01*
X134241530Y-133852250D01*
X134233265Y-133829150D01*
X134227304Y-133805352D01*
X134223704Y-133781083D01*
X134222500Y-133756579D01*
X134222500Y-131556581D01*
X134223704Y-131532077D01*
X134227304Y-131507808D01*
X134233265Y-131484010D01*
X134241530Y-131460910D01*
X134252020Y-131438731D01*
X134264633Y-131417688D01*
X134279248Y-131397982D01*
X134295724Y-131379804D01*
X134313902Y-131363328D01*
X134333608Y-131348713D01*
X134354651Y-131336100D01*
X134376830Y-131325610D01*
X134399930Y-131317345D01*
X134423728Y-131311384D01*
X134447997Y-131307784D01*
X134472501Y-131306580D01*
X136672499Y-131306580D01*
X136697003Y-131307784D01*
X136697003Y-131307784D01*
G37*
D14*
X135572500Y-132656580D03*
D12*
X122948700Y-137452100D03*
D13*
X125488700Y-137452100D03*
D12*
X126080000Y-106100000D03*
D13*
X123540000Y-106100000D03*
D14*
X113060480Y-133032500D03*
D15*
G36*
X110224983Y-131683704D02*
G01*
X110249252Y-131687304D01*
X110273050Y-131693265D01*
X110296150Y-131701530D01*
X110318329Y-131712020D01*
X110339372Y-131724633D01*
X110359078Y-131739248D01*
X110377256Y-131755724D01*
X110393732Y-131773902D01*
X110408347Y-131793608D01*
X110420960Y-131814651D01*
X110431450Y-131836830D01*
X110439715Y-131859930D01*
X110445676Y-131883728D01*
X110449276Y-131907997D01*
X110450480Y-131932501D01*
X110450480Y-134132499D01*
X110449276Y-134157003D01*
X110445676Y-134181272D01*
X110439715Y-134205070D01*
X110431450Y-134228170D01*
X110420960Y-134250349D01*
X110408347Y-134271392D01*
X110393732Y-134291098D01*
X110377256Y-134309276D01*
X110359078Y-134325752D01*
X110339372Y-134340367D01*
X110318329Y-134352980D01*
X110296150Y-134363470D01*
X110273050Y-134371735D01*
X110249252Y-134377696D01*
X110224983Y-134381296D01*
X110200479Y-134382500D01*
X108000481Y-134382500D01*
X107975977Y-134381296D01*
X107951708Y-134377696D01*
X107927910Y-134371735D01*
X107904810Y-134363470D01*
X107882631Y-134352980D01*
X107861588Y-134340367D01*
X107841882Y-134325752D01*
X107823704Y-134309276D01*
X107807228Y-134291098D01*
X107792613Y-134271392D01*
X107780000Y-134250349D01*
X107769510Y-134228170D01*
X107761245Y-134205070D01*
X107755284Y-134181272D01*
X107751684Y-134157003D01*
X107750480Y-134132499D01*
X107750480Y-131932501D01*
X107751684Y-131907997D01*
X107755284Y-131883728D01*
X107761245Y-131859930D01*
X107769510Y-131836830D01*
X107780000Y-131814651D01*
X107792613Y-131793608D01*
X107807228Y-131773902D01*
X107823704Y-131755724D01*
X107841882Y-131739248D01*
X107861588Y-131724633D01*
X107882631Y-131712020D01*
X107904810Y-131701530D01*
X107927910Y-131693265D01*
X107951708Y-131687304D01*
X107975977Y-131683704D01*
X108000481Y-131682500D01*
X110200479Y-131682500D01*
X110224983Y-131683704D01*
X110224983Y-131683704D01*
G37*
D14*
X109100480Y-133032500D03*
D16*
X118000000Y-128000000D03*
X118000000Y-126000000D03*
X118000000Y-130000000D03*
X118000000Y-132000000D03*
X116000000Y-132000000D03*
X116000000Y-130000000D03*
X120000000Y-130000000D03*
X121000000Y-128000000D03*
X122000000Y-127000000D03*
X113000000Y-128000000D03*
X113000000Y-126000000D03*
X113000000Y-124000000D03*
X111000000Y-124000000D03*
X111000000Y-126000000D03*
X111000000Y-122000000D03*
X106000000Y-124000000D03*
X106000000Y-126000000D03*
X106000000Y-128000000D03*
X106000000Y-130000000D03*
X106000000Y-132000000D03*
X106000000Y-134000000D03*
X106000000Y-136000000D03*
X106000000Y-138000000D03*
X109500000Y-69000000D03*
X109500000Y-70000000D03*
X109000000Y-62500000D03*
X110500000Y-62500000D03*
X109000000Y-64000000D03*
X111500000Y-95000000D03*
X110000000Y-95000000D03*
X111500000Y-93500000D03*
X114000000Y-91500000D03*
X110000000Y-96500000D03*
X120000000Y-63000000D03*
X122000000Y-63000000D03*
X124000000Y-63000000D03*
X126000000Y-63000000D03*
X128000000Y-63000000D03*
X130000000Y-63000000D03*
X120000000Y-65000000D03*
X120000000Y-67000000D03*
X120000000Y-69000000D03*
X120000000Y-71000000D03*
X120000000Y-73000000D03*
X120000000Y-75000000D03*
X120000000Y-77000000D03*
X122000000Y-65000000D03*
X124000000Y-65000000D03*
X126000000Y-65000000D03*
X128000000Y-65000000D03*
X130000000Y-65000000D03*
X122000000Y-67000000D03*
X124000000Y-67000000D03*
X126000000Y-67000000D03*
X128000000Y-67000000D03*
X130000000Y-67000000D03*
X122000000Y-75000000D03*
X124000000Y-75000000D03*
X126000000Y-75000000D03*
X128000000Y-75000000D03*
X130000000Y-75000000D03*
X122000000Y-77000000D03*
X124000000Y-77000000D03*
X126000000Y-77000000D03*
X128000000Y-77000000D03*
X130000000Y-77000000D03*
X128000000Y-69000000D03*
X130000000Y-69000000D03*
X128000000Y-71000000D03*
X130000000Y-71000000D03*
X128000000Y-73000000D03*
X130000000Y-73000000D03*
X137000000Y-63000000D03*
X139000000Y-63000000D03*
X141000000Y-63000000D03*
X139000000Y-73000000D03*
X140000000Y-74000000D03*
X141000000Y-75000000D03*
X136000000Y-92000000D03*
X136000000Y-93500000D03*
X138000000Y-94000000D03*
X138000000Y-95500000D03*
X140000000Y-96000000D03*
X140000000Y-97500000D03*
X117000000Y-93000000D03*
X119000000Y-93000000D03*
X117000000Y-95000000D03*
X119000000Y-95000000D03*
X119000000Y-97000000D03*
X121000000Y-97000000D03*
X121000000Y-95000000D03*
X125000000Y-95000000D03*
X127000000Y-95000000D03*
X129000000Y-95000000D03*
X131000000Y-95000000D03*
X133000000Y-95000000D03*
X128000000Y-93000000D03*
X127000000Y-97000000D03*
X125000000Y-97000000D03*
X129000000Y-97000000D03*
X131000000Y-97000000D03*
X133000000Y-97000000D03*
X133000000Y-99000000D03*
X131000000Y-99000000D03*
X131000000Y-101000000D03*
X133000000Y-101000000D03*
X135000000Y-101000000D03*
X135000000Y-99000000D03*
X137000000Y-101000000D03*
X137000000Y-103000000D03*
X139000000Y-103000000D03*
X135000000Y-103000000D03*
X133000000Y-103000000D03*
X131000000Y-103000000D03*
X133000000Y-105000000D03*
X135000000Y-105000000D03*
X137000000Y-105000000D03*
X139000000Y-105000000D03*
X141000000Y-105000000D03*
X143000000Y-105000000D03*
X145000000Y-105000000D03*
X141000000Y-107000000D03*
X143000000Y-107000000D03*
X145000000Y-107000000D03*
X141000000Y-109000000D03*
X143000000Y-109000000D03*
X145000000Y-109000000D03*
X141000000Y-111000000D03*
X143000000Y-111000000D03*
X145000000Y-111000000D03*
X141000000Y-113000000D03*
X143000000Y-113000000D03*
X145000000Y-113000000D03*
X141000000Y-115000000D03*
X143000000Y-115000000D03*
X145000000Y-115000000D03*
X141000000Y-117000000D03*
X143000000Y-117000000D03*
X145000000Y-117000000D03*
X141000000Y-119000000D03*
X143000000Y-119000000D03*
X145000000Y-119000000D03*
X141000000Y-121000000D03*
X143000000Y-121000000D03*
X145000000Y-121000000D03*
X141000000Y-123000000D03*
X143000000Y-123000000D03*
X145000000Y-123000000D03*
X141000000Y-125000000D03*
X143000000Y-125000000D03*
X145000000Y-125000000D03*
X141000000Y-127000000D03*
X143000000Y-127000000D03*
X145000000Y-127000000D03*
X141000000Y-129000000D03*
X143000000Y-129000000D03*
X145000000Y-129000000D03*
X143000000Y-131000000D03*
X145000000Y-131000000D03*
X143000000Y-133000000D03*
X145000000Y-133000000D03*
X143000000Y-135000000D03*
X145000000Y-135000000D03*
X143000000Y-137000000D03*
X145000000Y-137000000D03*
X145000000Y-139000000D03*
X143000000Y-139000000D03*
X141000000Y-137000000D03*
X139000000Y-137000000D03*
X137000000Y-137000000D03*
X135000000Y-137000000D03*
X133000000Y-137000000D03*
X131000000Y-137000000D03*
X129000000Y-137000000D03*
X129000000Y-139000000D03*
X131000000Y-139000000D03*
X133000000Y-139000000D03*
X135000000Y-139000000D03*
X137000000Y-139000000D03*
X139000000Y-139000000D03*
X141000000Y-139000000D03*
X131000000Y-135000000D03*
X133000000Y-135000000D03*
X131000000Y-133000000D03*
X131000000Y-131000000D03*
X133000000Y-131000000D03*
X133000000Y-133000000D03*
X131000000Y-129000000D03*
X131000000Y-127000000D03*
X133000000Y-127000000D03*
X133000000Y-129000000D03*
X135000000Y-127000000D03*
X133000000Y-125000000D03*
X116000000Y-135000000D03*
X116000000Y-137000000D03*
X116000000Y-139000000D03*
X118000000Y-139000000D03*
X118000000Y-137000000D03*
X118000000Y-135000000D03*
X120000000Y-135000000D03*
X120000000Y-137000000D03*
X120000000Y-139000000D03*
X113000000Y-137000000D03*
X111000000Y-137000000D03*
X109000000Y-137000000D03*
X109000000Y-139000000D03*
X111000000Y-139000000D03*
X113000000Y-139000000D03*
X126000000Y-121000000D03*
X128000000Y-121000000D03*
X126000000Y-123000000D03*
X126000000Y-125000000D03*
X118000000Y-120000000D03*
X121000000Y-120000000D03*
X127000000Y-114000000D03*
X127000000Y-116000000D03*
X127000000Y-111000000D03*
X122000000Y-111000000D03*
X131000000Y-111000000D03*
X133000000Y-111000000D03*
X135000000Y-112000000D03*
X137000000Y-114000000D03*
X113000000Y-98000000D03*
X115000000Y-98000000D03*
X115000000Y-100000000D03*
X117000000Y-100000000D03*
X117000000Y-102000000D03*
X119000000Y-102000000D03*
X121000000Y-104000000D03*
X115000000Y-102000000D03*
X113000000Y-102000000D03*
X113000000Y-100000000D03*
X111000000Y-100000000D03*
X111000000Y-102000000D03*
X109000000Y-103000000D03*
X109000000Y-105000000D03*
X107000000Y-105000000D03*
X106000000Y-107000000D03*
X106000000Y-103000000D03*
X118072320Y-118200860D03*
X125000000Y-118000000D03*
X125700000Y-128900000D03*
X128700000Y-129400000D03*
X131000000Y-112500000D03*
X123390320Y-112609680D03*
X133660000Y-91210000D03*
X128670000Y-91210000D03*
X106250000Y-110000000D03*
X106000000Y-114000000D03*
X106000000Y-116000000D03*
X108000000Y-116000000D03*
X108000000Y-114000000D03*
X107500000Y-110000000D03*
X110750000Y-110000000D03*
X110750000Y-114000000D03*
X110000000Y-116000000D03*
X112000000Y-116000000D03*
X111750000Y-110000000D03*
X113750000Y-110000000D03*
X117750000Y-110000000D03*
X118750000Y-110000000D03*
X110750000Y-112000000D03*
X108500000Y-113000000D03*
X107500000Y-113000000D03*
X107000000Y-115000000D03*
X109000000Y-115000000D03*
X112750000Y-114500000D03*
X113000000Y-117000000D03*
X111000000Y-117000000D03*
X107000000Y-117000000D03*
X119750000Y-110000000D03*
X119750000Y-111000000D03*
X119750000Y-112000000D03*
X119750000Y-113000000D03*
X119750000Y-114000000D03*
X118750000Y-114500000D03*
X117750000Y-114500000D03*
X116750000Y-114500000D03*
X115750000Y-114500000D03*
X114750000Y-114500000D03*
X113750000Y-114500000D03*
X111750000Y-114500000D03*
X116750000Y-110000000D03*
X115750000Y-110000000D03*
X114750000Y-110000000D03*
X112750000Y-110000000D03*
X110750000Y-111000000D03*
X110750000Y-113000000D03*
X109750000Y-110000000D03*
X108750000Y-110000000D03*
X106250000Y-111000000D03*
X106250000Y-112000000D03*
X109500000Y-113000000D03*
X119750000Y-118925860D03*
X127750000Y-117500000D03*
X114971380Y-65771380D03*
X133660000Y-82140000D03*
X136341382Y-68311380D03*
X137458620Y-67041380D03*
X118100000Y-83600000D03*
X114700000Y-88400000D03*
X115700000Y-90200000D03*
D17*
X118072320Y-118200860D02*
X124799140Y-118200860D01*
X124799140Y-118200860D02*
X125000000Y-118000000D01*
X125700000Y-128900000D02*
X128200000Y-128900000D01*
X128200000Y-128900000D02*
X128700000Y-129400000D01*
X123500000Y-112500000D02*
X123390320Y-112609680D01*
X131000000Y-112500000D02*
X123500000Y-112500000D01*
D18*
X119600000Y-99500000D02*
X123540000Y-99500000D01*
X110700000Y-90600000D02*
X119600000Y-99500000D01*
X110700000Y-66800000D02*
X110700000Y-90600000D01*
X107000000Y-65771380D02*
X109671380Y-65771380D01*
X109671380Y-65771380D02*
X110700000Y-66800000D01*
D19*
X123540000Y-99500000D02*
X123540000Y-106100000D01*
D17*
X133660000Y-91210000D02*
X128670000Y-91210000D01*
X119750000Y-118925860D02*
X126324140Y-118925860D01*
X126324140Y-118925860D02*
X127750000Y-117500000D01*
X121700000Y-82600000D02*
X126270000Y-87170000D01*
X116600000Y-82600000D02*
X121700000Y-82600000D01*
X114997237Y-80997237D02*
X116600000Y-82600000D01*
X114971380Y-65771380D02*
X114997237Y-65797237D01*
X114997237Y-65797237D02*
X114997237Y-80997237D01*
X126280000Y-87200000D02*
X127030000Y-87200000D01*
X126270000Y-87190000D02*
X126280000Y-87200000D01*
X126270000Y-87170000D02*
X126270000Y-87190000D01*
X130330000Y-85930000D02*
X129570000Y-85930000D01*
X133660000Y-82140000D02*
X133660000Y-82600000D01*
X133660000Y-82600000D02*
X130330000Y-85930000D01*
X136341382Y-68877065D02*
X136341382Y-68311380D01*
X136341382Y-85988618D02*
X136341382Y-68877065D01*
X129570000Y-87200000D02*
X135130000Y-87200000D01*
X135130000Y-87200000D02*
X136341382Y-85988618D01*
X137458620Y-67607065D02*
X137458620Y-67041380D01*
X137458620Y-86341380D02*
X137458620Y-67607065D01*
X135300000Y-88500000D02*
X137458620Y-86341380D01*
X128300000Y-87200000D02*
X129600000Y-88500000D01*
X129600000Y-88500000D02*
X135300000Y-88500000D01*
X122210000Y-85310000D02*
X122210000Y-85930000D01*
X118100000Y-83600000D02*
X120500000Y-83600000D01*
X120500000Y-83600000D02*
X122210000Y-85310000D01*
X116300000Y-83600000D02*
X118100000Y-83600000D01*
X114700000Y-88400000D02*
X114700000Y-85200000D01*
X114700000Y-85200000D02*
X116300000Y-83600000D01*
X119670000Y-85470000D02*
X119670000Y-85930000D01*
X119100000Y-84900000D02*
X119670000Y-85470000D01*
X116800000Y-84900000D02*
X119100000Y-84900000D01*
X115700000Y-90200000D02*
X115700000Y-86000000D01*
X115700000Y-86000000D02*
X116800000Y-84900000D01*
D20*
G36*
X120123000Y-114873000D02*
G01*
X113750000Y-114873000D01*
X113725224Y-114875440D01*
X113701399Y-114882667D01*
X113679443Y-114894403D01*
X113660197Y-114910197D01*
X113644403Y-114929443D01*
X113632667Y-114951399D01*
X113625440Y-114975224D01*
X113623000Y-115000000D01*
X113623000Y-118123000D01*
X105195000Y-118123000D01*
X105195000Y-109627000D01*
X120123000Y-109627000D01*
X120123000Y-114873000D01*
X120123000Y-114873000D01*
G37*
X120123000Y-114873000D02*
X113750000Y-114873000D01*
X113725224Y-114875440D01*
X113701399Y-114882667D01*
X113679443Y-114894403D01*
X113660197Y-114910197D01*
X113644403Y-114929443D01*
X113632667Y-114951399D01*
X113625440Y-114975224D01*
X113623000Y-115000000D01*
X113623000Y-118123000D01*
X105195000Y-118123000D01*
X105195000Y-109627000D01*
X120123000Y-109627000D01*
X120123000Y-114873000D01*
G36*
X110623000Y-62000000D02*
G01*
X110625440Y-62024776D01*
X110632667Y-62048601D01*
X110644403Y-62070557D01*
X110660197Y-62089803D01*
X110679443Y-62105597D01*
X110701399Y-62117333D01*
X110725224Y-62124560D01*
X110750000Y-62127000D01*
X139750000Y-62127000D01*
X139774776Y-62124560D01*
X139798601Y-62117333D01*
X139820557Y-62105597D01*
X139839803Y-62089803D01*
X139855597Y-62070557D01*
X139867333Y-62048601D01*
X139874560Y-62024776D01*
X139877000Y-62000000D01*
X139877000Y-61695000D01*
X145805000Y-61695000D01*
X145805001Y-139305000D01*
X105195000Y-139305000D01*
X105195000Y-137452100D01*
X121456515Y-137452100D01*
X121485187Y-137743211D01*
X121570101Y-138023134D01*
X121707994Y-138281114D01*
X121893566Y-138507234D01*
X122119686Y-138692806D01*
X122377666Y-138830699D01*
X122657589Y-138915613D01*
X122875750Y-138937100D01*
X123021650Y-138937100D01*
X123239811Y-138915613D01*
X123519734Y-138830699D01*
X123777714Y-138692806D01*
X124003834Y-138507234D01*
X124189406Y-138281114D01*
X124327299Y-138023134D01*
X124412213Y-137743211D01*
X124440885Y-137452100D01*
X124412213Y-137160989D01*
X124327299Y-136881066D01*
X124189406Y-136623086D01*
X124003834Y-136396966D01*
X123777714Y-136211394D01*
X123519734Y-136073501D01*
X123239811Y-135988587D01*
X123021650Y-135967100D01*
X122875750Y-135967100D01*
X122657589Y-135988587D01*
X122377666Y-136073501D01*
X122119686Y-136211394D01*
X121893566Y-136396966D01*
X121707994Y-136623086D01*
X121570101Y-136881066D01*
X121485187Y-137160989D01*
X121456515Y-137452100D01*
X105195000Y-137452100D01*
X105195000Y-132836995D01*
X111075480Y-132836995D01*
X111075480Y-133228005D01*
X111151762Y-133611503D01*
X111301395Y-133972750D01*
X111518629Y-134297864D01*
X111795116Y-134574351D01*
X112120230Y-134791585D01*
X112481477Y-134941218D01*
X112864975Y-135017500D01*
X113255985Y-135017500D01*
X113639483Y-134941218D01*
X114000730Y-134791585D01*
X114325844Y-134574351D01*
X114602331Y-134297864D01*
X114819565Y-133972750D01*
X114969198Y-133611503D01*
X115045480Y-133228005D01*
X115045480Y-132836995D01*
X114970706Y-132461075D01*
X137547500Y-132461075D01*
X137547500Y-132852085D01*
X137623782Y-133235583D01*
X137773415Y-133596830D01*
X137990649Y-133921944D01*
X138267136Y-134198431D01*
X138592250Y-134415665D01*
X138953497Y-134565298D01*
X139336995Y-134641580D01*
X139728005Y-134641580D01*
X140111503Y-134565298D01*
X140472750Y-134415665D01*
X140797864Y-134198431D01*
X141074351Y-133921944D01*
X141291585Y-133596830D01*
X141441218Y-133235583D01*
X141517500Y-132852085D01*
X141517500Y-132461075D01*
X141441218Y-132077577D01*
X141291585Y-131716330D01*
X141074351Y-131391216D01*
X140797864Y-131114729D01*
X140472750Y-130897495D01*
X140111503Y-130747862D01*
X139728005Y-130671580D01*
X139336995Y-130671580D01*
X138953497Y-130747862D01*
X138592250Y-130897495D01*
X138267136Y-131114729D01*
X137990649Y-131391216D01*
X137773415Y-131716330D01*
X137623782Y-132077577D01*
X137547500Y-132461075D01*
X114970706Y-132461075D01*
X114969198Y-132453497D01*
X114819565Y-132092250D01*
X114602331Y-131767136D01*
X114325844Y-131490649D01*
X114000730Y-131273415D01*
X113639483Y-131123782D01*
X113255985Y-131047500D01*
X112864975Y-131047500D01*
X112481477Y-131123782D01*
X112120230Y-131273415D01*
X111795116Y-131490649D01*
X111518629Y-131767136D01*
X111301395Y-132092250D01*
X111151762Y-132453497D01*
X111075480Y-132836995D01*
X105195000Y-132836995D01*
X105195000Y-128798061D01*
X124665000Y-128798061D01*
X124665000Y-129001939D01*
X124704774Y-129201898D01*
X124782795Y-129390256D01*
X124896063Y-129559774D01*
X125040226Y-129703937D01*
X125209744Y-129817205D01*
X125398102Y-129895226D01*
X125598061Y-129935000D01*
X125801939Y-129935000D01*
X126001898Y-129895226D01*
X126190256Y-129817205D01*
X126359774Y-129703937D01*
X126403711Y-129660000D01*
X127696440Y-129660000D01*
X127704774Y-129701898D01*
X127782795Y-129890256D01*
X127896063Y-130059774D01*
X128040226Y-130203937D01*
X128209744Y-130317205D01*
X128398102Y-130395226D01*
X128598061Y-130435000D01*
X128801939Y-130435000D01*
X129001898Y-130395226D01*
X129190256Y-130317205D01*
X129359774Y-130203937D01*
X129503937Y-130059774D01*
X129617205Y-129890256D01*
X129695226Y-129701898D01*
X129735000Y-129501939D01*
X129735000Y-129298061D01*
X129695226Y-129098102D01*
X129617205Y-128909744D01*
X129503937Y-128740226D01*
X129359774Y-128596063D01*
X129190256Y-128482795D01*
X129001898Y-128404774D01*
X128801939Y-128365000D01*
X128744105Y-128365000D01*
X128740001Y-128359999D01*
X128624276Y-128265026D01*
X128492247Y-128194454D01*
X128348986Y-128150997D01*
X128237333Y-128140000D01*
X128237322Y-128140000D01*
X128200000Y-128136324D01*
X128162678Y-128140000D01*
X126403711Y-128140000D01*
X126359774Y-128096063D01*
X126190256Y-127982795D01*
X126001898Y-127904774D01*
X125801939Y-127865000D01*
X125598061Y-127865000D01*
X125398102Y-127904774D01*
X125209744Y-127982795D01*
X125040226Y-128096063D01*
X124896063Y-128240226D01*
X124782795Y-128409744D01*
X124704774Y-128598102D01*
X124665000Y-128798061D01*
X105195000Y-128798061D01*
X105195000Y-119127000D01*
X114750000Y-119127000D01*
X114774776Y-119124560D01*
X114798601Y-119117333D01*
X114820557Y-119105597D01*
X114839803Y-119089803D01*
X114855597Y-119070557D01*
X114867333Y-119048601D01*
X114874560Y-119024776D01*
X114877000Y-119000000D01*
X114877000Y-118098921D01*
X117037320Y-118098921D01*
X117037320Y-118302799D01*
X117077094Y-118502758D01*
X117155115Y-118691116D01*
X117268383Y-118860634D01*
X117412546Y-119004797D01*
X117582064Y-119118065D01*
X117770422Y-119196086D01*
X117970381Y-119235860D01*
X118174259Y-119235860D01*
X118374218Y-119196086D01*
X118562576Y-119118065D01*
X118715000Y-119016219D01*
X118715000Y-119027799D01*
X118754774Y-119227758D01*
X118832795Y-119416116D01*
X118946063Y-119585634D01*
X119090226Y-119729797D01*
X119259744Y-119843065D01*
X119448102Y-119921086D01*
X119648061Y-119960860D01*
X119851939Y-119960860D01*
X120051898Y-119921086D01*
X120240256Y-119843065D01*
X120409774Y-119729797D01*
X120453711Y-119685860D01*
X126286818Y-119685860D01*
X126324140Y-119689536D01*
X126361462Y-119685860D01*
X126361473Y-119685860D01*
X126473126Y-119674863D01*
X126616387Y-119631406D01*
X126748416Y-119560834D01*
X126864141Y-119465861D01*
X126887944Y-119436857D01*
X127789802Y-118535000D01*
X127851939Y-118535000D01*
X128051898Y-118495226D01*
X128240256Y-118417205D01*
X128409774Y-118303937D01*
X128553937Y-118159774D01*
X128667205Y-117990256D01*
X128745226Y-117801898D01*
X128785000Y-117601939D01*
X128785000Y-117398061D01*
X128745226Y-117198102D01*
X128667205Y-117009744D01*
X128553937Y-116840226D01*
X128409774Y-116696063D01*
X128240256Y-116582795D01*
X128051898Y-116504774D01*
X127851939Y-116465000D01*
X127648061Y-116465000D01*
X127448102Y-116504774D01*
X127259744Y-116582795D01*
X127090226Y-116696063D01*
X126946063Y-116840226D01*
X126832795Y-117009744D01*
X126754774Y-117198102D01*
X126715000Y-117398061D01*
X126715000Y-117460198D01*
X126025500Y-118149699D01*
X126035000Y-118101939D01*
X126035000Y-117898061D01*
X125995226Y-117698102D01*
X125917205Y-117509744D01*
X125803937Y-117340226D01*
X125659774Y-117196063D01*
X125490256Y-117082795D01*
X125301898Y-117004774D01*
X125101939Y-116965000D01*
X124898061Y-116965000D01*
X124698102Y-117004774D01*
X124509744Y-117082795D01*
X124340226Y-117196063D01*
X124196063Y-117340226D01*
X124128822Y-117440860D01*
X118776031Y-117440860D01*
X118732094Y-117396923D01*
X118562576Y-117283655D01*
X118374218Y-117205634D01*
X118174259Y-117165860D01*
X117970381Y-117165860D01*
X117770422Y-117205634D01*
X117582064Y-117283655D01*
X117412546Y-117396923D01*
X117268383Y-117541086D01*
X117155115Y-117710604D01*
X117077094Y-117898962D01*
X117037320Y-118098921D01*
X114877000Y-118098921D01*
X114877000Y-115877000D01*
X121000000Y-115877000D01*
X121024776Y-115874560D01*
X121048601Y-115867333D01*
X121070557Y-115855597D01*
X121089803Y-115839803D01*
X121105597Y-115820557D01*
X121117333Y-115798601D01*
X121124560Y-115774776D01*
X121127000Y-115750000D01*
X121127000Y-112507741D01*
X122355320Y-112507741D01*
X122355320Y-112711619D01*
X122395094Y-112911578D01*
X122473115Y-113099936D01*
X122586383Y-113269454D01*
X122730546Y-113413617D01*
X122900064Y-113526885D01*
X123088422Y-113604906D01*
X123288381Y-113644680D01*
X123492259Y-113644680D01*
X123692218Y-113604906D01*
X123880576Y-113526885D01*
X124050094Y-113413617D01*
X124194257Y-113269454D01*
X124200574Y-113260000D01*
X130296289Y-113260000D01*
X130340226Y-113303937D01*
X130509744Y-113417205D01*
X130698102Y-113495226D01*
X130898061Y-113535000D01*
X131101939Y-113535000D01*
X131301898Y-113495226D01*
X131490256Y-113417205D01*
X131659774Y-113303937D01*
X131803937Y-113159774D01*
X131917205Y-112990256D01*
X131995226Y-112801898D01*
X132035000Y-112601939D01*
X132035000Y-112398061D01*
X131995226Y-112198102D01*
X131917205Y-112009744D01*
X131803937Y-111840226D01*
X131659774Y-111696063D01*
X131490256Y-111582795D01*
X131301898Y-111504774D01*
X131101939Y-111465000D01*
X130898061Y-111465000D01*
X130698102Y-111504774D01*
X130509744Y-111582795D01*
X130340226Y-111696063D01*
X130296289Y-111740000D01*
X123951702Y-111740000D01*
X123880576Y-111692475D01*
X123692218Y-111614454D01*
X123492259Y-111574680D01*
X123288381Y-111574680D01*
X123088422Y-111614454D01*
X122900064Y-111692475D01*
X122730546Y-111805743D01*
X122586383Y-111949906D01*
X122473115Y-112119424D01*
X122395094Y-112307782D01*
X122355320Y-112507741D01*
X121127000Y-112507741D01*
X121127000Y-108250000D01*
X121124560Y-108225224D01*
X121117333Y-108201399D01*
X121105597Y-108179443D01*
X121089803Y-108160197D01*
X121070557Y-108144403D01*
X121048601Y-108132667D01*
X121024776Y-108125440D01*
X121000000Y-108123000D01*
X105195000Y-108123000D01*
X105195000Y-101331380D01*
X105507815Y-101331380D01*
X105536487Y-101622491D01*
X105621401Y-101902414D01*
X105759294Y-102160394D01*
X105944866Y-102386514D01*
X106170986Y-102572086D01*
X106428966Y-102709979D01*
X106708889Y-102794893D01*
X106927050Y-102816380D01*
X107072950Y-102816380D01*
X107291111Y-102794893D01*
X107571034Y-102709979D01*
X107829014Y-102572086D01*
X108055134Y-102386514D01*
X108240706Y-102160394D01*
X108378599Y-101902414D01*
X108463513Y-101622491D01*
X108492185Y-101331380D01*
X108463513Y-101040269D01*
X108378599Y-100760346D01*
X108240706Y-100502366D01*
X108055134Y-100276246D01*
X107829014Y-100090674D01*
X107571034Y-99952781D01*
X107291111Y-99867867D01*
X107072950Y-99846380D01*
X106927050Y-99846380D01*
X106708889Y-99867867D01*
X106428966Y-99952781D01*
X106170986Y-100090674D01*
X105944866Y-100276246D01*
X105759294Y-100502366D01*
X105621401Y-100760346D01*
X105536487Y-101040269D01*
X105507815Y-101331380D01*
X105195000Y-101331380D01*
X105195000Y-65771380D01*
X105507815Y-65771380D01*
X105536487Y-66062491D01*
X105621401Y-66342414D01*
X105759294Y-66600394D01*
X105944866Y-66826514D01*
X106170986Y-67012086D01*
X106225791Y-67041380D01*
X106170986Y-67070674D01*
X105944866Y-67256246D01*
X105759294Y-67482366D01*
X105621401Y-67740346D01*
X105536487Y-68020269D01*
X105507815Y-68311380D01*
X105536487Y-68602491D01*
X105621401Y-68882414D01*
X105759294Y-69140394D01*
X105944866Y-69366514D01*
X106170986Y-69552086D01*
X106225791Y-69581380D01*
X106170986Y-69610674D01*
X105944866Y-69796246D01*
X105759294Y-70022366D01*
X105621401Y-70280346D01*
X105536487Y-70560269D01*
X105507815Y-70851380D01*
X105536487Y-71142491D01*
X105621401Y-71422414D01*
X105759294Y-71680394D01*
X105944866Y-71906514D01*
X106170986Y-72092086D01*
X106225791Y-72121380D01*
X106170986Y-72150674D01*
X105944866Y-72336246D01*
X105759294Y-72562366D01*
X105621401Y-72820346D01*
X105536487Y-73100269D01*
X105507815Y-73391380D01*
X105536487Y-73682491D01*
X105621401Y-73962414D01*
X105759294Y-74220394D01*
X105944866Y-74446514D01*
X106170986Y-74632086D01*
X106225791Y-74661380D01*
X106170986Y-74690674D01*
X105944866Y-74876246D01*
X105759294Y-75102366D01*
X105621401Y-75360346D01*
X105536487Y-75640269D01*
X105507815Y-75931380D01*
X105536487Y-76222491D01*
X105621401Y-76502414D01*
X105759294Y-76760394D01*
X105944866Y-76986514D01*
X106170986Y-77172086D01*
X106225791Y-77201380D01*
X106170986Y-77230674D01*
X105944866Y-77416246D01*
X105759294Y-77642366D01*
X105621401Y-77900346D01*
X105536487Y-78180269D01*
X105507815Y-78471380D01*
X105536487Y-78762491D01*
X105621401Y-79042414D01*
X105759294Y-79300394D01*
X105944866Y-79526514D01*
X106170986Y-79712086D01*
X106225791Y-79741380D01*
X106170986Y-79770674D01*
X105944866Y-79956246D01*
X105759294Y-80182366D01*
X105621401Y-80440346D01*
X105536487Y-80720269D01*
X105507815Y-81011380D01*
X105536487Y-81302491D01*
X105621401Y-81582414D01*
X105759294Y-81840394D01*
X105944866Y-82066514D01*
X106170986Y-82252086D01*
X106225791Y-82281380D01*
X106170986Y-82310674D01*
X105944866Y-82496246D01*
X105759294Y-82722366D01*
X105621401Y-82980346D01*
X105536487Y-83260269D01*
X105507815Y-83551380D01*
X105536487Y-83842491D01*
X105621401Y-84122414D01*
X105759294Y-84380394D01*
X105944866Y-84606514D01*
X106170986Y-84792086D01*
X106225791Y-84821380D01*
X106170986Y-84850674D01*
X105944866Y-85036246D01*
X105759294Y-85262366D01*
X105621401Y-85520346D01*
X105536487Y-85800269D01*
X105507815Y-86091380D01*
X105536487Y-86382491D01*
X105621401Y-86662414D01*
X105759294Y-86920394D01*
X105944866Y-87146514D01*
X106170986Y-87332086D01*
X106225791Y-87361380D01*
X106170986Y-87390674D01*
X105944866Y-87576246D01*
X105759294Y-87802366D01*
X105621401Y-88060346D01*
X105536487Y-88340269D01*
X105507815Y-88631380D01*
X105536487Y-88922491D01*
X105621401Y-89202414D01*
X105759294Y-89460394D01*
X105944866Y-89686514D01*
X106170986Y-89872086D01*
X106225791Y-89901380D01*
X106170986Y-89930674D01*
X105944866Y-90116246D01*
X105759294Y-90342366D01*
X105621401Y-90600346D01*
X105536487Y-90880269D01*
X105507815Y-91171380D01*
X105536487Y-91462491D01*
X105621401Y-91742414D01*
X105759294Y-92000394D01*
X105944866Y-92226514D01*
X106170986Y-92412086D01*
X106225791Y-92441380D01*
X106170986Y-92470674D01*
X105944866Y-92656246D01*
X105759294Y-92882366D01*
X105621401Y-93140346D01*
X105536487Y-93420269D01*
X105507815Y-93711380D01*
X105536487Y-94002491D01*
X105621401Y-94282414D01*
X105759294Y-94540394D01*
X105944866Y-94766514D01*
X106170986Y-94952086D01*
X106225791Y-94981380D01*
X106170986Y-95010674D01*
X105944866Y-95196246D01*
X105759294Y-95422366D01*
X105621401Y-95680346D01*
X105536487Y-95960269D01*
X105507815Y-96251380D01*
X105536487Y-96542491D01*
X105621401Y-96822414D01*
X105759294Y-97080394D01*
X105944866Y-97306514D01*
X106170986Y-97492086D01*
X106428966Y-97629979D01*
X106708889Y-97714893D01*
X106927050Y-97736380D01*
X107072950Y-97736380D01*
X107291111Y-97714893D01*
X107571034Y-97629979D01*
X107829014Y-97492086D01*
X108055134Y-97306514D01*
X108240706Y-97080394D01*
X108378599Y-96822414D01*
X108463513Y-96542491D01*
X108492185Y-96251380D01*
X108463513Y-95960269D01*
X108378599Y-95680346D01*
X108240706Y-95422366D01*
X108055134Y-95196246D01*
X107829014Y-95010674D01*
X107774209Y-94981380D01*
X107829014Y-94952086D01*
X108055134Y-94766514D01*
X108240706Y-94540394D01*
X108378599Y-94282414D01*
X108463513Y-94002491D01*
X108492185Y-93711380D01*
X108463513Y-93420269D01*
X108378599Y-93140346D01*
X108240706Y-92882366D01*
X108055134Y-92656246D01*
X107829014Y-92470674D01*
X107774209Y-92441380D01*
X107829014Y-92412086D01*
X108055134Y-92226514D01*
X108240706Y-92000394D01*
X108378599Y-91742414D01*
X108463513Y-91462491D01*
X108492185Y-91171380D01*
X108463513Y-90880269D01*
X108378599Y-90600346D01*
X108240706Y-90342366D01*
X108055134Y-90116246D01*
X107829014Y-89930674D01*
X107774209Y-89901380D01*
X107829014Y-89872086D01*
X108055134Y-89686514D01*
X108240706Y-89460394D01*
X108378599Y-89202414D01*
X108463513Y-88922491D01*
X108492185Y-88631380D01*
X108463513Y-88340269D01*
X108378599Y-88060346D01*
X108240706Y-87802366D01*
X108055134Y-87576246D01*
X107829014Y-87390674D01*
X107774209Y-87361380D01*
X107829014Y-87332086D01*
X108055134Y-87146514D01*
X108240706Y-86920394D01*
X108378599Y-86662414D01*
X108463513Y-86382491D01*
X108492185Y-86091380D01*
X108463513Y-85800269D01*
X108378599Y-85520346D01*
X108240706Y-85262366D01*
X108055134Y-85036246D01*
X107829014Y-84850674D01*
X107774209Y-84821380D01*
X107829014Y-84792086D01*
X108055134Y-84606514D01*
X108240706Y-84380394D01*
X108378599Y-84122414D01*
X108463513Y-83842491D01*
X108492185Y-83551380D01*
X108463513Y-83260269D01*
X108378599Y-82980346D01*
X108240706Y-82722366D01*
X108055134Y-82496246D01*
X107829014Y-82310674D01*
X107774209Y-82281380D01*
X107829014Y-82252086D01*
X108055134Y-82066514D01*
X108240706Y-81840394D01*
X108378599Y-81582414D01*
X108463513Y-81302491D01*
X108492185Y-81011380D01*
X108463513Y-80720269D01*
X108378599Y-80440346D01*
X108240706Y-80182366D01*
X108055134Y-79956246D01*
X107829014Y-79770674D01*
X107774209Y-79741380D01*
X107829014Y-79712086D01*
X108055134Y-79526514D01*
X108240706Y-79300394D01*
X108378599Y-79042414D01*
X108463513Y-78762491D01*
X108492185Y-78471380D01*
X108463513Y-78180269D01*
X108378599Y-77900346D01*
X108240706Y-77642366D01*
X108055134Y-77416246D01*
X107829014Y-77230674D01*
X107774209Y-77201380D01*
X107829014Y-77172086D01*
X108055134Y-76986514D01*
X108240706Y-76760394D01*
X108378599Y-76502414D01*
X108463513Y-76222491D01*
X108492185Y-75931380D01*
X108463513Y-75640269D01*
X108378599Y-75360346D01*
X108240706Y-75102366D01*
X108055134Y-74876246D01*
X107829014Y-74690674D01*
X107774209Y-74661380D01*
X107829014Y-74632086D01*
X108055134Y-74446514D01*
X108240706Y-74220394D01*
X108378599Y-73962414D01*
X108463513Y-73682491D01*
X108492185Y-73391380D01*
X108463513Y-73100269D01*
X108378599Y-72820346D01*
X108240706Y-72562366D01*
X108055134Y-72336246D01*
X107829014Y-72150674D01*
X107774209Y-72121380D01*
X107829014Y-72092086D01*
X108055134Y-71906514D01*
X108240706Y-71680394D01*
X108378599Y-71422414D01*
X108463513Y-71142491D01*
X108492185Y-70851380D01*
X108463513Y-70560269D01*
X108378599Y-70280346D01*
X108240706Y-70022366D01*
X108055134Y-69796246D01*
X107829014Y-69610674D01*
X107774209Y-69581380D01*
X107829014Y-69552086D01*
X108055134Y-69366514D01*
X108240706Y-69140394D01*
X108378599Y-68882414D01*
X108463513Y-68602491D01*
X108492185Y-68311380D01*
X108463513Y-68020269D01*
X108378599Y-67740346D01*
X108240706Y-67482366D01*
X108055134Y-67256246D01*
X107829014Y-67070674D01*
X107774209Y-67041380D01*
X107829014Y-67012086D01*
X108055134Y-66826514D01*
X108194759Y-66656380D01*
X109304802Y-66656380D01*
X109815000Y-67166579D01*
X109815001Y-90556521D01*
X109810719Y-90600000D01*
X109827805Y-90773490D01*
X109878412Y-90940313D01*
X109960590Y-91094059D01*
X110043468Y-91195046D01*
X110043471Y-91195049D01*
X110071184Y-91228817D01*
X110104952Y-91256530D01*
X118943470Y-100095049D01*
X118971183Y-100128817D01*
X119004951Y-100156530D01*
X119004953Y-100156532D01*
X119105941Y-100239411D01*
X119259687Y-100321589D01*
X119426510Y-100372195D01*
X119556523Y-100385000D01*
X119556531Y-100385000D01*
X119600000Y-100389281D01*
X119643469Y-100385000D01*
X121758030Y-100385000D01*
X121780915Y-100440250D01*
X121998149Y-100765364D01*
X122274636Y-101041851D01*
X122505000Y-101195775D01*
X122505001Y-104642546D01*
X122445820Y-104660498D01*
X122335506Y-104719463D01*
X122238815Y-104798815D01*
X122159463Y-104895506D01*
X122100498Y-105005820D01*
X122064188Y-105125518D01*
X122051928Y-105250000D01*
X122051928Y-106950000D01*
X122064188Y-107074482D01*
X122100498Y-107194180D01*
X122159463Y-107304494D01*
X122238815Y-107401185D01*
X122335506Y-107480537D01*
X122445820Y-107539502D01*
X122565518Y-107575812D01*
X122690000Y-107588072D01*
X124390000Y-107588072D01*
X124514482Y-107575812D01*
X124634180Y-107539502D01*
X124744494Y-107480537D01*
X124841185Y-107401185D01*
X124920537Y-107304494D01*
X124979502Y-107194180D01*
X125000393Y-107125313D01*
X125024866Y-107155134D01*
X125250986Y-107340706D01*
X125508966Y-107478599D01*
X125788889Y-107563513D01*
X126007050Y-107585000D01*
X126152950Y-107585000D01*
X126371111Y-107563513D01*
X126651034Y-107478599D01*
X126909014Y-107340706D01*
X127135134Y-107155134D01*
X127320706Y-106929014D01*
X127458599Y-106671034D01*
X127543513Y-106391111D01*
X127572185Y-106100000D01*
X127543513Y-105808889D01*
X127458599Y-105528966D01*
X127320706Y-105270986D01*
X127135134Y-105044866D01*
X126909014Y-104859294D01*
X126651034Y-104721401D01*
X126371111Y-104636487D01*
X126152950Y-104615000D01*
X126007050Y-104615000D01*
X125788889Y-104636487D01*
X125508966Y-104721401D01*
X125250986Y-104859294D01*
X125024866Y-105044866D01*
X125000393Y-105074687D01*
X124979502Y-105005820D01*
X124920537Y-104895506D01*
X124841185Y-104798815D01*
X124744494Y-104719463D01*
X124634180Y-104660498D01*
X124575000Y-104642546D01*
X124575000Y-101195775D01*
X124805364Y-101041851D01*
X125081851Y-100765364D01*
X125299085Y-100440250D01*
X125448718Y-100079003D01*
X125525000Y-99695505D01*
X125525000Y-99304495D01*
X125448718Y-98920997D01*
X125299085Y-98559750D01*
X125081851Y-98234636D01*
X124805364Y-97958149D01*
X124480250Y-97740915D01*
X124119003Y-97591282D01*
X123735505Y-97515000D01*
X123344495Y-97515000D01*
X122960997Y-97591282D01*
X122599750Y-97740915D01*
X122274636Y-97958149D01*
X121998149Y-98234636D01*
X121780915Y-98559750D01*
X121758030Y-98615000D01*
X119966579Y-98615000D01*
X111585000Y-90233422D01*
X111585000Y-88298061D01*
X113665000Y-88298061D01*
X113665000Y-88501939D01*
X113704774Y-88701898D01*
X113782795Y-88890256D01*
X113896063Y-89059774D01*
X114040226Y-89203937D01*
X114209744Y-89317205D01*
X114398102Y-89395226D01*
X114598061Y-89435000D01*
X114801939Y-89435000D01*
X114940000Y-89407538D01*
X114940000Y-89496289D01*
X114896063Y-89540226D01*
X114782795Y-89709744D01*
X114704774Y-89898102D01*
X114665000Y-90098061D01*
X114665000Y-90301939D01*
X114704774Y-90501898D01*
X114782795Y-90690256D01*
X114896063Y-90859774D01*
X115040226Y-91003937D01*
X115209744Y-91117205D01*
X115398102Y-91195226D01*
X115598061Y-91235000D01*
X115801939Y-91235000D01*
X116001898Y-91195226D01*
X116190256Y-91117205D01*
X116203941Y-91108061D01*
X127635000Y-91108061D01*
X127635000Y-91311939D01*
X127674774Y-91511898D01*
X127752795Y-91700256D01*
X127866063Y-91869774D01*
X128010226Y-92013937D01*
X128179744Y-92127205D01*
X128368102Y-92205226D01*
X128568061Y-92245000D01*
X128771939Y-92245000D01*
X128971898Y-92205226D01*
X129160256Y-92127205D01*
X129329774Y-92013937D01*
X129373711Y-91970000D01*
X132956289Y-91970000D01*
X133000226Y-92013937D01*
X133169744Y-92127205D01*
X133358102Y-92205226D01*
X133558061Y-92245000D01*
X133761939Y-92245000D01*
X133961898Y-92205226D01*
X134150256Y-92127205D01*
X134319774Y-92013937D01*
X134463937Y-91869774D01*
X134577205Y-91700256D01*
X134655226Y-91511898D01*
X134695000Y-91311939D01*
X134695000Y-91108061D01*
X134655226Y-90908102D01*
X134577205Y-90719744D01*
X134463937Y-90550226D01*
X134319774Y-90406063D01*
X134150256Y-90292795D01*
X133961898Y-90214774D01*
X133761939Y-90175000D01*
X133558061Y-90175000D01*
X133358102Y-90214774D01*
X133169744Y-90292795D01*
X133000226Y-90406063D01*
X132956289Y-90450000D01*
X129373711Y-90450000D01*
X129329774Y-90406063D01*
X129160256Y-90292795D01*
X128971898Y-90214774D01*
X128771939Y-90175000D01*
X128568061Y-90175000D01*
X128368102Y-90214774D01*
X128179744Y-90292795D01*
X128010226Y-90406063D01*
X127866063Y-90550226D01*
X127752795Y-90719744D01*
X127674774Y-90908102D01*
X127635000Y-91108061D01*
X116203941Y-91108061D01*
X116359774Y-91003937D01*
X116503937Y-90859774D01*
X116617205Y-90690256D01*
X116695226Y-90501898D01*
X116735000Y-90301939D01*
X116735000Y-90098061D01*
X116695226Y-89898102D01*
X116617205Y-89709744D01*
X116503937Y-89540226D01*
X116460000Y-89496289D01*
X116460000Y-86314801D01*
X117114802Y-85660000D01*
X117295832Y-85660000D01*
X117281423Y-85707501D01*
X117259509Y-85930000D01*
X117281423Y-86152499D01*
X117346324Y-86366447D01*
X117352297Y-86377621D01*
X117310498Y-86455820D01*
X117274188Y-86575518D01*
X117261928Y-86700000D01*
X117261928Y-87700000D01*
X117274188Y-87824482D01*
X117310498Y-87944180D01*
X117369463Y-88054494D01*
X117448815Y-88151185D01*
X117545506Y-88230537D01*
X117655820Y-88289502D01*
X117775518Y-88325812D01*
X117900000Y-88338072D01*
X118900000Y-88338072D01*
X119024482Y-88325812D01*
X119144180Y-88289502D01*
X119254494Y-88230537D01*
X119351185Y-88151185D01*
X119430537Y-88054494D01*
X119489502Y-87944180D01*
X119525812Y-87824482D01*
X119538072Y-87700000D01*
X119538072Y-87057497D01*
X119614248Y-87065000D01*
X119725752Y-87065000D01*
X119892499Y-87048577D01*
X120106447Y-86983676D01*
X120303623Y-86878284D01*
X120305000Y-86877154D01*
X120306377Y-86878284D01*
X120503553Y-86983676D01*
X120717501Y-87048577D01*
X120884248Y-87065000D01*
X120995752Y-87065000D01*
X121162499Y-87048577D01*
X121376447Y-86983676D01*
X121573623Y-86878284D01*
X121575000Y-86877154D01*
X121576377Y-86878284D01*
X121773553Y-86983676D01*
X121987501Y-87048577D01*
X122154248Y-87065000D01*
X122265752Y-87065000D01*
X122432499Y-87048577D01*
X122646447Y-86983676D01*
X122843623Y-86878284D01*
X122845000Y-86877154D01*
X122846377Y-86878284D01*
X123043553Y-86983676D01*
X123257501Y-87048577D01*
X123424248Y-87065000D01*
X123535752Y-87065000D01*
X123702499Y-87048577D01*
X123916447Y-86983676D01*
X124113623Y-86878284D01*
X124286449Y-86736449D01*
X124428284Y-86563623D01*
X124484203Y-86459005D01*
X125629918Y-87604720D01*
X125635026Y-87614276D01*
X125729999Y-87730001D01*
X125735491Y-87734508D01*
X125739999Y-87740001D01*
X125855724Y-87834974D01*
X125917366Y-87867923D01*
X125940498Y-87944180D01*
X125999463Y-88054494D01*
X126078815Y-88151185D01*
X126175506Y-88230537D01*
X126285820Y-88289502D01*
X126405518Y-88325812D01*
X126530000Y-88338072D01*
X127530000Y-88338072D01*
X127654482Y-88325812D01*
X127774180Y-88289502D01*
X127852379Y-88247703D01*
X127863553Y-88253676D01*
X128077501Y-88318577D01*
X128244248Y-88335000D01*
X128355752Y-88335000D01*
X128359800Y-88334601D01*
X129036201Y-89011003D01*
X129059999Y-89040001D01*
X129175724Y-89134974D01*
X129307753Y-89205546D01*
X129451014Y-89249003D01*
X129562667Y-89260000D01*
X129562675Y-89260000D01*
X129600000Y-89263676D01*
X129637325Y-89260000D01*
X135262678Y-89260000D01*
X135300000Y-89263676D01*
X135337322Y-89260000D01*
X135337333Y-89260000D01*
X135448986Y-89249003D01*
X135592247Y-89205546D01*
X135724276Y-89134974D01*
X135840001Y-89040001D01*
X135863804Y-89010997D01*
X137969624Y-86905178D01*
X137998621Y-86881381D01*
X138093594Y-86765656D01*
X138164166Y-86633627D01*
X138207623Y-86490366D01*
X138218620Y-86378713D01*
X138218620Y-86378705D01*
X138222296Y-86341380D01*
X138218620Y-86304055D01*
X138218620Y-81011380D01*
X142507815Y-81011380D01*
X142536487Y-81302491D01*
X142621401Y-81582414D01*
X142759294Y-81840394D01*
X142944866Y-82066514D01*
X143170986Y-82252086D01*
X143225791Y-82281380D01*
X143170986Y-82310674D01*
X142944866Y-82496246D01*
X142759294Y-82722366D01*
X142621401Y-82980346D01*
X142536487Y-83260269D01*
X142507815Y-83551380D01*
X142536487Y-83842491D01*
X142621401Y-84122414D01*
X142759294Y-84380394D01*
X142944866Y-84606514D01*
X143170986Y-84792086D01*
X143225791Y-84821380D01*
X143170986Y-84850674D01*
X142944866Y-85036246D01*
X142759294Y-85262366D01*
X142621401Y-85520346D01*
X142536487Y-85800269D01*
X142507815Y-86091380D01*
X142536487Y-86382491D01*
X142621401Y-86662414D01*
X142759294Y-86920394D01*
X142944866Y-87146514D01*
X143170986Y-87332086D01*
X143225791Y-87361380D01*
X143170986Y-87390674D01*
X142944866Y-87576246D01*
X142759294Y-87802366D01*
X142621401Y-88060346D01*
X142536487Y-88340269D01*
X142507815Y-88631380D01*
X142536487Y-88922491D01*
X142621401Y-89202414D01*
X142759294Y-89460394D01*
X142944866Y-89686514D01*
X143170986Y-89872086D01*
X143225791Y-89901380D01*
X143170986Y-89930674D01*
X142944866Y-90116246D01*
X142759294Y-90342366D01*
X142621401Y-90600346D01*
X142536487Y-90880269D01*
X142507815Y-91171380D01*
X142536487Y-91462491D01*
X142621401Y-91742414D01*
X142759294Y-92000394D01*
X142944866Y-92226514D01*
X143170986Y-92412086D01*
X143225791Y-92441380D01*
X143170986Y-92470674D01*
X142944866Y-92656246D01*
X142759294Y-92882366D01*
X142621401Y-93140346D01*
X142536487Y-93420269D01*
X142507815Y-93711380D01*
X142536487Y-94002491D01*
X142621401Y-94282414D01*
X142759294Y-94540394D01*
X142944866Y-94766514D01*
X143170986Y-94952086D01*
X143225791Y-94981380D01*
X143170986Y-95010674D01*
X142944866Y-95196246D01*
X142759294Y-95422366D01*
X142621401Y-95680346D01*
X142536487Y-95960269D01*
X142507815Y-96251380D01*
X142536487Y-96542491D01*
X142621401Y-96822414D01*
X142759294Y-97080394D01*
X142944866Y-97306514D01*
X143170986Y-97492086D01*
X143225791Y-97521380D01*
X143170986Y-97550674D01*
X142944866Y-97736246D01*
X142759294Y-97962366D01*
X142621401Y-98220346D01*
X142536487Y-98500269D01*
X142507815Y-98791380D01*
X142536487Y-99082491D01*
X142621401Y-99362414D01*
X142759294Y-99620394D01*
X142944866Y-99846514D01*
X143170986Y-100032086D01*
X143225791Y-100061380D01*
X143170986Y-100090674D01*
X142944866Y-100276246D01*
X142759294Y-100502366D01*
X142621401Y-100760346D01*
X142536487Y-101040269D01*
X142507815Y-101331380D01*
X142536487Y-101622491D01*
X142621401Y-101902414D01*
X142759294Y-102160394D01*
X142944866Y-102386514D01*
X143170986Y-102572086D01*
X143428966Y-102709979D01*
X143708889Y-102794893D01*
X143927050Y-102816380D01*
X144072950Y-102816380D01*
X144291111Y-102794893D01*
X144571034Y-102709979D01*
X144829014Y-102572086D01*
X145055134Y-102386514D01*
X145240706Y-102160394D01*
X145378599Y-101902414D01*
X145463513Y-101622491D01*
X145492185Y-101331380D01*
X145463513Y-101040269D01*
X145378599Y-100760346D01*
X145240706Y-100502366D01*
X145055134Y-100276246D01*
X144829014Y-100090674D01*
X144774209Y-100061380D01*
X144829014Y-100032086D01*
X145055134Y-99846514D01*
X145240706Y-99620394D01*
X145378599Y-99362414D01*
X145463513Y-99082491D01*
X145492185Y-98791380D01*
X145463513Y-98500269D01*
X145378599Y-98220346D01*
X145240706Y-97962366D01*
X145055134Y-97736246D01*
X144829014Y-97550674D01*
X144774209Y-97521380D01*
X144829014Y-97492086D01*
X145055134Y-97306514D01*
X145240706Y-97080394D01*
X145378599Y-96822414D01*
X145463513Y-96542491D01*
X145492185Y-96251380D01*
X145463513Y-95960269D01*
X145378599Y-95680346D01*
X145240706Y-95422366D01*
X145055134Y-95196246D01*
X144829014Y-95010674D01*
X144774209Y-94981380D01*
X144829014Y-94952086D01*
X145055134Y-94766514D01*
X145240706Y-94540394D01*
X145378599Y-94282414D01*
X145463513Y-94002491D01*
X145492185Y-93711380D01*
X145463513Y-93420269D01*
X145378599Y-93140346D01*
X145240706Y-92882366D01*
X145055134Y-92656246D01*
X144829014Y-92470674D01*
X144774209Y-92441380D01*
X144829014Y-92412086D01*
X145055134Y-92226514D01*
X145240706Y-92000394D01*
X145378599Y-91742414D01*
X145463513Y-91462491D01*
X145492185Y-91171380D01*
X145463513Y-90880269D01*
X145378599Y-90600346D01*
X145240706Y-90342366D01*
X145055134Y-90116246D01*
X144829014Y-89930674D01*
X144774209Y-89901380D01*
X144829014Y-89872086D01*
X145055134Y-89686514D01*
X145240706Y-89460394D01*
X145378599Y-89202414D01*
X145463513Y-88922491D01*
X145492185Y-88631380D01*
X145463513Y-88340269D01*
X145378599Y-88060346D01*
X145240706Y-87802366D01*
X145055134Y-87576246D01*
X144829014Y-87390674D01*
X144774209Y-87361380D01*
X144829014Y-87332086D01*
X145055134Y-87146514D01*
X145240706Y-86920394D01*
X145378599Y-86662414D01*
X145463513Y-86382491D01*
X145492185Y-86091380D01*
X145463513Y-85800269D01*
X145378599Y-85520346D01*
X145240706Y-85262366D01*
X145055134Y-85036246D01*
X144829014Y-84850674D01*
X144774209Y-84821380D01*
X144829014Y-84792086D01*
X145055134Y-84606514D01*
X145240706Y-84380394D01*
X145378599Y-84122414D01*
X145463513Y-83842491D01*
X145492185Y-83551380D01*
X145463513Y-83260269D01*
X145378599Y-82980346D01*
X145240706Y-82722366D01*
X145055134Y-82496246D01*
X144829014Y-82310674D01*
X144774209Y-82281380D01*
X144829014Y-82252086D01*
X145055134Y-82066514D01*
X145240706Y-81840394D01*
X145378599Y-81582414D01*
X145463513Y-81302491D01*
X145492185Y-81011380D01*
X145463513Y-80720269D01*
X145378599Y-80440346D01*
X145240706Y-80182366D01*
X145055134Y-79956246D01*
X144829014Y-79770674D01*
X144571034Y-79632781D01*
X144291111Y-79547867D01*
X144072950Y-79526380D01*
X143927050Y-79526380D01*
X143708889Y-79547867D01*
X143428966Y-79632781D01*
X143170986Y-79770674D01*
X142944866Y-79956246D01*
X142759294Y-80182366D01*
X142621401Y-80440346D01*
X142536487Y-80720269D01*
X142507815Y-81011380D01*
X138218620Y-81011380D01*
X138218620Y-67745091D01*
X138262557Y-67701154D01*
X138375825Y-67531636D01*
X138453846Y-67343278D01*
X138493620Y-67143319D01*
X138493620Y-66939441D01*
X138453846Y-66739482D01*
X138375825Y-66551124D01*
X138262557Y-66381606D01*
X138118394Y-66237443D01*
X137948876Y-66124175D01*
X137760518Y-66046154D01*
X137560559Y-66006380D01*
X137356681Y-66006380D01*
X137156722Y-66046154D01*
X136968364Y-66124175D01*
X136798846Y-66237443D01*
X136654683Y-66381606D01*
X136541415Y-66551124D01*
X136463394Y-66739482D01*
X136423620Y-66939441D01*
X136423620Y-67143319D01*
X136450366Y-67277781D01*
X136443321Y-67276380D01*
X136239443Y-67276380D01*
X136039484Y-67316154D01*
X135851126Y-67394175D01*
X135681608Y-67507443D01*
X135537445Y-67651606D01*
X135424177Y-67821124D01*
X135346156Y-68009482D01*
X135306382Y-68209441D01*
X135306382Y-68413319D01*
X135346156Y-68613278D01*
X135424177Y-68801636D01*
X135537445Y-68971154D01*
X135581383Y-69015092D01*
X135581382Y-85673816D01*
X134815199Y-86440000D01*
X130894801Y-86440000D01*
X134171003Y-83163799D01*
X134200001Y-83140001D01*
X134294974Y-83024276D01*
X134358750Y-82904961D01*
X134463937Y-82799774D01*
X134577205Y-82630256D01*
X134655226Y-82441898D01*
X134695000Y-82241939D01*
X134695000Y-82038061D01*
X134655226Y-81838102D01*
X134577205Y-81649744D01*
X134463937Y-81480226D01*
X134319774Y-81336063D01*
X134150256Y-81222795D01*
X133961898Y-81144774D01*
X133761939Y-81105000D01*
X133558061Y-81105000D01*
X133358102Y-81144774D01*
X133169744Y-81222795D01*
X133000226Y-81336063D01*
X132856063Y-81480226D01*
X132742795Y-81649744D01*
X132664774Y-81838102D01*
X132625000Y-82038061D01*
X132625000Y-82241939D01*
X132664774Y-82441898D01*
X132687774Y-82497424D01*
X130203532Y-84981667D01*
X130006447Y-84876324D01*
X129792499Y-84811423D01*
X129625752Y-84795000D01*
X129514248Y-84795000D01*
X129347501Y-84811423D01*
X129133553Y-84876324D01*
X128936377Y-84981716D01*
X128763551Y-85123551D01*
X128621716Y-85296377D01*
X128516324Y-85493553D01*
X128451423Y-85707501D01*
X128429509Y-85930000D01*
X128443658Y-86073658D01*
X128355752Y-86065000D01*
X128244248Y-86065000D01*
X128156342Y-86073658D01*
X128170491Y-85930000D01*
X128148577Y-85707501D01*
X128083676Y-85493553D01*
X127978284Y-85296377D01*
X127836449Y-85123551D01*
X127663623Y-84981716D01*
X127466447Y-84876324D01*
X127252499Y-84811423D01*
X127085752Y-84795000D01*
X126974248Y-84795000D01*
X126807501Y-84811423D01*
X126593553Y-84876324D01*
X126396377Y-84981716D01*
X126223551Y-85123551D01*
X126081716Y-85296377D01*
X125976324Y-85493553D01*
X125911423Y-85707501D01*
X125908812Y-85734010D01*
X122263804Y-82089003D01*
X122240001Y-82059999D01*
X122124276Y-81965026D01*
X121992247Y-81894454D01*
X121848986Y-81850997D01*
X121737333Y-81840000D01*
X121737322Y-81840000D01*
X121700000Y-81836324D01*
X121662678Y-81840000D01*
X116914802Y-81840000D01*
X115757237Y-80682436D01*
X115757237Y-66449234D01*
X115775317Y-66431154D01*
X115888585Y-66261636D01*
X115966606Y-66073278D01*
X116006380Y-65873319D01*
X116006380Y-65771380D01*
X142507815Y-65771380D01*
X142536487Y-66062491D01*
X142621401Y-66342414D01*
X142759294Y-66600394D01*
X142944866Y-66826514D01*
X143170986Y-67012086D01*
X143225791Y-67041380D01*
X143170986Y-67070674D01*
X142944866Y-67256246D01*
X142759294Y-67482366D01*
X142621401Y-67740346D01*
X142536487Y-68020269D01*
X142507815Y-68311380D01*
X142536487Y-68602491D01*
X142621401Y-68882414D01*
X142759294Y-69140394D01*
X142944866Y-69366514D01*
X143170986Y-69552086D01*
X143225791Y-69581380D01*
X143170986Y-69610674D01*
X142944866Y-69796246D01*
X142759294Y-70022366D01*
X142621401Y-70280346D01*
X142536487Y-70560269D01*
X142507815Y-70851380D01*
X142536487Y-71142491D01*
X142621401Y-71422414D01*
X142759294Y-71680394D01*
X142944866Y-71906514D01*
X143170986Y-72092086D01*
X143225791Y-72121380D01*
X143170986Y-72150674D01*
X142944866Y-72336246D01*
X142759294Y-72562366D01*
X142621401Y-72820346D01*
X142536487Y-73100269D01*
X142507815Y-73391380D01*
X142536487Y-73682491D01*
X142621401Y-73962414D01*
X142759294Y-74220394D01*
X142944866Y-74446514D01*
X143170986Y-74632086D01*
X143225791Y-74661380D01*
X143170986Y-74690674D01*
X142944866Y-74876246D01*
X142759294Y-75102366D01*
X142621401Y-75360346D01*
X142536487Y-75640269D01*
X142507815Y-75931380D01*
X142536487Y-76222491D01*
X142621401Y-76502414D01*
X142759294Y-76760394D01*
X142944866Y-76986514D01*
X143170986Y-77172086D01*
X143428966Y-77309979D01*
X143708889Y-77394893D01*
X143927050Y-77416380D01*
X144072950Y-77416380D01*
X144291111Y-77394893D01*
X144571034Y-77309979D01*
X144829014Y-77172086D01*
X145055134Y-76986514D01*
X145240706Y-76760394D01*
X145378599Y-76502414D01*
X145463513Y-76222491D01*
X145492185Y-75931380D01*
X145463513Y-75640269D01*
X145378599Y-75360346D01*
X145240706Y-75102366D01*
X145055134Y-74876246D01*
X144829014Y-74690674D01*
X144774209Y-74661380D01*
X144829014Y-74632086D01*
X145055134Y-74446514D01*
X145240706Y-74220394D01*
X145378599Y-73962414D01*
X145463513Y-73682491D01*
X145492185Y-73391380D01*
X145463513Y-73100269D01*
X145378599Y-72820346D01*
X145240706Y-72562366D01*
X145055134Y-72336246D01*
X144829014Y-72150674D01*
X144774209Y-72121380D01*
X144829014Y-72092086D01*
X145055134Y-71906514D01*
X145240706Y-71680394D01*
X145378599Y-71422414D01*
X145463513Y-71142491D01*
X145492185Y-70851380D01*
X145463513Y-70560269D01*
X145378599Y-70280346D01*
X145240706Y-70022366D01*
X145055134Y-69796246D01*
X144829014Y-69610674D01*
X144774209Y-69581380D01*
X144829014Y-69552086D01*
X145055134Y-69366514D01*
X145240706Y-69140394D01*
X145378599Y-68882414D01*
X145463513Y-68602491D01*
X145492185Y-68311380D01*
X145463513Y-68020269D01*
X145378599Y-67740346D01*
X145240706Y-67482366D01*
X145055134Y-67256246D01*
X144829014Y-67070674D01*
X144774209Y-67041380D01*
X144829014Y-67012086D01*
X145055134Y-66826514D01*
X145240706Y-66600394D01*
X145378599Y-66342414D01*
X145463513Y-66062491D01*
X145492185Y-65771380D01*
X145463513Y-65480269D01*
X145378599Y-65200346D01*
X145240706Y-64942366D01*
X145055134Y-64716246D01*
X144829014Y-64530674D01*
X144571034Y-64392781D01*
X144291111Y-64307867D01*
X144072950Y-64286380D01*
X143927050Y-64286380D01*
X143708889Y-64307867D01*
X143428966Y-64392781D01*
X143170986Y-64530674D01*
X142944866Y-64716246D01*
X142759294Y-64942366D01*
X142621401Y-65200346D01*
X142536487Y-65480269D01*
X142507815Y-65771380D01*
X116006380Y-65771380D01*
X116006380Y-65669441D01*
X115966606Y-65469482D01*
X115888585Y-65281124D01*
X115775317Y-65111606D01*
X115631154Y-64967443D01*
X115461636Y-64854175D01*
X115273278Y-64776154D01*
X115073319Y-64736380D01*
X114869441Y-64736380D01*
X114669482Y-64776154D01*
X114481124Y-64854175D01*
X114311606Y-64967443D01*
X114167443Y-65111606D01*
X114054175Y-65281124D01*
X113976154Y-65469482D01*
X113936380Y-65669441D01*
X113936380Y-65873319D01*
X113976154Y-66073278D01*
X114054175Y-66261636D01*
X114167443Y-66431154D01*
X114237237Y-66500948D01*
X114237238Y-80959904D01*
X114233561Y-80997237D01*
X114248235Y-81146222D01*
X114291691Y-81289483D01*
X114362263Y-81421513D01*
X114372884Y-81434454D01*
X114457237Y-81537238D01*
X114486235Y-81561036D01*
X115885173Y-82959975D01*
X115875724Y-82965026D01*
X115759999Y-83059999D01*
X115736201Y-83088997D01*
X114188998Y-84636201D01*
X114160000Y-84659999D01*
X114136202Y-84688997D01*
X114136201Y-84688998D01*
X114065026Y-84775724D01*
X113994454Y-84907754D01*
X113972019Y-84981716D01*
X113951614Y-85048985D01*
X113950998Y-85051015D01*
X113936324Y-85200000D01*
X113940001Y-85237332D01*
X113940000Y-87696289D01*
X113896063Y-87740226D01*
X113782795Y-87909744D01*
X113704774Y-88098102D01*
X113665000Y-88298061D01*
X111585000Y-88298061D01*
X111585000Y-66843465D01*
X111589281Y-66799999D01*
X111585000Y-66756533D01*
X111585000Y-66756523D01*
X111572195Y-66626510D01*
X111521589Y-66459687D01*
X111439411Y-66305941D01*
X111383196Y-66237443D01*
X111356532Y-66204953D01*
X111356530Y-66204951D01*
X111328817Y-66171183D01*
X111295050Y-66143471D01*
X110327914Y-65176336D01*
X110300197Y-65142563D01*
X110165439Y-65031969D01*
X110011693Y-64949791D01*
X109844870Y-64899185D01*
X109714857Y-64886380D01*
X109714849Y-64886380D01*
X109671380Y-64882099D01*
X109627911Y-64886380D01*
X108194759Y-64886380D01*
X108055134Y-64716246D01*
X107829014Y-64530674D01*
X107571034Y-64392781D01*
X107291111Y-64307867D01*
X107072950Y-64286380D01*
X106927050Y-64286380D01*
X106708889Y-64307867D01*
X106428966Y-64392781D01*
X106170986Y-64530674D01*
X105944866Y-64716246D01*
X105759294Y-64942366D01*
X105621401Y-65200346D01*
X105536487Y-65480269D01*
X105507815Y-65771380D01*
X105195000Y-65771380D01*
X105195000Y-61695000D01*
X110623000Y-61695000D01*
X110623000Y-62000000D01*
X110623000Y-62000000D01*
G37*
X110623000Y-62000000D02*
X110625440Y-62024776D01*
X110632667Y-62048601D01*
X110644403Y-62070557D01*
X110660197Y-62089803D01*
X110679443Y-62105597D01*
X110701399Y-62117333D01*
X110725224Y-62124560D01*
X110750000Y-62127000D01*
X139750000Y-62127000D01*
X139774776Y-62124560D01*
X139798601Y-62117333D01*
X139820557Y-62105597D01*
X139839803Y-62089803D01*
X139855597Y-62070557D01*
X139867333Y-62048601D01*
X139874560Y-62024776D01*
X139877000Y-62000000D01*
X139877000Y-61695000D01*
X145805000Y-61695000D01*
X145805001Y-139305000D01*
X105195000Y-139305000D01*
X105195000Y-137452100D01*
X121456515Y-137452100D01*
X121485187Y-137743211D01*
X121570101Y-138023134D01*
X121707994Y-138281114D01*
X121893566Y-138507234D01*
X122119686Y-138692806D01*
X122377666Y-138830699D01*
X122657589Y-138915613D01*
X122875750Y-138937100D01*
X123021650Y-138937100D01*
X123239811Y-138915613D01*
X123519734Y-138830699D01*
X123777714Y-138692806D01*
X124003834Y-138507234D01*
X124189406Y-138281114D01*
X124327299Y-138023134D01*
X124412213Y-137743211D01*
X124440885Y-137452100D01*
X124412213Y-137160989D01*
X124327299Y-136881066D01*
X124189406Y-136623086D01*
X124003834Y-136396966D01*
X123777714Y-136211394D01*
X123519734Y-136073501D01*
X123239811Y-135988587D01*
X123021650Y-135967100D01*
X122875750Y-135967100D01*
X122657589Y-135988587D01*
X122377666Y-136073501D01*
X122119686Y-136211394D01*
X121893566Y-136396966D01*
X121707994Y-136623086D01*
X121570101Y-136881066D01*
X121485187Y-137160989D01*
X121456515Y-137452100D01*
X105195000Y-137452100D01*
X105195000Y-132836995D01*
X111075480Y-132836995D01*
X111075480Y-133228005D01*
X111151762Y-133611503D01*
X111301395Y-133972750D01*
X111518629Y-134297864D01*
X111795116Y-134574351D01*
X112120230Y-134791585D01*
X112481477Y-134941218D01*
X112864975Y-135017500D01*
X113255985Y-135017500D01*
X113639483Y-134941218D01*
X114000730Y-134791585D01*
X114325844Y-134574351D01*
X114602331Y-134297864D01*
X114819565Y-133972750D01*
X114969198Y-133611503D01*
X115045480Y-133228005D01*
X115045480Y-132836995D01*
X114970706Y-132461075D01*
X137547500Y-132461075D01*
X137547500Y-132852085D01*
X137623782Y-133235583D01*
X137773415Y-133596830D01*
X137990649Y-133921944D01*
X138267136Y-134198431D01*
X138592250Y-134415665D01*
X138953497Y-134565298D01*
X139336995Y-134641580D01*
X139728005Y-134641580D01*
X140111503Y-134565298D01*
X140472750Y-134415665D01*
X140797864Y-134198431D01*
X141074351Y-133921944D01*
X141291585Y-133596830D01*
X141441218Y-133235583D01*
X141517500Y-132852085D01*
X141517500Y-132461075D01*
X141441218Y-132077577D01*
X141291585Y-131716330D01*
X141074351Y-131391216D01*
X140797864Y-131114729D01*
X140472750Y-130897495D01*
X140111503Y-130747862D01*
X139728005Y-130671580D01*
X139336995Y-130671580D01*
X138953497Y-130747862D01*
X138592250Y-130897495D01*
X138267136Y-131114729D01*
X137990649Y-131391216D01*
X137773415Y-131716330D01*
X137623782Y-132077577D01*
X137547500Y-132461075D01*
X114970706Y-132461075D01*
X114969198Y-132453497D01*
X114819565Y-132092250D01*
X114602331Y-131767136D01*
X114325844Y-131490649D01*
X114000730Y-131273415D01*
X113639483Y-131123782D01*
X113255985Y-131047500D01*
X112864975Y-131047500D01*
X112481477Y-131123782D01*
X112120230Y-131273415D01*
X111795116Y-131490649D01*
X111518629Y-131767136D01*
X111301395Y-132092250D01*
X111151762Y-132453497D01*
X111075480Y-132836995D01*
X105195000Y-132836995D01*
X105195000Y-128798061D01*
X124665000Y-128798061D01*
X124665000Y-129001939D01*
X124704774Y-129201898D01*
X124782795Y-129390256D01*
X124896063Y-129559774D01*
X125040226Y-129703937D01*
X125209744Y-129817205D01*
X125398102Y-129895226D01*
X125598061Y-129935000D01*
X125801939Y-129935000D01*
X126001898Y-129895226D01*
X126190256Y-129817205D01*
X126359774Y-129703937D01*
X126403711Y-129660000D01*
X127696440Y-129660000D01*
X127704774Y-129701898D01*
X127782795Y-129890256D01*
X127896063Y-130059774D01*
X128040226Y-130203937D01*
X128209744Y-130317205D01*
X128398102Y-130395226D01*
X128598061Y-130435000D01*
X128801939Y-130435000D01*
X129001898Y-130395226D01*
X129190256Y-130317205D01*
X129359774Y-130203937D01*
X129503937Y-130059774D01*
X129617205Y-129890256D01*
X129695226Y-129701898D01*
X129735000Y-129501939D01*
X129735000Y-129298061D01*
X129695226Y-129098102D01*
X129617205Y-128909744D01*
X129503937Y-128740226D01*
X129359774Y-128596063D01*
X129190256Y-128482795D01*
X129001898Y-128404774D01*
X128801939Y-128365000D01*
X128744105Y-128365000D01*
X128740001Y-128359999D01*
X128624276Y-128265026D01*
X128492247Y-128194454D01*
X128348986Y-128150997D01*
X128237333Y-128140000D01*
X128237322Y-128140000D01*
X128200000Y-128136324D01*
X128162678Y-128140000D01*
X126403711Y-128140000D01*
X126359774Y-128096063D01*
X126190256Y-127982795D01*
X126001898Y-127904774D01*
X125801939Y-127865000D01*
X125598061Y-127865000D01*
X125398102Y-127904774D01*
X125209744Y-127982795D01*
X125040226Y-128096063D01*
X124896063Y-128240226D01*
X124782795Y-128409744D01*
X124704774Y-128598102D01*
X124665000Y-128798061D01*
X105195000Y-128798061D01*
X105195000Y-119127000D01*
X114750000Y-119127000D01*
X114774776Y-119124560D01*
X114798601Y-119117333D01*
X114820557Y-119105597D01*
X114839803Y-119089803D01*
X114855597Y-119070557D01*
X114867333Y-119048601D01*
X114874560Y-119024776D01*
X114877000Y-119000000D01*
X114877000Y-118098921D01*
X117037320Y-118098921D01*
X117037320Y-118302799D01*
X117077094Y-118502758D01*
X117155115Y-118691116D01*
X117268383Y-118860634D01*
X117412546Y-119004797D01*
X117582064Y-119118065D01*
X117770422Y-119196086D01*
X117970381Y-119235860D01*
X118174259Y-119235860D01*
X118374218Y-119196086D01*
X118562576Y-119118065D01*
X118715000Y-119016219D01*
X118715000Y-119027799D01*
X118754774Y-119227758D01*
X118832795Y-119416116D01*
X118946063Y-119585634D01*
X119090226Y-119729797D01*
X119259744Y-119843065D01*
X119448102Y-119921086D01*
X119648061Y-119960860D01*
X119851939Y-119960860D01*
X120051898Y-119921086D01*
X120240256Y-119843065D01*
X120409774Y-119729797D01*
X120453711Y-119685860D01*
X126286818Y-119685860D01*
X126324140Y-119689536D01*
X126361462Y-119685860D01*
X126361473Y-119685860D01*
X126473126Y-119674863D01*
X126616387Y-119631406D01*
X126748416Y-119560834D01*
X126864141Y-119465861D01*
X126887944Y-119436857D01*
X127789802Y-118535000D01*
X127851939Y-118535000D01*
X128051898Y-118495226D01*
X128240256Y-118417205D01*
X128409774Y-118303937D01*
X128553937Y-118159774D01*
X128667205Y-117990256D01*
X128745226Y-117801898D01*
X128785000Y-117601939D01*
X128785000Y-117398061D01*
X128745226Y-117198102D01*
X128667205Y-117009744D01*
X128553937Y-116840226D01*
X128409774Y-116696063D01*
X128240256Y-116582795D01*
X128051898Y-116504774D01*
X127851939Y-116465000D01*
X127648061Y-116465000D01*
X127448102Y-116504774D01*
X127259744Y-116582795D01*
X127090226Y-116696063D01*
X126946063Y-116840226D01*
X126832795Y-117009744D01*
X126754774Y-117198102D01*
X126715000Y-117398061D01*
X126715000Y-117460198D01*
X126025500Y-118149699D01*
X126035000Y-118101939D01*
X126035000Y-117898061D01*
X125995226Y-117698102D01*
X125917205Y-117509744D01*
X125803937Y-117340226D01*
X125659774Y-117196063D01*
X125490256Y-117082795D01*
X125301898Y-117004774D01*
X125101939Y-116965000D01*
X124898061Y-116965000D01*
X124698102Y-117004774D01*
X124509744Y-117082795D01*
X124340226Y-117196063D01*
X124196063Y-117340226D01*
X124128822Y-117440860D01*
X118776031Y-117440860D01*
X118732094Y-117396923D01*
X118562576Y-117283655D01*
X118374218Y-117205634D01*
X118174259Y-117165860D01*
X117970381Y-117165860D01*
X117770422Y-117205634D01*
X117582064Y-117283655D01*
X117412546Y-117396923D01*
X117268383Y-117541086D01*
X117155115Y-117710604D01*
X117077094Y-117898962D01*
X117037320Y-118098921D01*
X114877000Y-118098921D01*
X114877000Y-115877000D01*
X121000000Y-115877000D01*
X121024776Y-115874560D01*
X121048601Y-115867333D01*
X121070557Y-115855597D01*
X121089803Y-115839803D01*
X121105597Y-115820557D01*
X121117333Y-115798601D01*
X121124560Y-115774776D01*
X121127000Y-115750000D01*
X121127000Y-112507741D01*
X122355320Y-112507741D01*
X122355320Y-112711619D01*
X122395094Y-112911578D01*
X122473115Y-113099936D01*
X122586383Y-113269454D01*
X122730546Y-113413617D01*
X122900064Y-113526885D01*
X123088422Y-113604906D01*
X123288381Y-113644680D01*
X123492259Y-113644680D01*
X123692218Y-113604906D01*
X123880576Y-113526885D01*
X124050094Y-113413617D01*
X124194257Y-113269454D01*
X124200574Y-113260000D01*
X130296289Y-113260000D01*
X130340226Y-113303937D01*
X130509744Y-113417205D01*
X130698102Y-113495226D01*
X130898061Y-113535000D01*
X131101939Y-113535000D01*
X131301898Y-113495226D01*
X131490256Y-113417205D01*
X131659774Y-113303937D01*
X131803937Y-113159774D01*
X131917205Y-112990256D01*
X131995226Y-112801898D01*
X132035000Y-112601939D01*
X132035000Y-112398061D01*
X131995226Y-112198102D01*
X131917205Y-112009744D01*
X131803937Y-111840226D01*
X131659774Y-111696063D01*
X131490256Y-111582795D01*
X131301898Y-111504774D01*
X131101939Y-111465000D01*
X130898061Y-111465000D01*
X130698102Y-111504774D01*
X130509744Y-111582795D01*
X130340226Y-111696063D01*
X130296289Y-111740000D01*
X123951702Y-111740000D01*
X123880576Y-111692475D01*
X123692218Y-111614454D01*
X123492259Y-111574680D01*
X123288381Y-111574680D01*
X123088422Y-111614454D01*
X122900064Y-111692475D01*
X122730546Y-111805743D01*
X122586383Y-111949906D01*
X122473115Y-112119424D01*
X122395094Y-112307782D01*
X122355320Y-112507741D01*
X121127000Y-112507741D01*
X121127000Y-108250000D01*
X121124560Y-108225224D01*
X121117333Y-108201399D01*
X121105597Y-108179443D01*
X121089803Y-108160197D01*
X121070557Y-108144403D01*
X121048601Y-108132667D01*
X121024776Y-108125440D01*
X121000000Y-108123000D01*
X105195000Y-108123000D01*
X105195000Y-101331380D01*
X105507815Y-101331380D01*
X105536487Y-101622491D01*
X105621401Y-101902414D01*
X105759294Y-102160394D01*
X105944866Y-102386514D01*
X106170986Y-102572086D01*
X106428966Y-102709979D01*
X106708889Y-102794893D01*
X106927050Y-102816380D01*
X107072950Y-102816380D01*
X107291111Y-102794893D01*
X107571034Y-102709979D01*
X107829014Y-102572086D01*
X108055134Y-102386514D01*
X108240706Y-102160394D01*
X108378599Y-101902414D01*
X108463513Y-101622491D01*
X108492185Y-101331380D01*
X108463513Y-101040269D01*
X108378599Y-100760346D01*
X108240706Y-100502366D01*
X108055134Y-100276246D01*
X107829014Y-100090674D01*
X107571034Y-99952781D01*
X107291111Y-99867867D01*
X107072950Y-99846380D01*
X106927050Y-99846380D01*
X106708889Y-99867867D01*
X106428966Y-99952781D01*
X106170986Y-100090674D01*
X105944866Y-100276246D01*
X105759294Y-100502366D01*
X105621401Y-100760346D01*
X105536487Y-101040269D01*
X105507815Y-101331380D01*
X105195000Y-101331380D01*
X105195000Y-65771380D01*
X105507815Y-65771380D01*
X105536487Y-66062491D01*
X105621401Y-66342414D01*
X105759294Y-66600394D01*
X105944866Y-66826514D01*
X106170986Y-67012086D01*
X106225791Y-67041380D01*
X106170986Y-67070674D01*
X105944866Y-67256246D01*
X105759294Y-67482366D01*
X105621401Y-67740346D01*
X105536487Y-68020269D01*
X105507815Y-68311380D01*
X105536487Y-68602491D01*
X105621401Y-68882414D01*
X105759294Y-69140394D01*
X105944866Y-69366514D01*
X106170986Y-69552086D01*
X106225791Y-69581380D01*
X106170986Y-69610674D01*
X105944866Y-69796246D01*
X105759294Y-70022366D01*
X105621401Y-70280346D01*
X105536487Y-70560269D01*
X105507815Y-70851380D01*
X105536487Y-71142491D01*
X105621401Y-71422414D01*
X105759294Y-71680394D01*
X105944866Y-71906514D01*
X106170986Y-72092086D01*
X106225791Y-72121380D01*
X106170986Y-72150674D01*
X105944866Y-72336246D01*
X105759294Y-72562366D01*
X105621401Y-72820346D01*
X105536487Y-73100269D01*
X105507815Y-73391380D01*
X105536487Y-73682491D01*
X105621401Y-73962414D01*
X105759294Y-74220394D01*
X105944866Y-74446514D01*
X106170986Y-74632086D01*
X106225791Y-74661380D01*
X106170986Y-74690674D01*
X105944866Y-74876246D01*
X105759294Y-75102366D01*
X105621401Y-75360346D01*
X105536487Y-75640269D01*
X105507815Y-75931380D01*
X105536487Y-76222491D01*
X105621401Y-76502414D01*
X105759294Y-76760394D01*
X105944866Y-76986514D01*
X106170986Y-77172086D01*
X106225791Y-77201380D01*
X106170986Y-77230674D01*
X105944866Y-77416246D01*
X105759294Y-77642366D01*
X105621401Y-77900346D01*
X105536487Y-78180269D01*
X105507815Y-78471380D01*
X105536487Y-78762491D01*
X105621401Y-79042414D01*
X105759294Y-79300394D01*
X105944866Y-79526514D01*
X106170986Y-79712086D01*
X106225791Y-79741380D01*
X106170986Y-79770674D01*
X105944866Y-79956246D01*
X105759294Y-80182366D01*
X105621401Y-80440346D01*
X105536487Y-80720269D01*
X105507815Y-81011380D01*
X105536487Y-81302491D01*
X105621401Y-81582414D01*
X105759294Y-81840394D01*
X105944866Y-82066514D01*
X106170986Y-82252086D01*
X106225791Y-82281380D01*
X106170986Y-82310674D01*
X105944866Y-82496246D01*
X105759294Y-82722366D01*
X105621401Y-82980346D01*
X105536487Y-83260269D01*
X105507815Y-83551380D01*
X105536487Y-83842491D01*
X105621401Y-84122414D01*
X105759294Y-84380394D01*
X105944866Y-84606514D01*
X106170986Y-84792086D01*
X106225791Y-84821380D01*
X106170986Y-84850674D01*
X105944866Y-85036246D01*
X105759294Y-85262366D01*
X105621401Y-85520346D01*
X105536487Y-85800269D01*
X105507815Y-86091380D01*
X105536487Y-86382491D01*
X105621401Y-86662414D01*
X105759294Y-86920394D01*
X105944866Y-87146514D01*
X106170986Y-87332086D01*
X106225791Y-87361380D01*
X106170986Y-87390674D01*
X105944866Y-87576246D01*
X105759294Y-87802366D01*
X105621401Y-88060346D01*
X105536487Y-88340269D01*
X105507815Y-88631380D01*
X105536487Y-88922491D01*
X105621401Y-89202414D01*
X105759294Y-89460394D01*
X105944866Y-89686514D01*
X106170986Y-89872086D01*
X106225791Y-89901380D01*
X106170986Y-89930674D01*
X105944866Y-90116246D01*
X105759294Y-90342366D01*
X105621401Y-90600346D01*
X105536487Y-90880269D01*
X105507815Y-91171380D01*
X105536487Y-91462491D01*
X105621401Y-91742414D01*
X105759294Y-92000394D01*
X105944866Y-92226514D01*
X106170986Y-92412086D01*
X106225791Y-92441380D01*
X106170986Y-92470674D01*
X105944866Y-92656246D01*
X105759294Y-92882366D01*
X105621401Y-93140346D01*
X105536487Y-93420269D01*
X105507815Y-93711380D01*
X105536487Y-94002491D01*
X105621401Y-94282414D01*
X105759294Y-94540394D01*
X105944866Y-94766514D01*
X106170986Y-94952086D01*
X106225791Y-94981380D01*
X106170986Y-95010674D01*
X105944866Y-95196246D01*
X105759294Y-95422366D01*
X105621401Y-95680346D01*
X105536487Y-95960269D01*
X105507815Y-96251380D01*
X105536487Y-96542491D01*
X105621401Y-96822414D01*
X105759294Y-97080394D01*
X105944866Y-97306514D01*
X106170986Y-97492086D01*
X106428966Y-97629979D01*
X106708889Y-97714893D01*
X106927050Y-97736380D01*
X107072950Y-97736380D01*
X107291111Y-97714893D01*
X107571034Y-97629979D01*
X107829014Y-97492086D01*
X108055134Y-97306514D01*
X108240706Y-97080394D01*
X108378599Y-96822414D01*
X108463513Y-96542491D01*
X108492185Y-96251380D01*
X108463513Y-95960269D01*
X108378599Y-95680346D01*
X108240706Y-95422366D01*
X108055134Y-95196246D01*
X107829014Y-95010674D01*
X107774209Y-94981380D01*
X107829014Y-94952086D01*
X108055134Y-94766514D01*
X108240706Y-94540394D01*
X108378599Y-94282414D01*
X108463513Y-94002491D01*
X108492185Y-93711380D01*
X108463513Y-93420269D01*
X108378599Y-93140346D01*
X108240706Y-92882366D01*
X108055134Y-92656246D01*
X107829014Y-92470674D01*
X107774209Y-92441380D01*
X107829014Y-92412086D01*
X108055134Y-92226514D01*
X108240706Y-92000394D01*
X108378599Y-91742414D01*
X108463513Y-91462491D01*
X108492185Y-91171380D01*
X108463513Y-90880269D01*
X108378599Y-90600346D01*
X108240706Y-90342366D01*
X108055134Y-90116246D01*
X107829014Y-89930674D01*
X107774209Y-89901380D01*
X107829014Y-89872086D01*
X108055134Y-89686514D01*
X108240706Y-89460394D01*
X108378599Y-89202414D01*
X108463513Y-88922491D01*
X108492185Y-88631380D01*
X108463513Y-88340269D01*
X108378599Y-88060346D01*
X108240706Y-87802366D01*
X108055134Y-87576246D01*
X107829014Y-87390674D01*
X107774209Y-87361380D01*
X107829014Y-87332086D01*
X108055134Y-87146514D01*
X108240706Y-86920394D01*
X108378599Y-86662414D01*
X108463513Y-86382491D01*
X108492185Y-86091380D01*
X108463513Y-85800269D01*
X108378599Y-85520346D01*
X108240706Y-85262366D01*
X108055134Y-85036246D01*
X107829014Y-84850674D01*
X107774209Y-84821380D01*
X107829014Y-84792086D01*
X108055134Y-84606514D01*
X108240706Y-84380394D01*
X108378599Y-84122414D01*
X108463513Y-83842491D01*
X108492185Y-83551380D01*
X108463513Y-83260269D01*
X108378599Y-82980346D01*
X108240706Y-82722366D01*
X108055134Y-82496246D01*
X107829014Y-82310674D01*
X107774209Y-82281380D01*
X107829014Y-82252086D01*
X108055134Y-82066514D01*
X108240706Y-81840394D01*
X108378599Y-81582414D01*
X108463513Y-81302491D01*
X108492185Y-81011380D01*
X108463513Y-80720269D01*
X108378599Y-80440346D01*
X108240706Y-80182366D01*
X108055134Y-79956246D01*
X107829014Y-79770674D01*
X107774209Y-79741380D01*
X107829014Y-79712086D01*
X108055134Y-79526514D01*
X108240706Y-79300394D01*
X108378599Y-79042414D01*
X108463513Y-78762491D01*
X108492185Y-78471380D01*
X108463513Y-78180269D01*
X108378599Y-77900346D01*
X108240706Y-77642366D01*
X108055134Y-77416246D01*
X107829014Y-77230674D01*
X107774209Y-77201380D01*
X107829014Y-77172086D01*
X108055134Y-76986514D01*
X108240706Y-76760394D01*
X108378599Y-76502414D01*
X108463513Y-76222491D01*
X108492185Y-75931380D01*
X108463513Y-75640269D01*
X108378599Y-75360346D01*
X108240706Y-75102366D01*
X108055134Y-74876246D01*
X107829014Y-74690674D01*
X107774209Y-74661380D01*
X107829014Y-74632086D01*
X108055134Y-74446514D01*
X108240706Y-74220394D01*
X108378599Y-73962414D01*
X108463513Y-73682491D01*
X108492185Y-73391380D01*
X108463513Y-73100269D01*
X108378599Y-72820346D01*
X108240706Y-72562366D01*
X108055134Y-72336246D01*
X107829014Y-72150674D01*
X107774209Y-72121380D01*
X107829014Y-72092086D01*
X108055134Y-71906514D01*
X108240706Y-71680394D01*
X108378599Y-71422414D01*
X108463513Y-71142491D01*
X108492185Y-70851380D01*
X108463513Y-70560269D01*
X108378599Y-70280346D01*
X108240706Y-70022366D01*
X108055134Y-69796246D01*
X107829014Y-69610674D01*
X107774209Y-69581380D01*
X107829014Y-69552086D01*
X108055134Y-69366514D01*
X108240706Y-69140394D01*
X108378599Y-68882414D01*
X108463513Y-68602491D01*
X108492185Y-68311380D01*
X108463513Y-68020269D01*
X108378599Y-67740346D01*
X108240706Y-67482366D01*
X108055134Y-67256246D01*
X107829014Y-67070674D01*
X107774209Y-67041380D01*
X107829014Y-67012086D01*
X108055134Y-66826514D01*
X108194759Y-66656380D01*
X109304802Y-66656380D01*
X109815000Y-67166579D01*
X109815001Y-90556521D01*
X109810719Y-90600000D01*
X109827805Y-90773490D01*
X109878412Y-90940313D01*
X109960590Y-91094059D01*
X110043468Y-91195046D01*
X110043471Y-91195049D01*
X110071184Y-91228817D01*
X110104952Y-91256530D01*
X118943470Y-100095049D01*
X118971183Y-100128817D01*
X119004951Y-100156530D01*
X119004953Y-100156532D01*
X119105941Y-100239411D01*
X119259687Y-100321589D01*
X119426510Y-100372195D01*
X119556523Y-100385000D01*
X119556531Y-100385000D01*
X119600000Y-100389281D01*
X119643469Y-100385000D01*
X121758030Y-100385000D01*
X121780915Y-100440250D01*
X121998149Y-100765364D01*
X122274636Y-101041851D01*
X122505000Y-101195775D01*
X122505001Y-104642546D01*
X122445820Y-104660498D01*
X122335506Y-104719463D01*
X122238815Y-104798815D01*
X122159463Y-104895506D01*
X122100498Y-105005820D01*
X122064188Y-105125518D01*
X122051928Y-105250000D01*
X122051928Y-106950000D01*
X122064188Y-107074482D01*
X122100498Y-107194180D01*
X122159463Y-107304494D01*
X122238815Y-107401185D01*
X122335506Y-107480537D01*
X122445820Y-107539502D01*
X122565518Y-107575812D01*
X122690000Y-107588072D01*
X124390000Y-107588072D01*
X124514482Y-107575812D01*
X124634180Y-107539502D01*
X124744494Y-107480537D01*
X124841185Y-107401185D01*
X124920537Y-107304494D01*
X124979502Y-107194180D01*
X125000393Y-107125313D01*
X125024866Y-107155134D01*
X125250986Y-107340706D01*
X125508966Y-107478599D01*
X125788889Y-107563513D01*
X126007050Y-107585000D01*
X126152950Y-107585000D01*
X126371111Y-107563513D01*
X126651034Y-107478599D01*
X126909014Y-107340706D01*
X127135134Y-107155134D01*
X127320706Y-106929014D01*
X127458599Y-106671034D01*
X127543513Y-106391111D01*
X127572185Y-106100000D01*
X127543513Y-105808889D01*
X127458599Y-105528966D01*
X127320706Y-105270986D01*
X127135134Y-105044866D01*
X126909014Y-104859294D01*
X126651034Y-104721401D01*
X126371111Y-104636487D01*
X126152950Y-104615000D01*
X126007050Y-104615000D01*
X125788889Y-104636487D01*
X125508966Y-104721401D01*
X125250986Y-104859294D01*
X125024866Y-105044866D01*
X125000393Y-105074687D01*
X124979502Y-105005820D01*
X124920537Y-104895506D01*
X124841185Y-104798815D01*
X124744494Y-104719463D01*
X124634180Y-104660498D01*
X124575000Y-104642546D01*
X124575000Y-101195775D01*
X124805364Y-101041851D01*
X125081851Y-100765364D01*
X125299085Y-100440250D01*
X125448718Y-100079003D01*
X125525000Y-99695505D01*
X125525000Y-99304495D01*
X125448718Y-98920997D01*
X125299085Y-98559750D01*
X125081851Y-98234636D01*
X124805364Y-97958149D01*
X124480250Y-97740915D01*
X124119003Y-97591282D01*
X123735505Y-97515000D01*
X123344495Y-97515000D01*
X122960997Y-97591282D01*
X122599750Y-97740915D01*
X122274636Y-97958149D01*
X121998149Y-98234636D01*
X121780915Y-98559750D01*
X121758030Y-98615000D01*
X119966579Y-98615000D01*
X111585000Y-90233422D01*
X111585000Y-88298061D01*
X113665000Y-88298061D01*
X113665000Y-88501939D01*
X113704774Y-88701898D01*
X113782795Y-88890256D01*
X113896063Y-89059774D01*
X114040226Y-89203937D01*
X114209744Y-89317205D01*
X114398102Y-89395226D01*
X114598061Y-89435000D01*
X114801939Y-89435000D01*
X114940000Y-89407538D01*
X114940000Y-89496289D01*
X114896063Y-89540226D01*
X114782795Y-89709744D01*
X114704774Y-89898102D01*
X114665000Y-90098061D01*
X114665000Y-90301939D01*
X114704774Y-90501898D01*
X114782795Y-90690256D01*
X114896063Y-90859774D01*
X115040226Y-91003937D01*
X115209744Y-91117205D01*
X115398102Y-91195226D01*
X115598061Y-91235000D01*
X115801939Y-91235000D01*
X116001898Y-91195226D01*
X116190256Y-91117205D01*
X116203941Y-91108061D01*
X127635000Y-91108061D01*
X127635000Y-91311939D01*
X127674774Y-91511898D01*
X127752795Y-91700256D01*
X127866063Y-91869774D01*
X128010226Y-92013937D01*
X128179744Y-92127205D01*
X128368102Y-92205226D01*
X128568061Y-92245000D01*
X128771939Y-92245000D01*
X128971898Y-92205226D01*
X129160256Y-92127205D01*
X129329774Y-92013937D01*
X129373711Y-91970000D01*
X132956289Y-91970000D01*
X133000226Y-92013937D01*
X133169744Y-92127205D01*
X133358102Y-92205226D01*
X133558061Y-92245000D01*
X133761939Y-92245000D01*
X133961898Y-92205226D01*
X134150256Y-92127205D01*
X134319774Y-92013937D01*
X134463937Y-91869774D01*
X134577205Y-91700256D01*
X134655226Y-91511898D01*
X134695000Y-91311939D01*
X134695000Y-91108061D01*
X134655226Y-90908102D01*
X134577205Y-90719744D01*
X134463937Y-90550226D01*
X134319774Y-90406063D01*
X134150256Y-90292795D01*
X133961898Y-90214774D01*
X133761939Y-90175000D01*
X133558061Y-90175000D01*
X133358102Y-90214774D01*
X133169744Y-90292795D01*
X133000226Y-90406063D01*
X132956289Y-90450000D01*
X129373711Y-90450000D01*
X129329774Y-90406063D01*
X129160256Y-90292795D01*
X128971898Y-90214774D01*
X128771939Y-90175000D01*
X128568061Y-90175000D01*
X128368102Y-90214774D01*
X128179744Y-90292795D01*
X128010226Y-90406063D01*
X127866063Y-90550226D01*
X127752795Y-90719744D01*
X127674774Y-90908102D01*
X127635000Y-91108061D01*
X116203941Y-91108061D01*
X116359774Y-91003937D01*
X116503937Y-90859774D01*
X116617205Y-90690256D01*
X116695226Y-90501898D01*
X116735000Y-90301939D01*
X116735000Y-90098061D01*
X116695226Y-89898102D01*
X116617205Y-89709744D01*
X116503937Y-89540226D01*
X116460000Y-89496289D01*
X116460000Y-86314801D01*
X117114802Y-85660000D01*
X117295832Y-85660000D01*
X117281423Y-85707501D01*
X117259509Y-85930000D01*
X117281423Y-86152499D01*
X117346324Y-86366447D01*
X117352297Y-86377621D01*
X117310498Y-86455820D01*
X117274188Y-86575518D01*
X117261928Y-86700000D01*
X117261928Y-87700000D01*
X117274188Y-87824482D01*
X117310498Y-87944180D01*
X117369463Y-88054494D01*
X117448815Y-88151185D01*
X117545506Y-88230537D01*
X117655820Y-88289502D01*
X117775518Y-88325812D01*
X117900000Y-88338072D01*
X118900000Y-88338072D01*
X119024482Y-88325812D01*
X119144180Y-88289502D01*
X119254494Y-88230537D01*
X119351185Y-88151185D01*
X119430537Y-88054494D01*
X119489502Y-87944180D01*
X119525812Y-87824482D01*
X119538072Y-87700000D01*
X119538072Y-87057497D01*
X119614248Y-87065000D01*
X119725752Y-87065000D01*
X119892499Y-87048577D01*
X120106447Y-86983676D01*
X120303623Y-86878284D01*
X120305000Y-86877154D01*
X120306377Y-86878284D01*
X120503553Y-86983676D01*
X120717501Y-87048577D01*
X120884248Y-87065000D01*
X120995752Y-87065000D01*
X121162499Y-87048577D01*
X121376447Y-86983676D01*
X121573623Y-86878284D01*
X121575000Y-86877154D01*
X121576377Y-86878284D01*
X121773553Y-86983676D01*
X121987501Y-87048577D01*
X122154248Y-87065000D01*
X122265752Y-87065000D01*
X122432499Y-87048577D01*
X122646447Y-86983676D01*
X122843623Y-86878284D01*
X122845000Y-86877154D01*
X122846377Y-86878284D01*
X123043553Y-86983676D01*
X123257501Y-87048577D01*
X123424248Y-87065000D01*
X123535752Y-87065000D01*
X123702499Y-87048577D01*
X123916447Y-86983676D01*
X124113623Y-86878284D01*
X124286449Y-86736449D01*
X124428284Y-86563623D01*
X124484203Y-86459005D01*
X125629918Y-87604720D01*
X125635026Y-87614276D01*
X125729999Y-87730001D01*
X125735491Y-87734508D01*
X125739999Y-87740001D01*
X125855724Y-87834974D01*
X125917366Y-87867923D01*
X125940498Y-87944180D01*
X125999463Y-88054494D01*
X126078815Y-88151185D01*
X126175506Y-88230537D01*
X126285820Y-88289502D01*
X126405518Y-88325812D01*
X126530000Y-88338072D01*
X127530000Y-88338072D01*
X127654482Y-88325812D01*
X127774180Y-88289502D01*
X127852379Y-88247703D01*
X127863553Y-88253676D01*
X128077501Y-88318577D01*
X128244248Y-88335000D01*
X128355752Y-88335000D01*
X128359800Y-88334601D01*
X129036201Y-89011003D01*
X129059999Y-89040001D01*
X129175724Y-89134974D01*
X129307753Y-89205546D01*
X129451014Y-89249003D01*
X129562667Y-89260000D01*
X129562675Y-89260000D01*
X129600000Y-89263676D01*
X129637325Y-89260000D01*
X135262678Y-89260000D01*
X135300000Y-89263676D01*
X135337322Y-89260000D01*
X135337333Y-89260000D01*
X135448986Y-89249003D01*
X135592247Y-89205546D01*
X135724276Y-89134974D01*
X135840001Y-89040001D01*
X135863804Y-89010997D01*
X137969624Y-86905178D01*
X137998621Y-86881381D01*
X138093594Y-86765656D01*
X138164166Y-86633627D01*
X138207623Y-86490366D01*
X138218620Y-86378713D01*
X138218620Y-86378705D01*
X138222296Y-86341380D01*
X138218620Y-86304055D01*
X138218620Y-81011380D01*
X142507815Y-81011380D01*
X142536487Y-81302491D01*
X142621401Y-81582414D01*
X142759294Y-81840394D01*
X142944866Y-82066514D01*
X143170986Y-82252086D01*
X143225791Y-82281380D01*
X143170986Y-82310674D01*
X142944866Y-82496246D01*
X142759294Y-82722366D01*
X142621401Y-82980346D01*
X142536487Y-83260269D01*
X142507815Y-83551380D01*
X142536487Y-83842491D01*
X142621401Y-84122414D01*
X142759294Y-84380394D01*
X142944866Y-84606514D01*
X143170986Y-84792086D01*
X143225791Y-84821380D01*
X143170986Y-84850674D01*
X142944866Y-85036246D01*
X142759294Y-85262366D01*
X142621401Y-85520346D01*
X142536487Y-85800269D01*
X142507815Y-86091380D01*
X142536487Y-86382491D01*
X142621401Y-86662414D01*
X142759294Y-86920394D01*
X142944866Y-87146514D01*
X143170986Y-87332086D01*
X143225791Y-87361380D01*
X143170986Y-87390674D01*
X142944866Y-87576246D01*
X142759294Y-87802366D01*
X142621401Y-88060346D01*
X142536487Y-88340269D01*
X142507815Y-88631380D01*
X142536487Y-88922491D01*
X142621401Y-89202414D01*
X142759294Y-89460394D01*
X142944866Y-89686514D01*
X143170986Y-89872086D01*
X143225791Y-89901380D01*
X143170986Y-89930674D01*
X142944866Y-90116246D01*
X142759294Y-90342366D01*
X142621401Y-90600346D01*
X142536487Y-90880269D01*
X142507815Y-91171380D01*
X142536487Y-91462491D01*
X142621401Y-91742414D01*
X142759294Y-92000394D01*
X142944866Y-92226514D01*
X143170986Y-92412086D01*
X143225791Y-92441380D01*
X143170986Y-92470674D01*
X142944866Y-92656246D01*
X142759294Y-92882366D01*
X142621401Y-93140346D01*
X142536487Y-93420269D01*
X142507815Y-93711380D01*
X142536487Y-94002491D01*
X142621401Y-94282414D01*
X142759294Y-94540394D01*
X142944866Y-94766514D01*
X143170986Y-94952086D01*
X143225791Y-94981380D01*
X143170986Y-95010674D01*
X142944866Y-95196246D01*
X142759294Y-95422366D01*
X142621401Y-95680346D01*
X142536487Y-95960269D01*
X142507815Y-96251380D01*
X142536487Y-96542491D01*
X142621401Y-96822414D01*
X142759294Y-97080394D01*
X142944866Y-97306514D01*
X143170986Y-97492086D01*
X143225791Y-97521380D01*
X143170986Y-97550674D01*
X142944866Y-97736246D01*
X142759294Y-97962366D01*
X142621401Y-98220346D01*
X142536487Y-98500269D01*
X142507815Y-98791380D01*
X142536487Y-99082491D01*
X142621401Y-99362414D01*
X142759294Y-99620394D01*
X142944866Y-99846514D01*
X143170986Y-100032086D01*
X143225791Y-100061380D01*
X143170986Y-100090674D01*
X142944866Y-100276246D01*
X142759294Y-100502366D01*
X142621401Y-100760346D01*
X142536487Y-101040269D01*
X142507815Y-101331380D01*
X142536487Y-101622491D01*
X142621401Y-101902414D01*
X142759294Y-102160394D01*
X142944866Y-102386514D01*
X143170986Y-102572086D01*
X143428966Y-102709979D01*
X143708889Y-102794893D01*
X143927050Y-102816380D01*
X144072950Y-102816380D01*
X144291111Y-102794893D01*
X144571034Y-102709979D01*
X144829014Y-102572086D01*
X145055134Y-102386514D01*
X145240706Y-102160394D01*
X145378599Y-101902414D01*
X145463513Y-101622491D01*
X145492185Y-101331380D01*
X145463513Y-101040269D01*
X145378599Y-100760346D01*
X145240706Y-100502366D01*
X145055134Y-100276246D01*
X144829014Y-100090674D01*
X144774209Y-100061380D01*
X144829014Y-100032086D01*
X145055134Y-99846514D01*
X145240706Y-99620394D01*
X145378599Y-99362414D01*
X145463513Y-99082491D01*
X145492185Y-98791380D01*
X145463513Y-98500269D01*
X145378599Y-98220346D01*
X145240706Y-97962366D01*
X145055134Y-97736246D01*
X144829014Y-97550674D01*
X144774209Y-97521380D01*
X144829014Y-97492086D01*
X145055134Y-97306514D01*
X145240706Y-97080394D01*
X145378599Y-96822414D01*
X145463513Y-96542491D01*
X145492185Y-96251380D01*
X145463513Y-95960269D01*
X145378599Y-95680346D01*
X145240706Y-95422366D01*
X145055134Y-95196246D01*
X144829014Y-95010674D01*
X144774209Y-94981380D01*
X144829014Y-94952086D01*
X145055134Y-94766514D01*
X145240706Y-94540394D01*
X145378599Y-94282414D01*
X145463513Y-94002491D01*
X145492185Y-93711380D01*
X145463513Y-93420269D01*
X145378599Y-93140346D01*
X145240706Y-92882366D01*
X145055134Y-92656246D01*
X144829014Y-92470674D01*
X144774209Y-92441380D01*
X144829014Y-92412086D01*
X145055134Y-92226514D01*
X145240706Y-92000394D01*
X145378599Y-91742414D01*
X145463513Y-91462491D01*
X145492185Y-91171380D01*
X145463513Y-90880269D01*
X145378599Y-90600346D01*
X145240706Y-90342366D01*
X145055134Y-90116246D01*
X144829014Y-89930674D01*
X144774209Y-89901380D01*
X144829014Y-89872086D01*
X145055134Y-89686514D01*
X145240706Y-89460394D01*
X145378599Y-89202414D01*
X145463513Y-88922491D01*
X145492185Y-88631380D01*
X145463513Y-88340269D01*
X145378599Y-88060346D01*
X145240706Y-87802366D01*
X145055134Y-87576246D01*
X144829014Y-87390674D01*
X144774209Y-87361380D01*
X144829014Y-87332086D01*
X145055134Y-87146514D01*
X145240706Y-86920394D01*
X145378599Y-86662414D01*
X145463513Y-86382491D01*
X145492185Y-86091380D01*
X145463513Y-85800269D01*
X145378599Y-85520346D01*
X145240706Y-85262366D01*
X145055134Y-85036246D01*
X144829014Y-84850674D01*
X144774209Y-84821380D01*
X144829014Y-84792086D01*
X145055134Y-84606514D01*
X145240706Y-84380394D01*
X145378599Y-84122414D01*
X145463513Y-83842491D01*
X145492185Y-83551380D01*
X145463513Y-83260269D01*
X145378599Y-82980346D01*
X145240706Y-82722366D01*
X145055134Y-82496246D01*
X144829014Y-82310674D01*
X144774209Y-82281380D01*
X144829014Y-82252086D01*
X145055134Y-82066514D01*
X145240706Y-81840394D01*
X145378599Y-81582414D01*
X145463513Y-81302491D01*
X145492185Y-81011380D01*
X145463513Y-80720269D01*
X145378599Y-80440346D01*
X145240706Y-80182366D01*
X145055134Y-79956246D01*
X144829014Y-79770674D01*
X144571034Y-79632781D01*
X144291111Y-79547867D01*
X144072950Y-79526380D01*
X143927050Y-79526380D01*
X143708889Y-79547867D01*
X143428966Y-79632781D01*
X143170986Y-79770674D01*
X142944866Y-79956246D01*
X142759294Y-80182366D01*
X142621401Y-80440346D01*
X142536487Y-80720269D01*
X142507815Y-81011380D01*
X138218620Y-81011380D01*
X138218620Y-67745091D01*
X138262557Y-67701154D01*
X138375825Y-67531636D01*
X138453846Y-67343278D01*
X138493620Y-67143319D01*
X138493620Y-66939441D01*
X138453846Y-66739482D01*
X138375825Y-66551124D01*
X138262557Y-66381606D01*
X138118394Y-66237443D01*
X137948876Y-66124175D01*
X137760518Y-66046154D01*
X137560559Y-66006380D01*
X137356681Y-66006380D01*
X137156722Y-66046154D01*
X136968364Y-66124175D01*
X136798846Y-66237443D01*
X136654683Y-66381606D01*
X136541415Y-66551124D01*
X136463394Y-66739482D01*
X136423620Y-66939441D01*
X136423620Y-67143319D01*
X136450366Y-67277781D01*
X136443321Y-67276380D01*
X136239443Y-67276380D01*
X136039484Y-67316154D01*
X135851126Y-67394175D01*
X135681608Y-67507443D01*
X135537445Y-67651606D01*
X135424177Y-67821124D01*
X135346156Y-68009482D01*
X135306382Y-68209441D01*
X135306382Y-68413319D01*
X135346156Y-68613278D01*
X135424177Y-68801636D01*
X135537445Y-68971154D01*
X135581383Y-69015092D01*
X135581382Y-85673816D01*
X134815199Y-86440000D01*
X130894801Y-86440000D01*
X134171003Y-83163799D01*
X134200001Y-83140001D01*
X134294974Y-83024276D01*
X134358750Y-82904961D01*
X134463937Y-82799774D01*
X134577205Y-82630256D01*
X134655226Y-82441898D01*
X134695000Y-82241939D01*
X134695000Y-82038061D01*
X134655226Y-81838102D01*
X134577205Y-81649744D01*
X134463937Y-81480226D01*
X134319774Y-81336063D01*
X134150256Y-81222795D01*
X133961898Y-81144774D01*
X133761939Y-81105000D01*
X133558061Y-81105000D01*
X133358102Y-81144774D01*
X133169744Y-81222795D01*
X133000226Y-81336063D01*
X132856063Y-81480226D01*
X132742795Y-81649744D01*
X132664774Y-81838102D01*
X132625000Y-82038061D01*
X132625000Y-82241939D01*
X132664774Y-82441898D01*
X132687774Y-82497424D01*
X130203532Y-84981667D01*
X130006447Y-84876324D01*
X129792499Y-84811423D01*
X129625752Y-84795000D01*
X129514248Y-84795000D01*
X129347501Y-84811423D01*
X129133553Y-84876324D01*
X128936377Y-84981716D01*
X128763551Y-85123551D01*
X128621716Y-85296377D01*
X128516324Y-85493553D01*
X128451423Y-85707501D01*
X128429509Y-85930000D01*
X128443658Y-86073658D01*
X128355752Y-86065000D01*
X128244248Y-86065000D01*
X128156342Y-86073658D01*
X128170491Y-85930000D01*
X128148577Y-85707501D01*
X128083676Y-85493553D01*
X127978284Y-85296377D01*
X127836449Y-85123551D01*
X127663623Y-84981716D01*
X127466447Y-84876324D01*
X127252499Y-84811423D01*
X127085752Y-84795000D01*
X126974248Y-84795000D01*
X126807501Y-84811423D01*
X126593553Y-84876324D01*
X126396377Y-84981716D01*
X126223551Y-85123551D01*
X126081716Y-85296377D01*
X125976324Y-85493553D01*
X125911423Y-85707501D01*
X125908812Y-85734010D01*
X122263804Y-82089003D01*
X122240001Y-82059999D01*
X122124276Y-81965026D01*
X121992247Y-81894454D01*
X121848986Y-81850997D01*
X121737333Y-81840000D01*
X121737322Y-81840000D01*
X121700000Y-81836324D01*
X121662678Y-81840000D01*
X116914802Y-81840000D01*
X115757237Y-80682436D01*
X115757237Y-66449234D01*
X115775317Y-66431154D01*
X115888585Y-66261636D01*
X115966606Y-66073278D01*
X116006380Y-65873319D01*
X116006380Y-65771380D01*
X142507815Y-65771380D01*
X142536487Y-66062491D01*
X142621401Y-66342414D01*
X142759294Y-66600394D01*
X142944866Y-66826514D01*
X143170986Y-67012086D01*
X143225791Y-67041380D01*
X143170986Y-67070674D01*
X142944866Y-67256246D01*
X142759294Y-67482366D01*
X142621401Y-67740346D01*
X142536487Y-68020269D01*
X142507815Y-68311380D01*
X142536487Y-68602491D01*
X142621401Y-68882414D01*
X142759294Y-69140394D01*
X142944866Y-69366514D01*
X143170986Y-69552086D01*
X143225791Y-69581380D01*
X143170986Y-69610674D01*
X142944866Y-69796246D01*
X142759294Y-70022366D01*
X142621401Y-70280346D01*
X142536487Y-70560269D01*
X142507815Y-70851380D01*
X142536487Y-71142491D01*
X142621401Y-71422414D01*
X142759294Y-71680394D01*
X142944866Y-71906514D01*
X143170986Y-72092086D01*
X143225791Y-72121380D01*
X143170986Y-72150674D01*
X142944866Y-72336246D01*
X142759294Y-72562366D01*
X142621401Y-72820346D01*
X142536487Y-73100269D01*
X142507815Y-73391380D01*
X142536487Y-73682491D01*
X142621401Y-73962414D01*
X142759294Y-74220394D01*
X142944866Y-74446514D01*
X143170986Y-74632086D01*
X143225791Y-74661380D01*
X143170986Y-74690674D01*
X142944866Y-74876246D01*
X142759294Y-75102366D01*
X142621401Y-75360346D01*
X142536487Y-75640269D01*
X142507815Y-75931380D01*
X142536487Y-76222491D01*
X142621401Y-76502414D01*
X142759294Y-76760394D01*
X142944866Y-76986514D01*
X143170986Y-77172086D01*
X143428966Y-77309979D01*
X143708889Y-77394893D01*
X143927050Y-77416380D01*
X144072950Y-77416380D01*
X144291111Y-77394893D01*
X144571034Y-77309979D01*
X144829014Y-77172086D01*
X145055134Y-76986514D01*
X145240706Y-76760394D01*
X145378599Y-76502414D01*
X145463513Y-76222491D01*
X145492185Y-75931380D01*
X145463513Y-75640269D01*
X145378599Y-75360346D01*
X145240706Y-75102366D01*
X145055134Y-74876246D01*
X144829014Y-74690674D01*
X144774209Y-74661380D01*
X144829014Y-74632086D01*
X145055134Y-74446514D01*
X145240706Y-74220394D01*
X145378599Y-73962414D01*
X145463513Y-73682491D01*
X145492185Y-73391380D01*
X145463513Y-73100269D01*
X145378599Y-72820346D01*
X145240706Y-72562366D01*
X145055134Y-72336246D01*
X144829014Y-72150674D01*
X144774209Y-72121380D01*
X144829014Y-72092086D01*
X145055134Y-71906514D01*
X145240706Y-71680394D01*
X145378599Y-71422414D01*
X145463513Y-71142491D01*
X145492185Y-70851380D01*
X145463513Y-70560269D01*
X145378599Y-70280346D01*
X145240706Y-70022366D01*
X145055134Y-69796246D01*
X144829014Y-69610674D01*
X144774209Y-69581380D01*
X144829014Y-69552086D01*
X145055134Y-69366514D01*
X145240706Y-69140394D01*
X145378599Y-68882414D01*
X145463513Y-68602491D01*
X145492185Y-68311380D01*
X145463513Y-68020269D01*
X145378599Y-67740346D01*
X145240706Y-67482366D01*
X145055134Y-67256246D01*
X144829014Y-67070674D01*
X144774209Y-67041380D01*
X144829014Y-67012086D01*
X145055134Y-66826514D01*
X145240706Y-66600394D01*
X145378599Y-66342414D01*
X145463513Y-66062491D01*
X145492185Y-65771380D01*
X145463513Y-65480269D01*
X145378599Y-65200346D01*
X145240706Y-64942366D01*
X145055134Y-64716246D01*
X144829014Y-64530674D01*
X144571034Y-64392781D01*
X144291111Y-64307867D01*
X144072950Y-64286380D01*
X143927050Y-64286380D01*
X143708889Y-64307867D01*
X143428966Y-64392781D01*
X143170986Y-64530674D01*
X142944866Y-64716246D01*
X142759294Y-64942366D01*
X142621401Y-65200346D01*
X142536487Y-65480269D01*
X142507815Y-65771380D01*
X116006380Y-65771380D01*
X116006380Y-65669441D01*
X115966606Y-65469482D01*
X115888585Y-65281124D01*
X115775317Y-65111606D01*
X115631154Y-64967443D01*
X115461636Y-64854175D01*
X115273278Y-64776154D01*
X115073319Y-64736380D01*
X114869441Y-64736380D01*
X114669482Y-64776154D01*
X114481124Y-64854175D01*
X114311606Y-64967443D01*
X114167443Y-65111606D01*
X114054175Y-65281124D01*
X113976154Y-65469482D01*
X113936380Y-65669441D01*
X113936380Y-65873319D01*
X113976154Y-66073278D01*
X114054175Y-66261636D01*
X114167443Y-66431154D01*
X114237237Y-66500948D01*
X114237238Y-80959904D01*
X114233561Y-80997237D01*
X114248235Y-81146222D01*
X114291691Y-81289483D01*
X114362263Y-81421513D01*
X114372884Y-81434454D01*
X114457237Y-81537238D01*
X114486235Y-81561036D01*
X115885173Y-82959975D01*
X115875724Y-82965026D01*
X115759999Y-83059999D01*
X115736201Y-83088997D01*
X114188998Y-84636201D01*
X114160000Y-84659999D01*
X114136202Y-84688997D01*
X114136201Y-84688998D01*
X114065026Y-84775724D01*
X113994454Y-84907754D01*
X113972019Y-84981716D01*
X113951614Y-85048985D01*
X113950998Y-85051015D01*
X113936324Y-85200000D01*
X113940001Y-85237332D01*
X113940000Y-87696289D01*
X113896063Y-87740226D01*
X113782795Y-87909744D01*
X113704774Y-88098102D01*
X113665000Y-88298061D01*
X111585000Y-88298061D01*
X111585000Y-66843465D01*
X111589281Y-66799999D01*
X111585000Y-66756533D01*
X111585000Y-66756523D01*
X111572195Y-66626510D01*
X111521589Y-66459687D01*
X111439411Y-66305941D01*
X111383196Y-66237443D01*
X111356532Y-66204953D01*
X111356530Y-66204951D01*
X111328817Y-66171183D01*
X111295050Y-66143471D01*
X110327914Y-65176336D01*
X110300197Y-65142563D01*
X110165439Y-65031969D01*
X110011693Y-64949791D01*
X109844870Y-64899185D01*
X109714857Y-64886380D01*
X109714849Y-64886380D01*
X109671380Y-64882099D01*
X109627911Y-64886380D01*
X108194759Y-64886380D01*
X108055134Y-64716246D01*
X107829014Y-64530674D01*
X107571034Y-64392781D01*
X107291111Y-64307867D01*
X107072950Y-64286380D01*
X106927050Y-64286380D01*
X106708889Y-64307867D01*
X106428966Y-64392781D01*
X106170986Y-64530674D01*
X105944866Y-64716246D01*
X105759294Y-64942366D01*
X105621401Y-65200346D01*
X105536487Y-65480269D01*
X105507815Y-65771380D01*
X105195000Y-65771380D01*
X105195000Y-61695000D01*
X110623000Y-61695000D01*
X110623000Y-62000000D01*
M02*
