G04 #@! TF.GenerationSoftware,KiCad,Pcbnew,(5.1.2)-2*
G04 #@! TF.CreationDate,2019-10-16T12:38:49+08:00*
G04 #@! TF.ProjectId,ESP32-Solar-Battery,45535033-322d-4536-9f6c-61722d426174,rev?*
G04 #@! TF.SameCoordinates,Original*
G04 #@! TF.FileFunction,Legend,Top*
G04 #@! TF.FilePolarity,Positive*
%FSLAX46Y46*%
G04 Gerber Fmt 4.6, Leading zero omitted, Abs format (unit mm)*
G04 Created by KiCad (PCBNEW (5.1.2)-2) date 2019-10-16 12:38:49*
%MOMM*%
%LPD*%
G04 APERTURE LIST*
%ADD10C,0.120000*%
%ADD11C,0.150000*%
%ADD12C,0.200000*%
%ADD13C,0.080000*%
%ADD14C,0.100000*%
%ADD15C,0.254000*%
G04 APERTURE END LIST*
D10*
X119750000Y-130750000D02*
X121902760Y-132135561D01*
X127750000Y-135500000D02*
X127250000Y-136500000D01*
X121750000Y-135500000D02*
X121750000Y-133750000D01*
X127750000Y-135500000D02*
X121750000Y-135500000D01*
X127750000Y-133750000D02*
X127750000Y-135500000D01*
X121750000Y-133750000D02*
X127750000Y-133750000D01*
X133250000Y-136500000D02*
X127250000Y-136500000D01*
X133250000Y-138000000D02*
X133250000Y-136500000D01*
X127250000Y-138000000D02*
X133250000Y-138000000D01*
X127250000Y-136500000D02*
X127250000Y-138000000D01*
X126520000Y-90249721D02*
X126520000Y-90575279D01*
X127540000Y-90249721D02*
X127540000Y-90575279D01*
X117890000Y-90249721D02*
X117890000Y-90575279D01*
X118910000Y-90249721D02*
X118910000Y-90575279D01*
X117640000Y-88330000D02*
X117640000Y-87200000D01*
X118400000Y-88330000D02*
X117640000Y-88330000D01*
X117705000Y-85622470D02*
X117705000Y-84800000D01*
X117705000Y-86440000D02*
X117705000Y-86237530D01*
X117836529Y-86440000D02*
X117705000Y-86440000D01*
X119106529Y-86440000D02*
X118963471Y-86440000D01*
X119160000Y-86636529D02*
X119160000Y-86493471D01*
X119160000Y-88330000D02*
X119160000Y-87763471D01*
X117705000Y-84800000D02*
X124175000Y-84800000D01*
X119160000Y-88330000D02*
X124175000Y-88330000D01*
X124175000Y-86892470D02*
X124175000Y-86237530D01*
X124175000Y-85622470D02*
X124175000Y-84800000D01*
X124175000Y-88330000D02*
X124175000Y-87507530D01*
X126270000Y-88330000D02*
X126270000Y-87200000D01*
X127030000Y-88330000D02*
X126270000Y-88330000D01*
X126335000Y-85622470D02*
X126335000Y-84800000D01*
X126335000Y-86440000D02*
X126335000Y-86237530D01*
X126466529Y-86440000D02*
X126335000Y-86440000D01*
X127736529Y-86440000D02*
X127593471Y-86440000D01*
X127790000Y-86636529D02*
X127790000Y-86493471D01*
X127790000Y-88330000D02*
X127790000Y-87763471D01*
X126335000Y-84800000D02*
X130265000Y-84800000D01*
X127790000Y-88330000D02*
X130265000Y-88330000D01*
X130265000Y-86892470D02*
X130265000Y-86237530D01*
X130265000Y-85622470D02*
X130265000Y-84800000D01*
X130265000Y-88330000D02*
X130265000Y-87507530D01*
X142670000Y-61901380D02*
X144000000Y-61901380D01*
X142670000Y-63231380D02*
X142670000Y-61901380D01*
X142670000Y-64501380D02*
X145330000Y-64501380D01*
X145330000Y-64501380D02*
X145330000Y-102661380D01*
X142670000Y-64501380D02*
X142670000Y-102661380D01*
X142670000Y-102661380D02*
X145330000Y-102661380D01*
X105670000Y-61901380D02*
X107000000Y-61901380D01*
X105670000Y-63231380D02*
X105670000Y-61901380D01*
X105670000Y-64501380D02*
X108330000Y-64501380D01*
X108330000Y-64501380D02*
X108330000Y-102661380D01*
X105670000Y-64501380D02*
X105670000Y-102661380D01*
X105670000Y-102661380D02*
X108330000Y-102661380D01*
X130297936Y-119210000D02*
X134402064Y-119210000D01*
X130297936Y-115790000D02*
X134402064Y-115790000D01*
D11*
X121642320Y-121544040D02*
X121642320Y-117404040D01*
X116502320Y-122474040D02*
X116502320Y-117404040D01*
D10*
X123937080Y-130869940D02*
X123937080Y-133319940D01*
X127157080Y-132669940D02*
X127157080Y-130869940D01*
X134155040Y-89250279D02*
X134155040Y-88924721D01*
X133135040Y-89250279D02*
X133135040Y-88924721D01*
X109240000Y-66396101D02*
X109240000Y-66721659D01*
X110260000Y-66396101D02*
X110260000Y-66721659D01*
X130846720Y-126350000D02*
X130846720Y-125300000D01*
X129046720Y-126350000D02*
X130846720Y-126350000D01*
X130846720Y-123050000D02*
X130846720Y-124100000D01*
X128446720Y-123050000D02*
X130846720Y-123050000D01*
X119350000Y-113950000D02*
X119350000Y-103950000D01*
X111150000Y-113950000D02*
X111150000Y-103950000D01*
X130360000Y-99800000D02*
X129760000Y-99500000D01*
X130360000Y-99200000D02*
X130360000Y-99800000D01*
X129760000Y-99500000D02*
X130360000Y-99200000D01*
X121480000Y-94590000D02*
X129560000Y-94590000D01*
X121480000Y-101610000D02*
X121480000Y-94590000D01*
X122680000Y-101610000D02*
X121480000Y-101610000D01*
X122680000Y-103310000D02*
X122680000Y-101610000D01*
X128360000Y-103310000D02*
X122680000Y-103310000D01*
X128360000Y-101610000D02*
X128360000Y-103310000D01*
X129560000Y-101610000D02*
X128360000Y-101610000D01*
X129560000Y-94590000D02*
X129560000Y-101610000D01*
X132712500Y-132356580D02*
X133312500Y-132656580D01*
X132712500Y-132956580D02*
X132712500Y-132356580D01*
X133312500Y-132656580D02*
X132712500Y-132956580D01*
X141592500Y-137566580D02*
X133512500Y-137566580D01*
X141592500Y-130546580D02*
X141592500Y-137566580D01*
X140392500Y-130546580D02*
X141592500Y-130546580D01*
X140392500Y-128846580D02*
X140392500Y-130546580D01*
X134712500Y-128846580D02*
X140392500Y-128846580D01*
X134712500Y-130546580D02*
X134712500Y-128846580D01*
X133512500Y-130546580D02*
X134712500Y-130546580D01*
X133512500Y-137566580D02*
X133512500Y-130546580D01*
X126818700Y-136122100D02*
X126818700Y-137452100D01*
X125488700Y-136122100D02*
X126818700Y-136122100D01*
X124218700Y-136122100D02*
X124218700Y-138782100D01*
X124218700Y-138782100D02*
X121618700Y-138782100D01*
X124218700Y-136122100D02*
X121618700Y-136122100D01*
X121618700Y-136122100D02*
X121618700Y-138782100D01*
X122210000Y-107430000D02*
X122210000Y-106100000D01*
X123540000Y-107430000D02*
X122210000Y-107430000D01*
X124810000Y-107430000D02*
X124810000Y-104770000D01*
X124810000Y-104770000D02*
X127410000Y-104770000D01*
X124810000Y-107430000D02*
X127410000Y-107430000D01*
X127410000Y-107430000D02*
X127410000Y-104770000D01*
X132910040Y-84427500D02*
X132910040Y-86712500D01*
X134380040Y-84427500D02*
X132910040Y-84427500D01*
X134380040Y-86712500D02*
X134380040Y-84427500D01*
X122390320Y-123650000D02*
X122390320Y-119750000D01*
X124390320Y-123650000D02*
X124390320Y-119750000D01*
X122390320Y-123650000D02*
X124390320Y-123650000D01*
X127696720Y-131400000D02*
X127696720Y-127500000D01*
X129696720Y-131400000D02*
X129696720Y-127500000D01*
X127696720Y-131400000D02*
X129696720Y-131400000D01*
X133190000Y-107349721D02*
X133190000Y-107675279D01*
X134210000Y-107349721D02*
X134210000Y-107675279D01*
X119636221Y-133639020D02*
X119961779Y-133639020D01*
X119636221Y-132619020D02*
X119961779Y-132619020D01*
X112760000Y-63876659D02*
X112760000Y-63551101D01*
X111740000Y-63876659D02*
X111740000Y-63551101D01*
X114510000Y-63876659D02*
X114510000Y-63551101D01*
X113490000Y-63876659D02*
X113490000Y-63551101D01*
X112124721Y-67856380D02*
X112450279Y-67856380D01*
X112124721Y-66836380D02*
X112450279Y-66836380D01*
X106240480Y-132732500D02*
X106840480Y-133032500D01*
X106240480Y-133332500D02*
X106240480Y-132732500D01*
X106840480Y-133032500D02*
X106240480Y-133332500D01*
X115120480Y-137942500D02*
X107040480Y-137942500D01*
X115120480Y-130922500D02*
X115120480Y-137942500D01*
X113920480Y-130922500D02*
X115120480Y-130922500D01*
X113920480Y-129222500D02*
X113920480Y-130922500D01*
X108240480Y-129222500D02*
X113920480Y-129222500D01*
X108240480Y-130922500D02*
X108240480Y-129222500D01*
X107040480Y-130922500D02*
X108240480Y-130922500D01*
X107040480Y-137942500D02*
X107040480Y-130922500D01*
X135010000Y-124200279D02*
X135010000Y-123874721D01*
X133990000Y-124200279D02*
X133990000Y-123874721D01*
X132046999Y-121290000D02*
X131721441Y-121290000D01*
X132046999Y-122310000D02*
X131721441Y-122310000D01*
X120562320Y-124549721D02*
X120562320Y-124875279D01*
X121582320Y-124549721D02*
X121582320Y-124875279D01*
X123900320Y-125675279D02*
X123900320Y-125349721D01*
X122880320Y-125675279D02*
X122880320Y-125349721D01*
X115549721Y-128102540D02*
X115875279Y-128102540D01*
X115549721Y-127082540D02*
X115875279Y-127082540D01*
X121902760Y-132135561D02*
X121902760Y-132461119D01*
X122922760Y-132135561D02*
X122922760Y-132461119D01*
X124015041Y-115711920D02*
X124340599Y-115711920D01*
X124015041Y-114691920D02*
X124340599Y-114691920D01*
X124340599Y-116416580D02*
X124015041Y-116416580D01*
X124340599Y-117436580D02*
X124015041Y-117436580D01*
X126484699Y-134112540D02*
X126159141Y-134112540D01*
X126484699Y-135132540D02*
X126159141Y-135132540D01*
X128186720Y-133707821D02*
X128186720Y-134033379D01*
X129206720Y-133707821D02*
X129206720Y-134033379D01*
X123014421Y-135132540D02*
X123339979Y-135132540D01*
X123014421Y-134112540D02*
X123339979Y-134112540D01*
D12*
X129200000Y-108825000D02*
X129200000Y-107775000D01*
X132150000Y-107425000D02*
X129250000Y-107425000D01*
X132150000Y-106975000D02*
X132150000Y-107425000D01*
X129250000Y-106975000D02*
X132150000Y-106975000D01*
X129250000Y-107425000D02*
X129250000Y-106975000D01*
X135800000Y-123775000D02*
X135800000Y-122725000D01*
X138750000Y-122375000D02*
X135850000Y-122375000D01*
X138750000Y-121925000D02*
X138750000Y-122375000D01*
X135850000Y-121925000D02*
X138750000Y-121925000D01*
X135850000Y-122375000D02*
X135850000Y-121925000D01*
X107250000Y-119975000D02*
X107250000Y-118925000D01*
X110200000Y-118575000D02*
X107300000Y-118575000D01*
X110200000Y-118125000D02*
X110200000Y-118575000D01*
X107300000Y-118125000D02*
X110200000Y-118125000D01*
X107300000Y-118575000D02*
X107300000Y-118125000D01*
D10*
X114227500Y-126485000D02*
X116512500Y-126485000D01*
X114227500Y-125015000D02*
X114227500Y-126485000D01*
X116512500Y-125015000D02*
X114227500Y-125015000D01*
X122915279Y-92690000D02*
X122589721Y-92690000D01*
X122915279Y-93710000D02*
X122589721Y-93710000D01*
X137625279Y-126490000D02*
X137299721Y-126490000D01*
X137625279Y-127510000D02*
X137299721Y-127510000D01*
X133450279Y-113490000D02*
X133124721Y-113490000D01*
X133450279Y-114510000D02*
X133124721Y-114510000D01*
X124015041Y-114010000D02*
X124340599Y-114010000D01*
X124015041Y-112990000D02*
X124340599Y-112990000D01*
X124015041Y-111760000D02*
X124340599Y-111760000D01*
X124015041Y-110740000D02*
X124340599Y-110740000D01*
X118990000Y-126124721D02*
X118990000Y-126450279D01*
X120010000Y-126124721D02*
X120010000Y-126450279D01*
X114049721Y-122534040D02*
X114375279Y-122534040D01*
X114049721Y-121514040D02*
X114375279Y-121514040D01*
X109075279Y-123490000D02*
X108749721Y-123490000D01*
X109075279Y-124510000D02*
X108749721Y-124510000D01*
X109075279Y-125240000D02*
X108749721Y-125240000D01*
X109075279Y-126260000D02*
X108749721Y-126260000D01*
X109075279Y-126990000D02*
X108749721Y-126990000D01*
X109075279Y-128010000D02*
X108749721Y-128010000D01*
X123972359Y-128390000D02*
X123646801Y-128390000D01*
X123972359Y-129410000D02*
X123646801Y-129410000D01*
X116025040Y-62041380D02*
X115645040Y-62041380D01*
X116025040Y-55621380D02*
X116025040Y-62041380D01*
X134265040Y-55621380D02*
X134265040Y-62041380D01*
X116025040Y-55621380D02*
X134265040Y-55621380D01*
X134265040Y-81366380D02*
X133265040Y-81366380D01*
X134265040Y-80586380D02*
X134265040Y-81366380D01*
X116025040Y-81366380D02*
X117025040Y-81366380D01*
X116025040Y-80586380D02*
X116025040Y-81366380D01*
X136140000Y-106720000D02*
X137600000Y-106720000D01*
X136140000Y-109880000D02*
X138300000Y-109880000D01*
X136140000Y-109880000D02*
X136140000Y-108950000D01*
X136140000Y-106720000D02*
X136140000Y-107650000D01*
D11*
X128912380Y-91531547D02*
X128436190Y-91864880D01*
X128912380Y-92102976D02*
X127912380Y-92102976D01*
X127912380Y-91722023D01*
X127960000Y-91626785D01*
X128007619Y-91579166D01*
X128102857Y-91531547D01*
X128245714Y-91531547D01*
X128340952Y-91579166D01*
X128388571Y-91626785D01*
X128436190Y-91722023D01*
X128436190Y-92102976D01*
X127912380Y-91198214D02*
X127912380Y-90579166D01*
X128293333Y-90912500D01*
X128293333Y-90769642D01*
X128340952Y-90674404D01*
X128388571Y-90626785D01*
X128483809Y-90579166D01*
X128721904Y-90579166D01*
X128817142Y-90626785D01*
X128864761Y-90674404D01*
X128912380Y-90769642D01*
X128912380Y-91055357D01*
X128864761Y-91150595D01*
X128817142Y-91198214D01*
X127912380Y-89960119D02*
X127912380Y-89864880D01*
X127960000Y-89769642D01*
X128007619Y-89722023D01*
X128102857Y-89674404D01*
X128293333Y-89626785D01*
X128531428Y-89626785D01*
X128721904Y-89674404D01*
X128817142Y-89722023D01*
X128864761Y-89769642D01*
X128912380Y-89864880D01*
X128912380Y-89960119D01*
X128864761Y-90055357D01*
X128817142Y-90102976D01*
X128721904Y-90150595D01*
X128531428Y-90198214D01*
X128293333Y-90198214D01*
X128102857Y-90150595D01*
X128007619Y-90102976D01*
X127960000Y-90055357D01*
X127912380Y-89960119D01*
X128007619Y-89245833D02*
X127960000Y-89198214D01*
X127912380Y-89102976D01*
X127912380Y-88864880D01*
X127960000Y-88769642D01*
X128007619Y-88722023D01*
X128102857Y-88674404D01*
X128198095Y-88674404D01*
X128340952Y-88722023D01*
X128912380Y-89293452D01*
X128912380Y-88674404D01*
X120282380Y-91531547D02*
X119806190Y-91864880D01*
X120282380Y-92102976D02*
X119282380Y-92102976D01*
X119282380Y-91722023D01*
X119330000Y-91626785D01*
X119377619Y-91579166D01*
X119472857Y-91531547D01*
X119615714Y-91531547D01*
X119710952Y-91579166D01*
X119758571Y-91626785D01*
X119806190Y-91722023D01*
X119806190Y-92102976D01*
X119282380Y-91198214D02*
X119282380Y-90579166D01*
X119663333Y-90912500D01*
X119663333Y-90769642D01*
X119710952Y-90674404D01*
X119758571Y-90626785D01*
X119853809Y-90579166D01*
X120091904Y-90579166D01*
X120187142Y-90626785D01*
X120234761Y-90674404D01*
X120282380Y-90769642D01*
X120282380Y-91055357D01*
X120234761Y-91150595D01*
X120187142Y-91198214D01*
X119282380Y-89960119D02*
X119282380Y-89864880D01*
X119330000Y-89769642D01*
X119377619Y-89722023D01*
X119472857Y-89674404D01*
X119663333Y-89626785D01*
X119901428Y-89626785D01*
X120091904Y-89674404D01*
X120187142Y-89722023D01*
X120234761Y-89769642D01*
X120282380Y-89864880D01*
X120282380Y-89960119D01*
X120234761Y-90055357D01*
X120187142Y-90102976D01*
X120091904Y-90150595D01*
X119901428Y-90198214D01*
X119663333Y-90198214D01*
X119472857Y-90150595D01*
X119377619Y-90102976D01*
X119330000Y-90055357D01*
X119282380Y-89960119D01*
X120282380Y-88674404D02*
X120282380Y-89245833D01*
X120282380Y-88960119D02*
X119282380Y-88960119D01*
X119425238Y-89055357D01*
X119520476Y-89150595D01*
X119568095Y-89245833D01*
X121214285Y-83452380D02*
X121214285Y-84166666D01*
X121166666Y-84309523D01*
X121071428Y-84404761D01*
X120928571Y-84452380D01*
X120833333Y-84452380D01*
X121595238Y-83452380D02*
X122214285Y-83452380D01*
X121880952Y-83833333D01*
X122023809Y-83833333D01*
X122119047Y-83880952D01*
X122166666Y-83928571D01*
X122214285Y-84023809D01*
X122214285Y-84261904D01*
X122166666Y-84357142D01*
X122119047Y-84404761D01*
X122023809Y-84452380D01*
X121738095Y-84452380D01*
X121642857Y-84404761D01*
X121595238Y-84357142D01*
X122833333Y-83452380D02*
X122928571Y-83452380D01*
X123023809Y-83500000D01*
X123071428Y-83547619D01*
X123119047Y-83642857D01*
X123166666Y-83833333D01*
X123166666Y-84071428D01*
X123119047Y-84261904D01*
X123071428Y-84357142D01*
X123023809Y-84404761D01*
X122928571Y-84452380D01*
X122833333Y-84452380D01*
X122738095Y-84404761D01*
X122690476Y-84357142D01*
X122642857Y-84261904D01*
X122595238Y-84071428D01*
X122595238Y-83833333D01*
X122642857Y-83642857D01*
X122690476Y-83547619D01*
X122738095Y-83500000D01*
X122833333Y-83452380D01*
X123547619Y-83547619D02*
X123595238Y-83500000D01*
X123690476Y-83452380D01*
X123928571Y-83452380D01*
X124023809Y-83500000D01*
X124071428Y-83547619D01*
X124119047Y-83642857D01*
X124119047Y-83738095D01*
X124071428Y-83880952D01*
X123500000Y-84452380D01*
X124119047Y-84452380D01*
X127214285Y-83452380D02*
X127214285Y-84166666D01*
X127166666Y-84309523D01*
X127071428Y-84404761D01*
X126928571Y-84452380D01*
X126833333Y-84452380D01*
X127595238Y-83452380D02*
X128214285Y-83452380D01*
X127880952Y-83833333D01*
X128023809Y-83833333D01*
X128119047Y-83880952D01*
X128166666Y-83928571D01*
X128214285Y-84023809D01*
X128214285Y-84261904D01*
X128166666Y-84357142D01*
X128119047Y-84404761D01*
X128023809Y-84452380D01*
X127738095Y-84452380D01*
X127642857Y-84404761D01*
X127595238Y-84357142D01*
X128833333Y-83452380D02*
X128928571Y-83452380D01*
X129023809Y-83500000D01*
X129071428Y-83547619D01*
X129119047Y-83642857D01*
X129166666Y-83833333D01*
X129166666Y-84071428D01*
X129119047Y-84261904D01*
X129071428Y-84357142D01*
X129023809Y-84404761D01*
X128928571Y-84452380D01*
X128833333Y-84452380D01*
X128738095Y-84404761D01*
X128690476Y-84357142D01*
X128642857Y-84261904D01*
X128595238Y-84071428D01*
X128595238Y-83833333D01*
X128642857Y-83642857D01*
X128690476Y-83547619D01*
X128738095Y-83500000D01*
X128833333Y-83452380D01*
X130119047Y-84452380D02*
X129547619Y-84452380D01*
X129833333Y-84452380D02*
X129833333Y-83452380D01*
X129738095Y-83595238D01*
X129642857Y-83690476D01*
X129547619Y-83738095D01*
X142464285Y-103202380D02*
X142464285Y-103916666D01*
X142416666Y-104059523D01*
X142321428Y-104154761D01*
X142178571Y-104202380D01*
X142083333Y-104202380D01*
X143369047Y-103535714D02*
X143369047Y-104202380D01*
X143130952Y-103154761D02*
X142892857Y-103869047D01*
X143511904Y-103869047D01*
X144083333Y-103202380D02*
X144178571Y-103202380D01*
X144273809Y-103250000D01*
X144321428Y-103297619D01*
X144369047Y-103392857D01*
X144416666Y-103583333D01*
X144416666Y-103821428D01*
X144369047Y-104011904D01*
X144321428Y-104107142D01*
X144273809Y-104154761D01*
X144178571Y-104202380D01*
X144083333Y-104202380D01*
X143988095Y-104154761D01*
X143940476Y-104107142D01*
X143892857Y-104011904D01*
X143845238Y-103821428D01*
X143845238Y-103583333D01*
X143892857Y-103392857D01*
X143940476Y-103297619D01*
X143988095Y-103250000D01*
X144083333Y-103202380D01*
X144750000Y-103202380D02*
X145369047Y-103202380D01*
X145035714Y-103583333D01*
X145178571Y-103583333D01*
X145273809Y-103630952D01*
X145321428Y-103678571D01*
X145369047Y-103773809D01*
X145369047Y-104011904D01*
X145321428Y-104107142D01*
X145273809Y-104154761D01*
X145178571Y-104202380D01*
X144892857Y-104202380D01*
X144797619Y-104154761D01*
X144750000Y-104107142D01*
X106214285Y-103202380D02*
X106214285Y-103916666D01*
X106166666Y-104059523D01*
X106071428Y-104154761D01*
X105928571Y-104202380D01*
X105833333Y-104202380D01*
X107119047Y-103535714D02*
X107119047Y-104202380D01*
X106880952Y-103154761D02*
X106642857Y-103869047D01*
X107261904Y-103869047D01*
X107833333Y-103202380D02*
X107928571Y-103202380D01*
X108023809Y-103250000D01*
X108071428Y-103297619D01*
X108119047Y-103392857D01*
X108166666Y-103583333D01*
X108166666Y-103821428D01*
X108119047Y-104011904D01*
X108071428Y-104107142D01*
X108023809Y-104154761D01*
X107928571Y-104202380D01*
X107833333Y-104202380D01*
X107738095Y-104154761D01*
X107690476Y-104107142D01*
X107642857Y-104011904D01*
X107595238Y-103821428D01*
X107595238Y-103583333D01*
X107642857Y-103392857D01*
X107690476Y-103297619D01*
X107738095Y-103250000D01*
X107833333Y-103202380D01*
X108547619Y-103297619D02*
X108595238Y-103250000D01*
X108690476Y-103202380D01*
X108928571Y-103202380D01*
X109023809Y-103250000D01*
X109071428Y-103297619D01*
X109119047Y-103392857D01*
X109119047Y-103488095D01*
X109071428Y-103630952D01*
X108500000Y-104202380D01*
X109119047Y-104202380D01*
X137130952Y-117952380D02*
X136797619Y-117476190D01*
X136559523Y-117952380D02*
X136559523Y-116952380D01*
X136940476Y-116952380D01*
X137035714Y-117000000D01*
X137083333Y-117047619D01*
X137130952Y-117142857D01*
X137130952Y-117285714D01*
X137083333Y-117380952D01*
X137035714Y-117428571D01*
X136940476Y-117476190D01*
X136559523Y-117476190D01*
X137511904Y-117047619D02*
X137559523Y-117000000D01*
X137654761Y-116952380D01*
X137892857Y-116952380D01*
X137988095Y-117000000D01*
X138035714Y-117047619D01*
X138083333Y-117142857D01*
X138083333Y-117238095D01*
X138035714Y-117380952D01*
X137464285Y-117952380D01*
X138083333Y-117952380D01*
X139035714Y-117952380D02*
X138464285Y-117952380D01*
X138750000Y-117952380D02*
X138750000Y-116952380D01*
X138654761Y-117095238D01*
X138559523Y-117190476D01*
X138464285Y-117238095D01*
X139654761Y-116952380D02*
X139750000Y-116952380D01*
X139845238Y-117000000D01*
X139892857Y-117047619D01*
X139940476Y-117142857D01*
X139988095Y-117333333D01*
X139988095Y-117571428D01*
X139940476Y-117761904D01*
X139892857Y-117857142D01*
X139845238Y-117904761D01*
X139750000Y-117952380D01*
X139654761Y-117952380D01*
X139559523Y-117904761D01*
X139511904Y-117857142D01*
X139464285Y-117761904D01*
X139416666Y-117571428D01*
X139416666Y-117333333D01*
X139464285Y-117142857D01*
X139511904Y-117047619D01*
X139559523Y-117000000D01*
X139654761Y-116952380D01*
X115024700Y-119964285D02*
X115834224Y-119964285D01*
X115929462Y-119916666D01*
X115977081Y-119869047D01*
X116024700Y-119773809D01*
X116024700Y-119583333D01*
X115977081Y-119488095D01*
X115929462Y-119440476D01*
X115834224Y-119392857D01*
X115024700Y-119392857D01*
X115119939Y-118964285D02*
X115072320Y-118916666D01*
X115024700Y-118821428D01*
X115024700Y-118583333D01*
X115072320Y-118488095D01*
X115119939Y-118440476D01*
X115215177Y-118392857D01*
X115310415Y-118392857D01*
X115453272Y-118440476D01*
X116024700Y-119011904D01*
X116024700Y-118392857D01*
X115024700Y-117773809D02*
X115024700Y-117678571D01*
X115072320Y-117583333D01*
X115119939Y-117535714D01*
X115215177Y-117488095D01*
X115405653Y-117440476D01*
X115643748Y-117440476D01*
X115834224Y-117488095D01*
X115929462Y-117535714D01*
X115977081Y-117583333D01*
X116024700Y-117678571D01*
X116024700Y-117773809D01*
X115977081Y-117869047D01*
X115929462Y-117916666D01*
X115834224Y-117964285D01*
X115643748Y-118011904D01*
X115405653Y-118011904D01*
X115215177Y-117964285D01*
X115119939Y-117916666D01*
X115072320Y-117869047D01*
X115024700Y-117773809D01*
X115119939Y-117059523D02*
X115072320Y-117011904D01*
X115024700Y-116916666D01*
X115024700Y-116678571D01*
X115072320Y-116583333D01*
X115119939Y-116535714D01*
X115215177Y-116488095D01*
X115310415Y-116488095D01*
X115453272Y-116535714D01*
X116024700Y-117107142D01*
X116024700Y-116488095D01*
D13*
X121471428Y-129921428D02*
X121471428Y-130407142D01*
X121500000Y-130464285D01*
X121528571Y-130492857D01*
X121585714Y-130521428D01*
X121700000Y-130521428D01*
X121757142Y-130492857D01*
X121785714Y-130464285D01*
X121814285Y-130407142D01*
X121814285Y-129921428D01*
X122071428Y-129978571D02*
X122100000Y-129950000D01*
X122157142Y-129921428D01*
X122300000Y-129921428D01*
X122357142Y-129950000D01*
X122385714Y-129978571D01*
X122414285Y-130035714D01*
X122414285Y-130092857D01*
X122385714Y-130178571D01*
X122042857Y-130521428D01*
X122414285Y-130521428D01*
X122785714Y-129921428D02*
X122842857Y-129921428D01*
X122900000Y-129950000D01*
X122928571Y-129978571D01*
X122957142Y-130035714D01*
X122985714Y-130150000D01*
X122985714Y-130292857D01*
X122957142Y-130407142D01*
X122928571Y-130464285D01*
X122900000Y-130492857D01*
X122842857Y-130521428D01*
X122785714Y-130521428D01*
X122728571Y-130492857D01*
X122700000Y-130464285D01*
X122671428Y-130407142D01*
X122642857Y-130292857D01*
X122642857Y-130150000D01*
X122671428Y-130035714D01*
X122700000Y-129978571D01*
X122728571Y-129950000D01*
X122785714Y-129921428D01*
X123557142Y-130521428D02*
X123214285Y-130521428D01*
X123385714Y-130521428D02*
X123385714Y-129921428D01*
X123328571Y-130007142D01*
X123271428Y-130064285D01*
X123214285Y-130092857D01*
D11*
X134202380Y-93619047D02*
X133726190Y-93952380D01*
X134202380Y-94190476D02*
X133202380Y-94190476D01*
X133202380Y-93809523D01*
X133250000Y-93714285D01*
X133297619Y-93666666D01*
X133392857Y-93619047D01*
X133535714Y-93619047D01*
X133630952Y-93666666D01*
X133678571Y-93714285D01*
X133726190Y-93809523D01*
X133726190Y-94190476D01*
X133535714Y-92761904D02*
X134202380Y-92761904D01*
X133154761Y-93000000D02*
X133869047Y-93238095D01*
X133869047Y-92619047D01*
X133202380Y-92047619D02*
X133202380Y-91952380D01*
X133250000Y-91857142D01*
X133297619Y-91809523D01*
X133392857Y-91761904D01*
X133583333Y-91714285D01*
X133821428Y-91714285D01*
X134011904Y-91761904D01*
X134107142Y-91809523D01*
X134154761Y-91857142D01*
X134202380Y-91952380D01*
X134202380Y-92047619D01*
X134154761Y-92142857D01*
X134107142Y-92190476D01*
X134011904Y-92238095D01*
X133821428Y-92285714D01*
X133583333Y-92285714D01*
X133392857Y-92238095D01*
X133297619Y-92190476D01*
X133250000Y-92142857D01*
X133202380Y-92047619D01*
X133297619Y-91333333D02*
X133250000Y-91285714D01*
X133202380Y-91190476D01*
X133202380Y-90952380D01*
X133250000Y-90857142D01*
X133297619Y-90809523D01*
X133392857Y-90761904D01*
X133488095Y-90761904D01*
X133630952Y-90809523D01*
X134202380Y-91380952D01*
X134202380Y-90761904D01*
X110202380Y-71119047D02*
X109726190Y-71452380D01*
X110202380Y-71690476D02*
X109202380Y-71690476D01*
X109202380Y-71309523D01*
X109250000Y-71214285D01*
X109297619Y-71166666D01*
X109392857Y-71119047D01*
X109535714Y-71119047D01*
X109630952Y-71166666D01*
X109678571Y-71214285D01*
X109726190Y-71309523D01*
X109726190Y-71690476D01*
X109535714Y-70261904D02*
X110202380Y-70261904D01*
X109154761Y-70500000D02*
X109869047Y-70738095D01*
X109869047Y-70119047D01*
X109202380Y-69547619D02*
X109202380Y-69452380D01*
X109250000Y-69357142D01*
X109297619Y-69309523D01*
X109392857Y-69261904D01*
X109583333Y-69214285D01*
X109821428Y-69214285D01*
X110011904Y-69261904D01*
X110107142Y-69309523D01*
X110154761Y-69357142D01*
X110202380Y-69452380D01*
X110202380Y-69547619D01*
X110154761Y-69642857D01*
X110107142Y-69690476D01*
X110011904Y-69738095D01*
X109821428Y-69785714D01*
X109583333Y-69785714D01*
X109392857Y-69738095D01*
X109297619Y-69690476D01*
X109250000Y-69642857D01*
X109202380Y-69547619D01*
X110202380Y-68261904D02*
X110202380Y-68833333D01*
X110202380Y-68547619D02*
X109202380Y-68547619D01*
X109345238Y-68642857D01*
X109440476Y-68738095D01*
X109488095Y-68833333D01*
X128404761Y-122797619D02*
X128309523Y-122750000D01*
X128214285Y-122654761D01*
X128071428Y-122511904D01*
X127976190Y-122464285D01*
X127880952Y-122464285D01*
X127928571Y-122702380D02*
X127833333Y-122654761D01*
X127738095Y-122559523D01*
X127690476Y-122369047D01*
X127690476Y-122035714D01*
X127738095Y-121845238D01*
X127833333Y-121750000D01*
X127928571Y-121702380D01*
X128119047Y-121702380D01*
X128214285Y-121750000D01*
X128309523Y-121845238D01*
X128357142Y-122035714D01*
X128357142Y-122369047D01*
X128309523Y-122559523D01*
X128214285Y-122654761D01*
X128119047Y-122702380D01*
X127928571Y-122702380D01*
X129309523Y-122702380D02*
X128738095Y-122702380D01*
X129023809Y-122702380D02*
X129023809Y-121702380D01*
X128928571Y-121845238D01*
X128833333Y-121940476D01*
X128738095Y-121988095D01*
X111880952Y-103452380D02*
X111404761Y-103452380D01*
X111404761Y-102452380D01*
X112166666Y-102547619D02*
X112214285Y-102500000D01*
X112309523Y-102452380D01*
X112547619Y-102452380D01*
X112642857Y-102500000D01*
X112690476Y-102547619D01*
X112738095Y-102642857D01*
X112738095Y-102738095D01*
X112690476Y-102880952D01*
X112119047Y-103452380D01*
X112738095Y-103452380D01*
X113357142Y-102452380D02*
X113452380Y-102452380D01*
X113547619Y-102500000D01*
X113595238Y-102547619D01*
X113642857Y-102642857D01*
X113690476Y-102833333D01*
X113690476Y-103071428D01*
X113642857Y-103261904D01*
X113595238Y-103357142D01*
X113547619Y-103404761D01*
X113452380Y-103452380D01*
X113357142Y-103452380D01*
X113261904Y-103404761D01*
X113214285Y-103357142D01*
X113166666Y-103261904D01*
X113119047Y-103071428D01*
X113119047Y-102833333D01*
X113166666Y-102642857D01*
X113214285Y-102547619D01*
X113261904Y-102500000D01*
X113357142Y-102452380D01*
X114642857Y-103452380D02*
X114071428Y-103452380D01*
X114357142Y-103452380D02*
X114357142Y-102452380D01*
X114261904Y-102595238D01*
X114166666Y-102690476D01*
X114071428Y-102738095D01*
X126714285Y-93202380D02*
X126714285Y-93916666D01*
X126666666Y-94059523D01*
X126571428Y-94154761D01*
X126428571Y-94202380D01*
X126333333Y-94202380D01*
X127142857Y-93297619D02*
X127190476Y-93250000D01*
X127285714Y-93202380D01*
X127523809Y-93202380D01*
X127619047Y-93250000D01*
X127666666Y-93297619D01*
X127714285Y-93392857D01*
X127714285Y-93488095D01*
X127666666Y-93630952D01*
X127095238Y-94202380D01*
X127714285Y-94202380D01*
X128333333Y-93202380D02*
X128428571Y-93202380D01*
X128523809Y-93250000D01*
X128571428Y-93297619D01*
X128619047Y-93392857D01*
X128666666Y-93583333D01*
X128666666Y-93821428D01*
X128619047Y-94011904D01*
X128571428Y-94107142D01*
X128523809Y-94154761D01*
X128428571Y-94202380D01*
X128333333Y-94202380D01*
X128238095Y-94154761D01*
X128190476Y-94107142D01*
X128142857Y-94011904D01*
X128095238Y-93821428D01*
X128095238Y-93583333D01*
X128142857Y-93392857D01*
X128190476Y-93297619D01*
X128238095Y-93250000D01*
X128333333Y-93202380D01*
X129523809Y-93202380D02*
X129333333Y-93202380D01*
X129238095Y-93250000D01*
X129190476Y-93297619D01*
X129095238Y-93440476D01*
X129047619Y-93630952D01*
X129047619Y-94011904D01*
X129095238Y-94107142D01*
X129142857Y-94154761D01*
X129238095Y-94202380D01*
X129428571Y-94202380D01*
X129523809Y-94154761D01*
X129571428Y-94107142D01*
X129619047Y-94011904D01*
X129619047Y-93773809D01*
X129571428Y-93678571D01*
X129523809Y-93630952D01*
X129428571Y-93583333D01*
X129238095Y-93583333D01*
X129142857Y-93630952D01*
X129095238Y-93678571D01*
X129047619Y-93773809D01*
X138714285Y-137952380D02*
X138714285Y-138666666D01*
X138666666Y-138809523D01*
X138571428Y-138904761D01*
X138428571Y-138952380D01*
X138333333Y-138952380D01*
X139142857Y-138047619D02*
X139190476Y-138000000D01*
X139285714Y-137952380D01*
X139523809Y-137952380D01*
X139619047Y-138000000D01*
X139666666Y-138047619D01*
X139714285Y-138142857D01*
X139714285Y-138238095D01*
X139666666Y-138380952D01*
X139095238Y-138952380D01*
X139714285Y-138952380D01*
X140333333Y-137952380D02*
X140428571Y-137952380D01*
X140523809Y-138000000D01*
X140571428Y-138047619D01*
X140619047Y-138142857D01*
X140666666Y-138333333D01*
X140666666Y-138571428D01*
X140619047Y-138761904D01*
X140571428Y-138857142D01*
X140523809Y-138904761D01*
X140428571Y-138952380D01*
X140333333Y-138952380D01*
X140238095Y-138904761D01*
X140190476Y-138857142D01*
X140142857Y-138761904D01*
X140095238Y-138571428D01*
X140095238Y-138333333D01*
X140142857Y-138142857D01*
X140190476Y-138047619D01*
X140238095Y-138000000D01*
X140333333Y-137952380D01*
X141000000Y-137952380D02*
X141619047Y-137952380D01*
X141285714Y-138333333D01*
X141428571Y-138333333D01*
X141523809Y-138380952D01*
X141571428Y-138428571D01*
X141619047Y-138523809D01*
X141619047Y-138761904D01*
X141571428Y-138857142D01*
X141523809Y-138904761D01*
X141428571Y-138952380D01*
X141142857Y-138952380D01*
X141047619Y-138904761D01*
X141000000Y-138857142D01*
X106702380Y-110940476D02*
X105702380Y-110940476D01*
X105702380Y-110702380D01*
X105750000Y-110559523D01*
X105845238Y-110464285D01*
X105940476Y-110416666D01*
X106130952Y-110369047D01*
X106273809Y-110369047D01*
X106464285Y-110416666D01*
X106559523Y-110464285D01*
X106654761Y-110559523D01*
X106702380Y-110702380D01*
X106702380Y-110940476D01*
X105797619Y-109988095D02*
X105750000Y-109940476D01*
X105702380Y-109845238D01*
X105702380Y-109607142D01*
X105750000Y-109511904D01*
X105797619Y-109464285D01*
X105892857Y-109416666D01*
X105988095Y-109416666D01*
X106130952Y-109464285D01*
X106702380Y-110035714D01*
X106702380Y-109416666D01*
X105702380Y-108797619D02*
X105702380Y-108702380D01*
X105750000Y-108607142D01*
X105797619Y-108559523D01*
X105892857Y-108511904D01*
X106083333Y-108464285D01*
X106321428Y-108464285D01*
X106511904Y-108511904D01*
X106607142Y-108559523D01*
X106654761Y-108607142D01*
X106702380Y-108702380D01*
X106702380Y-108797619D01*
X106654761Y-108892857D01*
X106607142Y-108940476D01*
X106511904Y-108988095D01*
X106321428Y-109035714D01*
X106083333Y-109035714D01*
X105892857Y-108988095D01*
X105797619Y-108940476D01*
X105750000Y-108892857D01*
X105702380Y-108797619D01*
X106035714Y-107607142D02*
X106702380Y-107607142D01*
X105654761Y-107845238D02*
X106369047Y-108083333D01*
X106369047Y-107464285D01*
X118214285Y-138452380D02*
X118214285Y-139166666D01*
X118166666Y-139309523D01*
X118071428Y-139404761D01*
X117928571Y-139452380D01*
X117833333Y-139452380D01*
X118642857Y-138547619D02*
X118690476Y-138500000D01*
X118785714Y-138452380D01*
X119023809Y-138452380D01*
X119119047Y-138500000D01*
X119166666Y-138547619D01*
X119214285Y-138642857D01*
X119214285Y-138738095D01*
X119166666Y-138880952D01*
X118595238Y-139452380D01*
X119214285Y-139452380D01*
X119833333Y-138452380D02*
X119928571Y-138452380D01*
X120023809Y-138500000D01*
X120071428Y-138547619D01*
X120119047Y-138642857D01*
X120166666Y-138833333D01*
X120166666Y-139071428D01*
X120119047Y-139261904D01*
X120071428Y-139357142D01*
X120023809Y-139404761D01*
X119928571Y-139452380D01*
X119833333Y-139452380D01*
X119738095Y-139404761D01*
X119690476Y-139357142D01*
X119642857Y-139261904D01*
X119595238Y-139071428D01*
X119595238Y-138833333D01*
X119642857Y-138642857D01*
X119690476Y-138547619D01*
X119738095Y-138500000D01*
X119833333Y-138452380D01*
X121119047Y-139452380D02*
X120547619Y-139452380D01*
X120833333Y-139452380D02*
X120833333Y-138452380D01*
X120738095Y-138595238D01*
X120642857Y-138690476D01*
X120547619Y-138738095D01*
X121138571Y-107385714D02*
X121138571Y-107719047D01*
X121662380Y-107719047D02*
X120662380Y-107719047D01*
X120662380Y-107242857D01*
X120757619Y-106909523D02*
X120710000Y-106861904D01*
X120662380Y-106766666D01*
X120662380Y-106528571D01*
X120710000Y-106433333D01*
X120757619Y-106385714D01*
X120852857Y-106338095D01*
X120948095Y-106338095D01*
X121090952Y-106385714D01*
X121662380Y-106957142D01*
X121662380Y-106338095D01*
X120662380Y-105719047D02*
X120662380Y-105623809D01*
X120710000Y-105528571D01*
X120757619Y-105480952D01*
X120852857Y-105433333D01*
X121043333Y-105385714D01*
X121281428Y-105385714D01*
X121471904Y-105433333D01*
X121567142Y-105480952D01*
X121614761Y-105528571D01*
X121662380Y-105623809D01*
X121662380Y-105719047D01*
X121614761Y-105814285D01*
X121567142Y-105861904D01*
X121471904Y-105909523D01*
X121281428Y-105957142D01*
X121043333Y-105957142D01*
X120852857Y-105909523D01*
X120757619Y-105861904D01*
X120710000Y-105814285D01*
X120662380Y-105719047D01*
X121662380Y-104433333D02*
X121662380Y-105004761D01*
X121662380Y-104719047D02*
X120662380Y-104719047D01*
X120805238Y-104814285D01*
X120900476Y-104909523D01*
X120948095Y-105004761D01*
X135702380Y-86940476D02*
X134702380Y-86940476D01*
X134702380Y-86702380D01*
X134750000Y-86559523D01*
X134845238Y-86464285D01*
X134940476Y-86416666D01*
X135130952Y-86369047D01*
X135273809Y-86369047D01*
X135464285Y-86416666D01*
X135559523Y-86464285D01*
X135654761Y-86559523D01*
X135702380Y-86702380D01*
X135702380Y-86940476D01*
X135035714Y-85511904D02*
X135702380Y-85511904D01*
X134654761Y-85750000D02*
X135369047Y-85988095D01*
X135369047Y-85369047D01*
X134702380Y-84797619D02*
X134702380Y-84702380D01*
X134750000Y-84607142D01*
X134797619Y-84559523D01*
X134892857Y-84511904D01*
X135083333Y-84464285D01*
X135321428Y-84464285D01*
X135511904Y-84511904D01*
X135607142Y-84559523D01*
X135654761Y-84607142D01*
X135702380Y-84702380D01*
X135702380Y-84797619D01*
X135654761Y-84892857D01*
X135607142Y-84940476D01*
X135511904Y-84988095D01*
X135321428Y-85035714D01*
X135083333Y-85035714D01*
X134892857Y-84988095D01*
X134797619Y-84940476D01*
X134750000Y-84892857D01*
X134702380Y-84797619D01*
X135702380Y-83511904D02*
X135702380Y-84083333D01*
X135702380Y-83797619D02*
X134702380Y-83797619D01*
X134845238Y-83892857D01*
X134940476Y-83988095D01*
X134988095Y-84083333D01*
D14*
X125566666Y-121933333D02*
X124866666Y-121933333D01*
X124866666Y-121766666D01*
X124900000Y-121666666D01*
X124966666Y-121600000D01*
X125033333Y-121566666D01*
X125166666Y-121533333D01*
X125266666Y-121533333D01*
X125400000Y-121566666D01*
X125466666Y-121600000D01*
X125533333Y-121666666D01*
X125566666Y-121766666D01*
X125566666Y-121933333D01*
X124933333Y-121266666D02*
X124900000Y-121233333D01*
X124866666Y-121166666D01*
X124866666Y-121000000D01*
X124900000Y-120933333D01*
X124933333Y-120900000D01*
X125000000Y-120866666D01*
X125066666Y-120866666D01*
X125166666Y-120900000D01*
X125566666Y-121300000D01*
X125566666Y-120866666D01*
X124866666Y-120433333D02*
X124866666Y-120366666D01*
X124900000Y-120300000D01*
X124933333Y-120266666D01*
X125000000Y-120233333D01*
X125133333Y-120200000D01*
X125300000Y-120200000D01*
X125433333Y-120233333D01*
X125500000Y-120266666D01*
X125533333Y-120300000D01*
X125566666Y-120366666D01*
X125566666Y-120433333D01*
X125533333Y-120500000D01*
X125500000Y-120533333D01*
X125433333Y-120566666D01*
X125300000Y-120600000D01*
X125133333Y-120600000D01*
X125000000Y-120566666D01*
X124933333Y-120533333D01*
X124900000Y-120500000D01*
X124866666Y-120433333D01*
X124866666Y-119966666D02*
X124866666Y-119533333D01*
X125133333Y-119766666D01*
X125133333Y-119666666D01*
X125166666Y-119600000D01*
X125200000Y-119566666D01*
X125266666Y-119533333D01*
X125433333Y-119533333D01*
X125500000Y-119566666D01*
X125533333Y-119600000D01*
X125566666Y-119666666D01*
X125566666Y-119866666D01*
X125533333Y-119933333D01*
X125500000Y-119966666D01*
D11*
X131202380Y-129988095D02*
X130202380Y-129988095D01*
X130202380Y-129750000D01*
X130250000Y-129607142D01*
X130345238Y-129511904D01*
X130440476Y-129464285D01*
X130630952Y-129416666D01*
X130773809Y-129416666D01*
X130964285Y-129464285D01*
X131059523Y-129511904D01*
X131154761Y-129607142D01*
X131202380Y-129750000D01*
X131202380Y-129988095D01*
X131202380Y-128464285D02*
X131202380Y-129035714D01*
X131202380Y-128750000D02*
X130202380Y-128750000D01*
X130345238Y-128845238D01*
X130440476Y-128940476D01*
X130488095Y-129035714D01*
X134202380Y-111869047D02*
X133726190Y-112202380D01*
X134202380Y-112440476D02*
X133202380Y-112440476D01*
X133202380Y-112059523D01*
X133250000Y-111964285D01*
X133297619Y-111916666D01*
X133392857Y-111869047D01*
X133535714Y-111869047D01*
X133630952Y-111916666D01*
X133678571Y-111964285D01*
X133726190Y-112059523D01*
X133726190Y-112440476D01*
X133297619Y-111488095D02*
X133250000Y-111440476D01*
X133202380Y-111345238D01*
X133202380Y-111107142D01*
X133250000Y-111011904D01*
X133297619Y-110964285D01*
X133392857Y-110916666D01*
X133488095Y-110916666D01*
X133630952Y-110964285D01*
X134202380Y-111535714D01*
X134202380Y-110916666D01*
X134202380Y-109964285D02*
X134202380Y-110535714D01*
X134202380Y-110250000D02*
X133202380Y-110250000D01*
X133345238Y-110345238D01*
X133440476Y-110440476D01*
X133488095Y-110535714D01*
X133535714Y-109107142D02*
X134202380Y-109107142D01*
X133154761Y-109345238D02*
X133869047Y-109583333D01*
X133869047Y-108964285D01*
D14*
X118716666Y-134816666D02*
X118483333Y-134483333D01*
X118316666Y-134816666D02*
X118316666Y-134116666D01*
X118583333Y-134116666D01*
X118650000Y-134150000D01*
X118683333Y-134183333D01*
X118716666Y-134250000D01*
X118716666Y-134350000D01*
X118683333Y-134416666D01*
X118650000Y-134450000D01*
X118583333Y-134483333D01*
X118316666Y-134483333D01*
X118983333Y-134183333D02*
X119016666Y-134150000D01*
X119083333Y-134116666D01*
X119250000Y-134116666D01*
X119316666Y-134150000D01*
X119350000Y-134183333D01*
X119383333Y-134250000D01*
X119383333Y-134316666D01*
X119350000Y-134416666D01*
X118950000Y-134816666D01*
X119383333Y-134816666D01*
X120050000Y-134816666D02*
X119650000Y-134816666D01*
X119850000Y-134816666D02*
X119850000Y-134116666D01*
X119783333Y-134216666D01*
X119716666Y-134283333D01*
X119650000Y-134316666D01*
X120283333Y-134116666D02*
X120716666Y-134116666D01*
X120483333Y-134383333D01*
X120583333Y-134383333D01*
X120650000Y-134416666D01*
X120683333Y-134450000D01*
X120716666Y-134516666D01*
X120716666Y-134683333D01*
X120683333Y-134750000D01*
X120650000Y-134783333D01*
X120583333Y-134816666D01*
X120383333Y-134816666D01*
X120316666Y-134783333D01*
X120283333Y-134750000D01*
D11*
X110107142Y-64369047D02*
X110154761Y-64416666D01*
X110202380Y-64559523D01*
X110202380Y-64654761D01*
X110154761Y-64797619D01*
X110059523Y-64892857D01*
X109964285Y-64940476D01*
X109773809Y-64988095D01*
X109630952Y-64988095D01*
X109440476Y-64940476D01*
X109345238Y-64892857D01*
X109250000Y-64797619D01*
X109202380Y-64654761D01*
X109202380Y-64559523D01*
X109250000Y-64416666D01*
X109297619Y-64369047D01*
X109535714Y-63511904D02*
X110202380Y-63511904D01*
X109154761Y-63750000D02*
X109869047Y-63988095D01*
X109869047Y-63369047D01*
X109202380Y-62797619D02*
X109202380Y-62702380D01*
X109250000Y-62607142D01*
X109297619Y-62559523D01*
X109392857Y-62511904D01*
X109583333Y-62464285D01*
X109821428Y-62464285D01*
X110011904Y-62511904D01*
X110107142Y-62559523D01*
X110154761Y-62607142D01*
X110202380Y-62702380D01*
X110202380Y-62797619D01*
X110154761Y-62892857D01*
X110107142Y-62940476D01*
X110011904Y-62988095D01*
X109821428Y-63035714D01*
X109583333Y-63035714D01*
X109392857Y-62988095D01*
X109297619Y-62940476D01*
X109250000Y-62892857D01*
X109202380Y-62797619D01*
X109202380Y-62130952D02*
X109202380Y-61511904D01*
X109583333Y-61845238D01*
X109583333Y-61702380D01*
X109630952Y-61607142D01*
X109678571Y-61559523D01*
X109773809Y-61511904D01*
X110011904Y-61511904D01*
X110107142Y-61559523D01*
X110154761Y-61607142D01*
X110202380Y-61702380D01*
X110202380Y-61988095D01*
X110154761Y-62083333D01*
X110107142Y-62130952D01*
X111357142Y-64369047D02*
X111404761Y-64416666D01*
X111452380Y-64559523D01*
X111452380Y-64654761D01*
X111404761Y-64797619D01*
X111309523Y-64892857D01*
X111214285Y-64940476D01*
X111023809Y-64988095D01*
X110880952Y-64988095D01*
X110690476Y-64940476D01*
X110595238Y-64892857D01*
X110500000Y-64797619D01*
X110452380Y-64654761D01*
X110452380Y-64559523D01*
X110500000Y-64416666D01*
X110547619Y-64369047D01*
X110785714Y-63511904D02*
X111452380Y-63511904D01*
X110404761Y-63750000D02*
X111119047Y-63988095D01*
X111119047Y-63369047D01*
X110452380Y-62797619D02*
X110452380Y-62702380D01*
X110500000Y-62607142D01*
X110547619Y-62559523D01*
X110642857Y-62511904D01*
X110833333Y-62464285D01*
X111071428Y-62464285D01*
X111261904Y-62511904D01*
X111357142Y-62559523D01*
X111404761Y-62607142D01*
X111452380Y-62702380D01*
X111452380Y-62797619D01*
X111404761Y-62892857D01*
X111357142Y-62940476D01*
X111261904Y-62988095D01*
X111071428Y-63035714D01*
X110833333Y-63035714D01*
X110642857Y-62988095D01*
X110547619Y-62940476D01*
X110500000Y-62892857D01*
X110452380Y-62797619D01*
X110547619Y-62083333D02*
X110500000Y-62035714D01*
X110452380Y-61940476D01*
X110452380Y-61702380D01*
X110500000Y-61607142D01*
X110547619Y-61559523D01*
X110642857Y-61511904D01*
X110738095Y-61511904D01*
X110880952Y-61559523D01*
X111452380Y-62130952D01*
X111452380Y-61511904D01*
X111630952Y-69107142D02*
X111583333Y-69154761D01*
X111440476Y-69202380D01*
X111345238Y-69202380D01*
X111202380Y-69154761D01*
X111107142Y-69059523D01*
X111059523Y-68964285D01*
X111011904Y-68773809D01*
X111011904Y-68630952D01*
X111059523Y-68440476D01*
X111107142Y-68345238D01*
X111202380Y-68250000D01*
X111345238Y-68202380D01*
X111440476Y-68202380D01*
X111583333Y-68250000D01*
X111630952Y-68297619D01*
X112488095Y-68535714D02*
X112488095Y-69202380D01*
X112250000Y-68154761D02*
X112011904Y-68869047D01*
X112630952Y-68869047D01*
X113202380Y-68202380D02*
X113297619Y-68202380D01*
X113392857Y-68250000D01*
X113440476Y-68297619D01*
X113488095Y-68392857D01*
X113535714Y-68583333D01*
X113535714Y-68821428D01*
X113488095Y-69011904D01*
X113440476Y-69107142D01*
X113392857Y-69154761D01*
X113297619Y-69202380D01*
X113202380Y-69202380D01*
X113107142Y-69154761D01*
X113059523Y-69107142D01*
X113011904Y-69011904D01*
X112964285Y-68821428D01*
X112964285Y-68583333D01*
X113011904Y-68392857D01*
X113059523Y-68297619D01*
X113107142Y-68250000D01*
X113202380Y-68202380D01*
X114488095Y-69202380D02*
X113916666Y-69202380D01*
X114202380Y-69202380D02*
X114202380Y-68202380D01*
X114107142Y-68345238D01*
X114011904Y-68440476D01*
X113916666Y-68488095D01*
X112214285Y-138452380D02*
X112214285Y-139166666D01*
X112166666Y-139309523D01*
X112071428Y-139404761D01*
X111928571Y-139452380D01*
X111833333Y-139452380D01*
X112642857Y-138547619D02*
X112690476Y-138500000D01*
X112785714Y-138452380D01*
X113023809Y-138452380D01*
X113119047Y-138500000D01*
X113166666Y-138547619D01*
X113214285Y-138642857D01*
X113214285Y-138738095D01*
X113166666Y-138880952D01*
X112595238Y-139452380D01*
X113214285Y-139452380D01*
X113833333Y-138452380D02*
X113928571Y-138452380D01*
X114023809Y-138500000D01*
X114071428Y-138547619D01*
X114119047Y-138642857D01*
X114166666Y-138833333D01*
X114166666Y-139071428D01*
X114119047Y-139261904D01*
X114071428Y-139357142D01*
X114023809Y-139404761D01*
X113928571Y-139452380D01*
X113833333Y-139452380D01*
X113738095Y-139404761D01*
X113690476Y-139357142D01*
X113642857Y-139261904D01*
X113595238Y-139071428D01*
X113595238Y-138833333D01*
X113642857Y-138642857D01*
X113690476Y-138547619D01*
X113738095Y-138500000D01*
X113833333Y-138452380D01*
X114547619Y-138547619D02*
X114595238Y-138500000D01*
X114690476Y-138452380D01*
X114928571Y-138452380D01*
X115023809Y-138500000D01*
X115071428Y-138547619D01*
X115119047Y-138642857D01*
X115119047Y-138738095D01*
X115071428Y-138880952D01*
X114500000Y-139452380D01*
X115119047Y-139452380D01*
X134861904Y-127895238D02*
X134480952Y-128161904D01*
X134861904Y-128352380D02*
X134061904Y-128352380D01*
X134061904Y-128047619D01*
X134100000Y-127971428D01*
X134138095Y-127933333D01*
X134214285Y-127895238D01*
X134328571Y-127895238D01*
X134404761Y-127933333D01*
X134442857Y-127971428D01*
X134480952Y-128047619D01*
X134480952Y-128352380D01*
X134138095Y-127590476D02*
X134100000Y-127552380D01*
X134061904Y-127476190D01*
X134061904Y-127285714D01*
X134100000Y-127209523D01*
X134138095Y-127171428D01*
X134214285Y-127133333D01*
X134290476Y-127133333D01*
X134404761Y-127171428D01*
X134861904Y-127628571D01*
X134861904Y-127133333D01*
X134861904Y-126371428D02*
X134861904Y-126828571D01*
X134861904Y-126600000D02*
X134061904Y-126600000D01*
X134176190Y-126676190D01*
X134252380Y-126752380D01*
X134290476Y-126828571D01*
X134138095Y-126066666D02*
X134100000Y-126028571D01*
X134061904Y-125952380D01*
X134061904Y-125761904D01*
X134100000Y-125685714D01*
X134138095Y-125647619D01*
X134214285Y-125609523D01*
X134290476Y-125609523D01*
X134404761Y-125647619D01*
X134861904Y-126104761D01*
X134861904Y-125609523D01*
X130630952Y-120952380D02*
X130297619Y-120476190D01*
X130059523Y-120952380D02*
X130059523Y-119952380D01*
X130440476Y-119952380D01*
X130535714Y-120000000D01*
X130583333Y-120047619D01*
X130630952Y-120142857D01*
X130630952Y-120285714D01*
X130583333Y-120380952D01*
X130535714Y-120428571D01*
X130440476Y-120476190D01*
X130059523Y-120476190D01*
X131011904Y-120047619D02*
X131059523Y-120000000D01*
X131154761Y-119952380D01*
X131392857Y-119952380D01*
X131488095Y-120000000D01*
X131535714Y-120047619D01*
X131583333Y-120142857D01*
X131583333Y-120238095D01*
X131535714Y-120380952D01*
X130964285Y-120952380D01*
X131583333Y-120952380D01*
X132535714Y-120952380D02*
X131964285Y-120952380D01*
X132250000Y-120952380D02*
X132250000Y-119952380D01*
X132154761Y-120095238D01*
X132059523Y-120190476D01*
X131964285Y-120238095D01*
X133488095Y-120952380D02*
X132916666Y-120952380D01*
X133202380Y-120952380D02*
X133202380Y-119952380D01*
X133107142Y-120095238D01*
X133011904Y-120190476D01*
X132916666Y-120238095D01*
D14*
X121316666Y-128283333D02*
X120983333Y-128516666D01*
X121316666Y-128683333D02*
X120616666Y-128683333D01*
X120616666Y-128416666D01*
X120650000Y-128350000D01*
X120683333Y-128316666D01*
X120750000Y-128283333D01*
X120850000Y-128283333D01*
X120916666Y-128316666D01*
X120950000Y-128350000D01*
X120983333Y-128416666D01*
X120983333Y-128683333D01*
X120683333Y-128016666D02*
X120650000Y-127983333D01*
X120616666Y-127916666D01*
X120616666Y-127750000D01*
X120650000Y-127683333D01*
X120683333Y-127650000D01*
X120750000Y-127616666D01*
X120816666Y-127616666D01*
X120916666Y-127650000D01*
X121316666Y-128050000D01*
X121316666Y-127616666D01*
X120616666Y-127183333D02*
X120616666Y-127116666D01*
X120650000Y-127050000D01*
X120683333Y-127016666D01*
X120750000Y-126983333D01*
X120883333Y-126950000D01*
X121050000Y-126950000D01*
X121183333Y-126983333D01*
X121250000Y-127016666D01*
X121283333Y-127050000D01*
X121316666Y-127116666D01*
X121316666Y-127183333D01*
X121283333Y-127250000D01*
X121250000Y-127283333D01*
X121183333Y-127316666D01*
X121050000Y-127350000D01*
X120883333Y-127350000D01*
X120750000Y-127316666D01*
X120683333Y-127283333D01*
X120650000Y-127250000D01*
X120616666Y-127183333D01*
X121316666Y-126616666D02*
X121316666Y-126483333D01*
X121283333Y-126416666D01*
X121250000Y-126383333D01*
X121150000Y-126316666D01*
X121016666Y-126283333D01*
X120750000Y-126283333D01*
X120683333Y-126316666D01*
X120650000Y-126350000D01*
X120616666Y-126416666D01*
X120616666Y-126550000D01*
X120650000Y-126616666D01*
X120683333Y-126650000D01*
X120750000Y-126683333D01*
X120916666Y-126683333D01*
X120983333Y-126650000D01*
X121016666Y-126616666D01*
X121050000Y-126550000D01*
X121050000Y-126416666D01*
X121016666Y-126350000D01*
X120983333Y-126316666D01*
X120916666Y-126283333D01*
X125066666Y-126283333D02*
X124733333Y-126516666D01*
X125066666Y-126683333D02*
X124366666Y-126683333D01*
X124366666Y-126416666D01*
X124400000Y-126350000D01*
X124433333Y-126316666D01*
X124500000Y-126283333D01*
X124600000Y-126283333D01*
X124666666Y-126316666D01*
X124700000Y-126350000D01*
X124733333Y-126416666D01*
X124733333Y-126683333D01*
X124433333Y-126016666D02*
X124400000Y-125983333D01*
X124366666Y-125916666D01*
X124366666Y-125750000D01*
X124400000Y-125683333D01*
X124433333Y-125650000D01*
X124500000Y-125616666D01*
X124566666Y-125616666D01*
X124666666Y-125650000D01*
X125066666Y-126050000D01*
X125066666Y-125616666D01*
X124366666Y-125183333D02*
X124366666Y-125116666D01*
X124400000Y-125050000D01*
X124433333Y-125016666D01*
X124500000Y-124983333D01*
X124633333Y-124950000D01*
X124800000Y-124950000D01*
X124933333Y-124983333D01*
X125000000Y-125016666D01*
X125033333Y-125050000D01*
X125066666Y-125116666D01*
X125066666Y-125183333D01*
X125033333Y-125250000D01*
X125000000Y-125283333D01*
X124933333Y-125316666D01*
X124800000Y-125350000D01*
X124633333Y-125350000D01*
X124500000Y-125316666D01*
X124433333Y-125283333D01*
X124400000Y-125250000D01*
X124366666Y-125183333D01*
X124666666Y-124550000D02*
X124633333Y-124616666D01*
X124600000Y-124650000D01*
X124533333Y-124683333D01*
X124500000Y-124683333D01*
X124433333Y-124650000D01*
X124400000Y-124616666D01*
X124366666Y-124550000D01*
X124366666Y-124416666D01*
X124400000Y-124350000D01*
X124433333Y-124316666D01*
X124500000Y-124283333D01*
X124533333Y-124283333D01*
X124600000Y-124316666D01*
X124633333Y-124350000D01*
X124666666Y-124416666D01*
X124666666Y-124550000D01*
X124700000Y-124616666D01*
X124733333Y-124650000D01*
X124800000Y-124683333D01*
X124933333Y-124683333D01*
X125000000Y-124650000D01*
X125033333Y-124616666D01*
X125066666Y-124550000D01*
X125066666Y-124416666D01*
X125033333Y-124350000D01*
X125000000Y-124316666D01*
X124933333Y-124283333D01*
X124800000Y-124283333D01*
X124733333Y-124316666D01*
X124700000Y-124350000D01*
X124666666Y-124416666D01*
X111966666Y-128066666D02*
X111733333Y-127733333D01*
X111566666Y-128066666D02*
X111566666Y-127366666D01*
X111833333Y-127366666D01*
X111900000Y-127400000D01*
X111933333Y-127433333D01*
X111966666Y-127500000D01*
X111966666Y-127600000D01*
X111933333Y-127666666D01*
X111900000Y-127700000D01*
X111833333Y-127733333D01*
X111566666Y-127733333D01*
X112233333Y-127433333D02*
X112266666Y-127400000D01*
X112333333Y-127366666D01*
X112500000Y-127366666D01*
X112566666Y-127400000D01*
X112600000Y-127433333D01*
X112633333Y-127500000D01*
X112633333Y-127566666D01*
X112600000Y-127666666D01*
X112200000Y-128066666D01*
X112633333Y-128066666D01*
X113066666Y-127366666D02*
X113133333Y-127366666D01*
X113200000Y-127400000D01*
X113233333Y-127433333D01*
X113266666Y-127500000D01*
X113300000Y-127633333D01*
X113300000Y-127800000D01*
X113266666Y-127933333D01*
X113233333Y-128000000D01*
X113200000Y-128033333D01*
X113133333Y-128066666D01*
X113066666Y-128066666D01*
X113000000Y-128033333D01*
X112966666Y-128000000D01*
X112933333Y-127933333D01*
X112900000Y-127800000D01*
X112900000Y-127633333D01*
X112933333Y-127500000D01*
X112966666Y-127433333D01*
X113000000Y-127400000D01*
X113066666Y-127366666D01*
X113533333Y-127366666D02*
X114000000Y-127366666D01*
X113700000Y-128066666D01*
X119316666Y-131283333D02*
X118983333Y-131516666D01*
X119316666Y-131683333D02*
X118616666Y-131683333D01*
X118616666Y-131416666D01*
X118650000Y-131350000D01*
X118683333Y-131316666D01*
X118750000Y-131283333D01*
X118850000Y-131283333D01*
X118916666Y-131316666D01*
X118950000Y-131350000D01*
X118983333Y-131416666D01*
X118983333Y-131683333D01*
X118683333Y-131016666D02*
X118650000Y-130983333D01*
X118616666Y-130916666D01*
X118616666Y-130750000D01*
X118650000Y-130683333D01*
X118683333Y-130650000D01*
X118750000Y-130616666D01*
X118816666Y-130616666D01*
X118916666Y-130650000D01*
X119316666Y-131050000D01*
X119316666Y-130616666D01*
X118616666Y-130183333D02*
X118616666Y-130116666D01*
X118650000Y-130050000D01*
X118683333Y-130016666D01*
X118750000Y-129983333D01*
X118883333Y-129950000D01*
X119050000Y-129950000D01*
X119183333Y-129983333D01*
X119250000Y-130016666D01*
X119283333Y-130050000D01*
X119316666Y-130116666D01*
X119316666Y-130183333D01*
X119283333Y-130250000D01*
X119250000Y-130283333D01*
X119183333Y-130316666D01*
X119050000Y-130350000D01*
X118883333Y-130350000D01*
X118750000Y-130316666D01*
X118683333Y-130283333D01*
X118650000Y-130250000D01*
X118616666Y-130183333D01*
X118616666Y-129350000D02*
X118616666Y-129483333D01*
X118650000Y-129550000D01*
X118683333Y-129583333D01*
X118783333Y-129650000D01*
X118916666Y-129683333D01*
X119183333Y-129683333D01*
X119250000Y-129650000D01*
X119283333Y-129616666D01*
X119316666Y-129550000D01*
X119316666Y-129416666D01*
X119283333Y-129350000D01*
X119250000Y-129316666D01*
X119183333Y-129283333D01*
X119016666Y-129283333D01*
X118950000Y-129316666D01*
X118916666Y-129350000D01*
X118883333Y-129416666D01*
X118883333Y-129550000D01*
X118916666Y-129616666D01*
X118950000Y-129650000D01*
X119016666Y-129683333D01*
D11*
X126104761Y-115611904D02*
X125838095Y-115230952D01*
X125647619Y-115611904D02*
X125647619Y-114811904D01*
X125952380Y-114811904D01*
X126028571Y-114850000D01*
X126066666Y-114888095D01*
X126104761Y-114964285D01*
X126104761Y-115078571D01*
X126066666Y-115154761D01*
X126028571Y-115192857D01*
X125952380Y-115230952D01*
X125647619Y-115230952D01*
X126409523Y-114888095D02*
X126447619Y-114850000D01*
X126523809Y-114811904D01*
X126714285Y-114811904D01*
X126790476Y-114850000D01*
X126828571Y-114888095D01*
X126866666Y-114964285D01*
X126866666Y-115040476D01*
X126828571Y-115154761D01*
X126371428Y-115611904D01*
X126866666Y-115611904D01*
X127361904Y-114811904D02*
X127438095Y-114811904D01*
X127514285Y-114850000D01*
X127552380Y-114888095D01*
X127590476Y-114964285D01*
X127628571Y-115116666D01*
X127628571Y-115307142D01*
X127590476Y-115459523D01*
X127552380Y-115535714D01*
X127514285Y-115573809D01*
X127438095Y-115611904D01*
X127361904Y-115611904D01*
X127285714Y-115573809D01*
X127247619Y-115535714D01*
X127209523Y-115459523D01*
X127171428Y-115307142D01*
X127171428Y-115116666D01*
X127209523Y-114964285D01*
X127247619Y-114888095D01*
X127285714Y-114850000D01*
X127361904Y-114811904D01*
X128352380Y-114811904D02*
X127971428Y-114811904D01*
X127933333Y-115192857D01*
X127971428Y-115154761D01*
X128047619Y-115116666D01*
X128238095Y-115116666D01*
X128314285Y-115154761D01*
X128352380Y-115192857D01*
X128390476Y-115269047D01*
X128390476Y-115459523D01*
X128352380Y-115535714D01*
X128314285Y-115573809D01*
X128238095Y-115611904D01*
X128047619Y-115611904D01*
X127971428Y-115573809D01*
X127933333Y-115535714D01*
X126104761Y-117361904D02*
X125838095Y-116980952D01*
X125647619Y-117361904D02*
X125647619Y-116561904D01*
X125952380Y-116561904D01*
X126028571Y-116600000D01*
X126066666Y-116638095D01*
X126104761Y-116714285D01*
X126104761Y-116828571D01*
X126066666Y-116904761D01*
X126028571Y-116942857D01*
X125952380Y-116980952D01*
X125647619Y-116980952D01*
X126409523Y-116638095D02*
X126447619Y-116600000D01*
X126523809Y-116561904D01*
X126714285Y-116561904D01*
X126790476Y-116600000D01*
X126828571Y-116638095D01*
X126866666Y-116714285D01*
X126866666Y-116790476D01*
X126828571Y-116904761D01*
X126371428Y-117361904D01*
X126866666Y-117361904D01*
X127361904Y-116561904D02*
X127438095Y-116561904D01*
X127514285Y-116600000D01*
X127552380Y-116638095D01*
X127590476Y-116714285D01*
X127628571Y-116866666D01*
X127628571Y-117057142D01*
X127590476Y-117209523D01*
X127552380Y-117285714D01*
X127514285Y-117323809D01*
X127438095Y-117361904D01*
X127361904Y-117361904D01*
X127285714Y-117323809D01*
X127247619Y-117285714D01*
X127209523Y-117209523D01*
X127171428Y-117057142D01*
X127171428Y-116866666D01*
X127209523Y-116714285D01*
X127247619Y-116638095D01*
X127285714Y-116600000D01*
X127361904Y-116561904D01*
X128314285Y-116828571D02*
X128314285Y-117361904D01*
X128123809Y-116523809D02*
X127933333Y-117095238D01*
X128428571Y-117095238D01*
D14*
X130966666Y-137566666D02*
X130733333Y-137233333D01*
X130566666Y-137566666D02*
X130566666Y-136866666D01*
X130833333Y-136866666D01*
X130900000Y-136900000D01*
X130933333Y-136933333D01*
X130966666Y-137000000D01*
X130966666Y-137100000D01*
X130933333Y-137166666D01*
X130900000Y-137200000D01*
X130833333Y-137233333D01*
X130566666Y-137233333D01*
X131233333Y-136933333D02*
X131266666Y-136900000D01*
X131333333Y-136866666D01*
X131500000Y-136866666D01*
X131566666Y-136900000D01*
X131600000Y-136933333D01*
X131633333Y-137000000D01*
X131633333Y-137066666D01*
X131600000Y-137166666D01*
X131200000Y-137566666D01*
X131633333Y-137566666D01*
X132066666Y-136866666D02*
X132133333Y-136866666D01*
X132200000Y-136900000D01*
X132233333Y-136933333D01*
X132266666Y-137000000D01*
X132300000Y-137133333D01*
X132300000Y-137300000D01*
X132266666Y-137433333D01*
X132233333Y-137500000D01*
X132200000Y-137533333D01*
X132133333Y-137566666D01*
X132066666Y-137566666D01*
X132000000Y-137533333D01*
X131966666Y-137500000D01*
X131933333Y-137433333D01*
X131900000Y-137300000D01*
X131900000Y-137133333D01*
X131933333Y-137000000D01*
X131966666Y-136933333D01*
X132000000Y-136900000D01*
X132066666Y-136866666D01*
X132533333Y-136866666D02*
X132966666Y-136866666D01*
X132733333Y-137133333D01*
X132833333Y-137133333D01*
X132900000Y-137166666D01*
X132933333Y-137200000D01*
X132966666Y-137266666D01*
X132966666Y-137433333D01*
X132933333Y-137500000D01*
X132900000Y-137533333D01*
X132833333Y-137566666D01*
X132633333Y-137566666D01*
X132566666Y-137533333D01*
X132533333Y-137500000D01*
D11*
X130579100Y-134989647D02*
X130102910Y-135322980D01*
X130579100Y-135561076D02*
X129579100Y-135561076D01*
X129579100Y-135180123D01*
X129626720Y-135084885D01*
X129674339Y-135037266D01*
X129769577Y-134989647D01*
X129912434Y-134989647D01*
X130007672Y-135037266D01*
X130055291Y-135084885D01*
X130102910Y-135180123D01*
X130102910Y-135561076D01*
X129674339Y-134608695D02*
X129626720Y-134561076D01*
X129579100Y-134465838D01*
X129579100Y-134227742D01*
X129626720Y-134132504D01*
X129674339Y-134084885D01*
X129769577Y-134037266D01*
X129864815Y-134037266D01*
X130007672Y-134084885D01*
X130579100Y-134656314D01*
X130579100Y-134037266D01*
X129579100Y-133418219D02*
X129579100Y-133322980D01*
X129626720Y-133227742D01*
X129674339Y-133180123D01*
X129769577Y-133132504D01*
X129960053Y-133084885D01*
X130198148Y-133084885D01*
X130388624Y-133132504D01*
X130483862Y-133180123D01*
X130531481Y-133227742D01*
X130579100Y-133322980D01*
X130579100Y-133418219D01*
X130531481Y-133513457D01*
X130483862Y-133561076D01*
X130388624Y-133608695D01*
X130198148Y-133656314D01*
X129960053Y-133656314D01*
X129769577Y-133608695D01*
X129674339Y-133561076D01*
X129626720Y-133513457D01*
X129579100Y-133418219D01*
X129674339Y-132703933D02*
X129626720Y-132656314D01*
X129579100Y-132561076D01*
X129579100Y-132322980D01*
X129626720Y-132227742D01*
X129674339Y-132180123D01*
X129769577Y-132132504D01*
X129864815Y-132132504D01*
X130007672Y-132180123D01*
X130579100Y-132751552D01*
X130579100Y-132132504D01*
D14*
X127966666Y-137566666D02*
X127733333Y-137233333D01*
X127566666Y-137566666D02*
X127566666Y-136866666D01*
X127833333Y-136866666D01*
X127900000Y-136900000D01*
X127933333Y-136933333D01*
X127966666Y-137000000D01*
X127966666Y-137100000D01*
X127933333Y-137166666D01*
X127900000Y-137200000D01*
X127833333Y-137233333D01*
X127566666Y-137233333D01*
X128233333Y-136933333D02*
X128266666Y-136900000D01*
X128333333Y-136866666D01*
X128500000Y-136866666D01*
X128566666Y-136900000D01*
X128600000Y-136933333D01*
X128633333Y-137000000D01*
X128633333Y-137066666D01*
X128600000Y-137166666D01*
X128200000Y-137566666D01*
X128633333Y-137566666D01*
X129066666Y-136866666D02*
X129133333Y-136866666D01*
X129200000Y-136900000D01*
X129233333Y-136933333D01*
X129266666Y-137000000D01*
X129300000Y-137133333D01*
X129300000Y-137300000D01*
X129266666Y-137433333D01*
X129233333Y-137500000D01*
X129200000Y-137533333D01*
X129133333Y-137566666D01*
X129066666Y-137566666D01*
X129000000Y-137533333D01*
X128966666Y-137500000D01*
X128933333Y-137433333D01*
X128900000Y-137300000D01*
X128900000Y-137133333D01*
X128933333Y-137000000D01*
X128966666Y-136933333D01*
X129000000Y-136900000D01*
X129066666Y-136866666D01*
X129966666Y-137566666D02*
X129566666Y-137566666D01*
X129766666Y-137566666D02*
X129766666Y-136866666D01*
X129700000Y-136966666D01*
X129633333Y-137033333D01*
X129566666Y-137066666D01*
D15*
X128919523Y-105195476D02*
X128798571Y-105135000D01*
X128677619Y-105014047D01*
X128496190Y-104832619D01*
X128375238Y-104772142D01*
X128254285Y-104772142D01*
X128314761Y-105074523D02*
X128193809Y-105014047D01*
X128072857Y-104893095D01*
X128012380Y-104651190D01*
X128012380Y-104227857D01*
X128072857Y-103985952D01*
X128193809Y-103865000D01*
X128314761Y-103804523D01*
X128556666Y-103804523D01*
X128677619Y-103865000D01*
X128798571Y-103985952D01*
X128859047Y-104227857D01*
X128859047Y-104651190D01*
X128798571Y-104893095D01*
X128677619Y-105014047D01*
X128556666Y-105074523D01*
X128314761Y-105074523D01*
X129342857Y-103925476D02*
X129403333Y-103865000D01*
X129524285Y-103804523D01*
X129826666Y-103804523D01*
X129947619Y-103865000D01*
X130008095Y-103925476D01*
X130068571Y-104046428D01*
X130068571Y-104167380D01*
X130008095Y-104348809D01*
X129282380Y-105074523D01*
X130068571Y-105074523D01*
X130854761Y-103804523D02*
X130975714Y-103804523D01*
X131096666Y-103865000D01*
X131157142Y-103925476D01*
X131217619Y-104046428D01*
X131278095Y-104288333D01*
X131278095Y-104590714D01*
X131217619Y-104832619D01*
X131157142Y-104953571D01*
X131096666Y-105014047D01*
X130975714Y-105074523D01*
X130854761Y-105074523D01*
X130733809Y-105014047D01*
X130673333Y-104953571D01*
X130612857Y-104832619D01*
X130552380Y-104590714D01*
X130552380Y-104288333D01*
X130612857Y-104046428D01*
X130673333Y-103925476D01*
X130733809Y-103865000D01*
X130854761Y-103804523D01*
X131701428Y-103804523D02*
X132487619Y-103804523D01*
X132064285Y-104288333D01*
X132245714Y-104288333D01*
X132366666Y-104348809D01*
X132427142Y-104409285D01*
X132487619Y-104530238D01*
X132487619Y-104832619D01*
X132427142Y-104953571D01*
X132366666Y-105014047D01*
X132245714Y-105074523D01*
X131882857Y-105074523D01*
X131761904Y-105014047D01*
X131701428Y-104953571D01*
X140419523Y-122945476D02*
X140298571Y-122885000D01*
X140177619Y-122764047D01*
X139996190Y-122582619D01*
X139875238Y-122522142D01*
X139754285Y-122522142D01*
X139814761Y-122824523D02*
X139693809Y-122764047D01*
X139572857Y-122643095D01*
X139512380Y-122401190D01*
X139512380Y-121977857D01*
X139572857Y-121735952D01*
X139693809Y-121615000D01*
X139814761Y-121554523D01*
X140056666Y-121554523D01*
X140177619Y-121615000D01*
X140298571Y-121735952D01*
X140359047Y-121977857D01*
X140359047Y-122401190D01*
X140298571Y-122643095D01*
X140177619Y-122764047D01*
X140056666Y-122824523D01*
X139814761Y-122824523D01*
X140842857Y-121675476D02*
X140903333Y-121615000D01*
X141024285Y-121554523D01*
X141326666Y-121554523D01*
X141447619Y-121615000D01*
X141508095Y-121675476D01*
X141568571Y-121796428D01*
X141568571Y-121917380D01*
X141508095Y-122098809D01*
X140782380Y-122824523D01*
X141568571Y-122824523D01*
X142354761Y-121554523D02*
X142475714Y-121554523D01*
X142596666Y-121615000D01*
X142657142Y-121675476D01*
X142717619Y-121796428D01*
X142778095Y-122038333D01*
X142778095Y-122340714D01*
X142717619Y-122582619D01*
X142657142Y-122703571D01*
X142596666Y-122764047D01*
X142475714Y-122824523D01*
X142354761Y-122824523D01*
X142233809Y-122764047D01*
X142173333Y-122703571D01*
X142112857Y-122582619D01*
X142052380Y-122340714D01*
X142052380Y-122038333D01*
X142112857Y-121796428D01*
X142173333Y-121675476D01*
X142233809Y-121615000D01*
X142354761Y-121554523D01*
X143261904Y-121675476D02*
X143322380Y-121615000D01*
X143443333Y-121554523D01*
X143745714Y-121554523D01*
X143866666Y-121615000D01*
X143927142Y-121675476D01*
X143987619Y-121796428D01*
X143987619Y-121917380D01*
X143927142Y-122098809D01*
X143201428Y-122824523D01*
X143987619Y-122824523D01*
X106919523Y-116195476D02*
X106798571Y-116135000D01*
X106677619Y-116014047D01*
X106496190Y-115832619D01*
X106375238Y-115772142D01*
X106254285Y-115772142D01*
X106314761Y-116074523D02*
X106193809Y-116014047D01*
X106072857Y-115893095D01*
X106012380Y-115651190D01*
X106012380Y-115227857D01*
X106072857Y-114985952D01*
X106193809Y-114865000D01*
X106314761Y-114804523D01*
X106556666Y-114804523D01*
X106677619Y-114865000D01*
X106798571Y-114985952D01*
X106859047Y-115227857D01*
X106859047Y-115651190D01*
X106798571Y-115893095D01*
X106677619Y-116014047D01*
X106556666Y-116074523D01*
X106314761Y-116074523D01*
X107342857Y-114925476D02*
X107403333Y-114865000D01*
X107524285Y-114804523D01*
X107826666Y-114804523D01*
X107947619Y-114865000D01*
X108008095Y-114925476D01*
X108068571Y-115046428D01*
X108068571Y-115167380D01*
X108008095Y-115348809D01*
X107282380Y-116074523D01*
X108068571Y-116074523D01*
X108854761Y-114804523D02*
X108975714Y-114804523D01*
X109096666Y-114865000D01*
X109157142Y-114925476D01*
X109217619Y-115046428D01*
X109278095Y-115288333D01*
X109278095Y-115590714D01*
X109217619Y-115832619D01*
X109157142Y-115953571D01*
X109096666Y-116014047D01*
X108975714Y-116074523D01*
X108854761Y-116074523D01*
X108733809Y-116014047D01*
X108673333Y-115953571D01*
X108612857Y-115832619D01*
X108552380Y-115590714D01*
X108552380Y-115288333D01*
X108612857Y-115046428D01*
X108673333Y-114925476D01*
X108733809Y-114865000D01*
X108854761Y-114804523D01*
X110487619Y-116074523D02*
X109761904Y-116074523D01*
X110124761Y-116074523D02*
X110124761Y-114804523D01*
X110003809Y-114985952D01*
X109882857Y-115106904D01*
X109761904Y-115167380D01*
D14*
X111566666Y-126066666D02*
X111566666Y-125366666D01*
X111733333Y-125366666D01*
X111833333Y-125400000D01*
X111900000Y-125466666D01*
X111933333Y-125533333D01*
X111966666Y-125666666D01*
X111966666Y-125766666D01*
X111933333Y-125900000D01*
X111900000Y-125966666D01*
X111833333Y-126033333D01*
X111733333Y-126066666D01*
X111566666Y-126066666D01*
X112233333Y-125433333D02*
X112266666Y-125400000D01*
X112333333Y-125366666D01*
X112500000Y-125366666D01*
X112566666Y-125400000D01*
X112600000Y-125433333D01*
X112633333Y-125500000D01*
X112633333Y-125566666D01*
X112600000Y-125666666D01*
X112200000Y-126066666D01*
X112633333Y-126066666D01*
X113066666Y-125366666D02*
X113133333Y-125366666D01*
X113200000Y-125400000D01*
X113233333Y-125433333D01*
X113266666Y-125500000D01*
X113300000Y-125633333D01*
X113300000Y-125800000D01*
X113266666Y-125933333D01*
X113233333Y-126000000D01*
X113200000Y-126033333D01*
X113133333Y-126066666D01*
X113066666Y-126066666D01*
X113000000Y-126033333D01*
X112966666Y-126000000D01*
X112933333Y-125933333D01*
X112900000Y-125800000D01*
X112900000Y-125633333D01*
X112933333Y-125500000D01*
X112966666Y-125433333D01*
X113000000Y-125400000D01*
X113066666Y-125366666D01*
X113966666Y-126066666D02*
X113566666Y-126066666D01*
X113766666Y-126066666D02*
X113766666Y-125366666D01*
X113700000Y-125466666D01*
X113633333Y-125533333D01*
X113566666Y-125566666D01*
D11*
X122380952Y-92357142D02*
X122333333Y-92404761D01*
X122190476Y-92452380D01*
X122095238Y-92452380D01*
X121952380Y-92404761D01*
X121857142Y-92309523D01*
X121809523Y-92214285D01*
X121761904Y-92023809D01*
X121761904Y-91880952D01*
X121809523Y-91690476D01*
X121857142Y-91595238D01*
X121952380Y-91500000D01*
X122095238Y-91452380D01*
X122190476Y-91452380D01*
X122333333Y-91500000D01*
X122380952Y-91547619D01*
X122761904Y-91547619D02*
X122809523Y-91500000D01*
X122904761Y-91452380D01*
X123142857Y-91452380D01*
X123238095Y-91500000D01*
X123285714Y-91547619D01*
X123333333Y-91642857D01*
X123333333Y-91738095D01*
X123285714Y-91880952D01*
X122714285Y-92452380D01*
X123333333Y-92452380D01*
X124285714Y-92452380D02*
X123714285Y-92452380D01*
X124000000Y-92452380D02*
X124000000Y-91452380D01*
X123904761Y-91595238D01*
X123809523Y-91690476D01*
X123714285Y-91738095D01*
X125238095Y-92452380D02*
X124666666Y-92452380D01*
X124952380Y-92452380D02*
X124952380Y-91452380D01*
X124857142Y-91595238D01*
X124761904Y-91690476D01*
X124666666Y-91738095D01*
X139880952Y-127357142D02*
X139833333Y-127404761D01*
X139690476Y-127452380D01*
X139595238Y-127452380D01*
X139452380Y-127404761D01*
X139357142Y-127309523D01*
X139309523Y-127214285D01*
X139261904Y-127023809D01*
X139261904Y-126880952D01*
X139309523Y-126690476D01*
X139357142Y-126595238D01*
X139452380Y-126500000D01*
X139595238Y-126452380D01*
X139690476Y-126452380D01*
X139833333Y-126500000D01*
X139880952Y-126547619D01*
X140261904Y-126547619D02*
X140309523Y-126500000D01*
X140404761Y-126452380D01*
X140642857Y-126452380D01*
X140738095Y-126500000D01*
X140785714Y-126547619D01*
X140833333Y-126642857D01*
X140833333Y-126738095D01*
X140785714Y-126880952D01*
X140214285Y-127452380D01*
X140833333Y-127452380D01*
X141785714Y-127452380D02*
X141214285Y-127452380D01*
X141500000Y-127452380D02*
X141500000Y-126452380D01*
X141404761Y-126595238D01*
X141309523Y-126690476D01*
X141214285Y-126738095D01*
X142404761Y-126452380D02*
X142500000Y-126452380D01*
X142595238Y-126500000D01*
X142642857Y-126547619D01*
X142690476Y-126642857D01*
X142738095Y-126833333D01*
X142738095Y-127071428D01*
X142690476Y-127261904D01*
X142642857Y-127357142D01*
X142595238Y-127404761D01*
X142500000Y-127452380D01*
X142404761Y-127452380D01*
X142309523Y-127404761D01*
X142261904Y-127357142D01*
X142214285Y-127261904D01*
X142166666Y-127071428D01*
X142166666Y-126833333D01*
X142214285Y-126642857D01*
X142261904Y-126547619D01*
X142309523Y-126500000D01*
X142404761Y-126452380D01*
X135380952Y-114357142D02*
X135333333Y-114404761D01*
X135190476Y-114452380D01*
X135095238Y-114452380D01*
X134952380Y-114404761D01*
X134857142Y-114309523D01*
X134809523Y-114214285D01*
X134761904Y-114023809D01*
X134761904Y-113880952D01*
X134809523Y-113690476D01*
X134857142Y-113595238D01*
X134952380Y-113500000D01*
X135095238Y-113452380D01*
X135190476Y-113452380D01*
X135333333Y-113500000D01*
X135380952Y-113547619D01*
X135761904Y-113547619D02*
X135809523Y-113500000D01*
X135904761Y-113452380D01*
X136142857Y-113452380D01*
X136238095Y-113500000D01*
X136285714Y-113547619D01*
X136333333Y-113642857D01*
X136333333Y-113738095D01*
X136285714Y-113880952D01*
X135714285Y-114452380D01*
X136333333Y-114452380D01*
X136952380Y-113452380D02*
X137047619Y-113452380D01*
X137142857Y-113500000D01*
X137190476Y-113547619D01*
X137238095Y-113642857D01*
X137285714Y-113833333D01*
X137285714Y-114071428D01*
X137238095Y-114261904D01*
X137190476Y-114357142D01*
X137142857Y-114404761D01*
X137047619Y-114452380D01*
X136952380Y-114452380D01*
X136857142Y-114404761D01*
X136809523Y-114357142D01*
X136761904Y-114261904D01*
X136714285Y-114071428D01*
X136714285Y-113833333D01*
X136761904Y-113642857D01*
X136809523Y-113547619D01*
X136857142Y-113500000D01*
X136952380Y-113452380D01*
X137761904Y-114452380D02*
X137952380Y-114452380D01*
X138047619Y-114404761D01*
X138095238Y-114357142D01*
X138190476Y-114214285D01*
X138238095Y-114023809D01*
X138238095Y-113642857D01*
X138190476Y-113547619D01*
X138142857Y-113500000D01*
X138047619Y-113452380D01*
X137857142Y-113452380D01*
X137761904Y-113500000D01*
X137714285Y-113547619D01*
X137666666Y-113642857D01*
X137666666Y-113880952D01*
X137714285Y-113976190D01*
X137761904Y-114023809D01*
X137857142Y-114071428D01*
X138047619Y-114071428D01*
X138142857Y-114023809D01*
X138190476Y-113976190D01*
X138238095Y-113880952D01*
X126380952Y-113857142D02*
X126333333Y-113904761D01*
X126190476Y-113952380D01*
X126095238Y-113952380D01*
X125952380Y-113904761D01*
X125857142Y-113809523D01*
X125809523Y-113714285D01*
X125761904Y-113523809D01*
X125761904Y-113380952D01*
X125809523Y-113190476D01*
X125857142Y-113095238D01*
X125952380Y-113000000D01*
X126095238Y-112952380D01*
X126190476Y-112952380D01*
X126333333Y-113000000D01*
X126380952Y-113047619D01*
X126761904Y-113047619D02*
X126809523Y-113000000D01*
X126904761Y-112952380D01*
X127142857Y-112952380D01*
X127238095Y-113000000D01*
X127285714Y-113047619D01*
X127333333Y-113142857D01*
X127333333Y-113238095D01*
X127285714Y-113380952D01*
X126714285Y-113952380D01*
X127333333Y-113952380D01*
X127952380Y-112952380D02*
X128047619Y-112952380D01*
X128142857Y-113000000D01*
X128190476Y-113047619D01*
X128238095Y-113142857D01*
X128285714Y-113333333D01*
X128285714Y-113571428D01*
X128238095Y-113761904D01*
X128190476Y-113857142D01*
X128142857Y-113904761D01*
X128047619Y-113952380D01*
X127952380Y-113952380D01*
X127857142Y-113904761D01*
X127809523Y-113857142D01*
X127761904Y-113761904D01*
X127714285Y-113571428D01*
X127714285Y-113333333D01*
X127761904Y-113142857D01*
X127809523Y-113047619D01*
X127857142Y-113000000D01*
X127952380Y-112952380D01*
X128857142Y-113380952D02*
X128761904Y-113333333D01*
X128714285Y-113285714D01*
X128666666Y-113190476D01*
X128666666Y-113142857D01*
X128714285Y-113047619D01*
X128761904Y-113000000D01*
X128857142Y-112952380D01*
X129047619Y-112952380D01*
X129142857Y-113000000D01*
X129190476Y-113047619D01*
X129238095Y-113142857D01*
X129238095Y-113190476D01*
X129190476Y-113285714D01*
X129142857Y-113333333D01*
X129047619Y-113380952D01*
X128857142Y-113380952D01*
X128761904Y-113428571D01*
X128714285Y-113476190D01*
X128666666Y-113571428D01*
X128666666Y-113761904D01*
X128714285Y-113857142D01*
X128761904Y-113904761D01*
X128857142Y-113952380D01*
X129047619Y-113952380D01*
X129142857Y-113904761D01*
X129190476Y-113857142D01*
X129238095Y-113761904D01*
X129238095Y-113571428D01*
X129190476Y-113476190D01*
X129142857Y-113428571D01*
X129047619Y-113380952D01*
X126380952Y-111607142D02*
X126333333Y-111654761D01*
X126190476Y-111702380D01*
X126095238Y-111702380D01*
X125952380Y-111654761D01*
X125857142Y-111559523D01*
X125809523Y-111464285D01*
X125761904Y-111273809D01*
X125761904Y-111130952D01*
X125809523Y-110940476D01*
X125857142Y-110845238D01*
X125952380Y-110750000D01*
X126095238Y-110702380D01*
X126190476Y-110702380D01*
X126333333Y-110750000D01*
X126380952Y-110797619D01*
X126761904Y-110797619D02*
X126809523Y-110750000D01*
X126904761Y-110702380D01*
X127142857Y-110702380D01*
X127238095Y-110750000D01*
X127285714Y-110797619D01*
X127333333Y-110892857D01*
X127333333Y-110988095D01*
X127285714Y-111130952D01*
X126714285Y-111702380D01*
X127333333Y-111702380D01*
X127952380Y-110702380D02*
X128047619Y-110702380D01*
X128142857Y-110750000D01*
X128190476Y-110797619D01*
X128238095Y-110892857D01*
X128285714Y-111083333D01*
X128285714Y-111321428D01*
X128238095Y-111511904D01*
X128190476Y-111607142D01*
X128142857Y-111654761D01*
X128047619Y-111702380D01*
X127952380Y-111702380D01*
X127857142Y-111654761D01*
X127809523Y-111607142D01*
X127761904Y-111511904D01*
X127714285Y-111321428D01*
X127714285Y-111083333D01*
X127761904Y-110892857D01*
X127809523Y-110797619D01*
X127857142Y-110750000D01*
X127952380Y-110702380D01*
X128619047Y-110702380D02*
X129285714Y-110702380D01*
X128857142Y-111702380D01*
D14*
X118500000Y-127070833D02*
X118533333Y-127104166D01*
X118566666Y-127204166D01*
X118566666Y-127270833D01*
X118533333Y-127370833D01*
X118466666Y-127437500D01*
X118400000Y-127470833D01*
X118266666Y-127504166D01*
X118166666Y-127504166D01*
X118033333Y-127470833D01*
X117966666Y-127437500D01*
X117900000Y-127370833D01*
X117866666Y-127270833D01*
X117866666Y-127204166D01*
X117900000Y-127104166D01*
X117933333Y-127070833D01*
X117933333Y-126804166D02*
X117900000Y-126770833D01*
X117866666Y-126704166D01*
X117866666Y-126537500D01*
X117900000Y-126470833D01*
X117933333Y-126437500D01*
X118000000Y-126404166D01*
X118066666Y-126404166D01*
X118166666Y-126437500D01*
X118566666Y-126837500D01*
X118566666Y-126404166D01*
X117866666Y-125970833D02*
X117866666Y-125904166D01*
X117900000Y-125837500D01*
X117933333Y-125804166D01*
X118000000Y-125770833D01*
X118133333Y-125737500D01*
X118300000Y-125737500D01*
X118433333Y-125770833D01*
X118500000Y-125804166D01*
X118533333Y-125837500D01*
X118566666Y-125904166D01*
X118566666Y-125970833D01*
X118533333Y-126037500D01*
X118500000Y-126070833D01*
X118433333Y-126104166D01*
X118300000Y-126137500D01*
X118133333Y-126137500D01*
X118000000Y-126104166D01*
X117933333Y-126070833D01*
X117900000Y-126037500D01*
X117866666Y-125970833D01*
X117866666Y-125137500D02*
X117866666Y-125270833D01*
X117900000Y-125337500D01*
X117933333Y-125370833D01*
X118033333Y-125437500D01*
X118166666Y-125470833D01*
X118433333Y-125470833D01*
X118500000Y-125437500D01*
X118533333Y-125404166D01*
X118566666Y-125337500D01*
X118566666Y-125204166D01*
X118533333Y-125137500D01*
X118500000Y-125104166D01*
X118433333Y-125070833D01*
X118266666Y-125070833D01*
X118200000Y-125104166D01*
X118166666Y-125137500D01*
X118133333Y-125204166D01*
X118133333Y-125337500D01*
X118166666Y-125404166D01*
X118200000Y-125437500D01*
X118266666Y-125470833D01*
D11*
X109880952Y-122357142D02*
X109833333Y-122404761D01*
X109690476Y-122452380D01*
X109595238Y-122452380D01*
X109452380Y-122404761D01*
X109357142Y-122309523D01*
X109309523Y-122214285D01*
X109261904Y-122023809D01*
X109261904Y-121880952D01*
X109309523Y-121690476D01*
X109357142Y-121595238D01*
X109452380Y-121500000D01*
X109595238Y-121452380D01*
X109690476Y-121452380D01*
X109833333Y-121500000D01*
X109880952Y-121547619D01*
X110261904Y-121547619D02*
X110309523Y-121500000D01*
X110404761Y-121452380D01*
X110642857Y-121452380D01*
X110738095Y-121500000D01*
X110785714Y-121547619D01*
X110833333Y-121642857D01*
X110833333Y-121738095D01*
X110785714Y-121880952D01*
X110214285Y-122452380D01*
X110833333Y-122452380D01*
X111452380Y-121452380D02*
X111547619Y-121452380D01*
X111642857Y-121500000D01*
X111690476Y-121547619D01*
X111738095Y-121642857D01*
X111785714Y-121833333D01*
X111785714Y-122071428D01*
X111738095Y-122261904D01*
X111690476Y-122357142D01*
X111642857Y-122404761D01*
X111547619Y-122452380D01*
X111452380Y-122452380D01*
X111357142Y-122404761D01*
X111309523Y-122357142D01*
X111261904Y-122261904D01*
X111214285Y-122071428D01*
X111214285Y-121833333D01*
X111261904Y-121642857D01*
X111309523Y-121547619D01*
X111357142Y-121500000D01*
X111452380Y-121452380D01*
X112690476Y-121452380D02*
X112214285Y-121452380D01*
X112166666Y-121928571D01*
X112214285Y-121880952D01*
X112309523Y-121833333D01*
X112547619Y-121833333D01*
X112642857Y-121880952D01*
X112690476Y-121928571D01*
X112738095Y-122023809D01*
X112738095Y-122261904D01*
X112690476Y-122357142D01*
X112642857Y-122404761D01*
X112547619Y-122452380D01*
X112309523Y-122452380D01*
X112214285Y-122404761D01*
X112166666Y-122357142D01*
D14*
X105466666Y-124250000D02*
X105433333Y-124283333D01*
X105333333Y-124316666D01*
X105266666Y-124316666D01*
X105166666Y-124283333D01*
X105100000Y-124216666D01*
X105066666Y-124150000D01*
X105033333Y-124016666D01*
X105033333Y-123916666D01*
X105066666Y-123783333D01*
X105100000Y-123716666D01*
X105166666Y-123650000D01*
X105266666Y-123616666D01*
X105333333Y-123616666D01*
X105433333Y-123650000D01*
X105466666Y-123683333D01*
X105733333Y-123683333D02*
X105766666Y-123650000D01*
X105833333Y-123616666D01*
X106000000Y-123616666D01*
X106066666Y-123650000D01*
X106100000Y-123683333D01*
X106133333Y-123750000D01*
X106133333Y-123816666D01*
X106100000Y-123916666D01*
X105700000Y-124316666D01*
X106133333Y-124316666D01*
X106566666Y-123616666D02*
X106633333Y-123616666D01*
X106700000Y-123650000D01*
X106733333Y-123683333D01*
X106766666Y-123750000D01*
X106800000Y-123883333D01*
X106800000Y-124050000D01*
X106766666Y-124183333D01*
X106733333Y-124250000D01*
X106700000Y-124283333D01*
X106633333Y-124316666D01*
X106566666Y-124316666D01*
X106500000Y-124283333D01*
X106466666Y-124250000D01*
X106433333Y-124183333D01*
X106400000Y-124050000D01*
X106400000Y-123883333D01*
X106433333Y-123750000D01*
X106466666Y-123683333D01*
X106500000Y-123650000D01*
X106566666Y-123616666D01*
X107400000Y-123850000D02*
X107400000Y-124316666D01*
X107233333Y-123583333D02*
X107066666Y-124083333D01*
X107500000Y-124083333D01*
X105466666Y-126000000D02*
X105433333Y-126033333D01*
X105333333Y-126066666D01*
X105266666Y-126066666D01*
X105166666Y-126033333D01*
X105100000Y-125966666D01*
X105066666Y-125900000D01*
X105033333Y-125766666D01*
X105033333Y-125666666D01*
X105066666Y-125533333D01*
X105100000Y-125466666D01*
X105166666Y-125400000D01*
X105266666Y-125366666D01*
X105333333Y-125366666D01*
X105433333Y-125400000D01*
X105466666Y-125433333D01*
X105733333Y-125433333D02*
X105766666Y-125400000D01*
X105833333Y-125366666D01*
X106000000Y-125366666D01*
X106066666Y-125400000D01*
X106100000Y-125433333D01*
X106133333Y-125500000D01*
X106133333Y-125566666D01*
X106100000Y-125666666D01*
X105700000Y-126066666D01*
X106133333Y-126066666D01*
X106566666Y-125366666D02*
X106633333Y-125366666D01*
X106700000Y-125400000D01*
X106733333Y-125433333D01*
X106766666Y-125500000D01*
X106800000Y-125633333D01*
X106800000Y-125800000D01*
X106766666Y-125933333D01*
X106733333Y-126000000D01*
X106700000Y-126033333D01*
X106633333Y-126066666D01*
X106566666Y-126066666D01*
X106500000Y-126033333D01*
X106466666Y-126000000D01*
X106433333Y-125933333D01*
X106400000Y-125800000D01*
X106400000Y-125633333D01*
X106433333Y-125500000D01*
X106466666Y-125433333D01*
X106500000Y-125400000D01*
X106566666Y-125366666D01*
X107033333Y-125366666D02*
X107466666Y-125366666D01*
X107233333Y-125633333D01*
X107333333Y-125633333D01*
X107400000Y-125666666D01*
X107433333Y-125700000D01*
X107466666Y-125766666D01*
X107466666Y-125933333D01*
X107433333Y-126000000D01*
X107400000Y-126033333D01*
X107333333Y-126066666D01*
X107133333Y-126066666D01*
X107066666Y-126033333D01*
X107033333Y-126000000D01*
X105466666Y-127750000D02*
X105433333Y-127783333D01*
X105333333Y-127816666D01*
X105266666Y-127816666D01*
X105166666Y-127783333D01*
X105100000Y-127716666D01*
X105066666Y-127650000D01*
X105033333Y-127516666D01*
X105033333Y-127416666D01*
X105066666Y-127283333D01*
X105100000Y-127216666D01*
X105166666Y-127150000D01*
X105266666Y-127116666D01*
X105333333Y-127116666D01*
X105433333Y-127150000D01*
X105466666Y-127183333D01*
X105733333Y-127183333D02*
X105766666Y-127150000D01*
X105833333Y-127116666D01*
X106000000Y-127116666D01*
X106066666Y-127150000D01*
X106100000Y-127183333D01*
X106133333Y-127250000D01*
X106133333Y-127316666D01*
X106100000Y-127416666D01*
X105700000Y-127816666D01*
X106133333Y-127816666D01*
X106566666Y-127116666D02*
X106633333Y-127116666D01*
X106700000Y-127150000D01*
X106733333Y-127183333D01*
X106766666Y-127250000D01*
X106800000Y-127383333D01*
X106800000Y-127550000D01*
X106766666Y-127683333D01*
X106733333Y-127750000D01*
X106700000Y-127783333D01*
X106633333Y-127816666D01*
X106566666Y-127816666D01*
X106500000Y-127783333D01*
X106466666Y-127750000D01*
X106433333Y-127683333D01*
X106400000Y-127550000D01*
X106400000Y-127383333D01*
X106433333Y-127250000D01*
X106466666Y-127183333D01*
X106500000Y-127150000D01*
X106566666Y-127116666D01*
X107066666Y-127183333D02*
X107100000Y-127150000D01*
X107166666Y-127116666D01*
X107333333Y-127116666D01*
X107400000Y-127150000D01*
X107433333Y-127183333D01*
X107466666Y-127250000D01*
X107466666Y-127316666D01*
X107433333Y-127416666D01*
X107033333Y-127816666D01*
X107466666Y-127816666D01*
X122966666Y-128000000D02*
X122933333Y-128033333D01*
X122833333Y-128066666D01*
X122766666Y-128066666D01*
X122666666Y-128033333D01*
X122600000Y-127966666D01*
X122566666Y-127900000D01*
X122533333Y-127766666D01*
X122533333Y-127666666D01*
X122566666Y-127533333D01*
X122600000Y-127466666D01*
X122666666Y-127400000D01*
X122766666Y-127366666D01*
X122833333Y-127366666D01*
X122933333Y-127400000D01*
X122966666Y-127433333D01*
X123233333Y-127433333D02*
X123266666Y-127400000D01*
X123333333Y-127366666D01*
X123500000Y-127366666D01*
X123566666Y-127400000D01*
X123600000Y-127433333D01*
X123633333Y-127500000D01*
X123633333Y-127566666D01*
X123600000Y-127666666D01*
X123200000Y-128066666D01*
X123633333Y-128066666D01*
X124066666Y-127366666D02*
X124133333Y-127366666D01*
X124200000Y-127400000D01*
X124233333Y-127433333D01*
X124266666Y-127500000D01*
X124300000Y-127633333D01*
X124300000Y-127800000D01*
X124266666Y-127933333D01*
X124233333Y-128000000D01*
X124200000Y-128033333D01*
X124133333Y-128066666D01*
X124066666Y-128066666D01*
X124000000Y-128033333D01*
X123966666Y-128000000D01*
X123933333Y-127933333D01*
X123900000Y-127800000D01*
X123900000Y-127633333D01*
X123933333Y-127500000D01*
X123966666Y-127433333D01*
X124000000Y-127400000D01*
X124066666Y-127366666D01*
X124966666Y-128066666D02*
X124566666Y-128066666D01*
X124766666Y-128066666D02*
X124766666Y-127366666D01*
X124700000Y-127466666D01*
X124633333Y-127533333D01*
X124566666Y-127566666D01*
D11*
X113785714Y-81952380D02*
X113785714Y-82761904D01*
X113833333Y-82857142D01*
X113880952Y-82904761D01*
X113976190Y-82952380D01*
X114166666Y-82952380D01*
X114261904Y-82904761D01*
X114309523Y-82857142D01*
X114357142Y-82761904D01*
X114357142Y-81952380D01*
X115261904Y-82285714D02*
X115261904Y-82952380D01*
X115023809Y-81904761D02*
X114785714Y-82619047D01*
X115404761Y-82619047D01*
X115976190Y-81952380D02*
X116071428Y-81952380D01*
X116166666Y-82000000D01*
X116214285Y-82047619D01*
X116261904Y-82142857D01*
X116309523Y-82333333D01*
X116309523Y-82571428D01*
X116261904Y-82761904D01*
X116214285Y-82857142D01*
X116166666Y-82904761D01*
X116071428Y-82952380D01*
X115976190Y-82952380D01*
X115880952Y-82904761D01*
X115833333Y-82857142D01*
X115785714Y-82761904D01*
X115738095Y-82571428D01*
X115738095Y-82333333D01*
X115785714Y-82142857D01*
X115833333Y-82047619D01*
X115880952Y-82000000D01*
X115976190Y-81952380D01*
X117261904Y-82952380D02*
X116690476Y-82952380D01*
X116976190Y-82952380D02*
X116976190Y-81952380D01*
X116880952Y-82095238D01*
X116785714Y-82190476D01*
X116690476Y-82238095D01*
X138702380Y-109964285D02*
X139511904Y-109964285D01*
X139607142Y-109916666D01*
X139654761Y-109869047D01*
X139702380Y-109773809D01*
X139702380Y-109583333D01*
X139654761Y-109488095D01*
X139607142Y-109440476D01*
X139511904Y-109392857D01*
X138702380Y-109392857D01*
X138797619Y-108964285D02*
X138750000Y-108916666D01*
X138702380Y-108821428D01*
X138702380Y-108583333D01*
X138750000Y-108488095D01*
X138797619Y-108440476D01*
X138892857Y-108392857D01*
X138988095Y-108392857D01*
X139130952Y-108440476D01*
X139702380Y-109011904D01*
X139702380Y-108392857D01*
X138702380Y-107773809D02*
X138702380Y-107678571D01*
X138750000Y-107583333D01*
X138797619Y-107535714D01*
X138892857Y-107488095D01*
X139083333Y-107440476D01*
X139321428Y-107440476D01*
X139511904Y-107488095D01*
X139607142Y-107535714D01*
X139654761Y-107583333D01*
X139702380Y-107678571D01*
X139702380Y-107773809D01*
X139654761Y-107869047D01*
X139607142Y-107916666D01*
X139511904Y-107964285D01*
X139321428Y-108011904D01*
X139083333Y-108011904D01*
X138892857Y-107964285D01*
X138797619Y-107916666D01*
X138750000Y-107869047D01*
X138702380Y-107773809D01*
X138702380Y-107107142D02*
X138702380Y-106488095D01*
X139083333Y-106821428D01*
X139083333Y-106678571D01*
X139130952Y-106583333D01*
X139178571Y-106535714D01*
X139273809Y-106488095D01*
X139511904Y-106488095D01*
X139607142Y-106535714D01*
X139654761Y-106583333D01*
X139702380Y-106678571D01*
X139702380Y-106964285D01*
X139654761Y-107059523D01*
X139607142Y-107107142D01*
M02*
