G04 #@! TF.GenerationSoftware,KiCad,Pcbnew,(5.1.2)-2*
G04 #@! TF.CreationDate,2019-10-16T12:38:49+08:00*
G04 #@! TF.ProjectId,ESP32-Solar-Battery,45535033-322d-4536-9f6c-61722d426174,rev?*
G04 #@! TF.SameCoordinates,Original*
G04 #@! TF.FileFunction,Paste,Top*
G04 #@! TF.FilePolarity,Positive*
%FSLAX46Y46*%
G04 Gerber Fmt 4.6, Leading zero omitted, Abs format (unit mm)*
G04 Created by KiCad (PCBNEW (5.1.2)-2) date 2019-10-16 12:38:49*
%MOMM*%
%LPD*%
G04 APERTURE LIST*
%ADD10C,0.100000*%
%ADD11C,0.875000*%
%ADD12C,1.350000*%
%ADD13R,0.510000X1.100000*%
%ADD14R,0.650000X1.060000*%
%ADD15R,0.900000X0.800000*%
%ADD16R,7.700000X3.100000*%
%ADD17R,2.199640X1.399540*%
%ADD18R,1.200000X0.900000*%
%ADD19R,0.600000X1.050000*%
%ADD20R,2.000000X0.900000*%
%ADD21R,0.900000X2.000000*%
%ADD22R,5.000000X5.000000*%
G04 APERTURE END LIST*
D10*
G36*
X127307691Y-90763553D02*
G01*
X127328926Y-90766703D01*
X127349750Y-90771919D01*
X127369962Y-90779151D01*
X127389368Y-90788330D01*
X127407781Y-90799366D01*
X127425024Y-90812154D01*
X127440930Y-90826570D01*
X127455346Y-90842476D01*
X127468134Y-90859719D01*
X127479170Y-90878132D01*
X127488349Y-90897538D01*
X127495581Y-90917750D01*
X127500797Y-90938574D01*
X127503947Y-90959809D01*
X127505000Y-90981250D01*
X127505000Y-91418750D01*
X127503947Y-91440191D01*
X127500797Y-91461426D01*
X127495581Y-91482250D01*
X127488349Y-91502462D01*
X127479170Y-91521868D01*
X127468134Y-91540281D01*
X127455346Y-91557524D01*
X127440930Y-91573430D01*
X127425024Y-91587846D01*
X127407781Y-91600634D01*
X127389368Y-91611670D01*
X127369962Y-91620849D01*
X127349750Y-91628081D01*
X127328926Y-91633297D01*
X127307691Y-91636447D01*
X127286250Y-91637500D01*
X126773750Y-91637500D01*
X126752309Y-91636447D01*
X126731074Y-91633297D01*
X126710250Y-91628081D01*
X126690038Y-91620849D01*
X126670632Y-91611670D01*
X126652219Y-91600634D01*
X126634976Y-91587846D01*
X126619070Y-91573430D01*
X126604654Y-91557524D01*
X126591866Y-91540281D01*
X126580830Y-91521868D01*
X126571651Y-91502462D01*
X126564419Y-91482250D01*
X126559203Y-91461426D01*
X126556053Y-91440191D01*
X126555000Y-91418750D01*
X126555000Y-90981250D01*
X126556053Y-90959809D01*
X126559203Y-90938574D01*
X126564419Y-90917750D01*
X126571651Y-90897538D01*
X126580830Y-90878132D01*
X126591866Y-90859719D01*
X126604654Y-90842476D01*
X126619070Y-90826570D01*
X126634976Y-90812154D01*
X126652219Y-90799366D01*
X126670632Y-90788330D01*
X126690038Y-90779151D01*
X126710250Y-90771919D01*
X126731074Y-90766703D01*
X126752309Y-90763553D01*
X126773750Y-90762500D01*
X127286250Y-90762500D01*
X127307691Y-90763553D01*
X127307691Y-90763553D01*
G37*
D11*
X127030000Y-91200000D03*
D10*
G36*
X127307691Y-89188553D02*
G01*
X127328926Y-89191703D01*
X127349750Y-89196919D01*
X127369962Y-89204151D01*
X127389368Y-89213330D01*
X127407781Y-89224366D01*
X127425024Y-89237154D01*
X127440930Y-89251570D01*
X127455346Y-89267476D01*
X127468134Y-89284719D01*
X127479170Y-89303132D01*
X127488349Y-89322538D01*
X127495581Y-89342750D01*
X127500797Y-89363574D01*
X127503947Y-89384809D01*
X127505000Y-89406250D01*
X127505000Y-89843750D01*
X127503947Y-89865191D01*
X127500797Y-89886426D01*
X127495581Y-89907250D01*
X127488349Y-89927462D01*
X127479170Y-89946868D01*
X127468134Y-89965281D01*
X127455346Y-89982524D01*
X127440930Y-89998430D01*
X127425024Y-90012846D01*
X127407781Y-90025634D01*
X127389368Y-90036670D01*
X127369962Y-90045849D01*
X127349750Y-90053081D01*
X127328926Y-90058297D01*
X127307691Y-90061447D01*
X127286250Y-90062500D01*
X126773750Y-90062500D01*
X126752309Y-90061447D01*
X126731074Y-90058297D01*
X126710250Y-90053081D01*
X126690038Y-90045849D01*
X126670632Y-90036670D01*
X126652219Y-90025634D01*
X126634976Y-90012846D01*
X126619070Y-89998430D01*
X126604654Y-89982524D01*
X126591866Y-89965281D01*
X126580830Y-89946868D01*
X126571651Y-89927462D01*
X126564419Y-89907250D01*
X126559203Y-89886426D01*
X126556053Y-89865191D01*
X126555000Y-89843750D01*
X126555000Y-89406250D01*
X126556053Y-89384809D01*
X126559203Y-89363574D01*
X126564419Y-89342750D01*
X126571651Y-89322538D01*
X126580830Y-89303132D01*
X126591866Y-89284719D01*
X126604654Y-89267476D01*
X126619070Y-89251570D01*
X126634976Y-89237154D01*
X126652219Y-89224366D01*
X126670632Y-89213330D01*
X126690038Y-89204151D01*
X126710250Y-89196919D01*
X126731074Y-89191703D01*
X126752309Y-89188553D01*
X126773750Y-89187500D01*
X127286250Y-89187500D01*
X127307691Y-89188553D01*
X127307691Y-89188553D01*
G37*
D11*
X127030000Y-89625000D03*
D10*
G36*
X118677691Y-90763553D02*
G01*
X118698926Y-90766703D01*
X118719750Y-90771919D01*
X118739962Y-90779151D01*
X118759368Y-90788330D01*
X118777781Y-90799366D01*
X118795024Y-90812154D01*
X118810930Y-90826570D01*
X118825346Y-90842476D01*
X118838134Y-90859719D01*
X118849170Y-90878132D01*
X118858349Y-90897538D01*
X118865581Y-90917750D01*
X118870797Y-90938574D01*
X118873947Y-90959809D01*
X118875000Y-90981250D01*
X118875000Y-91418750D01*
X118873947Y-91440191D01*
X118870797Y-91461426D01*
X118865581Y-91482250D01*
X118858349Y-91502462D01*
X118849170Y-91521868D01*
X118838134Y-91540281D01*
X118825346Y-91557524D01*
X118810930Y-91573430D01*
X118795024Y-91587846D01*
X118777781Y-91600634D01*
X118759368Y-91611670D01*
X118739962Y-91620849D01*
X118719750Y-91628081D01*
X118698926Y-91633297D01*
X118677691Y-91636447D01*
X118656250Y-91637500D01*
X118143750Y-91637500D01*
X118122309Y-91636447D01*
X118101074Y-91633297D01*
X118080250Y-91628081D01*
X118060038Y-91620849D01*
X118040632Y-91611670D01*
X118022219Y-91600634D01*
X118004976Y-91587846D01*
X117989070Y-91573430D01*
X117974654Y-91557524D01*
X117961866Y-91540281D01*
X117950830Y-91521868D01*
X117941651Y-91502462D01*
X117934419Y-91482250D01*
X117929203Y-91461426D01*
X117926053Y-91440191D01*
X117925000Y-91418750D01*
X117925000Y-90981250D01*
X117926053Y-90959809D01*
X117929203Y-90938574D01*
X117934419Y-90917750D01*
X117941651Y-90897538D01*
X117950830Y-90878132D01*
X117961866Y-90859719D01*
X117974654Y-90842476D01*
X117989070Y-90826570D01*
X118004976Y-90812154D01*
X118022219Y-90799366D01*
X118040632Y-90788330D01*
X118060038Y-90779151D01*
X118080250Y-90771919D01*
X118101074Y-90766703D01*
X118122309Y-90763553D01*
X118143750Y-90762500D01*
X118656250Y-90762500D01*
X118677691Y-90763553D01*
X118677691Y-90763553D01*
G37*
D11*
X118400000Y-91200000D03*
D10*
G36*
X118677691Y-89188553D02*
G01*
X118698926Y-89191703D01*
X118719750Y-89196919D01*
X118739962Y-89204151D01*
X118759368Y-89213330D01*
X118777781Y-89224366D01*
X118795024Y-89237154D01*
X118810930Y-89251570D01*
X118825346Y-89267476D01*
X118838134Y-89284719D01*
X118849170Y-89303132D01*
X118858349Y-89322538D01*
X118865581Y-89342750D01*
X118870797Y-89363574D01*
X118873947Y-89384809D01*
X118875000Y-89406250D01*
X118875000Y-89843750D01*
X118873947Y-89865191D01*
X118870797Y-89886426D01*
X118865581Y-89907250D01*
X118858349Y-89927462D01*
X118849170Y-89946868D01*
X118838134Y-89965281D01*
X118825346Y-89982524D01*
X118810930Y-89998430D01*
X118795024Y-90012846D01*
X118777781Y-90025634D01*
X118759368Y-90036670D01*
X118739962Y-90045849D01*
X118719750Y-90053081D01*
X118698926Y-90058297D01*
X118677691Y-90061447D01*
X118656250Y-90062500D01*
X118143750Y-90062500D01*
X118122309Y-90061447D01*
X118101074Y-90058297D01*
X118080250Y-90053081D01*
X118060038Y-90045849D01*
X118040632Y-90036670D01*
X118022219Y-90025634D01*
X118004976Y-90012846D01*
X117989070Y-89998430D01*
X117974654Y-89982524D01*
X117961866Y-89965281D01*
X117950830Y-89946868D01*
X117941651Y-89927462D01*
X117934419Y-89907250D01*
X117929203Y-89886426D01*
X117926053Y-89865191D01*
X117925000Y-89843750D01*
X117925000Y-89406250D01*
X117926053Y-89384809D01*
X117929203Y-89363574D01*
X117934419Y-89342750D01*
X117941651Y-89322538D01*
X117950830Y-89303132D01*
X117961866Y-89284719D01*
X117974654Y-89267476D01*
X117989070Y-89251570D01*
X118004976Y-89237154D01*
X118022219Y-89224366D01*
X118040632Y-89213330D01*
X118060038Y-89204151D01*
X118080250Y-89196919D01*
X118101074Y-89191703D01*
X118122309Y-89188553D01*
X118143750Y-89187500D01*
X118656250Y-89187500D01*
X118677691Y-89188553D01*
X118677691Y-89188553D01*
G37*
D11*
X118400000Y-89625000D03*
D10*
G36*
X135699505Y-115826204D02*
G01*
X135723773Y-115829804D01*
X135747572Y-115835765D01*
X135770671Y-115844030D01*
X135792850Y-115854520D01*
X135813893Y-115867132D01*
X135833599Y-115881747D01*
X135851777Y-115898223D01*
X135868253Y-115916401D01*
X135882868Y-115936107D01*
X135895480Y-115957150D01*
X135905970Y-115979329D01*
X135914235Y-116002428D01*
X135920196Y-116026227D01*
X135923796Y-116050495D01*
X135925000Y-116074999D01*
X135925000Y-118925001D01*
X135923796Y-118949505D01*
X135920196Y-118973773D01*
X135914235Y-118997572D01*
X135905970Y-119020671D01*
X135895480Y-119042850D01*
X135882868Y-119063893D01*
X135868253Y-119083599D01*
X135851777Y-119101777D01*
X135833599Y-119118253D01*
X135813893Y-119132868D01*
X135792850Y-119145480D01*
X135770671Y-119155970D01*
X135747572Y-119164235D01*
X135723773Y-119170196D01*
X135699505Y-119173796D01*
X135675001Y-119175000D01*
X134824999Y-119175000D01*
X134800495Y-119173796D01*
X134776227Y-119170196D01*
X134752428Y-119164235D01*
X134729329Y-119155970D01*
X134707150Y-119145480D01*
X134686107Y-119132868D01*
X134666401Y-119118253D01*
X134648223Y-119101777D01*
X134631747Y-119083599D01*
X134617132Y-119063893D01*
X134604520Y-119042850D01*
X134594030Y-119020671D01*
X134585765Y-118997572D01*
X134579804Y-118973773D01*
X134576204Y-118949505D01*
X134575000Y-118925001D01*
X134575000Y-116074999D01*
X134576204Y-116050495D01*
X134579804Y-116026227D01*
X134585765Y-116002428D01*
X134594030Y-115979329D01*
X134604520Y-115957150D01*
X134617132Y-115936107D01*
X134631747Y-115916401D01*
X134648223Y-115898223D01*
X134666401Y-115881747D01*
X134686107Y-115867132D01*
X134707150Y-115854520D01*
X134729329Y-115844030D01*
X134752428Y-115835765D01*
X134776227Y-115829804D01*
X134800495Y-115826204D01*
X134824999Y-115825000D01*
X135675001Y-115825000D01*
X135699505Y-115826204D01*
X135699505Y-115826204D01*
G37*
D12*
X135250000Y-117500000D03*
D10*
G36*
X129899505Y-115826204D02*
G01*
X129923773Y-115829804D01*
X129947572Y-115835765D01*
X129970671Y-115844030D01*
X129992850Y-115854520D01*
X130013893Y-115867132D01*
X130033599Y-115881747D01*
X130051777Y-115898223D01*
X130068253Y-115916401D01*
X130082868Y-115936107D01*
X130095480Y-115957150D01*
X130105970Y-115979329D01*
X130114235Y-116002428D01*
X130120196Y-116026227D01*
X130123796Y-116050495D01*
X130125000Y-116074999D01*
X130125000Y-118925001D01*
X130123796Y-118949505D01*
X130120196Y-118973773D01*
X130114235Y-118997572D01*
X130105970Y-119020671D01*
X130095480Y-119042850D01*
X130082868Y-119063893D01*
X130068253Y-119083599D01*
X130051777Y-119101777D01*
X130033599Y-119118253D01*
X130013893Y-119132868D01*
X129992850Y-119145480D01*
X129970671Y-119155970D01*
X129947572Y-119164235D01*
X129923773Y-119170196D01*
X129899505Y-119173796D01*
X129875001Y-119175000D01*
X129024999Y-119175000D01*
X129000495Y-119173796D01*
X128976227Y-119170196D01*
X128952428Y-119164235D01*
X128929329Y-119155970D01*
X128907150Y-119145480D01*
X128886107Y-119132868D01*
X128866401Y-119118253D01*
X128848223Y-119101777D01*
X128831747Y-119083599D01*
X128817132Y-119063893D01*
X128804520Y-119042850D01*
X128794030Y-119020671D01*
X128785765Y-118997572D01*
X128779804Y-118973773D01*
X128776204Y-118949505D01*
X128775000Y-118925001D01*
X128775000Y-116074999D01*
X128776204Y-116050495D01*
X128779804Y-116026227D01*
X128785765Y-116002428D01*
X128794030Y-115979329D01*
X128804520Y-115957150D01*
X128817132Y-115936107D01*
X128831747Y-115916401D01*
X128848223Y-115898223D01*
X128866401Y-115881747D01*
X128886107Y-115867132D01*
X128907150Y-115854520D01*
X128929329Y-115844030D01*
X128952428Y-115835765D01*
X128976227Y-115829804D01*
X129000495Y-115826204D01*
X129024999Y-115825000D01*
X129875001Y-115825000D01*
X129899505Y-115826204D01*
X129899505Y-115826204D01*
G37*
D12*
X129450000Y-117500000D03*
D13*
X117072320Y-116924040D03*
X118072320Y-116924040D03*
X121072320Y-122024040D03*
X119072320Y-116924040D03*
X120072320Y-116924040D03*
X121072320Y-116924040D03*
X120072320Y-122024040D03*
X119072320Y-122024040D03*
X118072320Y-122024040D03*
X117072320Y-122024040D03*
D14*
X124597080Y-130669940D03*
X126497080Y-130669940D03*
X126497080Y-132869940D03*
X125547080Y-132869940D03*
X124597080Y-132869940D03*
D10*
G36*
X133922731Y-87863553D02*
G01*
X133943966Y-87866703D01*
X133964790Y-87871919D01*
X133985002Y-87879151D01*
X134004408Y-87888330D01*
X134022821Y-87899366D01*
X134040064Y-87912154D01*
X134055970Y-87926570D01*
X134070386Y-87942476D01*
X134083174Y-87959719D01*
X134094210Y-87978132D01*
X134103389Y-87997538D01*
X134110621Y-88017750D01*
X134115837Y-88038574D01*
X134118987Y-88059809D01*
X134120040Y-88081250D01*
X134120040Y-88518750D01*
X134118987Y-88540191D01*
X134115837Y-88561426D01*
X134110621Y-88582250D01*
X134103389Y-88602462D01*
X134094210Y-88621868D01*
X134083174Y-88640281D01*
X134070386Y-88657524D01*
X134055970Y-88673430D01*
X134040064Y-88687846D01*
X134022821Y-88700634D01*
X134004408Y-88711670D01*
X133985002Y-88720849D01*
X133964790Y-88728081D01*
X133943966Y-88733297D01*
X133922731Y-88736447D01*
X133901290Y-88737500D01*
X133388790Y-88737500D01*
X133367349Y-88736447D01*
X133346114Y-88733297D01*
X133325290Y-88728081D01*
X133305078Y-88720849D01*
X133285672Y-88711670D01*
X133267259Y-88700634D01*
X133250016Y-88687846D01*
X133234110Y-88673430D01*
X133219694Y-88657524D01*
X133206906Y-88640281D01*
X133195870Y-88621868D01*
X133186691Y-88602462D01*
X133179459Y-88582250D01*
X133174243Y-88561426D01*
X133171093Y-88540191D01*
X133170040Y-88518750D01*
X133170040Y-88081250D01*
X133171093Y-88059809D01*
X133174243Y-88038574D01*
X133179459Y-88017750D01*
X133186691Y-87997538D01*
X133195870Y-87978132D01*
X133206906Y-87959719D01*
X133219694Y-87942476D01*
X133234110Y-87926570D01*
X133250016Y-87912154D01*
X133267259Y-87899366D01*
X133285672Y-87888330D01*
X133305078Y-87879151D01*
X133325290Y-87871919D01*
X133346114Y-87866703D01*
X133367349Y-87863553D01*
X133388790Y-87862500D01*
X133901290Y-87862500D01*
X133922731Y-87863553D01*
X133922731Y-87863553D01*
G37*
D11*
X133645040Y-88300000D03*
D10*
G36*
X133922731Y-89438553D02*
G01*
X133943966Y-89441703D01*
X133964790Y-89446919D01*
X133985002Y-89454151D01*
X134004408Y-89463330D01*
X134022821Y-89474366D01*
X134040064Y-89487154D01*
X134055970Y-89501570D01*
X134070386Y-89517476D01*
X134083174Y-89534719D01*
X134094210Y-89553132D01*
X134103389Y-89572538D01*
X134110621Y-89592750D01*
X134115837Y-89613574D01*
X134118987Y-89634809D01*
X134120040Y-89656250D01*
X134120040Y-90093750D01*
X134118987Y-90115191D01*
X134115837Y-90136426D01*
X134110621Y-90157250D01*
X134103389Y-90177462D01*
X134094210Y-90196868D01*
X134083174Y-90215281D01*
X134070386Y-90232524D01*
X134055970Y-90248430D01*
X134040064Y-90262846D01*
X134022821Y-90275634D01*
X134004408Y-90286670D01*
X133985002Y-90295849D01*
X133964790Y-90303081D01*
X133943966Y-90308297D01*
X133922731Y-90311447D01*
X133901290Y-90312500D01*
X133388790Y-90312500D01*
X133367349Y-90311447D01*
X133346114Y-90308297D01*
X133325290Y-90303081D01*
X133305078Y-90295849D01*
X133285672Y-90286670D01*
X133267259Y-90275634D01*
X133250016Y-90262846D01*
X133234110Y-90248430D01*
X133219694Y-90232524D01*
X133206906Y-90215281D01*
X133195870Y-90196868D01*
X133186691Y-90177462D01*
X133179459Y-90157250D01*
X133174243Y-90136426D01*
X133171093Y-90115191D01*
X133170040Y-90093750D01*
X133170040Y-89656250D01*
X133171093Y-89634809D01*
X133174243Y-89613574D01*
X133179459Y-89592750D01*
X133186691Y-89572538D01*
X133195870Y-89553132D01*
X133206906Y-89534719D01*
X133219694Y-89517476D01*
X133234110Y-89501570D01*
X133250016Y-89487154D01*
X133267259Y-89474366D01*
X133285672Y-89463330D01*
X133305078Y-89454151D01*
X133325290Y-89446919D01*
X133346114Y-89441703D01*
X133367349Y-89438553D01*
X133388790Y-89437500D01*
X133901290Y-89437500D01*
X133922731Y-89438553D01*
X133922731Y-89438553D01*
G37*
D11*
X133645040Y-89875000D03*
D10*
G36*
X110027691Y-66909933D02*
G01*
X110048926Y-66913083D01*
X110069750Y-66918299D01*
X110089962Y-66925531D01*
X110109368Y-66934710D01*
X110127781Y-66945746D01*
X110145024Y-66958534D01*
X110160930Y-66972950D01*
X110175346Y-66988856D01*
X110188134Y-67006099D01*
X110199170Y-67024512D01*
X110208349Y-67043918D01*
X110215581Y-67064130D01*
X110220797Y-67084954D01*
X110223947Y-67106189D01*
X110225000Y-67127630D01*
X110225000Y-67565130D01*
X110223947Y-67586571D01*
X110220797Y-67607806D01*
X110215581Y-67628630D01*
X110208349Y-67648842D01*
X110199170Y-67668248D01*
X110188134Y-67686661D01*
X110175346Y-67703904D01*
X110160930Y-67719810D01*
X110145024Y-67734226D01*
X110127781Y-67747014D01*
X110109368Y-67758050D01*
X110089962Y-67767229D01*
X110069750Y-67774461D01*
X110048926Y-67779677D01*
X110027691Y-67782827D01*
X110006250Y-67783880D01*
X109493750Y-67783880D01*
X109472309Y-67782827D01*
X109451074Y-67779677D01*
X109430250Y-67774461D01*
X109410038Y-67767229D01*
X109390632Y-67758050D01*
X109372219Y-67747014D01*
X109354976Y-67734226D01*
X109339070Y-67719810D01*
X109324654Y-67703904D01*
X109311866Y-67686661D01*
X109300830Y-67668248D01*
X109291651Y-67648842D01*
X109284419Y-67628630D01*
X109279203Y-67607806D01*
X109276053Y-67586571D01*
X109275000Y-67565130D01*
X109275000Y-67127630D01*
X109276053Y-67106189D01*
X109279203Y-67084954D01*
X109284419Y-67064130D01*
X109291651Y-67043918D01*
X109300830Y-67024512D01*
X109311866Y-67006099D01*
X109324654Y-66988856D01*
X109339070Y-66972950D01*
X109354976Y-66958534D01*
X109372219Y-66945746D01*
X109390632Y-66934710D01*
X109410038Y-66925531D01*
X109430250Y-66918299D01*
X109451074Y-66913083D01*
X109472309Y-66909933D01*
X109493750Y-66908880D01*
X110006250Y-66908880D01*
X110027691Y-66909933D01*
X110027691Y-66909933D01*
G37*
D11*
X109750000Y-67346380D03*
D10*
G36*
X110027691Y-65334933D02*
G01*
X110048926Y-65338083D01*
X110069750Y-65343299D01*
X110089962Y-65350531D01*
X110109368Y-65359710D01*
X110127781Y-65370746D01*
X110145024Y-65383534D01*
X110160930Y-65397950D01*
X110175346Y-65413856D01*
X110188134Y-65431099D01*
X110199170Y-65449512D01*
X110208349Y-65468918D01*
X110215581Y-65489130D01*
X110220797Y-65509954D01*
X110223947Y-65531189D01*
X110225000Y-65552630D01*
X110225000Y-65990130D01*
X110223947Y-66011571D01*
X110220797Y-66032806D01*
X110215581Y-66053630D01*
X110208349Y-66073842D01*
X110199170Y-66093248D01*
X110188134Y-66111661D01*
X110175346Y-66128904D01*
X110160930Y-66144810D01*
X110145024Y-66159226D01*
X110127781Y-66172014D01*
X110109368Y-66183050D01*
X110089962Y-66192229D01*
X110069750Y-66199461D01*
X110048926Y-66204677D01*
X110027691Y-66207827D01*
X110006250Y-66208880D01*
X109493750Y-66208880D01*
X109472309Y-66207827D01*
X109451074Y-66204677D01*
X109430250Y-66199461D01*
X109410038Y-66192229D01*
X109390632Y-66183050D01*
X109372219Y-66172014D01*
X109354976Y-66159226D01*
X109339070Y-66144810D01*
X109324654Y-66128904D01*
X109311866Y-66111661D01*
X109300830Y-66093248D01*
X109291651Y-66073842D01*
X109284419Y-66053630D01*
X109279203Y-66032806D01*
X109276053Y-66011571D01*
X109275000Y-65990130D01*
X109275000Y-65552630D01*
X109276053Y-65531189D01*
X109279203Y-65509954D01*
X109284419Y-65489130D01*
X109291651Y-65468918D01*
X109300830Y-65449512D01*
X109311866Y-65431099D01*
X109324654Y-65413856D01*
X109339070Y-65397950D01*
X109354976Y-65383534D01*
X109372219Y-65370746D01*
X109390632Y-65359710D01*
X109410038Y-65350531D01*
X109430250Y-65343299D01*
X109451074Y-65338083D01*
X109472309Y-65334933D01*
X109493750Y-65333880D01*
X110006250Y-65333880D01*
X110027691Y-65334933D01*
X110027691Y-65334933D01*
G37*
D11*
X109750000Y-65771380D03*
D15*
X131096720Y-124700000D03*
X128696720Y-125650000D03*
X128696720Y-123750000D03*
D16*
X115250000Y-105500000D03*
X115250000Y-112400000D03*
D17*
X108410000Y-111569280D03*
X108410000Y-107170000D03*
D10*
G36*
X133922731Y-86263553D02*
G01*
X133943966Y-86266703D01*
X133964790Y-86271919D01*
X133985002Y-86279151D01*
X134004408Y-86288330D01*
X134022821Y-86299366D01*
X134040064Y-86312154D01*
X134055970Y-86326570D01*
X134070386Y-86342476D01*
X134083174Y-86359719D01*
X134094210Y-86378132D01*
X134103389Y-86397538D01*
X134110621Y-86417750D01*
X134115837Y-86438574D01*
X134118987Y-86459809D01*
X134120040Y-86481250D01*
X134120040Y-86918750D01*
X134118987Y-86940191D01*
X134115837Y-86961426D01*
X134110621Y-86982250D01*
X134103389Y-87002462D01*
X134094210Y-87021868D01*
X134083174Y-87040281D01*
X134070386Y-87057524D01*
X134055970Y-87073430D01*
X134040064Y-87087846D01*
X134022821Y-87100634D01*
X134004408Y-87111670D01*
X133985002Y-87120849D01*
X133964790Y-87128081D01*
X133943966Y-87133297D01*
X133922731Y-87136447D01*
X133901290Y-87137500D01*
X133388790Y-87137500D01*
X133367349Y-87136447D01*
X133346114Y-87133297D01*
X133325290Y-87128081D01*
X133305078Y-87120849D01*
X133285672Y-87111670D01*
X133267259Y-87100634D01*
X133250016Y-87087846D01*
X133234110Y-87073430D01*
X133219694Y-87057524D01*
X133206906Y-87040281D01*
X133195870Y-87021868D01*
X133186691Y-87002462D01*
X133179459Y-86982250D01*
X133174243Y-86961426D01*
X133171093Y-86940191D01*
X133170040Y-86918750D01*
X133170040Y-86481250D01*
X133171093Y-86459809D01*
X133174243Y-86438574D01*
X133179459Y-86417750D01*
X133186691Y-86397538D01*
X133195870Y-86378132D01*
X133206906Y-86359719D01*
X133219694Y-86342476D01*
X133234110Y-86326570D01*
X133250016Y-86312154D01*
X133267259Y-86299366D01*
X133285672Y-86288330D01*
X133305078Y-86279151D01*
X133325290Y-86271919D01*
X133346114Y-86266703D01*
X133367349Y-86263553D01*
X133388790Y-86262500D01*
X133901290Y-86262500D01*
X133922731Y-86263553D01*
X133922731Y-86263553D01*
G37*
D11*
X133645040Y-86700000D03*
D10*
G36*
X133922731Y-84688553D02*
G01*
X133943966Y-84691703D01*
X133964790Y-84696919D01*
X133985002Y-84704151D01*
X134004408Y-84713330D01*
X134022821Y-84724366D01*
X134040064Y-84737154D01*
X134055970Y-84751570D01*
X134070386Y-84767476D01*
X134083174Y-84784719D01*
X134094210Y-84803132D01*
X134103389Y-84822538D01*
X134110621Y-84842750D01*
X134115837Y-84863574D01*
X134118987Y-84884809D01*
X134120040Y-84906250D01*
X134120040Y-85343750D01*
X134118987Y-85365191D01*
X134115837Y-85386426D01*
X134110621Y-85407250D01*
X134103389Y-85427462D01*
X134094210Y-85446868D01*
X134083174Y-85465281D01*
X134070386Y-85482524D01*
X134055970Y-85498430D01*
X134040064Y-85512846D01*
X134022821Y-85525634D01*
X134004408Y-85536670D01*
X133985002Y-85545849D01*
X133964790Y-85553081D01*
X133943966Y-85558297D01*
X133922731Y-85561447D01*
X133901290Y-85562500D01*
X133388790Y-85562500D01*
X133367349Y-85561447D01*
X133346114Y-85558297D01*
X133325290Y-85553081D01*
X133305078Y-85545849D01*
X133285672Y-85536670D01*
X133267259Y-85525634D01*
X133250016Y-85512846D01*
X133234110Y-85498430D01*
X133219694Y-85482524D01*
X133206906Y-85465281D01*
X133195870Y-85446868D01*
X133186691Y-85427462D01*
X133179459Y-85407250D01*
X133174243Y-85386426D01*
X133171093Y-85365191D01*
X133170040Y-85343750D01*
X133170040Y-84906250D01*
X133171093Y-84884809D01*
X133174243Y-84863574D01*
X133179459Y-84842750D01*
X133186691Y-84822538D01*
X133195870Y-84803132D01*
X133206906Y-84784719D01*
X133219694Y-84767476D01*
X133234110Y-84751570D01*
X133250016Y-84737154D01*
X133267259Y-84724366D01*
X133285672Y-84713330D01*
X133305078Y-84704151D01*
X133325290Y-84696919D01*
X133346114Y-84691703D01*
X133367349Y-84688553D01*
X133388790Y-84687500D01*
X133901290Y-84687500D01*
X133922731Y-84688553D01*
X133922731Y-84688553D01*
G37*
D11*
X133645040Y-85125000D03*
D18*
X123390320Y-119750000D03*
X123390320Y-123050000D03*
X128696720Y-127500000D03*
X128696720Y-130800000D03*
D10*
G36*
X133977691Y-107863553D02*
G01*
X133998926Y-107866703D01*
X134019750Y-107871919D01*
X134039962Y-107879151D01*
X134059368Y-107888330D01*
X134077781Y-107899366D01*
X134095024Y-107912154D01*
X134110930Y-107926570D01*
X134125346Y-107942476D01*
X134138134Y-107959719D01*
X134149170Y-107978132D01*
X134158349Y-107997538D01*
X134165581Y-108017750D01*
X134170797Y-108038574D01*
X134173947Y-108059809D01*
X134175000Y-108081250D01*
X134175000Y-108518750D01*
X134173947Y-108540191D01*
X134170797Y-108561426D01*
X134165581Y-108582250D01*
X134158349Y-108602462D01*
X134149170Y-108621868D01*
X134138134Y-108640281D01*
X134125346Y-108657524D01*
X134110930Y-108673430D01*
X134095024Y-108687846D01*
X134077781Y-108700634D01*
X134059368Y-108711670D01*
X134039962Y-108720849D01*
X134019750Y-108728081D01*
X133998926Y-108733297D01*
X133977691Y-108736447D01*
X133956250Y-108737500D01*
X133443750Y-108737500D01*
X133422309Y-108736447D01*
X133401074Y-108733297D01*
X133380250Y-108728081D01*
X133360038Y-108720849D01*
X133340632Y-108711670D01*
X133322219Y-108700634D01*
X133304976Y-108687846D01*
X133289070Y-108673430D01*
X133274654Y-108657524D01*
X133261866Y-108640281D01*
X133250830Y-108621868D01*
X133241651Y-108602462D01*
X133234419Y-108582250D01*
X133229203Y-108561426D01*
X133226053Y-108540191D01*
X133225000Y-108518750D01*
X133225000Y-108081250D01*
X133226053Y-108059809D01*
X133229203Y-108038574D01*
X133234419Y-108017750D01*
X133241651Y-107997538D01*
X133250830Y-107978132D01*
X133261866Y-107959719D01*
X133274654Y-107942476D01*
X133289070Y-107926570D01*
X133304976Y-107912154D01*
X133322219Y-107899366D01*
X133340632Y-107888330D01*
X133360038Y-107879151D01*
X133380250Y-107871919D01*
X133401074Y-107866703D01*
X133422309Y-107863553D01*
X133443750Y-107862500D01*
X133956250Y-107862500D01*
X133977691Y-107863553D01*
X133977691Y-107863553D01*
G37*
D11*
X133700000Y-108300000D03*
D10*
G36*
X133977691Y-106288553D02*
G01*
X133998926Y-106291703D01*
X134019750Y-106296919D01*
X134039962Y-106304151D01*
X134059368Y-106313330D01*
X134077781Y-106324366D01*
X134095024Y-106337154D01*
X134110930Y-106351570D01*
X134125346Y-106367476D01*
X134138134Y-106384719D01*
X134149170Y-106403132D01*
X134158349Y-106422538D01*
X134165581Y-106442750D01*
X134170797Y-106463574D01*
X134173947Y-106484809D01*
X134175000Y-106506250D01*
X134175000Y-106943750D01*
X134173947Y-106965191D01*
X134170797Y-106986426D01*
X134165581Y-107007250D01*
X134158349Y-107027462D01*
X134149170Y-107046868D01*
X134138134Y-107065281D01*
X134125346Y-107082524D01*
X134110930Y-107098430D01*
X134095024Y-107112846D01*
X134077781Y-107125634D01*
X134059368Y-107136670D01*
X134039962Y-107145849D01*
X134019750Y-107153081D01*
X133998926Y-107158297D01*
X133977691Y-107161447D01*
X133956250Y-107162500D01*
X133443750Y-107162500D01*
X133422309Y-107161447D01*
X133401074Y-107158297D01*
X133380250Y-107153081D01*
X133360038Y-107145849D01*
X133340632Y-107136670D01*
X133322219Y-107125634D01*
X133304976Y-107112846D01*
X133289070Y-107098430D01*
X133274654Y-107082524D01*
X133261866Y-107065281D01*
X133250830Y-107046868D01*
X133241651Y-107027462D01*
X133234419Y-107007250D01*
X133229203Y-106986426D01*
X133226053Y-106965191D01*
X133225000Y-106943750D01*
X133225000Y-106506250D01*
X133226053Y-106484809D01*
X133229203Y-106463574D01*
X133234419Y-106442750D01*
X133241651Y-106422538D01*
X133250830Y-106403132D01*
X133261866Y-106384719D01*
X133274654Y-106367476D01*
X133289070Y-106351570D01*
X133304976Y-106337154D01*
X133322219Y-106324366D01*
X133340632Y-106313330D01*
X133360038Y-106304151D01*
X133380250Y-106296919D01*
X133401074Y-106291703D01*
X133422309Y-106288553D01*
X133443750Y-106287500D01*
X133956250Y-106287500D01*
X133977691Y-106288553D01*
X133977691Y-106288553D01*
G37*
D11*
X133700000Y-106725000D03*
D10*
G36*
X120826691Y-132655073D02*
G01*
X120847926Y-132658223D01*
X120868750Y-132663439D01*
X120888962Y-132670671D01*
X120908368Y-132679850D01*
X120926781Y-132690886D01*
X120944024Y-132703674D01*
X120959930Y-132718090D01*
X120974346Y-132733996D01*
X120987134Y-132751239D01*
X120998170Y-132769652D01*
X121007349Y-132789058D01*
X121014581Y-132809270D01*
X121019797Y-132830094D01*
X121022947Y-132851329D01*
X121024000Y-132872770D01*
X121024000Y-133385270D01*
X121022947Y-133406711D01*
X121019797Y-133427946D01*
X121014581Y-133448770D01*
X121007349Y-133468982D01*
X120998170Y-133488388D01*
X120987134Y-133506801D01*
X120974346Y-133524044D01*
X120959930Y-133539950D01*
X120944024Y-133554366D01*
X120926781Y-133567154D01*
X120908368Y-133578190D01*
X120888962Y-133587369D01*
X120868750Y-133594601D01*
X120847926Y-133599817D01*
X120826691Y-133602967D01*
X120805250Y-133604020D01*
X120367750Y-133604020D01*
X120346309Y-133602967D01*
X120325074Y-133599817D01*
X120304250Y-133594601D01*
X120284038Y-133587369D01*
X120264632Y-133578190D01*
X120246219Y-133567154D01*
X120228976Y-133554366D01*
X120213070Y-133539950D01*
X120198654Y-133524044D01*
X120185866Y-133506801D01*
X120174830Y-133488388D01*
X120165651Y-133468982D01*
X120158419Y-133448770D01*
X120153203Y-133427946D01*
X120150053Y-133406711D01*
X120149000Y-133385270D01*
X120149000Y-132872770D01*
X120150053Y-132851329D01*
X120153203Y-132830094D01*
X120158419Y-132809270D01*
X120165651Y-132789058D01*
X120174830Y-132769652D01*
X120185866Y-132751239D01*
X120198654Y-132733996D01*
X120213070Y-132718090D01*
X120228976Y-132703674D01*
X120246219Y-132690886D01*
X120264632Y-132679850D01*
X120284038Y-132670671D01*
X120304250Y-132663439D01*
X120325074Y-132658223D01*
X120346309Y-132655073D01*
X120367750Y-132654020D01*
X120805250Y-132654020D01*
X120826691Y-132655073D01*
X120826691Y-132655073D01*
G37*
D11*
X120586500Y-133129020D03*
D10*
G36*
X119251691Y-132655073D02*
G01*
X119272926Y-132658223D01*
X119293750Y-132663439D01*
X119313962Y-132670671D01*
X119333368Y-132679850D01*
X119351781Y-132690886D01*
X119369024Y-132703674D01*
X119384930Y-132718090D01*
X119399346Y-132733996D01*
X119412134Y-132751239D01*
X119423170Y-132769652D01*
X119432349Y-132789058D01*
X119439581Y-132809270D01*
X119444797Y-132830094D01*
X119447947Y-132851329D01*
X119449000Y-132872770D01*
X119449000Y-133385270D01*
X119447947Y-133406711D01*
X119444797Y-133427946D01*
X119439581Y-133448770D01*
X119432349Y-133468982D01*
X119423170Y-133488388D01*
X119412134Y-133506801D01*
X119399346Y-133524044D01*
X119384930Y-133539950D01*
X119369024Y-133554366D01*
X119351781Y-133567154D01*
X119333368Y-133578190D01*
X119313962Y-133587369D01*
X119293750Y-133594601D01*
X119272926Y-133599817D01*
X119251691Y-133602967D01*
X119230250Y-133604020D01*
X118792750Y-133604020D01*
X118771309Y-133602967D01*
X118750074Y-133599817D01*
X118729250Y-133594601D01*
X118709038Y-133587369D01*
X118689632Y-133578190D01*
X118671219Y-133567154D01*
X118653976Y-133554366D01*
X118638070Y-133539950D01*
X118623654Y-133524044D01*
X118610866Y-133506801D01*
X118599830Y-133488388D01*
X118590651Y-133468982D01*
X118583419Y-133448770D01*
X118578203Y-133427946D01*
X118575053Y-133406711D01*
X118574000Y-133385270D01*
X118574000Y-132872770D01*
X118575053Y-132851329D01*
X118578203Y-132830094D01*
X118583419Y-132809270D01*
X118590651Y-132789058D01*
X118599830Y-132769652D01*
X118610866Y-132751239D01*
X118623654Y-132733996D01*
X118638070Y-132718090D01*
X118653976Y-132703674D01*
X118671219Y-132690886D01*
X118689632Y-132679850D01*
X118709038Y-132670671D01*
X118729250Y-132663439D01*
X118750074Y-132658223D01*
X118771309Y-132655073D01*
X118792750Y-132654020D01*
X119230250Y-132654020D01*
X119251691Y-132655073D01*
X119251691Y-132655073D01*
G37*
D11*
X119011500Y-133129020D03*
D10*
G36*
X112527691Y-62489933D02*
G01*
X112548926Y-62493083D01*
X112569750Y-62498299D01*
X112589962Y-62505531D01*
X112609368Y-62514710D01*
X112627781Y-62525746D01*
X112645024Y-62538534D01*
X112660930Y-62552950D01*
X112675346Y-62568856D01*
X112688134Y-62586099D01*
X112699170Y-62604512D01*
X112708349Y-62623918D01*
X112715581Y-62644130D01*
X112720797Y-62664954D01*
X112723947Y-62686189D01*
X112725000Y-62707630D01*
X112725000Y-63145130D01*
X112723947Y-63166571D01*
X112720797Y-63187806D01*
X112715581Y-63208630D01*
X112708349Y-63228842D01*
X112699170Y-63248248D01*
X112688134Y-63266661D01*
X112675346Y-63283904D01*
X112660930Y-63299810D01*
X112645024Y-63314226D01*
X112627781Y-63327014D01*
X112609368Y-63338050D01*
X112589962Y-63347229D01*
X112569750Y-63354461D01*
X112548926Y-63359677D01*
X112527691Y-63362827D01*
X112506250Y-63363880D01*
X111993750Y-63363880D01*
X111972309Y-63362827D01*
X111951074Y-63359677D01*
X111930250Y-63354461D01*
X111910038Y-63347229D01*
X111890632Y-63338050D01*
X111872219Y-63327014D01*
X111854976Y-63314226D01*
X111839070Y-63299810D01*
X111824654Y-63283904D01*
X111811866Y-63266661D01*
X111800830Y-63248248D01*
X111791651Y-63228842D01*
X111784419Y-63208630D01*
X111779203Y-63187806D01*
X111776053Y-63166571D01*
X111775000Y-63145130D01*
X111775000Y-62707630D01*
X111776053Y-62686189D01*
X111779203Y-62664954D01*
X111784419Y-62644130D01*
X111791651Y-62623918D01*
X111800830Y-62604512D01*
X111811866Y-62586099D01*
X111824654Y-62568856D01*
X111839070Y-62552950D01*
X111854976Y-62538534D01*
X111872219Y-62525746D01*
X111890632Y-62514710D01*
X111910038Y-62505531D01*
X111930250Y-62498299D01*
X111951074Y-62493083D01*
X111972309Y-62489933D01*
X111993750Y-62488880D01*
X112506250Y-62488880D01*
X112527691Y-62489933D01*
X112527691Y-62489933D01*
G37*
D11*
X112250000Y-62926380D03*
D10*
G36*
X112527691Y-64064933D02*
G01*
X112548926Y-64068083D01*
X112569750Y-64073299D01*
X112589962Y-64080531D01*
X112609368Y-64089710D01*
X112627781Y-64100746D01*
X112645024Y-64113534D01*
X112660930Y-64127950D01*
X112675346Y-64143856D01*
X112688134Y-64161099D01*
X112699170Y-64179512D01*
X112708349Y-64198918D01*
X112715581Y-64219130D01*
X112720797Y-64239954D01*
X112723947Y-64261189D01*
X112725000Y-64282630D01*
X112725000Y-64720130D01*
X112723947Y-64741571D01*
X112720797Y-64762806D01*
X112715581Y-64783630D01*
X112708349Y-64803842D01*
X112699170Y-64823248D01*
X112688134Y-64841661D01*
X112675346Y-64858904D01*
X112660930Y-64874810D01*
X112645024Y-64889226D01*
X112627781Y-64902014D01*
X112609368Y-64913050D01*
X112589962Y-64922229D01*
X112569750Y-64929461D01*
X112548926Y-64934677D01*
X112527691Y-64937827D01*
X112506250Y-64938880D01*
X111993750Y-64938880D01*
X111972309Y-64937827D01*
X111951074Y-64934677D01*
X111930250Y-64929461D01*
X111910038Y-64922229D01*
X111890632Y-64913050D01*
X111872219Y-64902014D01*
X111854976Y-64889226D01*
X111839070Y-64874810D01*
X111824654Y-64858904D01*
X111811866Y-64841661D01*
X111800830Y-64823248D01*
X111791651Y-64803842D01*
X111784419Y-64783630D01*
X111779203Y-64762806D01*
X111776053Y-64741571D01*
X111775000Y-64720130D01*
X111775000Y-64282630D01*
X111776053Y-64261189D01*
X111779203Y-64239954D01*
X111784419Y-64219130D01*
X111791651Y-64198918D01*
X111800830Y-64179512D01*
X111811866Y-64161099D01*
X111824654Y-64143856D01*
X111839070Y-64127950D01*
X111854976Y-64113534D01*
X111872219Y-64100746D01*
X111890632Y-64089710D01*
X111910038Y-64080531D01*
X111930250Y-64073299D01*
X111951074Y-64068083D01*
X111972309Y-64064933D01*
X111993750Y-64063880D01*
X112506250Y-64063880D01*
X112527691Y-64064933D01*
X112527691Y-64064933D01*
G37*
D11*
X112250000Y-64501380D03*
D10*
G36*
X114277691Y-62489933D02*
G01*
X114298926Y-62493083D01*
X114319750Y-62498299D01*
X114339962Y-62505531D01*
X114359368Y-62514710D01*
X114377781Y-62525746D01*
X114395024Y-62538534D01*
X114410930Y-62552950D01*
X114425346Y-62568856D01*
X114438134Y-62586099D01*
X114449170Y-62604512D01*
X114458349Y-62623918D01*
X114465581Y-62644130D01*
X114470797Y-62664954D01*
X114473947Y-62686189D01*
X114475000Y-62707630D01*
X114475000Y-63145130D01*
X114473947Y-63166571D01*
X114470797Y-63187806D01*
X114465581Y-63208630D01*
X114458349Y-63228842D01*
X114449170Y-63248248D01*
X114438134Y-63266661D01*
X114425346Y-63283904D01*
X114410930Y-63299810D01*
X114395024Y-63314226D01*
X114377781Y-63327014D01*
X114359368Y-63338050D01*
X114339962Y-63347229D01*
X114319750Y-63354461D01*
X114298926Y-63359677D01*
X114277691Y-63362827D01*
X114256250Y-63363880D01*
X113743750Y-63363880D01*
X113722309Y-63362827D01*
X113701074Y-63359677D01*
X113680250Y-63354461D01*
X113660038Y-63347229D01*
X113640632Y-63338050D01*
X113622219Y-63327014D01*
X113604976Y-63314226D01*
X113589070Y-63299810D01*
X113574654Y-63283904D01*
X113561866Y-63266661D01*
X113550830Y-63248248D01*
X113541651Y-63228842D01*
X113534419Y-63208630D01*
X113529203Y-63187806D01*
X113526053Y-63166571D01*
X113525000Y-63145130D01*
X113525000Y-62707630D01*
X113526053Y-62686189D01*
X113529203Y-62664954D01*
X113534419Y-62644130D01*
X113541651Y-62623918D01*
X113550830Y-62604512D01*
X113561866Y-62586099D01*
X113574654Y-62568856D01*
X113589070Y-62552950D01*
X113604976Y-62538534D01*
X113622219Y-62525746D01*
X113640632Y-62514710D01*
X113660038Y-62505531D01*
X113680250Y-62498299D01*
X113701074Y-62493083D01*
X113722309Y-62489933D01*
X113743750Y-62488880D01*
X114256250Y-62488880D01*
X114277691Y-62489933D01*
X114277691Y-62489933D01*
G37*
D11*
X114000000Y-62926380D03*
D10*
G36*
X114277691Y-64064933D02*
G01*
X114298926Y-64068083D01*
X114319750Y-64073299D01*
X114339962Y-64080531D01*
X114359368Y-64089710D01*
X114377781Y-64100746D01*
X114395024Y-64113534D01*
X114410930Y-64127950D01*
X114425346Y-64143856D01*
X114438134Y-64161099D01*
X114449170Y-64179512D01*
X114458349Y-64198918D01*
X114465581Y-64219130D01*
X114470797Y-64239954D01*
X114473947Y-64261189D01*
X114475000Y-64282630D01*
X114475000Y-64720130D01*
X114473947Y-64741571D01*
X114470797Y-64762806D01*
X114465581Y-64783630D01*
X114458349Y-64803842D01*
X114449170Y-64823248D01*
X114438134Y-64841661D01*
X114425346Y-64858904D01*
X114410930Y-64874810D01*
X114395024Y-64889226D01*
X114377781Y-64902014D01*
X114359368Y-64913050D01*
X114339962Y-64922229D01*
X114319750Y-64929461D01*
X114298926Y-64934677D01*
X114277691Y-64937827D01*
X114256250Y-64938880D01*
X113743750Y-64938880D01*
X113722309Y-64937827D01*
X113701074Y-64934677D01*
X113680250Y-64929461D01*
X113660038Y-64922229D01*
X113640632Y-64913050D01*
X113622219Y-64902014D01*
X113604976Y-64889226D01*
X113589070Y-64874810D01*
X113574654Y-64858904D01*
X113561866Y-64841661D01*
X113550830Y-64823248D01*
X113541651Y-64803842D01*
X113534419Y-64783630D01*
X113529203Y-64762806D01*
X113526053Y-64741571D01*
X113525000Y-64720130D01*
X113525000Y-64282630D01*
X113526053Y-64261189D01*
X113529203Y-64239954D01*
X113534419Y-64219130D01*
X113541651Y-64198918D01*
X113550830Y-64179512D01*
X113561866Y-64161099D01*
X113574654Y-64143856D01*
X113589070Y-64127950D01*
X113604976Y-64113534D01*
X113622219Y-64100746D01*
X113640632Y-64089710D01*
X113660038Y-64080531D01*
X113680250Y-64073299D01*
X113701074Y-64068083D01*
X113722309Y-64064933D01*
X113743750Y-64063880D01*
X114256250Y-64063880D01*
X114277691Y-64064933D01*
X114277691Y-64064933D01*
G37*
D11*
X114000000Y-64501380D03*
D10*
G36*
X113315191Y-66872433D02*
G01*
X113336426Y-66875583D01*
X113357250Y-66880799D01*
X113377462Y-66888031D01*
X113396868Y-66897210D01*
X113415281Y-66908246D01*
X113432524Y-66921034D01*
X113448430Y-66935450D01*
X113462846Y-66951356D01*
X113475634Y-66968599D01*
X113486670Y-66987012D01*
X113495849Y-67006418D01*
X113503081Y-67026630D01*
X113508297Y-67047454D01*
X113511447Y-67068689D01*
X113512500Y-67090130D01*
X113512500Y-67602630D01*
X113511447Y-67624071D01*
X113508297Y-67645306D01*
X113503081Y-67666130D01*
X113495849Y-67686342D01*
X113486670Y-67705748D01*
X113475634Y-67724161D01*
X113462846Y-67741404D01*
X113448430Y-67757310D01*
X113432524Y-67771726D01*
X113415281Y-67784514D01*
X113396868Y-67795550D01*
X113377462Y-67804729D01*
X113357250Y-67811961D01*
X113336426Y-67817177D01*
X113315191Y-67820327D01*
X113293750Y-67821380D01*
X112856250Y-67821380D01*
X112834809Y-67820327D01*
X112813574Y-67817177D01*
X112792750Y-67811961D01*
X112772538Y-67804729D01*
X112753132Y-67795550D01*
X112734719Y-67784514D01*
X112717476Y-67771726D01*
X112701570Y-67757310D01*
X112687154Y-67741404D01*
X112674366Y-67724161D01*
X112663330Y-67705748D01*
X112654151Y-67686342D01*
X112646919Y-67666130D01*
X112641703Y-67645306D01*
X112638553Y-67624071D01*
X112637500Y-67602630D01*
X112637500Y-67090130D01*
X112638553Y-67068689D01*
X112641703Y-67047454D01*
X112646919Y-67026630D01*
X112654151Y-67006418D01*
X112663330Y-66987012D01*
X112674366Y-66968599D01*
X112687154Y-66951356D01*
X112701570Y-66935450D01*
X112717476Y-66921034D01*
X112734719Y-66908246D01*
X112753132Y-66897210D01*
X112772538Y-66888031D01*
X112792750Y-66880799D01*
X112813574Y-66875583D01*
X112834809Y-66872433D01*
X112856250Y-66871380D01*
X113293750Y-66871380D01*
X113315191Y-66872433D01*
X113315191Y-66872433D01*
G37*
D11*
X113075000Y-67346380D03*
D10*
G36*
X111740191Y-66872433D02*
G01*
X111761426Y-66875583D01*
X111782250Y-66880799D01*
X111802462Y-66888031D01*
X111821868Y-66897210D01*
X111840281Y-66908246D01*
X111857524Y-66921034D01*
X111873430Y-66935450D01*
X111887846Y-66951356D01*
X111900634Y-66968599D01*
X111911670Y-66987012D01*
X111920849Y-67006418D01*
X111928081Y-67026630D01*
X111933297Y-67047454D01*
X111936447Y-67068689D01*
X111937500Y-67090130D01*
X111937500Y-67602630D01*
X111936447Y-67624071D01*
X111933297Y-67645306D01*
X111928081Y-67666130D01*
X111920849Y-67686342D01*
X111911670Y-67705748D01*
X111900634Y-67724161D01*
X111887846Y-67741404D01*
X111873430Y-67757310D01*
X111857524Y-67771726D01*
X111840281Y-67784514D01*
X111821868Y-67795550D01*
X111802462Y-67804729D01*
X111782250Y-67811961D01*
X111761426Y-67817177D01*
X111740191Y-67820327D01*
X111718750Y-67821380D01*
X111281250Y-67821380D01*
X111259809Y-67820327D01*
X111238574Y-67817177D01*
X111217750Y-67811961D01*
X111197538Y-67804729D01*
X111178132Y-67795550D01*
X111159719Y-67784514D01*
X111142476Y-67771726D01*
X111126570Y-67757310D01*
X111112154Y-67741404D01*
X111099366Y-67724161D01*
X111088330Y-67705748D01*
X111079151Y-67686342D01*
X111071919Y-67666130D01*
X111066703Y-67645306D01*
X111063553Y-67624071D01*
X111062500Y-67602630D01*
X111062500Y-67090130D01*
X111063553Y-67068689D01*
X111066703Y-67047454D01*
X111071919Y-67026630D01*
X111079151Y-67006418D01*
X111088330Y-66987012D01*
X111099366Y-66968599D01*
X111112154Y-66951356D01*
X111126570Y-66935450D01*
X111142476Y-66921034D01*
X111159719Y-66908246D01*
X111178132Y-66897210D01*
X111197538Y-66888031D01*
X111217750Y-66880799D01*
X111238574Y-66875583D01*
X111259809Y-66872433D01*
X111281250Y-66871380D01*
X111718750Y-66871380D01*
X111740191Y-66872433D01*
X111740191Y-66872433D01*
G37*
D11*
X111500000Y-67346380D03*
D10*
G36*
X134777691Y-122813553D02*
G01*
X134798926Y-122816703D01*
X134819750Y-122821919D01*
X134839962Y-122829151D01*
X134859368Y-122838330D01*
X134877781Y-122849366D01*
X134895024Y-122862154D01*
X134910930Y-122876570D01*
X134925346Y-122892476D01*
X134938134Y-122909719D01*
X134949170Y-122928132D01*
X134958349Y-122947538D01*
X134965581Y-122967750D01*
X134970797Y-122988574D01*
X134973947Y-123009809D01*
X134975000Y-123031250D01*
X134975000Y-123468750D01*
X134973947Y-123490191D01*
X134970797Y-123511426D01*
X134965581Y-123532250D01*
X134958349Y-123552462D01*
X134949170Y-123571868D01*
X134938134Y-123590281D01*
X134925346Y-123607524D01*
X134910930Y-123623430D01*
X134895024Y-123637846D01*
X134877781Y-123650634D01*
X134859368Y-123661670D01*
X134839962Y-123670849D01*
X134819750Y-123678081D01*
X134798926Y-123683297D01*
X134777691Y-123686447D01*
X134756250Y-123687500D01*
X134243750Y-123687500D01*
X134222309Y-123686447D01*
X134201074Y-123683297D01*
X134180250Y-123678081D01*
X134160038Y-123670849D01*
X134140632Y-123661670D01*
X134122219Y-123650634D01*
X134104976Y-123637846D01*
X134089070Y-123623430D01*
X134074654Y-123607524D01*
X134061866Y-123590281D01*
X134050830Y-123571868D01*
X134041651Y-123552462D01*
X134034419Y-123532250D01*
X134029203Y-123511426D01*
X134026053Y-123490191D01*
X134025000Y-123468750D01*
X134025000Y-123031250D01*
X134026053Y-123009809D01*
X134029203Y-122988574D01*
X134034419Y-122967750D01*
X134041651Y-122947538D01*
X134050830Y-122928132D01*
X134061866Y-122909719D01*
X134074654Y-122892476D01*
X134089070Y-122876570D01*
X134104976Y-122862154D01*
X134122219Y-122849366D01*
X134140632Y-122838330D01*
X134160038Y-122829151D01*
X134180250Y-122821919D01*
X134201074Y-122816703D01*
X134222309Y-122813553D01*
X134243750Y-122812500D01*
X134756250Y-122812500D01*
X134777691Y-122813553D01*
X134777691Y-122813553D01*
G37*
D11*
X134500000Y-123250000D03*
D10*
G36*
X134777691Y-124388553D02*
G01*
X134798926Y-124391703D01*
X134819750Y-124396919D01*
X134839962Y-124404151D01*
X134859368Y-124413330D01*
X134877781Y-124424366D01*
X134895024Y-124437154D01*
X134910930Y-124451570D01*
X134925346Y-124467476D01*
X134938134Y-124484719D01*
X134949170Y-124503132D01*
X134958349Y-124522538D01*
X134965581Y-124542750D01*
X134970797Y-124563574D01*
X134973947Y-124584809D01*
X134975000Y-124606250D01*
X134975000Y-125043750D01*
X134973947Y-125065191D01*
X134970797Y-125086426D01*
X134965581Y-125107250D01*
X134958349Y-125127462D01*
X134949170Y-125146868D01*
X134938134Y-125165281D01*
X134925346Y-125182524D01*
X134910930Y-125198430D01*
X134895024Y-125212846D01*
X134877781Y-125225634D01*
X134859368Y-125236670D01*
X134839962Y-125245849D01*
X134819750Y-125253081D01*
X134798926Y-125258297D01*
X134777691Y-125261447D01*
X134756250Y-125262500D01*
X134243750Y-125262500D01*
X134222309Y-125261447D01*
X134201074Y-125258297D01*
X134180250Y-125253081D01*
X134160038Y-125245849D01*
X134140632Y-125236670D01*
X134122219Y-125225634D01*
X134104976Y-125212846D01*
X134089070Y-125198430D01*
X134074654Y-125182524D01*
X134061866Y-125165281D01*
X134050830Y-125146868D01*
X134041651Y-125127462D01*
X134034419Y-125107250D01*
X134029203Y-125086426D01*
X134026053Y-125065191D01*
X134025000Y-125043750D01*
X134025000Y-124606250D01*
X134026053Y-124584809D01*
X134029203Y-124563574D01*
X134034419Y-124542750D01*
X134041651Y-124522538D01*
X134050830Y-124503132D01*
X134061866Y-124484719D01*
X134074654Y-124467476D01*
X134089070Y-124451570D01*
X134104976Y-124437154D01*
X134122219Y-124424366D01*
X134140632Y-124413330D01*
X134160038Y-124404151D01*
X134180250Y-124396919D01*
X134201074Y-124391703D01*
X134222309Y-124388553D01*
X134243750Y-124387500D01*
X134756250Y-124387500D01*
X134777691Y-124388553D01*
X134777691Y-124388553D01*
G37*
D11*
X134500000Y-124825000D03*
D10*
G36*
X131336911Y-121326053D02*
G01*
X131358146Y-121329203D01*
X131378970Y-121334419D01*
X131399182Y-121341651D01*
X131418588Y-121350830D01*
X131437001Y-121361866D01*
X131454244Y-121374654D01*
X131470150Y-121389070D01*
X131484566Y-121404976D01*
X131497354Y-121422219D01*
X131508390Y-121440632D01*
X131517569Y-121460038D01*
X131524801Y-121480250D01*
X131530017Y-121501074D01*
X131533167Y-121522309D01*
X131534220Y-121543750D01*
X131534220Y-122056250D01*
X131533167Y-122077691D01*
X131530017Y-122098926D01*
X131524801Y-122119750D01*
X131517569Y-122139962D01*
X131508390Y-122159368D01*
X131497354Y-122177781D01*
X131484566Y-122195024D01*
X131470150Y-122210930D01*
X131454244Y-122225346D01*
X131437001Y-122238134D01*
X131418588Y-122249170D01*
X131399182Y-122258349D01*
X131378970Y-122265581D01*
X131358146Y-122270797D01*
X131336911Y-122273947D01*
X131315470Y-122275000D01*
X130877970Y-122275000D01*
X130856529Y-122273947D01*
X130835294Y-122270797D01*
X130814470Y-122265581D01*
X130794258Y-122258349D01*
X130774852Y-122249170D01*
X130756439Y-122238134D01*
X130739196Y-122225346D01*
X130723290Y-122210930D01*
X130708874Y-122195024D01*
X130696086Y-122177781D01*
X130685050Y-122159368D01*
X130675871Y-122139962D01*
X130668639Y-122119750D01*
X130663423Y-122098926D01*
X130660273Y-122077691D01*
X130659220Y-122056250D01*
X130659220Y-121543750D01*
X130660273Y-121522309D01*
X130663423Y-121501074D01*
X130668639Y-121480250D01*
X130675871Y-121460038D01*
X130685050Y-121440632D01*
X130696086Y-121422219D01*
X130708874Y-121404976D01*
X130723290Y-121389070D01*
X130739196Y-121374654D01*
X130756439Y-121361866D01*
X130774852Y-121350830D01*
X130794258Y-121341651D01*
X130814470Y-121334419D01*
X130835294Y-121329203D01*
X130856529Y-121326053D01*
X130877970Y-121325000D01*
X131315470Y-121325000D01*
X131336911Y-121326053D01*
X131336911Y-121326053D01*
G37*
D11*
X131096720Y-121800000D03*
D10*
G36*
X132911911Y-121326053D02*
G01*
X132933146Y-121329203D01*
X132953970Y-121334419D01*
X132974182Y-121341651D01*
X132993588Y-121350830D01*
X133012001Y-121361866D01*
X133029244Y-121374654D01*
X133045150Y-121389070D01*
X133059566Y-121404976D01*
X133072354Y-121422219D01*
X133083390Y-121440632D01*
X133092569Y-121460038D01*
X133099801Y-121480250D01*
X133105017Y-121501074D01*
X133108167Y-121522309D01*
X133109220Y-121543750D01*
X133109220Y-122056250D01*
X133108167Y-122077691D01*
X133105017Y-122098926D01*
X133099801Y-122119750D01*
X133092569Y-122139962D01*
X133083390Y-122159368D01*
X133072354Y-122177781D01*
X133059566Y-122195024D01*
X133045150Y-122210930D01*
X133029244Y-122225346D01*
X133012001Y-122238134D01*
X132993588Y-122249170D01*
X132974182Y-122258349D01*
X132953970Y-122265581D01*
X132933146Y-122270797D01*
X132911911Y-122273947D01*
X132890470Y-122275000D01*
X132452970Y-122275000D01*
X132431529Y-122273947D01*
X132410294Y-122270797D01*
X132389470Y-122265581D01*
X132369258Y-122258349D01*
X132349852Y-122249170D01*
X132331439Y-122238134D01*
X132314196Y-122225346D01*
X132298290Y-122210930D01*
X132283874Y-122195024D01*
X132271086Y-122177781D01*
X132260050Y-122159368D01*
X132250871Y-122139962D01*
X132243639Y-122119750D01*
X132238423Y-122098926D01*
X132235273Y-122077691D01*
X132234220Y-122056250D01*
X132234220Y-121543750D01*
X132235273Y-121522309D01*
X132238423Y-121501074D01*
X132243639Y-121480250D01*
X132250871Y-121460038D01*
X132260050Y-121440632D01*
X132271086Y-121422219D01*
X132283874Y-121404976D01*
X132298290Y-121389070D01*
X132314196Y-121374654D01*
X132331439Y-121361866D01*
X132349852Y-121350830D01*
X132369258Y-121341651D01*
X132389470Y-121334419D01*
X132410294Y-121329203D01*
X132431529Y-121326053D01*
X132452970Y-121325000D01*
X132890470Y-121325000D01*
X132911911Y-121326053D01*
X132911911Y-121326053D01*
G37*
D11*
X132671720Y-121800000D03*
D10*
G36*
X121350011Y-125063553D02*
G01*
X121371246Y-125066703D01*
X121392070Y-125071919D01*
X121412282Y-125079151D01*
X121431688Y-125088330D01*
X121450101Y-125099366D01*
X121467344Y-125112154D01*
X121483250Y-125126570D01*
X121497666Y-125142476D01*
X121510454Y-125159719D01*
X121521490Y-125178132D01*
X121530669Y-125197538D01*
X121537901Y-125217750D01*
X121543117Y-125238574D01*
X121546267Y-125259809D01*
X121547320Y-125281250D01*
X121547320Y-125718750D01*
X121546267Y-125740191D01*
X121543117Y-125761426D01*
X121537901Y-125782250D01*
X121530669Y-125802462D01*
X121521490Y-125821868D01*
X121510454Y-125840281D01*
X121497666Y-125857524D01*
X121483250Y-125873430D01*
X121467344Y-125887846D01*
X121450101Y-125900634D01*
X121431688Y-125911670D01*
X121412282Y-125920849D01*
X121392070Y-125928081D01*
X121371246Y-125933297D01*
X121350011Y-125936447D01*
X121328570Y-125937500D01*
X120816070Y-125937500D01*
X120794629Y-125936447D01*
X120773394Y-125933297D01*
X120752570Y-125928081D01*
X120732358Y-125920849D01*
X120712952Y-125911670D01*
X120694539Y-125900634D01*
X120677296Y-125887846D01*
X120661390Y-125873430D01*
X120646974Y-125857524D01*
X120634186Y-125840281D01*
X120623150Y-125821868D01*
X120613971Y-125802462D01*
X120606739Y-125782250D01*
X120601523Y-125761426D01*
X120598373Y-125740191D01*
X120597320Y-125718750D01*
X120597320Y-125281250D01*
X120598373Y-125259809D01*
X120601523Y-125238574D01*
X120606739Y-125217750D01*
X120613971Y-125197538D01*
X120623150Y-125178132D01*
X120634186Y-125159719D01*
X120646974Y-125142476D01*
X120661390Y-125126570D01*
X120677296Y-125112154D01*
X120694539Y-125099366D01*
X120712952Y-125088330D01*
X120732358Y-125079151D01*
X120752570Y-125071919D01*
X120773394Y-125066703D01*
X120794629Y-125063553D01*
X120816070Y-125062500D01*
X121328570Y-125062500D01*
X121350011Y-125063553D01*
X121350011Y-125063553D01*
G37*
D11*
X121072320Y-125500000D03*
D10*
G36*
X121350011Y-123488553D02*
G01*
X121371246Y-123491703D01*
X121392070Y-123496919D01*
X121412282Y-123504151D01*
X121431688Y-123513330D01*
X121450101Y-123524366D01*
X121467344Y-123537154D01*
X121483250Y-123551570D01*
X121497666Y-123567476D01*
X121510454Y-123584719D01*
X121521490Y-123603132D01*
X121530669Y-123622538D01*
X121537901Y-123642750D01*
X121543117Y-123663574D01*
X121546267Y-123684809D01*
X121547320Y-123706250D01*
X121547320Y-124143750D01*
X121546267Y-124165191D01*
X121543117Y-124186426D01*
X121537901Y-124207250D01*
X121530669Y-124227462D01*
X121521490Y-124246868D01*
X121510454Y-124265281D01*
X121497666Y-124282524D01*
X121483250Y-124298430D01*
X121467344Y-124312846D01*
X121450101Y-124325634D01*
X121431688Y-124336670D01*
X121412282Y-124345849D01*
X121392070Y-124353081D01*
X121371246Y-124358297D01*
X121350011Y-124361447D01*
X121328570Y-124362500D01*
X120816070Y-124362500D01*
X120794629Y-124361447D01*
X120773394Y-124358297D01*
X120752570Y-124353081D01*
X120732358Y-124345849D01*
X120712952Y-124336670D01*
X120694539Y-124325634D01*
X120677296Y-124312846D01*
X120661390Y-124298430D01*
X120646974Y-124282524D01*
X120634186Y-124265281D01*
X120623150Y-124246868D01*
X120613971Y-124227462D01*
X120606739Y-124207250D01*
X120601523Y-124186426D01*
X120598373Y-124165191D01*
X120597320Y-124143750D01*
X120597320Y-123706250D01*
X120598373Y-123684809D01*
X120601523Y-123663574D01*
X120606739Y-123642750D01*
X120613971Y-123622538D01*
X120623150Y-123603132D01*
X120634186Y-123584719D01*
X120646974Y-123567476D01*
X120661390Y-123551570D01*
X120677296Y-123537154D01*
X120694539Y-123524366D01*
X120712952Y-123513330D01*
X120732358Y-123504151D01*
X120752570Y-123496919D01*
X120773394Y-123491703D01*
X120794629Y-123488553D01*
X120816070Y-123487500D01*
X121328570Y-123487500D01*
X121350011Y-123488553D01*
X121350011Y-123488553D01*
G37*
D11*
X121072320Y-123925000D03*
D10*
G36*
X123668011Y-124288553D02*
G01*
X123689246Y-124291703D01*
X123710070Y-124296919D01*
X123730282Y-124304151D01*
X123749688Y-124313330D01*
X123768101Y-124324366D01*
X123785344Y-124337154D01*
X123801250Y-124351570D01*
X123815666Y-124367476D01*
X123828454Y-124384719D01*
X123839490Y-124403132D01*
X123848669Y-124422538D01*
X123855901Y-124442750D01*
X123861117Y-124463574D01*
X123864267Y-124484809D01*
X123865320Y-124506250D01*
X123865320Y-124943750D01*
X123864267Y-124965191D01*
X123861117Y-124986426D01*
X123855901Y-125007250D01*
X123848669Y-125027462D01*
X123839490Y-125046868D01*
X123828454Y-125065281D01*
X123815666Y-125082524D01*
X123801250Y-125098430D01*
X123785344Y-125112846D01*
X123768101Y-125125634D01*
X123749688Y-125136670D01*
X123730282Y-125145849D01*
X123710070Y-125153081D01*
X123689246Y-125158297D01*
X123668011Y-125161447D01*
X123646570Y-125162500D01*
X123134070Y-125162500D01*
X123112629Y-125161447D01*
X123091394Y-125158297D01*
X123070570Y-125153081D01*
X123050358Y-125145849D01*
X123030952Y-125136670D01*
X123012539Y-125125634D01*
X122995296Y-125112846D01*
X122979390Y-125098430D01*
X122964974Y-125082524D01*
X122952186Y-125065281D01*
X122941150Y-125046868D01*
X122931971Y-125027462D01*
X122924739Y-125007250D01*
X122919523Y-124986426D01*
X122916373Y-124965191D01*
X122915320Y-124943750D01*
X122915320Y-124506250D01*
X122916373Y-124484809D01*
X122919523Y-124463574D01*
X122924739Y-124442750D01*
X122931971Y-124422538D01*
X122941150Y-124403132D01*
X122952186Y-124384719D01*
X122964974Y-124367476D01*
X122979390Y-124351570D01*
X122995296Y-124337154D01*
X123012539Y-124324366D01*
X123030952Y-124313330D01*
X123050358Y-124304151D01*
X123070570Y-124296919D01*
X123091394Y-124291703D01*
X123112629Y-124288553D01*
X123134070Y-124287500D01*
X123646570Y-124287500D01*
X123668011Y-124288553D01*
X123668011Y-124288553D01*
G37*
D11*
X123390320Y-124725000D03*
D10*
G36*
X123668011Y-125863553D02*
G01*
X123689246Y-125866703D01*
X123710070Y-125871919D01*
X123730282Y-125879151D01*
X123749688Y-125888330D01*
X123768101Y-125899366D01*
X123785344Y-125912154D01*
X123801250Y-125926570D01*
X123815666Y-125942476D01*
X123828454Y-125959719D01*
X123839490Y-125978132D01*
X123848669Y-125997538D01*
X123855901Y-126017750D01*
X123861117Y-126038574D01*
X123864267Y-126059809D01*
X123865320Y-126081250D01*
X123865320Y-126518750D01*
X123864267Y-126540191D01*
X123861117Y-126561426D01*
X123855901Y-126582250D01*
X123848669Y-126602462D01*
X123839490Y-126621868D01*
X123828454Y-126640281D01*
X123815666Y-126657524D01*
X123801250Y-126673430D01*
X123785344Y-126687846D01*
X123768101Y-126700634D01*
X123749688Y-126711670D01*
X123730282Y-126720849D01*
X123710070Y-126728081D01*
X123689246Y-126733297D01*
X123668011Y-126736447D01*
X123646570Y-126737500D01*
X123134070Y-126737500D01*
X123112629Y-126736447D01*
X123091394Y-126733297D01*
X123070570Y-126728081D01*
X123050358Y-126720849D01*
X123030952Y-126711670D01*
X123012539Y-126700634D01*
X122995296Y-126687846D01*
X122979390Y-126673430D01*
X122964974Y-126657524D01*
X122952186Y-126640281D01*
X122941150Y-126621868D01*
X122931971Y-126602462D01*
X122924739Y-126582250D01*
X122919523Y-126561426D01*
X122916373Y-126540191D01*
X122915320Y-126518750D01*
X122915320Y-126081250D01*
X122916373Y-126059809D01*
X122919523Y-126038574D01*
X122924739Y-126017750D01*
X122931971Y-125997538D01*
X122941150Y-125978132D01*
X122952186Y-125959719D01*
X122964974Y-125942476D01*
X122979390Y-125926570D01*
X122995296Y-125912154D01*
X123012539Y-125899366D01*
X123030952Y-125888330D01*
X123050358Y-125879151D01*
X123070570Y-125871919D01*
X123091394Y-125866703D01*
X123112629Y-125863553D01*
X123134070Y-125862500D01*
X123646570Y-125862500D01*
X123668011Y-125863553D01*
X123668011Y-125863553D01*
G37*
D11*
X123390320Y-126300000D03*
D10*
G36*
X116740191Y-127118593D02*
G01*
X116761426Y-127121743D01*
X116782250Y-127126959D01*
X116802462Y-127134191D01*
X116821868Y-127143370D01*
X116840281Y-127154406D01*
X116857524Y-127167194D01*
X116873430Y-127181610D01*
X116887846Y-127197516D01*
X116900634Y-127214759D01*
X116911670Y-127233172D01*
X116920849Y-127252578D01*
X116928081Y-127272790D01*
X116933297Y-127293614D01*
X116936447Y-127314849D01*
X116937500Y-127336290D01*
X116937500Y-127848790D01*
X116936447Y-127870231D01*
X116933297Y-127891466D01*
X116928081Y-127912290D01*
X116920849Y-127932502D01*
X116911670Y-127951908D01*
X116900634Y-127970321D01*
X116887846Y-127987564D01*
X116873430Y-128003470D01*
X116857524Y-128017886D01*
X116840281Y-128030674D01*
X116821868Y-128041710D01*
X116802462Y-128050889D01*
X116782250Y-128058121D01*
X116761426Y-128063337D01*
X116740191Y-128066487D01*
X116718750Y-128067540D01*
X116281250Y-128067540D01*
X116259809Y-128066487D01*
X116238574Y-128063337D01*
X116217750Y-128058121D01*
X116197538Y-128050889D01*
X116178132Y-128041710D01*
X116159719Y-128030674D01*
X116142476Y-128017886D01*
X116126570Y-128003470D01*
X116112154Y-127987564D01*
X116099366Y-127970321D01*
X116088330Y-127951908D01*
X116079151Y-127932502D01*
X116071919Y-127912290D01*
X116066703Y-127891466D01*
X116063553Y-127870231D01*
X116062500Y-127848790D01*
X116062500Y-127336290D01*
X116063553Y-127314849D01*
X116066703Y-127293614D01*
X116071919Y-127272790D01*
X116079151Y-127252578D01*
X116088330Y-127233172D01*
X116099366Y-127214759D01*
X116112154Y-127197516D01*
X116126570Y-127181610D01*
X116142476Y-127167194D01*
X116159719Y-127154406D01*
X116178132Y-127143370D01*
X116197538Y-127134191D01*
X116217750Y-127126959D01*
X116238574Y-127121743D01*
X116259809Y-127118593D01*
X116281250Y-127117540D01*
X116718750Y-127117540D01*
X116740191Y-127118593D01*
X116740191Y-127118593D01*
G37*
D11*
X116500000Y-127592540D03*
D10*
G36*
X115165191Y-127118593D02*
G01*
X115186426Y-127121743D01*
X115207250Y-127126959D01*
X115227462Y-127134191D01*
X115246868Y-127143370D01*
X115265281Y-127154406D01*
X115282524Y-127167194D01*
X115298430Y-127181610D01*
X115312846Y-127197516D01*
X115325634Y-127214759D01*
X115336670Y-127233172D01*
X115345849Y-127252578D01*
X115353081Y-127272790D01*
X115358297Y-127293614D01*
X115361447Y-127314849D01*
X115362500Y-127336290D01*
X115362500Y-127848790D01*
X115361447Y-127870231D01*
X115358297Y-127891466D01*
X115353081Y-127912290D01*
X115345849Y-127932502D01*
X115336670Y-127951908D01*
X115325634Y-127970321D01*
X115312846Y-127987564D01*
X115298430Y-128003470D01*
X115282524Y-128017886D01*
X115265281Y-128030674D01*
X115246868Y-128041710D01*
X115227462Y-128050889D01*
X115207250Y-128058121D01*
X115186426Y-128063337D01*
X115165191Y-128066487D01*
X115143750Y-128067540D01*
X114706250Y-128067540D01*
X114684809Y-128066487D01*
X114663574Y-128063337D01*
X114642750Y-128058121D01*
X114622538Y-128050889D01*
X114603132Y-128041710D01*
X114584719Y-128030674D01*
X114567476Y-128017886D01*
X114551570Y-128003470D01*
X114537154Y-127987564D01*
X114524366Y-127970321D01*
X114513330Y-127951908D01*
X114504151Y-127932502D01*
X114496919Y-127912290D01*
X114491703Y-127891466D01*
X114488553Y-127870231D01*
X114487500Y-127848790D01*
X114487500Y-127336290D01*
X114488553Y-127314849D01*
X114491703Y-127293614D01*
X114496919Y-127272790D01*
X114504151Y-127252578D01*
X114513330Y-127233172D01*
X114524366Y-127214759D01*
X114537154Y-127197516D01*
X114551570Y-127181610D01*
X114567476Y-127167194D01*
X114584719Y-127154406D01*
X114603132Y-127143370D01*
X114622538Y-127134191D01*
X114642750Y-127126959D01*
X114663574Y-127121743D01*
X114684809Y-127118593D01*
X114706250Y-127117540D01*
X115143750Y-127117540D01*
X115165191Y-127118593D01*
X115165191Y-127118593D01*
G37*
D11*
X114925000Y-127592540D03*
D10*
G36*
X122690451Y-132649393D02*
G01*
X122711686Y-132652543D01*
X122732510Y-132657759D01*
X122752722Y-132664991D01*
X122772128Y-132674170D01*
X122790541Y-132685206D01*
X122807784Y-132697994D01*
X122823690Y-132712410D01*
X122838106Y-132728316D01*
X122850894Y-132745559D01*
X122861930Y-132763972D01*
X122871109Y-132783378D01*
X122878341Y-132803590D01*
X122883557Y-132824414D01*
X122886707Y-132845649D01*
X122887760Y-132867090D01*
X122887760Y-133304590D01*
X122886707Y-133326031D01*
X122883557Y-133347266D01*
X122878341Y-133368090D01*
X122871109Y-133388302D01*
X122861930Y-133407708D01*
X122850894Y-133426121D01*
X122838106Y-133443364D01*
X122823690Y-133459270D01*
X122807784Y-133473686D01*
X122790541Y-133486474D01*
X122772128Y-133497510D01*
X122752722Y-133506689D01*
X122732510Y-133513921D01*
X122711686Y-133519137D01*
X122690451Y-133522287D01*
X122669010Y-133523340D01*
X122156510Y-133523340D01*
X122135069Y-133522287D01*
X122113834Y-133519137D01*
X122093010Y-133513921D01*
X122072798Y-133506689D01*
X122053392Y-133497510D01*
X122034979Y-133486474D01*
X122017736Y-133473686D01*
X122001830Y-133459270D01*
X121987414Y-133443364D01*
X121974626Y-133426121D01*
X121963590Y-133407708D01*
X121954411Y-133388302D01*
X121947179Y-133368090D01*
X121941963Y-133347266D01*
X121938813Y-133326031D01*
X121937760Y-133304590D01*
X121937760Y-132867090D01*
X121938813Y-132845649D01*
X121941963Y-132824414D01*
X121947179Y-132803590D01*
X121954411Y-132783378D01*
X121963590Y-132763972D01*
X121974626Y-132745559D01*
X121987414Y-132728316D01*
X122001830Y-132712410D01*
X122017736Y-132697994D01*
X122034979Y-132685206D01*
X122053392Y-132674170D01*
X122072798Y-132664991D01*
X122093010Y-132657759D01*
X122113834Y-132652543D01*
X122135069Y-132649393D01*
X122156510Y-132648340D01*
X122669010Y-132648340D01*
X122690451Y-132649393D01*
X122690451Y-132649393D01*
G37*
D11*
X122412760Y-133085840D03*
D10*
G36*
X122690451Y-131074393D02*
G01*
X122711686Y-131077543D01*
X122732510Y-131082759D01*
X122752722Y-131089991D01*
X122772128Y-131099170D01*
X122790541Y-131110206D01*
X122807784Y-131122994D01*
X122823690Y-131137410D01*
X122838106Y-131153316D01*
X122850894Y-131170559D01*
X122861930Y-131188972D01*
X122871109Y-131208378D01*
X122878341Y-131228590D01*
X122883557Y-131249414D01*
X122886707Y-131270649D01*
X122887760Y-131292090D01*
X122887760Y-131729590D01*
X122886707Y-131751031D01*
X122883557Y-131772266D01*
X122878341Y-131793090D01*
X122871109Y-131813302D01*
X122861930Y-131832708D01*
X122850894Y-131851121D01*
X122838106Y-131868364D01*
X122823690Y-131884270D01*
X122807784Y-131898686D01*
X122790541Y-131911474D01*
X122772128Y-131922510D01*
X122752722Y-131931689D01*
X122732510Y-131938921D01*
X122711686Y-131944137D01*
X122690451Y-131947287D01*
X122669010Y-131948340D01*
X122156510Y-131948340D01*
X122135069Y-131947287D01*
X122113834Y-131944137D01*
X122093010Y-131938921D01*
X122072798Y-131931689D01*
X122053392Y-131922510D01*
X122034979Y-131911474D01*
X122017736Y-131898686D01*
X122001830Y-131884270D01*
X121987414Y-131868364D01*
X121974626Y-131851121D01*
X121963590Y-131832708D01*
X121954411Y-131813302D01*
X121947179Y-131793090D01*
X121941963Y-131772266D01*
X121938813Y-131751031D01*
X121937760Y-131729590D01*
X121937760Y-131292090D01*
X121938813Y-131270649D01*
X121941963Y-131249414D01*
X121947179Y-131228590D01*
X121954411Y-131208378D01*
X121963590Y-131188972D01*
X121974626Y-131170559D01*
X121987414Y-131153316D01*
X122001830Y-131137410D01*
X122017736Y-131122994D01*
X122034979Y-131110206D01*
X122053392Y-131099170D01*
X122072798Y-131089991D01*
X122093010Y-131082759D01*
X122113834Y-131077543D01*
X122135069Y-131074393D01*
X122156510Y-131073340D01*
X122669010Y-131073340D01*
X122690451Y-131074393D01*
X122690451Y-131074393D01*
G37*
D11*
X122412760Y-131510840D03*
D10*
G36*
X125205511Y-114727973D02*
G01*
X125226746Y-114731123D01*
X125247570Y-114736339D01*
X125267782Y-114743571D01*
X125287188Y-114752750D01*
X125305601Y-114763786D01*
X125322844Y-114776574D01*
X125338750Y-114790990D01*
X125353166Y-114806896D01*
X125365954Y-114824139D01*
X125376990Y-114842552D01*
X125386169Y-114861958D01*
X125393401Y-114882170D01*
X125398617Y-114902994D01*
X125401767Y-114924229D01*
X125402820Y-114945670D01*
X125402820Y-115458170D01*
X125401767Y-115479611D01*
X125398617Y-115500846D01*
X125393401Y-115521670D01*
X125386169Y-115541882D01*
X125376990Y-115561288D01*
X125365954Y-115579701D01*
X125353166Y-115596944D01*
X125338750Y-115612850D01*
X125322844Y-115627266D01*
X125305601Y-115640054D01*
X125287188Y-115651090D01*
X125267782Y-115660269D01*
X125247570Y-115667501D01*
X125226746Y-115672717D01*
X125205511Y-115675867D01*
X125184070Y-115676920D01*
X124746570Y-115676920D01*
X124725129Y-115675867D01*
X124703894Y-115672717D01*
X124683070Y-115667501D01*
X124662858Y-115660269D01*
X124643452Y-115651090D01*
X124625039Y-115640054D01*
X124607796Y-115627266D01*
X124591890Y-115612850D01*
X124577474Y-115596944D01*
X124564686Y-115579701D01*
X124553650Y-115561288D01*
X124544471Y-115541882D01*
X124537239Y-115521670D01*
X124532023Y-115500846D01*
X124528873Y-115479611D01*
X124527820Y-115458170D01*
X124527820Y-114945670D01*
X124528873Y-114924229D01*
X124532023Y-114902994D01*
X124537239Y-114882170D01*
X124544471Y-114861958D01*
X124553650Y-114842552D01*
X124564686Y-114824139D01*
X124577474Y-114806896D01*
X124591890Y-114790990D01*
X124607796Y-114776574D01*
X124625039Y-114763786D01*
X124643452Y-114752750D01*
X124662858Y-114743571D01*
X124683070Y-114736339D01*
X124703894Y-114731123D01*
X124725129Y-114727973D01*
X124746570Y-114726920D01*
X125184070Y-114726920D01*
X125205511Y-114727973D01*
X125205511Y-114727973D01*
G37*
D11*
X124965320Y-115201920D03*
D10*
G36*
X123630511Y-114727973D02*
G01*
X123651746Y-114731123D01*
X123672570Y-114736339D01*
X123692782Y-114743571D01*
X123712188Y-114752750D01*
X123730601Y-114763786D01*
X123747844Y-114776574D01*
X123763750Y-114790990D01*
X123778166Y-114806896D01*
X123790954Y-114824139D01*
X123801990Y-114842552D01*
X123811169Y-114861958D01*
X123818401Y-114882170D01*
X123823617Y-114902994D01*
X123826767Y-114924229D01*
X123827820Y-114945670D01*
X123827820Y-115458170D01*
X123826767Y-115479611D01*
X123823617Y-115500846D01*
X123818401Y-115521670D01*
X123811169Y-115541882D01*
X123801990Y-115561288D01*
X123790954Y-115579701D01*
X123778166Y-115596944D01*
X123763750Y-115612850D01*
X123747844Y-115627266D01*
X123730601Y-115640054D01*
X123712188Y-115651090D01*
X123692782Y-115660269D01*
X123672570Y-115667501D01*
X123651746Y-115672717D01*
X123630511Y-115675867D01*
X123609070Y-115676920D01*
X123171570Y-115676920D01*
X123150129Y-115675867D01*
X123128894Y-115672717D01*
X123108070Y-115667501D01*
X123087858Y-115660269D01*
X123068452Y-115651090D01*
X123050039Y-115640054D01*
X123032796Y-115627266D01*
X123016890Y-115612850D01*
X123002474Y-115596944D01*
X122989686Y-115579701D01*
X122978650Y-115561288D01*
X122969471Y-115541882D01*
X122962239Y-115521670D01*
X122957023Y-115500846D01*
X122953873Y-115479611D01*
X122952820Y-115458170D01*
X122952820Y-114945670D01*
X122953873Y-114924229D01*
X122957023Y-114902994D01*
X122962239Y-114882170D01*
X122969471Y-114861958D01*
X122978650Y-114842552D01*
X122989686Y-114824139D01*
X123002474Y-114806896D01*
X123016890Y-114790990D01*
X123032796Y-114776574D01*
X123050039Y-114763786D01*
X123068452Y-114752750D01*
X123087858Y-114743571D01*
X123108070Y-114736339D01*
X123128894Y-114731123D01*
X123150129Y-114727973D01*
X123171570Y-114726920D01*
X123609070Y-114726920D01*
X123630511Y-114727973D01*
X123630511Y-114727973D01*
G37*
D11*
X123390320Y-115201920D03*
D10*
G36*
X123630511Y-116452633D02*
G01*
X123651746Y-116455783D01*
X123672570Y-116460999D01*
X123692782Y-116468231D01*
X123712188Y-116477410D01*
X123730601Y-116488446D01*
X123747844Y-116501234D01*
X123763750Y-116515650D01*
X123778166Y-116531556D01*
X123790954Y-116548799D01*
X123801990Y-116567212D01*
X123811169Y-116586618D01*
X123818401Y-116606830D01*
X123823617Y-116627654D01*
X123826767Y-116648889D01*
X123827820Y-116670330D01*
X123827820Y-117182830D01*
X123826767Y-117204271D01*
X123823617Y-117225506D01*
X123818401Y-117246330D01*
X123811169Y-117266542D01*
X123801990Y-117285948D01*
X123790954Y-117304361D01*
X123778166Y-117321604D01*
X123763750Y-117337510D01*
X123747844Y-117351926D01*
X123730601Y-117364714D01*
X123712188Y-117375750D01*
X123692782Y-117384929D01*
X123672570Y-117392161D01*
X123651746Y-117397377D01*
X123630511Y-117400527D01*
X123609070Y-117401580D01*
X123171570Y-117401580D01*
X123150129Y-117400527D01*
X123128894Y-117397377D01*
X123108070Y-117392161D01*
X123087858Y-117384929D01*
X123068452Y-117375750D01*
X123050039Y-117364714D01*
X123032796Y-117351926D01*
X123016890Y-117337510D01*
X123002474Y-117321604D01*
X122989686Y-117304361D01*
X122978650Y-117285948D01*
X122969471Y-117266542D01*
X122962239Y-117246330D01*
X122957023Y-117225506D01*
X122953873Y-117204271D01*
X122952820Y-117182830D01*
X122952820Y-116670330D01*
X122953873Y-116648889D01*
X122957023Y-116627654D01*
X122962239Y-116606830D01*
X122969471Y-116586618D01*
X122978650Y-116567212D01*
X122989686Y-116548799D01*
X123002474Y-116531556D01*
X123016890Y-116515650D01*
X123032796Y-116501234D01*
X123050039Y-116488446D01*
X123068452Y-116477410D01*
X123087858Y-116468231D01*
X123108070Y-116460999D01*
X123128894Y-116455783D01*
X123150129Y-116452633D01*
X123171570Y-116451580D01*
X123609070Y-116451580D01*
X123630511Y-116452633D01*
X123630511Y-116452633D01*
G37*
D11*
X123390320Y-116926580D03*
D10*
G36*
X125205511Y-116452633D02*
G01*
X125226746Y-116455783D01*
X125247570Y-116460999D01*
X125267782Y-116468231D01*
X125287188Y-116477410D01*
X125305601Y-116488446D01*
X125322844Y-116501234D01*
X125338750Y-116515650D01*
X125353166Y-116531556D01*
X125365954Y-116548799D01*
X125376990Y-116567212D01*
X125386169Y-116586618D01*
X125393401Y-116606830D01*
X125398617Y-116627654D01*
X125401767Y-116648889D01*
X125402820Y-116670330D01*
X125402820Y-117182830D01*
X125401767Y-117204271D01*
X125398617Y-117225506D01*
X125393401Y-117246330D01*
X125386169Y-117266542D01*
X125376990Y-117285948D01*
X125365954Y-117304361D01*
X125353166Y-117321604D01*
X125338750Y-117337510D01*
X125322844Y-117351926D01*
X125305601Y-117364714D01*
X125287188Y-117375750D01*
X125267782Y-117384929D01*
X125247570Y-117392161D01*
X125226746Y-117397377D01*
X125205511Y-117400527D01*
X125184070Y-117401580D01*
X124746570Y-117401580D01*
X124725129Y-117400527D01*
X124703894Y-117397377D01*
X124683070Y-117392161D01*
X124662858Y-117384929D01*
X124643452Y-117375750D01*
X124625039Y-117364714D01*
X124607796Y-117351926D01*
X124591890Y-117337510D01*
X124577474Y-117321604D01*
X124564686Y-117304361D01*
X124553650Y-117285948D01*
X124544471Y-117266542D01*
X124537239Y-117246330D01*
X124532023Y-117225506D01*
X124528873Y-117204271D01*
X124527820Y-117182830D01*
X124527820Y-116670330D01*
X124528873Y-116648889D01*
X124532023Y-116627654D01*
X124537239Y-116606830D01*
X124544471Y-116586618D01*
X124553650Y-116567212D01*
X124564686Y-116548799D01*
X124577474Y-116531556D01*
X124591890Y-116515650D01*
X124607796Y-116501234D01*
X124625039Y-116488446D01*
X124643452Y-116477410D01*
X124662858Y-116468231D01*
X124683070Y-116460999D01*
X124703894Y-116455783D01*
X124725129Y-116452633D01*
X124746570Y-116451580D01*
X125184070Y-116451580D01*
X125205511Y-116452633D01*
X125205511Y-116452633D01*
G37*
D11*
X124965320Y-116926580D03*
D10*
G36*
X125774611Y-134148593D02*
G01*
X125795846Y-134151743D01*
X125816670Y-134156959D01*
X125836882Y-134164191D01*
X125856288Y-134173370D01*
X125874701Y-134184406D01*
X125891944Y-134197194D01*
X125907850Y-134211610D01*
X125922266Y-134227516D01*
X125935054Y-134244759D01*
X125946090Y-134263172D01*
X125955269Y-134282578D01*
X125962501Y-134302790D01*
X125967717Y-134323614D01*
X125970867Y-134344849D01*
X125971920Y-134366290D01*
X125971920Y-134878790D01*
X125970867Y-134900231D01*
X125967717Y-134921466D01*
X125962501Y-134942290D01*
X125955269Y-134962502D01*
X125946090Y-134981908D01*
X125935054Y-135000321D01*
X125922266Y-135017564D01*
X125907850Y-135033470D01*
X125891944Y-135047886D01*
X125874701Y-135060674D01*
X125856288Y-135071710D01*
X125836882Y-135080889D01*
X125816670Y-135088121D01*
X125795846Y-135093337D01*
X125774611Y-135096487D01*
X125753170Y-135097540D01*
X125315670Y-135097540D01*
X125294229Y-135096487D01*
X125272994Y-135093337D01*
X125252170Y-135088121D01*
X125231958Y-135080889D01*
X125212552Y-135071710D01*
X125194139Y-135060674D01*
X125176896Y-135047886D01*
X125160990Y-135033470D01*
X125146574Y-135017564D01*
X125133786Y-135000321D01*
X125122750Y-134981908D01*
X125113571Y-134962502D01*
X125106339Y-134942290D01*
X125101123Y-134921466D01*
X125097973Y-134900231D01*
X125096920Y-134878790D01*
X125096920Y-134366290D01*
X125097973Y-134344849D01*
X125101123Y-134323614D01*
X125106339Y-134302790D01*
X125113571Y-134282578D01*
X125122750Y-134263172D01*
X125133786Y-134244759D01*
X125146574Y-134227516D01*
X125160990Y-134211610D01*
X125176896Y-134197194D01*
X125194139Y-134184406D01*
X125212552Y-134173370D01*
X125231958Y-134164191D01*
X125252170Y-134156959D01*
X125272994Y-134151743D01*
X125294229Y-134148593D01*
X125315670Y-134147540D01*
X125753170Y-134147540D01*
X125774611Y-134148593D01*
X125774611Y-134148593D01*
G37*
D11*
X125534420Y-134622540D03*
D10*
G36*
X127349611Y-134148593D02*
G01*
X127370846Y-134151743D01*
X127391670Y-134156959D01*
X127411882Y-134164191D01*
X127431288Y-134173370D01*
X127449701Y-134184406D01*
X127466944Y-134197194D01*
X127482850Y-134211610D01*
X127497266Y-134227516D01*
X127510054Y-134244759D01*
X127521090Y-134263172D01*
X127530269Y-134282578D01*
X127537501Y-134302790D01*
X127542717Y-134323614D01*
X127545867Y-134344849D01*
X127546920Y-134366290D01*
X127546920Y-134878790D01*
X127545867Y-134900231D01*
X127542717Y-134921466D01*
X127537501Y-134942290D01*
X127530269Y-134962502D01*
X127521090Y-134981908D01*
X127510054Y-135000321D01*
X127497266Y-135017564D01*
X127482850Y-135033470D01*
X127466944Y-135047886D01*
X127449701Y-135060674D01*
X127431288Y-135071710D01*
X127411882Y-135080889D01*
X127391670Y-135088121D01*
X127370846Y-135093337D01*
X127349611Y-135096487D01*
X127328170Y-135097540D01*
X126890670Y-135097540D01*
X126869229Y-135096487D01*
X126847994Y-135093337D01*
X126827170Y-135088121D01*
X126806958Y-135080889D01*
X126787552Y-135071710D01*
X126769139Y-135060674D01*
X126751896Y-135047886D01*
X126735990Y-135033470D01*
X126721574Y-135017564D01*
X126708786Y-135000321D01*
X126697750Y-134981908D01*
X126688571Y-134962502D01*
X126681339Y-134942290D01*
X126676123Y-134921466D01*
X126672973Y-134900231D01*
X126671920Y-134878790D01*
X126671920Y-134366290D01*
X126672973Y-134344849D01*
X126676123Y-134323614D01*
X126681339Y-134302790D01*
X126688571Y-134282578D01*
X126697750Y-134263172D01*
X126708786Y-134244759D01*
X126721574Y-134227516D01*
X126735990Y-134211610D01*
X126751896Y-134197194D01*
X126769139Y-134184406D01*
X126787552Y-134173370D01*
X126806958Y-134164191D01*
X126827170Y-134156959D01*
X126847994Y-134151743D01*
X126869229Y-134148593D01*
X126890670Y-134147540D01*
X127328170Y-134147540D01*
X127349611Y-134148593D01*
X127349611Y-134148593D01*
G37*
D11*
X127109420Y-134622540D03*
D10*
G36*
X128974411Y-134221653D02*
G01*
X128995646Y-134224803D01*
X129016470Y-134230019D01*
X129036682Y-134237251D01*
X129056088Y-134246430D01*
X129074501Y-134257466D01*
X129091744Y-134270254D01*
X129107650Y-134284670D01*
X129122066Y-134300576D01*
X129134854Y-134317819D01*
X129145890Y-134336232D01*
X129155069Y-134355638D01*
X129162301Y-134375850D01*
X129167517Y-134396674D01*
X129170667Y-134417909D01*
X129171720Y-134439350D01*
X129171720Y-134876850D01*
X129170667Y-134898291D01*
X129167517Y-134919526D01*
X129162301Y-134940350D01*
X129155069Y-134960562D01*
X129145890Y-134979968D01*
X129134854Y-134998381D01*
X129122066Y-135015624D01*
X129107650Y-135031530D01*
X129091744Y-135045946D01*
X129074501Y-135058734D01*
X129056088Y-135069770D01*
X129036682Y-135078949D01*
X129016470Y-135086181D01*
X128995646Y-135091397D01*
X128974411Y-135094547D01*
X128952970Y-135095600D01*
X128440470Y-135095600D01*
X128419029Y-135094547D01*
X128397794Y-135091397D01*
X128376970Y-135086181D01*
X128356758Y-135078949D01*
X128337352Y-135069770D01*
X128318939Y-135058734D01*
X128301696Y-135045946D01*
X128285790Y-135031530D01*
X128271374Y-135015624D01*
X128258586Y-134998381D01*
X128247550Y-134979968D01*
X128238371Y-134960562D01*
X128231139Y-134940350D01*
X128225923Y-134919526D01*
X128222773Y-134898291D01*
X128221720Y-134876850D01*
X128221720Y-134439350D01*
X128222773Y-134417909D01*
X128225923Y-134396674D01*
X128231139Y-134375850D01*
X128238371Y-134355638D01*
X128247550Y-134336232D01*
X128258586Y-134317819D01*
X128271374Y-134300576D01*
X128285790Y-134284670D01*
X128301696Y-134270254D01*
X128318939Y-134257466D01*
X128337352Y-134246430D01*
X128356758Y-134237251D01*
X128376970Y-134230019D01*
X128397794Y-134224803D01*
X128419029Y-134221653D01*
X128440470Y-134220600D01*
X128952970Y-134220600D01*
X128974411Y-134221653D01*
X128974411Y-134221653D01*
G37*
D11*
X128696720Y-134658100D03*
D10*
G36*
X128974411Y-132646653D02*
G01*
X128995646Y-132649803D01*
X129016470Y-132655019D01*
X129036682Y-132662251D01*
X129056088Y-132671430D01*
X129074501Y-132682466D01*
X129091744Y-132695254D01*
X129107650Y-132709670D01*
X129122066Y-132725576D01*
X129134854Y-132742819D01*
X129145890Y-132761232D01*
X129155069Y-132780638D01*
X129162301Y-132800850D01*
X129167517Y-132821674D01*
X129170667Y-132842909D01*
X129171720Y-132864350D01*
X129171720Y-133301850D01*
X129170667Y-133323291D01*
X129167517Y-133344526D01*
X129162301Y-133365350D01*
X129155069Y-133385562D01*
X129145890Y-133404968D01*
X129134854Y-133423381D01*
X129122066Y-133440624D01*
X129107650Y-133456530D01*
X129091744Y-133470946D01*
X129074501Y-133483734D01*
X129056088Y-133494770D01*
X129036682Y-133503949D01*
X129016470Y-133511181D01*
X128995646Y-133516397D01*
X128974411Y-133519547D01*
X128952970Y-133520600D01*
X128440470Y-133520600D01*
X128419029Y-133519547D01*
X128397794Y-133516397D01*
X128376970Y-133511181D01*
X128356758Y-133503949D01*
X128337352Y-133494770D01*
X128318939Y-133483734D01*
X128301696Y-133470946D01*
X128285790Y-133456530D01*
X128271374Y-133440624D01*
X128258586Y-133423381D01*
X128247550Y-133404968D01*
X128238371Y-133385562D01*
X128231139Y-133365350D01*
X128225923Y-133344526D01*
X128222773Y-133323291D01*
X128221720Y-133301850D01*
X128221720Y-132864350D01*
X128222773Y-132842909D01*
X128225923Y-132821674D01*
X128231139Y-132800850D01*
X128238371Y-132780638D01*
X128247550Y-132761232D01*
X128258586Y-132742819D01*
X128271374Y-132725576D01*
X128285790Y-132709670D01*
X128301696Y-132695254D01*
X128318939Y-132682466D01*
X128337352Y-132671430D01*
X128356758Y-132662251D01*
X128376970Y-132655019D01*
X128397794Y-132649803D01*
X128419029Y-132646653D01*
X128440470Y-132645600D01*
X128952970Y-132645600D01*
X128974411Y-132646653D01*
X128974411Y-132646653D01*
G37*
D11*
X128696720Y-133083100D03*
D10*
G36*
X124204891Y-134148593D02*
G01*
X124226126Y-134151743D01*
X124246950Y-134156959D01*
X124267162Y-134164191D01*
X124286568Y-134173370D01*
X124304981Y-134184406D01*
X124322224Y-134197194D01*
X124338130Y-134211610D01*
X124352546Y-134227516D01*
X124365334Y-134244759D01*
X124376370Y-134263172D01*
X124385549Y-134282578D01*
X124392781Y-134302790D01*
X124397997Y-134323614D01*
X124401147Y-134344849D01*
X124402200Y-134366290D01*
X124402200Y-134878790D01*
X124401147Y-134900231D01*
X124397997Y-134921466D01*
X124392781Y-134942290D01*
X124385549Y-134962502D01*
X124376370Y-134981908D01*
X124365334Y-135000321D01*
X124352546Y-135017564D01*
X124338130Y-135033470D01*
X124322224Y-135047886D01*
X124304981Y-135060674D01*
X124286568Y-135071710D01*
X124267162Y-135080889D01*
X124246950Y-135088121D01*
X124226126Y-135093337D01*
X124204891Y-135096487D01*
X124183450Y-135097540D01*
X123745950Y-135097540D01*
X123724509Y-135096487D01*
X123703274Y-135093337D01*
X123682450Y-135088121D01*
X123662238Y-135080889D01*
X123642832Y-135071710D01*
X123624419Y-135060674D01*
X123607176Y-135047886D01*
X123591270Y-135033470D01*
X123576854Y-135017564D01*
X123564066Y-135000321D01*
X123553030Y-134981908D01*
X123543851Y-134962502D01*
X123536619Y-134942290D01*
X123531403Y-134921466D01*
X123528253Y-134900231D01*
X123527200Y-134878790D01*
X123527200Y-134366290D01*
X123528253Y-134344849D01*
X123531403Y-134323614D01*
X123536619Y-134302790D01*
X123543851Y-134282578D01*
X123553030Y-134263172D01*
X123564066Y-134244759D01*
X123576854Y-134227516D01*
X123591270Y-134211610D01*
X123607176Y-134197194D01*
X123624419Y-134184406D01*
X123642832Y-134173370D01*
X123662238Y-134164191D01*
X123682450Y-134156959D01*
X123703274Y-134151743D01*
X123724509Y-134148593D01*
X123745950Y-134147540D01*
X124183450Y-134147540D01*
X124204891Y-134148593D01*
X124204891Y-134148593D01*
G37*
D11*
X123964700Y-134622540D03*
D10*
G36*
X122629891Y-134148593D02*
G01*
X122651126Y-134151743D01*
X122671950Y-134156959D01*
X122692162Y-134164191D01*
X122711568Y-134173370D01*
X122729981Y-134184406D01*
X122747224Y-134197194D01*
X122763130Y-134211610D01*
X122777546Y-134227516D01*
X122790334Y-134244759D01*
X122801370Y-134263172D01*
X122810549Y-134282578D01*
X122817781Y-134302790D01*
X122822997Y-134323614D01*
X122826147Y-134344849D01*
X122827200Y-134366290D01*
X122827200Y-134878790D01*
X122826147Y-134900231D01*
X122822997Y-134921466D01*
X122817781Y-134942290D01*
X122810549Y-134962502D01*
X122801370Y-134981908D01*
X122790334Y-135000321D01*
X122777546Y-135017564D01*
X122763130Y-135033470D01*
X122747224Y-135047886D01*
X122729981Y-135060674D01*
X122711568Y-135071710D01*
X122692162Y-135080889D01*
X122671950Y-135088121D01*
X122651126Y-135093337D01*
X122629891Y-135096487D01*
X122608450Y-135097540D01*
X122170950Y-135097540D01*
X122149509Y-135096487D01*
X122128274Y-135093337D01*
X122107450Y-135088121D01*
X122087238Y-135080889D01*
X122067832Y-135071710D01*
X122049419Y-135060674D01*
X122032176Y-135047886D01*
X122016270Y-135033470D01*
X122001854Y-135017564D01*
X121989066Y-135000321D01*
X121978030Y-134981908D01*
X121968851Y-134962502D01*
X121961619Y-134942290D01*
X121956403Y-134921466D01*
X121953253Y-134900231D01*
X121952200Y-134878790D01*
X121952200Y-134366290D01*
X121953253Y-134344849D01*
X121956403Y-134323614D01*
X121961619Y-134302790D01*
X121968851Y-134282578D01*
X121978030Y-134263172D01*
X121989066Y-134244759D01*
X122001854Y-134227516D01*
X122016270Y-134211610D01*
X122032176Y-134197194D01*
X122049419Y-134184406D01*
X122067832Y-134173370D01*
X122087238Y-134164191D01*
X122107450Y-134156959D01*
X122128274Y-134151743D01*
X122149509Y-134148593D01*
X122170950Y-134147540D01*
X122608450Y-134147540D01*
X122629891Y-134148593D01*
X122629891Y-134148593D01*
G37*
D11*
X122389700Y-134622540D03*
D19*
X130700000Y-106100000D03*
X131650000Y-108300000D03*
X129750000Y-108300000D03*
X137300000Y-121050000D03*
X138250000Y-123250000D03*
X136350000Y-123250000D03*
X108750000Y-117250000D03*
X109700000Y-119450000D03*
X107800000Y-119450000D03*
D10*
G36*
X116740191Y-125276053D02*
G01*
X116761426Y-125279203D01*
X116782250Y-125284419D01*
X116802462Y-125291651D01*
X116821868Y-125300830D01*
X116840281Y-125311866D01*
X116857524Y-125324654D01*
X116873430Y-125339070D01*
X116887846Y-125354976D01*
X116900634Y-125372219D01*
X116911670Y-125390632D01*
X116920849Y-125410038D01*
X116928081Y-125430250D01*
X116933297Y-125451074D01*
X116936447Y-125472309D01*
X116937500Y-125493750D01*
X116937500Y-126006250D01*
X116936447Y-126027691D01*
X116933297Y-126048926D01*
X116928081Y-126069750D01*
X116920849Y-126089962D01*
X116911670Y-126109368D01*
X116900634Y-126127781D01*
X116887846Y-126145024D01*
X116873430Y-126160930D01*
X116857524Y-126175346D01*
X116840281Y-126188134D01*
X116821868Y-126199170D01*
X116802462Y-126208349D01*
X116782250Y-126215581D01*
X116761426Y-126220797D01*
X116740191Y-126223947D01*
X116718750Y-126225000D01*
X116281250Y-126225000D01*
X116259809Y-126223947D01*
X116238574Y-126220797D01*
X116217750Y-126215581D01*
X116197538Y-126208349D01*
X116178132Y-126199170D01*
X116159719Y-126188134D01*
X116142476Y-126175346D01*
X116126570Y-126160930D01*
X116112154Y-126145024D01*
X116099366Y-126127781D01*
X116088330Y-126109368D01*
X116079151Y-126089962D01*
X116071919Y-126069750D01*
X116066703Y-126048926D01*
X116063553Y-126027691D01*
X116062500Y-126006250D01*
X116062500Y-125493750D01*
X116063553Y-125472309D01*
X116066703Y-125451074D01*
X116071919Y-125430250D01*
X116079151Y-125410038D01*
X116088330Y-125390632D01*
X116099366Y-125372219D01*
X116112154Y-125354976D01*
X116126570Y-125339070D01*
X116142476Y-125324654D01*
X116159719Y-125311866D01*
X116178132Y-125300830D01*
X116197538Y-125291651D01*
X116217750Y-125284419D01*
X116238574Y-125279203D01*
X116259809Y-125276053D01*
X116281250Y-125275000D01*
X116718750Y-125275000D01*
X116740191Y-125276053D01*
X116740191Y-125276053D01*
G37*
D11*
X116500000Y-125750000D03*
D10*
G36*
X115165191Y-125276053D02*
G01*
X115186426Y-125279203D01*
X115207250Y-125284419D01*
X115227462Y-125291651D01*
X115246868Y-125300830D01*
X115265281Y-125311866D01*
X115282524Y-125324654D01*
X115298430Y-125339070D01*
X115312846Y-125354976D01*
X115325634Y-125372219D01*
X115336670Y-125390632D01*
X115345849Y-125410038D01*
X115353081Y-125430250D01*
X115358297Y-125451074D01*
X115361447Y-125472309D01*
X115362500Y-125493750D01*
X115362500Y-126006250D01*
X115361447Y-126027691D01*
X115358297Y-126048926D01*
X115353081Y-126069750D01*
X115345849Y-126089962D01*
X115336670Y-126109368D01*
X115325634Y-126127781D01*
X115312846Y-126145024D01*
X115298430Y-126160930D01*
X115282524Y-126175346D01*
X115265281Y-126188134D01*
X115246868Y-126199170D01*
X115227462Y-126208349D01*
X115207250Y-126215581D01*
X115186426Y-126220797D01*
X115165191Y-126223947D01*
X115143750Y-126225000D01*
X114706250Y-126225000D01*
X114684809Y-126223947D01*
X114663574Y-126220797D01*
X114642750Y-126215581D01*
X114622538Y-126208349D01*
X114603132Y-126199170D01*
X114584719Y-126188134D01*
X114567476Y-126175346D01*
X114551570Y-126160930D01*
X114537154Y-126145024D01*
X114524366Y-126127781D01*
X114513330Y-126109368D01*
X114504151Y-126089962D01*
X114496919Y-126069750D01*
X114491703Y-126048926D01*
X114488553Y-126027691D01*
X114487500Y-126006250D01*
X114487500Y-125493750D01*
X114488553Y-125472309D01*
X114491703Y-125451074D01*
X114496919Y-125430250D01*
X114504151Y-125410038D01*
X114513330Y-125390632D01*
X114524366Y-125372219D01*
X114537154Y-125354976D01*
X114551570Y-125339070D01*
X114567476Y-125324654D01*
X114584719Y-125311866D01*
X114603132Y-125300830D01*
X114622538Y-125291651D01*
X114642750Y-125284419D01*
X114663574Y-125279203D01*
X114684809Y-125276053D01*
X114706250Y-125275000D01*
X115143750Y-125275000D01*
X115165191Y-125276053D01*
X115165191Y-125276053D01*
G37*
D11*
X114925000Y-125750000D03*
D10*
G36*
X122205191Y-92726053D02*
G01*
X122226426Y-92729203D01*
X122247250Y-92734419D01*
X122267462Y-92741651D01*
X122286868Y-92750830D01*
X122305281Y-92761866D01*
X122322524Y-92774654D01*
X122338430Y-92789070D01*
X122352846Y-92804976D01*
X122365634Y-92822219D01*
X122376670Y-92840632D01*
X122385849Y-92860038D01*
X122393081Y-92880250D01*
X122398297Y-92901074D01*
X122401447Y-92922309D01*
X122402500Y-92943750D01*
X122402500Y-93456250D01*
X122401447Y-93477691D01*
X122398297Y-93498926D01*
X122393081Y-93519750D01*
X122385849Y-93539962D01*
X122376670Y-93559368D01*
X122365634Y-93577781D01*
X122352846Y-93595024D01*
X122338430Y-93610930D01*
X122322524Y-93625346D01*
X122305281Y-93638134D01*
X122286868Y-93649170D01*
X122267462Y-93658349D01*
X122247250Y-93665581D01*
X122226426Y-93670797D01*
X122205191Y-93673947D01*
X122183750Y-93675000D01*
X121746250Y-93675000D01*
X121724809Y-93673947D01*
X121703574Y-93670797D01*
X121682750Y-93665581D01*
X121662538Y-93658349D01*
X121643132Y-93649170D01*
X121624719Y-93638134D01*
X121607476Y-93625346D01*
X121591570Y-93610930D01*
X121577154Y-93595024D01*
X121564366Y-93577781D01*
X121553330Y-93559368D01*
X121544151Y-93539962D01*
X121536919Y-93519750D01*
X121531703Y-93498926D01*
X121528553Y-93477691D01*
X121527500Y-93456250D01*
X121527500Y-92943750D01*
X121528553Y-92922309D01*
X121531703Y-92901074D01*
X121536919Y-92880250D01*
X121544151Y-92860038D01*
X121553330Y-92840632D01*
X121564366Y-92822219D01*
X121577154Y-92804976D01*
X121591570Y-92789070D01*
X121607476Y-92774654D01*
X121624719Y-92761866D01*
X121643132Y-92750830D01*
X121662538Y-92741651D01*
X121682750Y-92734419D01*
X121703574Y-92729203D01*
X121724809Y-92726053D01*
X121746250Y-92725000D01*
X122183750Y-92725000D01*
X122205191Y-92726053D01*
X122205191Y-92726053D01*
G37*
D11*
X121965000Y-93200000D03*
D10*
G36*
X123780191Y-92726053D02*
G01*
X123801426Y-92729203D01*
X123822250Y-92734419D01*
X123842462Y-92741651D01*
X123861868Y-92750830D01*
X123880281Y-92761866D01*
X123897524Y-92774654D01*
X123913430Y-92789070D01*
X123927846Y-92804976D01*
X123940634Y-92822219D01*
X123951670Y-92840632D01*
X123960849Y-92860038D01*
X123968081Y-92880250D01*
X123973297Y-92901074D01*
X123976447Y-92922309D01*
X123977500Y-92943750D01*
X123977500Y-93456250D01*
X123976447Y-93477691D01*
X123973297Y-93498926D01*
X123968081Y-93519750D01*
X123960849Y-93539962D01*
X123951670Y-93559368D01*
X123940634Y-93577781D01*
X123927846Y-93595024D01*
X123913430Y-93610930D01*
X123897524Y-93625346D01*
X123880281Y-93638134D01*
X123861868Y-93649170D01*
X123842462Y-93658349D01*
X123822250Y-93665581D01*
X123801426Y-93670797D01*
X123780191Y-93673947D01*
X123758750Y-93675000D01*
X123321250Y-93675000D01*
X123299809Y-93673947D01*
X123278574Y-93670797D01*
X123257750Y-93665581D01*
X123237538Y-93658349D01*
X123218132Y-93649170D01*
X123199719Y-93638134D01*
X123182476Y-93625346D01*
X123166570Y-93610930D01*
X123152154Y-93595024D01*
X123139366Y-93577781D01*
X123128330Y-93559368D01*
X123119151Y-93539962D01*
X123111919Y-93519750D01*
X123106703Y-93498926D01*
X123103553Y-93477691D01*
X123102500Y-93456250D01*
X123102500Y-92943750D01*
X123103553Y-92922309D01*
X123106703Y-92901074D01*
X123111919Y-92880250D01*
X123119151Y-92860038D01*
X123128330Y-92840632D01*
X123139366Y-92822219D01*
X123152154Y-92804976D01*
X123166570Y-92789070D01*
X123182476Y-92774654D01*
X123199719Y-92761866D01*
X123218132Y-92750830D01*
X123237538Y-92741651D01*
X123257750Y-92734419D01*
X123278574Y-92729203D01*
X123299809Y-92726053D01*
X123321250Y-92725000D01*
X123758750Y-92725000D01*
X123780191Y-92726053D01*
X123780191Y-92726053D01*
G37*
D11*
X123540000Y-93200000D03*
D10*
G36*
X136915191Y-126526053D02*
G01*
X136936426Y-126529203D01*
X136957250Y-126534419D01*
X136977462Y-126541651D01*
X136996868Y-126550830D01*
X137015281Y-126561866D01*
X137032524Y-126574654D01*
X137048430Y-126589070D01*
X137062846Y-126604976D01*
X137075634Y-126622219D01*
X137086670Y-126640632D01*
X137095849Y-126660038D01*
X137103081Y-126680250D01*
X137108297Y-126701074D01*
X137111447Y-126722309D01*
X137112500Y-126743750D01*
X137112500Y-127256250D01*
X137111447Y-127277691D01*
X137108297Y-127298926D01*
X137103081Y-127319750D01*
X137095849Y-127339962D01*
X137086670Y-127359368D01*
X137075634Y-127377781D01*
X137062846Y-127395024D01*
X137048430Y-127410930D01*
X137032524Y-127425346D01*
X137015281Y-127438134D01*
X136996868Y-127449170D01*
X136977462Y-127458349D01*
X136957250Y-127465581D01*
X136936426Y-127470797D01*
X136915191Y-127473947D01*
X136893750Y-127475000D01*
X136456250Y-127475000D01*
X136434809Y-127473947D01*
X136413574Y-127470797D01*
X136392750Y-127465581D01*
X136372538Y-127458349D01*
X136353132Y-127449170D01*
X136334719Y-127438134D01*
X136317476Y-127425346D01*
X136301570Y-127410930D01*
X136287154Y-127395024D01*
X136274366Y-127377781D01*
X136263330Y-127359368D01*
X136254151Y-127339962D01*
X136246919Y-127319750D01*
X136241703Y-127298926D01*
X136238553Y-127277691D01*
X136237500Y-127256250D01*
X136237500Y-126743750D01*
X136238553Y-126722309D01*
X136241703Y-126701074D01*
X136246919Y-126680250D01*
X136254151Y-126660038D01*
X136263330Y-126640632D01*
X136274366Y-126622219D01*
X136287154Y-126604976D01*
X136301570Y-126589070D01*
X136317476Y-126574654D01*
X136334719Y-126561866D01*
X136353132Y-126550830D01*
X136372538Y-126541651D01*
X136392750Y-126534419D01*
X136413574Y-126529203D01*
X136434809Y-126526053D01*
X136456250Y-126525000D01*
X136893750Y-126525000D01*
X136915191Y-126526053D01*
X136915191Y-126526053D01*
G37*
D11*
X136675000Y-127000000D03*
D10*
G36*
X138490191Y-126526053D02*
G01*
X138511426Y-126529203D01*
X138532250Y-126534419D01*
X138552462Y-126541651D01*
X138571868Y-126550830D01*
X138590281Y-126561866D01*
X138607524Y-126574654D01*
X138623430Y-126589070D01*
X138637846Y-126604976D01*
X138650634Y-126622219D01*
X138661670Y-126640632D01*
X138670849Y-126660038D01*
X138678081Y-126680250D01*
X138683297Y-126701074D01*
X138686447Y-126722309D01*
X138687500Y-126743750D01*
X138687500Y-127256250D01*
X138686447Y-127277691D01*
X138683297Y-127298926D01*
X138678081Y-127319750D01*
X138670849Y-127339962D01*
X138661670Y-127359368D01*
X138650634Y-127377781D01*
X138637846Y-127395024D01*
X138623430Y-127410930D01*
X138607524Y-127425346D01*
X138590281Y-127438134D01*
X138571868Y-127449170D01*
X138552462Y-127458349D01*
X138532250Y-127465581D01*
X138511426Y-127470797D01*
X138490191Y-127473947D01*
X138468750Y-127475000D01*
X138031250Y-127475000D01*
X138009809Y-127473947D01*
X137988574Y-127470797D01*
X137967750Y-127465581D01*
X137947538Y-127458349D01*
X137928132Y-127449170D01*
X137909719Y-127438134D01*
X137892476Y-127425346D01*
X137876570Y-127410930D01*
X137862154Y-127395024D01*
X137849366Y-127377781D01*
X137838330Y-127359368D01*
X137829151Y-127339962D01*
X137821919Y-127319750D01*
X137816703Y-127298926D01*
X137813553Y-127277691D01*
X137812500Y-127256250D01*
X137812500Y-126743750D01*
X137813553Y-126722309D01*
X137816703Y-126701074D01*
X137821919Y-126680250D01*
X137829151Y-126660038D01*
X137838330Y-126640632D01*
X137849366Y-126622219D01*
X137862154Y-126604976D01*
X137876570Y-126589070D01*
X137892476Y-126574654D01*
X137909719Y-126561866D01*
X137928132Y-126550830D01*
X137947538Y-126541651D01*
X137967750Y-126534419D01*
X137988574Y-126529203D01*
X138009809Y-126526053D01*
X138031250Y-126525000D01*
X138468750Y-126525000D01*
X138490191Y-126526053D01*
X138490191Y-126526053D01*
G37*
D11*
X138250000Y-127000000D03*
D10*
G36*
X132740191Y-113526053D02*
G01*
X132761426Y-113529203D01*
X132782250Y-113534419D01*
X132802462Y-113541651D01*
X132821868Y-113550830D01*
X132840281Y-113561866D01*
X132857524Y-113574654D01*
X132873430Y-113589070D01*
X132887846Y-113604976D01*
X132900634Y-113622219D01*
X132911670Y-113640632D01*
X132920849Y-113660038D01*
X132928081Y-113680250D01*
X132933297Y-113701074D01*
X132936447Y-113722309D01*
X132937500Y-113743750D01*
X132937500Y-114256250D01*
X132936447Y-114277691D01*
X132933297Y-114298926D01*
X132928081Y-114319750D01*
X132920849Y-114339962D01*
X132911670Y-114359368D01*
X132900634Y-114377781D01*
X132887846Y-114395024D01*
X132873430Y-114410930D01*
X132857524Y-114425346D01*
X132840281Y-114438134D01*
X132821868Y-114449170D01*
X132802462Y-114458349D01*
X132782250Y-114465581D01*
X132761426Y-114470797D01*
X132740191Y-114473947D01*
X132718750Y-114475000D01*
X132281250Y-114475000D01*
X132259809Y-114473947D01*
X132238574Y-114470797D01*
X132217750Y-114465581D01*
X132197538Y-114458349D01*
X132178132Y-114449170D01*
X132159719Y-114438134D01*
X132142476Y-114425346D01*
X132126570Y-114410930D01*
X132112154Y-114395024D01*
X132099366Y-114377781D01*
X132088330Y-114359368D01*
X132079151Y-114339962D01*
X132071919Y-114319750D01*
X132066703Y-114298926D01*
X132063553Y-114277691D01*
X132062500Y-114256250D01*
X132062500Y-113743750D01*
X132063553Y-113722309D01*
X132066703Y-113701074D01*
X132071919Y-113680250D01*
X132079151Y-113660038D01*
X132088330Y-113640632D01*
X132099366Y-113622219D01*
X132112154Y-113604976D01*
X132126570Y-113589070D01*
X132142476Y-113574654D01*
X132159719Y-113561866D01*
X132178132Y-113550830D01*
X132197538Y-113541651D01*
X132217750Y-113534419D01*
X132238574Y-113529203D01*
X132259809Y-113526053D01*
X132281250Y-113525000D01*
X132718750Y-113525000D01*
X132740191Y-113526053D01*
X132740191Y-113526053D01*
G37*
D11*
X132500000Y-114000000D03*
D10*
G36*
X134315191Y-113526053D02*
G01*
X134336426Y-113529203D01*
X134357250Y-113534419D01*
X134377462Y-113541651D01*
X134396868Y-113550830D01*
X134415281Y-113561866D01*
X134432524Y-113574654D01*
X134448430Y-113589070D01*
X134462846Y-113604976D01*
X134475634Y-113622219D01*
X134486670Y-113640632D01*
X134495849Y-113660038D01*
X134503081Y-113680250D01*
X134508297Y-113701074D01*
X134511447Y-113722309D01*
X134512500Y-113743750D01*
X134512500Y-114256250D01*
X134511447Y-114277691D01*
X134508297Y-114298926D01*
X134503081Y-114319750D01*
X134495849Y-114339962D01*
X134486670Y-114359368D01*
X134475634Y-114377781D01*
X134462846Y-114395024D01*
X134448430Y-114410930D01*
X134432524Y-114425346D01*
X134415281Y-114438134D01*
X134396868Y-114449170D01*
X134377462Y-114458349D01*
X134357250Y-114465581D01*
X134336426Y-114470797D01*
X134315191Y-114473947D01*
X134293750Y-114475000D01*
X133856250Y-114475000D01*
X133834809Y-114473947D01*
X133813574Y-114470797D01*
X133792750Y-114465581D01*
X133772538Y-114458349D01*
X133753132Y-114449170D01*
X133734719Y-114438134D01*
X133717476Y-114425346D01*
X133701570Y-114410930D01*
X133687154Y-114395024D01*
X133674366Y-114377781D01*
X133663330Y-114359368D01*
X133654151Y-114339962D01*
X133646919Y-114319750D01*
X133641703Y-114298926D01*
X133638553Y-114277691D01*
X133637500Y-114256250D01*
X133637500Y-113743750D01*
X133638553Y-113722309D01*
X133641703Y-113701074D01*
X133646919Y-113680250D01*
X133654151Y-113660038D01*
X133663330Y-113640632D01*
X133674366Y-113622219D01*
X133687154Y-113604976D01*
X133701570Y-113589070D01*
X133717476Y-113574654D01*
X133734719Y-113561866D01*
X133753132Y-113550830D01*
X133772538Y-113541651D01*
X133792750Y-113534419D01*
X133813574Y-113529203D01*
X133834809Y-113526053D01*
X133856250Y-113525000D01*
X134293750Y-113525000D01*
X134315191Y-113526053D01*
X134315191Y-113526053D01*
G37*
D11*
X134075000Y-114000000D03*
D10*
G36*
X125205511Y-113026053D02*
G01*
X125226746Y-113029203D01*
X125247570Y-113034419D01*
X125267782Y-113041651D01*
X125287188Y-113050830D01*
X125305601Y-113061866D01*
X125322844Y-113074654D01*
X125338750Y-113089070D01*
X125353166Y-113104976D01*
X125365954Y-113122219D01*
X125376990Y-113140632D01*
X125386169Y-113160038D01*
X125393401Y-113180250D01*
X125398617Y-113201074D01*
X125401767Y-113222309D01*
X125402820Y-113243750D01*
X125402820Y-113756250D01*
X125401767Y-113777691D01*
X125398617Y-113798926D01*
X125393401Y-113819750D01*
X125386169Y-113839962D01*
X125376990Y-113859368D01*
X125365954Y-113877781D01*
X125353166Y-113895024D01*
X125338750Y-113910930D01*
X125322844Y-113925346D01*
X125305601Y-113938134D01*
X125287188Y-113949170D01*
X125267782Y-113958349D01*
X125247570Y-113965581D01*
X125226746Y-113970797D01*
X125205511Y-113973947D01*
X125184070Y-113975000D01*
X124746570Y-113975000D01*
X124725129Y-113973947D01*
X124703894Y-113970797D01*
X124683070Y-113965581D01*
X124662858Y-113958349D01*
X124643452Y-113949170D01*
X124625039Y-113938134D01*
X124607796Y-113925346D01*
X124591890Y-113910930D01*
X124577474Y-113895024D01*
X124564686Y-113877781D01*
X124553650Y-113859368D01*
X124544471Y-113839962D01*
X124537239Y-113819750D01*
X124532023Y-113798926D01*
X124528873Y-113777691D01*
X124527820Y-113756250D01*
X124527820Y-113243750D01*
X124528873Y-113222309D01*
X124532023Y-113201074D01*
X124537239Y-113180250D01*
X124544471Y-113160038D01*
X124553650Y-113140632D01*
X124564686Y-113122219D01*
X124577474Y-113104976D01*
X124591890Y-113089070D01*
X124607796Y-113074654D01*
X124625039Y-113061866D01*
X124643452Y-113050830D01*
X124662858Y-113041651D01*
X124683070Y-113034419D01*
X124703894Y-113029203D01*
X124725129Y-113026053D01*
X124746570Y-113025000D01*
X125184070Y-113025000D01*
X125205511Y-113026053D01*
X125205511Y-113026053D01*
G37*
D11*
X124965320Y-113500000D03*
D10*
G36*
X123630511Y-113026053D02*
G01*
X123651746Y-113029203D01*
X123672570Y-113034419D01*
X123692782Y-113041651D01*
X123712188Y-113050830D01*
X123730601Y-113061866D01*
X123747844Y-113074654D01*
X123763750Y-113089070D01*
X123778166Y-113104976D01*
X123790954Y-113122219D01*
X123801990Y-113140632D01*
X123811169Y-113160038D01*
X123818401Y-113180250D01*
X123823617Y-113201074D01*
X123826767Y-113222309D01*
X123827820Y-113243750D01*
X123827820Y-113756250D01*
X123826767Y-113777691D01*
X123823617Y-113798926D01*
X123818401Y-113819750D01*
X123811169Y-113839962D01*
X123801990Y-113859368D01*
X123790954Y-113877781D01*
X123778166Y-113895024D01*
X123763750Y-113910930D01*
X123747844Y-113925346D01*
X123730601Y-113938134D01*
X123712188Y-113949170D01*
X123692782Y-113958349D01*
X123672570Y-113965581D01*
X123651746Y-113970797D01*
X123630511Y-113973947D01*
X123609070Y-113975000D01*
X123171570Y-113975000D01*
X123150129Y-113973947D01*
X123128894Y-113970797D01*
X123108070Y-113965581D01*
X123087858Y-113958349D01*
X123068452Y-113949170D01*
X123050039Y-113938134D01*
X123032796Y-113925346D01*
X123016890Y-113910930D01*
X123002474Y-113895024D01*
X122989686Y-113877781D01*
X122978650Y-113859368D01*
X122969471Y-113839962D01*
X122962239Y-113819750D01*
X122957023Y-113798926D01*
X122953873Y-113777691D01*
X122952820Y-113756250D01*
X122952820Y-113243750D01*
X122953873Y-113222309D01*
X122957023Y-113201074D01*
X122962239Y-113180250D01*
X122969471Y-113160038D01*
X122978650Y-113140632D01*
X122989686Y-113122219D01*
X123002474Y-113104976D01*
X123016890Y-113089070D01*
X123032796Y-113074654D01*
X123050039Y-113061866D01*
X123068452Y-113050830D01*
X123087858Y-113041651D01*
X123108070Y-113034419D01*
X123128894Y-113029203D01*
X123150129Y-113026053D01*
X123171570Y-113025000D01*
X123609070Y-113025000D01*
X123630511Y-113026053D01*
X123630511Y-113026053D01*
G37*
D11*
X123390320Y-113500000D03*
D10*
G36*
X125205511Y-110776053D02*
G01*
X125226746Y-110779203D01*
X125247570Y-110784419D01*
X125267782Y-110791651D01*
X125287188Y-110800830D01*
X125305601Y-110811866D01*
X125322844Y-110824654D01*
X125338750Y-110839070D01*
X125353166Y-110854976D01*
X125365954Y-110872219D01*
X125376990Y-110890632D01*
X125386169Y-110910038D01*
X125393401Y-110930250D01*
X125398617Y-110951074D01*
X125401767Y-110972309D01*
X125402820Y-110993750D01*
X125402820Y-111506250D01*
X125401767Y-111527691D01*
X125398617Y-111548926D01*
X125393401Y-111569750D01*
X125386169Y-111589962D01*
X125376990Y-111609368D01*
X125365954Y-111627781D01*
X125353166Y-111645024D01*
X125338750Y-111660930D01*
X125322844Y-111675346D01*
X125305601Y-111688134D01*
X125287188Y-111699170D01*
X125267782Y-111708349D01*
X125247570Y-111715581D01*
X125226746Y-111720797D01*
X125205511Y-111723947D01*
X125184070Y-111725000D01*
X124746570Y-111725000D01*
X124725129Y-111723947D01*
X124703894Y-111720797D01*
X124683070Y-111715581D01*
X124662858Y-111708349D01*
X124643452Y-111699170D01*
X124625039Y-111688134D01*
X124607796Y-111675346D01*
X124591890Y-111660930D01*
X124577474Y-111645024D01*
X124564686Y-111627781D01*
X124553650Y-111609368D01*
X124544471Y-111589962D01*
X124537239Y-111569750D01*
X124532023Y-111548926D01*
X124528873Y-111527691D01*
X124527820Y-111506250D01*
X124527820Y-110993750D01*
X124528873Y-110972309D01*
X124532023Y-110951074D01*
X124537239Y-110930250D01*
X124544471Y-110910038D01*
X124553650Y-110890632D01*
X124564686Y-110872219D01*
X124577474Y-110854976D01*
X124591890Y-110839070D01*
X124607796Y-110824654D01*
X124625039Y-110811866D01*
X124643452Y-110800830D01*
X124662858Y-110791651D01*
X124683070Y-110784419D01*
X124703894Y-110779203D01*
X124725129Y-110776053D01*
X124746570Y-110775000D01*
X125184070Y-110775000D01*
X125205511Y-110776053D01*
X125205511Y-110776053D01*
G37*
D11*
X124965320Y-111250000D03*
D10*
G36*
X123630511Y-110776053D02*
G01*
X123651746Y-110779203D01*
X123672570Y-110784419D01*
X123692782Y-110791651D01*
X123712188Y-110800830D01*
X123730601Y-110811866D01*
X123747844Y-110824654D01*
X123763750Y-110839070D01*
X123778166Y-110854976D01*
X123790954Y-110872219D01*
X123801990Y-110890632D01*
X123811169Y-110910038D01*
X123818401Y-110930250D01*
X123823617Y-110951074D01*
X123826767Y-110972309D01*
X123827820Y-110993750D01*
X123827820Y-111506250D01*
X123826767Y-111527691D01*
X123823617Y-111548926D01*
X123818401Y-111569750D01*
X123811169Y-111589962D01*
X123801990Y-111609368D01*
X123790954Y-111627781D01*
X123778166Y-111645024D01*
X123763750Y-111660930D01*
X123747844Y-111675346D01*
X123730601Y-111688134D01*
X123712188Y-111699170D01*
X123692782Y-111708349D01*
X123672570Y-111715581D01*
X123651746Y-111720797D01*
X123630511Y-111723947D01*
X123609070Y-111725000D01*
X123171570Y-111725000D01*
X123150129Y-111723947D01*
X123128894Y-111720797D01*
X123108070Y-111715581D01*
X123087858Y-111708349D01*
X123068452Y-111699170D01*
X123050039Y-111688134D01*
X123032796Y-111675346D01*
X123016890Y-111660930D01*
X123002474Y-111645024D01*
X122989686Y-111627781D01*
X122978650Y-111609368D01*
X122969471Y-111589962D01*
X122962239Y-111569750D01*
X122957023Y-111548926D01*
X122953873Y-111527691D01*
X122952820Y-111506250D01*
X122952820Y-110993750D01*
X122953873Y-110972309D01*
X122957023Y-110951074D01*
X122962239Y-110930250D01*
X122969471Y-110910038D01*
X122978650Y-110890632D01*
X122989686Y-110872219D01*
X123002474Y-110854976D01*
X123016890Y-110839070D01*
X123032796Y-110824654D01*
X123050039Y-110811866D01*
X123068452Y-110800830D01*
X123087858Y-110791651D01*
X123108070Y-110784419D01*
X123128894Y-110779203D01*
X123150129Y-110776053D01*
X123171570Y-110775000D01*
X123609070Y-110775000D01*
X123630511Y-110776053D01*
X123630511Y-110776053D01*
G37*
D11*
X123390320Y-111250000D03*
D10*
G36*
X119777691Y-126638553D02*
G01*
X119798926Y-126641703D01*
X119819750Y-126646919D01*
X119839962Y-126654151D01*
X119859368Y-126663330D01*
X119877781Y-126674366D01*
X119895024Y-126687154D01*
X119910930Y-126701570D01*
X119925346Y-126717476D01*
X119938134Y-126734719D01*
X119949170Y-126753132D01*
X119958349Y-126772538D01*
X119965581Y-126792750D01*
X119970797Y-126813574D01*
X119973947Y-126834809D01*
X119975000Y-126856250D01*
X119975000Y-127293750D01*
X119973947Y-127315191D01*
X119970797Y-127336426D01*
X119965581Y-127357250D01*
X119958349Y-127377462D01*
X119949170Y-127396868D01*
X119938134Y-127415281D01*
X119925346Y-127432524D01*
X119910930Y-127448430D01*
X119895024Y-127462846D01*
X119877781Y-127475634D01*
X119859368Y-127486670D01*
X119839962Y-127495849D01*
X119819750Y-127503081D01*
X119798926Y-127508297D01*
X119777691Y-127511447D01*
X119756250Y-127512500D01*
X119243750Y-127512500D01*
X119222309Y-127511447D01*
X119201074Y-127508297D01*
X119180250Y-127503081D01*
X119160038Y-127495849D01*
X119140632Y-127486670D01*
X119122219Y-127475634D01*
X119104976Y-127462846D01*
X119089070Y-127448430D01*
X119074654Y-127432524D01*
X119061866Y-127415281D01*
X119050830Y-127396868D01*
X119041651Y-127377462D01*
X119034419Y-127357250D01*
X119029203Y-127336426D01*
X119026053Y-127315191D01*
X119025000Y-127293750D01*
X119025000Y-126856250D01*
X119026053Y-126834809D01*
X119029203Y-126813574D01*
X119034419Y-126792750D01*
X119041651Y-126772538D01*
X119050830Y-126753132D01*
X119061866Y-126734719D01*
X119074654Y-126717476D01*
X119089070Y-126701570D01*
X119104976Y-126687154D01*
X119122219Y-126674366D01*
X119140632Y-126663330D01*
X119160038Y-126654151D01*
X119180250Y-126646919D01*
X119201074Y-126641703D01*
X119222309Y-126638553D01*
X119243750Y-126637500D01*
X119756250Y-126637500D01*
X119777691Y-126638553D01*
X119777691Y-126638553D01*
G37*
D11*
X119500000Y-127075000D03*
D10*
G36*
X119777691Y-125063553D02*
G01*
X119798926Y-125066703D01*
X119819750Y-125071919D01*
X119839962Y-125079151D01*
X119859368Y-125088330D01*
X119877781Y-125099366D01*
X119895024Y-125112154D01*
X119910930Y-125126570D01*
X119925346Y-125142476D01*
X119938134Y-125159719D01*
X119949170Y-125178132D01*
X119958349Y-125197538D01*
X119965581Y-125217750D01*
X119970797Y-125238574D01*
X119973947Y-125259809D01*
X119975000Y-125281250D01*
X119975000Y-125718750D01*
X119973947Y-125740191D01*
X119970797Y-125761426D01*
X119965581Y-125782250D01*
X119958349Y-125802462D01*
X119949170Y-125821868D01*
X119938134Y-125840281D01*
X119925346Y-125857524D01*
X119910930Y-125873430D01*
X119895024Y-125887846D01*
X119877781Y-125900634D01*
X119859368Y-125911670D01*
X119839962Y-125920849D01*
X119819750Y-125928081D01*
X119798926Y-125933297D01*
X119777691Y-125936447D01*
X119756250Y-125937500D01*
X119243750Y-125937500D01*
X119222309Y-125936447D01*
X119201074Y-125933297D01*
X119180250Y-125928081D01*
X119160038Y-125920849D01*
X119140632Y-125911670D01*
X119122219Y-125900634D01*
X119104976Y-125887846D01*
X119089070Y-125873430D01*
X119074654Y-125857524D01*
X119061866Y-125840281D01*
X119050830Y-125821868D01*
X119041651Y-125802462D01*
X119034419Y-125782250D01*
X119029203Y-125761426D01*
X119026053Y-125740191D01*
X119025000Y-125718750D01*
X119025000Y-125281250D01*
X119026053Y-125259809D01*
X119029203Y-125238574D01*
X119034419Y-125217750D01*
X119041651Y-125197538D01*
X119050830Y-125178132D01*
X119061866Y-125159719D01*
X119074654Y-125142476D01*
X119089070Y-125126570D01*
X119104976Y-125112154D01*
X119122219Y-125099366D01*
X119140632Y-125088330D01*
X119160038Y-125079151D01*
X119180250Y-125071919D01*
X119201074Y-125066703D01*
X119222309Y-125063553D01*
X119243750Y-125062500D01*
X119756250Y-125062500D01*
X119777691Y-125063553D01*
X119777691Y-125063553D01*
G37*
D11*
X119500000Y-125500000D03*
D10*
G36*
X115240191Y-121550093D02*
G01*
X115261426Y-121553243D01*
X115282250Y-121558459D01*
X115302462Y-121565691D01*
X115321868Y-121574870D01*
X115340281Y-121585906D01*
X115357524Y-121598694D01*
X115373430Y-121613110D01*
X115387846Y-121629016D01*
X115400634Y-121646259D01*
X115411670Y-121664672D01*
X115420849Y-121684078D01*
X115428081Y-121704290D01*
X115433297Y-121725114D01*
X115436447Y-121746349D01*
X115437500Y-121767790D01*
X115437500Y-122280290D01*
X115436447Y-122301731D01*
X115433297Y-122322966D01*
X115428081Y-122343790D01*
X115420849Y-122364002D01*
X115411670Y-122383408D01*
X115400634Y-122401821D01*
X115387846Y-122419064D01*
X115373430Y-122434970D01*
X115357524Y-122449386D01*
X115340281Y-122462174D01*
X115321868Y-122473210D01*
X115302462Y-122482389D01*
X115282250Y-122489621D01*
X115261426Y-122494837D01*
X115240191Y-122497987D01*
X115218750Y-122499040D01*
X114781250Y-122499040D01*
X114759809Y-122497987D01*
X114738574Y-122494837D01*
X114717750Y-122489621D01*
X114697538Y-122482389D01*
X114678132Y-122473210D01*
X114659719Y-122462174D01*
X114642476Y-122449386D01*
X114626570Y-122434970D01*
X114612154Y-122419064D01*
X114599366Y-122401821D01*
X114588330Y-122383408D01*
X114579151Y-122364002D01*
X114571919Y-122343790D01*
X114566703Y-122322966D01*
X114563553Y-122301731D01*
X114562500Y-122280290D01*
X114562500Y-121767790D01*
X114563553Y-121746349D01*
X114566703Y-121725114D01*
X114571919Y-121704290D01*
X114579151Y-121684078D01*
X114588330Y-121664672D01*
X114599366Y-121646259D01*
X114612154Y-121629016D01*
X114626570Y-121613110D01*
X114642476Y-121598694D01*
X114659719Y-121585906D01*
X114678132Y-121574870D01*
X114697538Y-121565691D01*
X114717750Y-121558459D01*
X114738574Y-121553243D01*
X114759809Y-121550093D01*
X114781250Y-121549040D01*
X115218750Y-121549040D01*
X115240191Y-121550093D01*
X115240191Y-121550093D01*
G37*
D11*
X115000000Y-122024040D03*
D10*
G36*
X113665191Y-121550093D02*
G01*
X113686426Y-121553243D01*
X113707250Y-121558459D01*
X113727462Y-121565691D01*
X113746868Y-121574870D01*
X113765281Y-121585906D01*
X113782524Y-121598694D01*
X113798430Y-121613110D01*
X113812846Y-121629016D01*
X113825634Y-121646259D01*
X113836670Y-121664672D01*
X113845849Y-121684078D01*
X113853081Y-121704290D01*
X113858297Y-121725114D01*
X113861447Y-121746349D01*
X113862500Y-121767790D01*
X113862500Y-122280290D01*
X113861447Y-122301731D01*
X113858297Y-122322966D01*
X113853081Y-122343790D01*
X113845849Y-122364002D01*
X113836670Y-122383408D01*
X113825634Y-122401821D01*
X113812846Y-122419064D01*
X113798430Y-122434970D01*
X113782524Y-122449386D01*
X113765281Y-122462174D01*
X113746868Y-122473210D01*
X113727462Y-122482389D01*
X113707250Y-122489621D01*
X113686426Y-122494837D01*
X113665191Y-122497987D01*
X113643750Y-122499040D01*
X113206250Y-122499040D01*
X113184809Y-122497987D01*
X113163574Y-122494837D01*
X113142750Y-122489621D01*
X113122538Y-122482389D01*
X113103132Y-122473210D01*
X113084719Y-122462174D01*
X113067476Y-122449386D01*
X113051570Y-122434970D01*
X113037154Y-122419064D01*
X113024366Y-122401821D01*
X113013330Y-122383408D01*
X113004151Y-122364002D01*
X112996919Y-122343790D01*
X112991703Y-122322966D01*
X112988553Y-122301731D01*
X112987500Y-122280290D01*
X112987500Y-121767790D01*
X112988553Y-121746349D01*
X112991703Y-121725114D01*
X112996919Y-121704290D01*
X113004151Y-121684078D01*
X113013330Y-121664672D01*
X113024366Y-121646259D01*
X113037154Y-121629016D01*
X113051570Y-121613110D01*
X113067476Y-121598694D01*
X113084719Y-121585906D01*
X113103132Y-121574870D01*
X113122538Y-121565691D01*
X113142750Y-121558459D01*
X113163574Y-121553243D01*
X113184809Y-121550093D01*
X113206250Y-121549040D01*
X113643750Y-121549040D01*
X113665191Y-121550093D01*
X113665191Y-121550093D01*
G37*
D11*
X113425000Y-122024040D03*
D10*
G36*
X108365191Y-123526053D02*
G01*
X108386426Y-123529203D01*
X108407250Y-123534419D01*
X108427462Y-123541651D01*
X108446868Y-123550830D01*
X108465281Y-123561866D01*
X108482524Y-123574654D01*
X108498430Y-123589070D01*
X108512846Y-123604976D01*
X108525634Y-123622219D01*
X108536670Y-123640632D01*
X108545849Y-123660038D01*
X108553081Y-123680250D01*
X108558297Y-123701074D01*
X108561447Y-123722309D01*
X108562500Y-123743750D01*
X108562500Y-124256250D01*
X108561447Y-124277691D01*
X108558297Y-124298926D01*
X108553081Y-124319750D01*
X108545849Y-124339962D01*
X108536670Y-124359368D01*
X108525634Y-124377781D01*
X108512846Y-124395024D01*
X108498430Y-124410930D01*
X108482524Y-124425346D01*
X108465281Y-124438134D01*
X108446868Y-124449170D01*
X108427462Y-124458349D01*
X108407250Y-124465581D01*
X108386426Y-124470797D01*
X108365191Y-124473947D01*
X108343750Y-124475000D01*
X107906250Y-124475000D01*
X107884809Y-124473947D01*
X107863574Y-124470797D01*
X107842750Y-124465581D01*
X107822538Y-124458349D01*
X107803132Y-124449170D01*
X107784719Y-124438134D01*
X107767476Y-124425346D01*
X107751570Y-124410930D01*
X107737154Y-124395024D01*
X107724366Y-124377781D01*
X107713330Y-124359368D01*
X107704151Y-124339962D01*
X107696919Y-124319750D01*
X107691703Y-124298926D01*
X107688553Y-124277691D01*
X107687500Y-124256250D01*
X107687500Y-123743750D01*
X107688553Y-123722309D01*
X107691703Y-123701074D01*
X107696919Y-123680250D01*
X107704151Y-123660038D01*
X107713330Y-123640632D01*
X107724366Y-123622219D01*
X107737154Y-123604976D01*
X107751570Y-123589070D01*
X107767476Y-123574654D01*
X107784719Y-123561866D01*
X107803132Y-123550830D01*
X107822538Y-123541651D01*
X107842750Y-123534419D01*
X107863574Y-123529203D01*
X107884809Y-123526053D01*
X107906250Y-123525000D01*
X108343750Y-123525000D01*
X108365191Y-123526053D01*
X108365191Y-123526053D01*
G37*
D11*
X108125000Y-124000000D03*
D10*
G36*
X109940191Y-123526053D02*
G01*
X109961426Y-123529203D01*
X109982250Y-123534419D01*
X110002462Y-123541651D01*
X110021868Y-123550830D01*
X110040281Y-123561866D01*
X110057524Y-123574654D01*
X110073430Y-123589070D01*
X110087846Y-123604976D01*
X110100634Y-123622219D01*
X110111670Y-123640632D01*
X110120849Y-123660038D01*
X110128081Y-123680250D01*
X110133297Y-123701074D01*
X110136447Y-123722309D01*
X110137500Y-123743750D01*
X110137500Y-124256250D01*
X110136447Y-124277691D01*
X110133297Y-124298926D01*
X110128081Y-124319750D01*
X110120849Y-124339962D01*
X110111670Y-124359368D01*
X110100634Y-124377781D01*
X110087846Y-124395024D01*
X110073430Y-124410930D01*
X110057524Y-124425346D01*
X110040281Y-124438134D01*
X110021868Y-124449170D01*
X110002462Y-124458349D01*
X109982250Y-124465581D01*
X109961426Y-124470797D01*
X109940191Y-124473947D01*
X109918750Y-124475000D01*
X109481250Y-124475000D01*
X109459809Y-124473947D01*
X109438574Y-124470797D01*
X109417750Y-124465581D01*
X109397538Y-124458349D01*
X109378132Y-124449170D01*
X109359719Y-124438134D01*
X109342476Y-124425346D01*
X109326570Y-124410930D01*
X109312154Y-124395024D01*
X109299366Y-124377781D01*
X109288330Y-124359368D01*
X109279151Y-124339962D01*
X109271919Y-124319750D01*
X109266703Y-124298926D01*
X109263553Y-124277691D01*
X109262500Y-124256250D01*
X109262500Y-123743750D01*
X109263553Y-123722309D01*
X109266703Y-123701074D01*
X109271919Y-123680250D01*
X109279151Y-123660038D01*
X109288330Y-123640632D01*
X109299366Y-123622219D01*
X109312154Y-123604976D01*
X109326570Y-123589070D01*
X109342476Y-123574654D01*
X109359719Y-123561866D01*
X109378132Y-123550830D01*
X109397538Y-123541651D01*
X109417750Y-123534419D01*
X109438574Y-123529203D01*
X109459809Y-123526053D01*
X109481250Y-123525000D01*
X109918750Y-123525000D01*
X109940191Y-123526053D01*
X109940191Y-123526053D01*
G37*
D11*
X109700000Y-124000000D03*
D10*
G36*
X108365191Y-125276053D02*
G01*
X108386426Y-125279203D01*
X108407250Y-125284419D01*
X108427462Y-125291651D01*
X108446868Y-125300830D01*
X108465281Y-125311866D01*
X108482524Y-125324654D01*
X108498430Y-125339070D01*
X108512846Y-125354976D01*
X108525634Y-125372219D01*
X108536670Y-125390632D01*
X108545849Y-125410038D01*
X108553081Y-125430250D01*
X108558297Y-125451074D01*
X108561447Y-125472309D01*
X108562500Y-125493750D01*
X108562500Y-126006250D01*
X108561447Y-126027691D01*
X108558297Y-126048926D01*
X108553081Y-126069750D01*
X108545849Y-126089962D01*
X108536670Y-126109368D01*
X108525634Y-126127781D01*
X108512846Y-126145024D01*
X108498430Y-126160930D01*
X108482524Y-126175346D01*
X108465281Y-126188134D01*
X108446868Y-126199170D01*
X108427462Y-126208349D01*
X108407250Y-126215581D01*
X108386426Y-126220797D01*
X108365191Y-126223947D01*
X108343750Y-126225000D01*
X107906250Y-126225000D01*
X107884809Y-126223947D01*
X107863574Y-126220797D01*
X107842750Y-126215581D01*
X107822538Y-126208349D01*
X107803132Y-126199170D01*
X107784719Y-126188134D01*
X107767476Y-126175346D01*
X107751570Y-126160930D01*
X107737154Y-126145024D01*
X107724366Y-126127781D01*
X107713330Y-126109368D01*
X107704151Y-126089962D01*
X107696919Y-126069750D01*
X107691703Y-126048926D01*
X107688553Y-126027691D01*
X107687500Y-126006250D01*
X107687500Y-125493750D01*
X107688553Y-125472309D01*
X107691703Y-125451074D01*
X107696919Y-125430250D01*
X107704151Y-125410038D01*
X107713330Y-125390632D01*
X107724366Y-125372219D01*
X107737154Y-125354976D01*
X107751570Y-125339070D01*
X107767476Y-125324654D01*
X107784719Y-125311866D01*
X107803132Y-125300830D01*
X107822538Y-125291651D01*
X107842750Y-125284419D01*
X107863574Y-125279203D01*
X107884809Y-125276053D01*
X107906250Y-125275000D01*
X108343750Y-125275000D01*
X108365191Y-125276053D01*
X108365191Y-125276053D01*
G37*
D11*
X108125000Y-125750000D03*
D10*
G36*
X109940191Y-125276053D02*
G01*
X109961426Y-125279203D01*
X109982250Y-125284419D01*
X110002462Y-125291651D01*
X110021868Y-125300830D01*
X110040281Y-125311866D01*
X110057524Y-125324654D01*
X110073430Y-125339070D01*
X110087846Y-125354976D01*
X110100634Y-125372219D01*
X110111670Y-125390632D01*
X110120849Y-125410038D01*
X110128081Y-125430250D01*
X110133297Y-125451074D01*
X110136447Y-125472309D01*
X110137500Y-125493750D01*
X110137500Y-126006250D01*
X110136447Y-126027691D01*
X110133297Y-126048926D01*
X110128081Y-126069750D01*
X110120849Y-126089962D01*
X110111670Y-126109368D01*
X110100634Y-126127781D01*
X110087846Y-126145024D01*
X110073430Y-126160930D01*
X110057524Y-126175346D01*
X110040281Y-126188134D01*
X110021868Y-126199170D01*
X110002462Y-126208349D01*
X109982250Y-126215581D01*
X109961426Y-126220797D01*
X109940191Y-126223947D01*
X109918750Y-126225000D01*
X109481250Y-126225000D01*
X109459809Y-126223947D01*
X109438574Y-126220797D01*
X109417750Y-126215581D01*
X109397538Y-126208349D01*
X109378132Y-126199170D01*
X109359719Y-126188134D01*
X109342476Y-126175346D01*
X109326570Y-126160930D01*
X109312154Y-126145024D01*
X109299366Y-126127781D01*
X109288330Y-126109368D01*
X109279151Y-126089962D01*
X109271919Y-126069750D01*
X109266703Y-126048926D01*
X109263553Y-126027691D01*
X109262500Y-126006250D01*
X109262500Y-125493750D01*
X109263553Y-125472309D01*
X109266703Y-125451074D01*
X109271919Y-125430250D01*
X109279151Y-125410038D01*
X109288330Y-125390632D01*
X109299366Y-125372219D01*
X109312154Y-125354976D01*
X109326570Y-125339070D01*
X109342476Y-125324654D01*
X109359719Y-125311866D01*
X109378132Y-125300830D01*
X109397538Y-125291651D01*
X109417750Y-125284419D01*
X109438574Y-125279203D01*
X109459809Y-125276053D01*
X109481250Y-125275000D01*
X109918750Y-125275000D01*
X109940191Y-125276053D01*
X109940191Y-125276053D01*
G37*
D11*
X109700000Y-125750000D03*
D10*
G36*
X108365191Y-127026053D02*
G01*
X108386426Y-127029203D01*
X108407250Y-127034419D01*
X108427462Y-127041651D01*
X108446868Y-127050830D01*
X108465281Y-127061866D01*
X108482524Y-127074654D01*
X108498430Y-127089070D01*
X108512846Y-127104976D01*
X108525634Y-127122219D01*
X108536670Y-127140632D01*
X108545849Y-127160038D01*
X108553081Y-127180250D01*
X108558297Y-127201074D01*
X108561447Y-127222309D01*
X108562500Y-127243750D01*
X108562500Y-127756250D01*
X108561447Y-127777691D01*
X108558297Y-127798926D01*
X108553081Y-127819750D01*
X108545849Y-127839962D01*
X108536670Y-127859368D01*
X108525634Y-127877781D01*
X108512846Y-127895024D01*
X108498430Y-127910930D01*
X108482524Y-127925346D01*
X108465281Y-127938134D01*
X108446868Y-127949170D01*
X108427462Y-127958349D01*
X108407250Y-127965581D01*
X108386426Y-127970797D01*
X108365191Y-127973947D01*
X108343750Y-127975000D01*
X107906250Y-127975000D01*
X107884809Y-127973947D01*
X107863574Y-127970797D01*
X107842750Y-127965581D01*
X107822538Y-127958349D01*
X107803132Y-127949170D01*
X107784719Y-127938134D01*
X107767476Y-127925346D01*
X107751570Y-127910930D01*
X107737154Y-127895024D01*
X107724366Y-127877781D01*
X107713330Y-127859368D01*
X107704151Y-127839962D01*
X107696919Y-127819750D01*
X107691703Y-127798926D01*
X107688553Y-127777691D01*
X107687500Y-127756250D01*
X107687500Y-127243750D01*
X107688553Y-127222309D01*
X107691703Y-127201074D01*
X107696919Y-127180250D01*
X107704151Y-127160038D01*
X107713330Y-127140632D01*
X107724366Y-127122219D01*
X107737154Y-127104976D01*
X107751570Y-127089070D01*
X107767476Y-127074654D01*
X107784719Y-127061866D01*
X107803132Y-127050830D01*
X107822538Y-127041651D01*
X107842750Y-127034419D01*
X107863574Y-127029203D01*
X107884809Y-127026053D01*
X107906250Y-127025000D01*
X108343750Y-127025000D01*
X108365191Y-127026053D01*
X108365191Y-127026053D01*
G37*
D11*
X108125000Y-127500000D03*
D10*
G36*
X109940191Y-127026053D02*
G01*
X109961426Y-127029203D01*
X109982250Y-127034419D01*
X110002462Y-127041651D01*
X110021868Y-127050830D01*
X110040281Y-127061866D01*
X110057524Y-127074654D01*
X110073430Y-127089070D01*
X110087846Y-127104976D01*
X110100634Y-127122219D01*
X110111670Y-127140632D01*
X110120849Y-127160038D01*
X110128081Y-127180250D01*
X110133297Y-127201074D01*
X110136447Y-127222309D01*
X110137500Y-127243750D01*
X110137500Y-127756250D01*
X110136447Y-127777691D01*
X110133297Y-127798926D01*
X110128081Y-127819750D01*
X110120849Y-127839962D01*
X110111670Y-127859368D01*
X110100634Y-127877781D01*
X110087846Y-127895024D01*
X110073430Y-127910930D01*
X110057524Y-127925346D01*
X110040281Y-127938134D01*
X110021868Y-127949170D01*
X110002462Y-127958349D01*
X109982250Y-127965581D01*
X109961426Y-127970797D01*
X109940191Y-127973947D01*
X109918750Y-127975000D01*
X109481250Y-127975000D01*
X109459809Y-127973947D01*
X109438574Y-127970797D01*
X109417750Y-127965581D01*
X109397538Y-127958349D01*
X109378132Y-127949170D01*
X109359719Y-127938134D01*
X109342476Y-127925346D01*
X109326570Y-127910930D01*
X109312154Y-127895024D01*
X109299366Y-127877781D01*
X109288330Y-127859368D01*
X109279151Y-127839962D01*
X109271919Y-127819750D01*
X109266703Y-127798926D01*
X109263553Y-127777691D01*
X109262500Y-127756250D01*
X109262500Y-127243750D01*
X109263553Y-127222309D01*
X109266703Y-127201074D01*
X109271919Y-127180250D01*
X109279151Y-127160038D01*
X109288330Y-127140632D01*
X109299366Y-127122219D01*
X109312154Y-127104976D01*
X109326570Y-127089070D01*
X109342476Y-127074654D01*
X109359719Y-127061866D01*
X109378132Y-127050830D01*
X109397538Y-127041651D01*
X109417750Y-127034419D01*
X109438574Y-127029203D01*
X109459809Y-127026053D01*
X109481250Y-127025000D01*
X109918750Y-127025000D01*
X109940191Y-127026053D01*
X109940191Y-127026053D01*
G37*
D11*
X109700000Y-127500000D03*
D10*
G36*
X123262271Y-128426053D02*
G01*
X123283506Y-128429203D01*
X123304330Y-128434419D01*
X123324542Y-128441651D01*
X123343948Y-128450830D01*
X123362361Y-128461866D01*
X123379604Y-128474654D01*
X123395510Y-128489070D01*
X123409926Y-128504976D01*
X123422714Y-128522219D01*
X123433750Y-128540632D01*
X123442929Y-128560038D01*
X123450161Y-128580250D01*
X123455377Y-128601074D01*
X123458527Y-128622309D01*
X123459580Y-128643750D01*
X123459580Y-129156250D01*
X123458527Y-129177691D01*
X123455377Y-129198926D01*
X123450161Y-129219750D01*
X123442929Y-129239962D01*
X123433750Y-129259368D01*
X123422714Y-129277781D01*
X123409926Y-129295024D01*
X123395510Y-129310930D01*
X123379604Y-129325346D01*
X123362361Y-129338134D01*
X123343948Y-129349170D01*
X123324542Y-129358349D01*
X123304330Y-129365581D01*
X123283506Y-129370797D01*
X123262271Y-129373947D01*
X123240830Y-129375000D01*
X122803330Y-129375000D01*
X122781889Y-129373947D01*
X122760654Y-129370797D01*
X122739830Y-129365581D01*
X122719618Y-129358349D01*
X122700212Y-129349170D01*
X122681799Y-129338134D01*
X122664556Y-129325346D01*
X122648650Y-129310930D01*
X122634234Y-129295024D01*
X122621446Y-129277781D01*
X122610410Y-129259368D01*
X122601231Y-129239962D01*
X122593999Y-129219750D01*
X122588783Y-129198926D01*
X122585633Y-129177691D01*
X122584580Y-129156250D01*
X122584580Y-128643750D01*
X122585633Y-128622309D01*
X122588783Y-128601074D01*
X122593999Y-128580250D01*
X122601231Y-128560038D01*
X122610410Y-128540632D01*
X122621446Y-128522219D01*
X122634234Y-128504976D01*
X122648650Y-128489070D01*
X122664556Y-128474654D01*
X122681799Y-128461866D01*
X122700212Y-128450830D01*
X122719618Y-128441651D01*
X122739830Y-128434419D01*
X122760654Y-128429203D01*
X122781889Y-128426053D01*
X122803330Y-128425000D01*
X123240830Y-128425000D01*
X123262271Y-128426053D01*
X123262271Y-128426053D01*
G37*
D11*
X123022080Y-128900000D03*
D10*
G36*
X124837271Y-128426053D02*
G01*
X124858506Y-128429203D01*
X124879330Y-128434419D01*
X124899542Y-128441651D01*
X124918948Y-128450830D01*
X124937361Y-128461866D01*
X124954604Y-128474654D01*
X124970510Y-128489070D01*
X124984926Y-128504976D01*
X124997714Y-128522219D01*
X125008750Y-128540632D01*
X125017929Y-128560038D01*
X125025161Y-128580250D01*
X125030377Y-128601074D01*
X125033527Y-128622309D01*
X125034580Y-128643750D01*
X125034580Y-129156250D01*
X125033527Y-129177691D01*
X125030377Y-129198926D01*
X125025161Y-129219750D01*
X125017929Y-129239962D01*
X125008750Y-129259368D01*
X124997714Y-129277781D01*
X124984926Y-129295024D01*
X124970510Y-129310930D01*
X124954604Y-129325346D01*
X124937361Y-129338134D01*
X124918948Y-129349170D01*
X124899542Y-129358349D01*
X124879330Y-129365581D01*
X124858506Y-129370797D01*
X124837271Y-129373947D01*
X124815830Y-129375000D01*
X124378330Y-129375000D01*
X124356889Y-129373947D01*
X124335654Y-129370797D01*
X124314830Y-129365581D01*
X124294618Y-129358349D01*
X124275212Y-129349170D01*
X124256799Y-129338134D01*
X124239556Y-129325346D01*
X124223650Y-129310930D01*
X124209234Y-129295024D01*
X124196446Y-129277781D01*
X124185410Y-129259368D01*
X124176231Y-129239962D01*
X124168999Y-129219750D01*
X124163783Y-129198926D01*
X124160633Y-129177691D01*
X124159580Y-129156250D01*
X124159580Y-128643750D01*
X124160633Y-128622309D01*
X124163783Y-128601074D01*
X124168999Y-128580250D01*
X124176231Y-128560038D01*
X124185410Y-128540632D01*
X124196446Y-128522219D01*
X124209234Y-128504976D01*
X124223650Y-128489070D01*
X124239556Y-128474654D01*
X124256799Y-128461866D01*
X124275212Y-128450830D01*
X124294618Y-128441651D01*
X124314830Y-128434419D01*
X124335654Y-128429203D01*
X124356889Y-128426053D01*
X124378330Y-128425000D01*
X124815830Y-128425000D01*
X124837271Y-128426053D01*
X124837271Y-128426053D01*
G37*
D11*
X124597080Y-128900000D03*
D20*
X133645040Y-63231380D03*
X133645040Y-64501380D03*
X133645040Y-65771380D03*
X133645040Y-67041380D03*
X133645040Y-68311380D03*
X133645040Y-69581380D03*
X133645040Y-70851380D03*
X133645040Y-72121380D03*
X133645040Y-73391380D03*
X133645040Y-74661380D03*
X133645040Y-75931380D03*
X133645040Y-77201380D03*
X133645040Y-78471380D03*
X133645040Y-79741380D03*
D21*
X130860040Y-80741380D03*
X129590040Y-80741380D03*
X128320040Y-80741380D03*
X127050040Y-80741380D03*
X125780040Y-80741380D03*
X124510040Y-80741380D03*
X123240040Y-80741380D03*
X121970040Y-80741380D03*
X120700040Y-80741380D03*
X119430040Y-80741380D03*
D20*
X116645040Y-79741380D03*
X116645040Y-78471380D03*
X116645040Y-77201380D03*
X116645040Y-75931380D03*
X116645040Y-74661380D03*
X116645040Y-73391380D03*
X116645040Y-72121380D03*
X116645040Y-70851380D03*
X116645040Y-69581380D03*
X116645040Y-68311380D03*
X116645040Y-67041380D03*
X116645040Y-65771380D03*
X116645040Y-64501380D03*
X116645040Y-63231380D03*
D22*
X124145040Y-70731380D03*
D15*
X135900000Y-108300000D03*
X137900000Y-107350000D03*
X137900000Y-109250000D03*
M02*
